<svg xmlns="http://www.w3.org/2000/svg" fill="none" viewBox="0 0 600 615" height="615" width="600">
<path fill="#231F20" d="M546.803 588.221H133.237V585.079H546.803V588.221Z"></path>
<path fill="#E7EBF0" d="M120.676 360.947C137.065 254.606 229.438 58.3179 364.927 137.244C481.245 205 401.204 287.201 496.846 321.027C660.119 378.773 518.22 622.251 320.178 580.19C122.136 538.13 105.435 459.863 120.676 360.947Z"></path>
<path fill="#E7EBF0" d="M449.092 172.198C441.409 210.963 454.879 283.217 530.647 307.948C606.414 332.677 580.107 273.22 530.647 224.813C481.187 176.407 460.668 113.793 449.092 172.198Z"></path>
<path fill="#ABBCCF" d="M450.759 464.926H485.143V448.096H450.759V464.926ZM487.37 467.15H448.53V445.871H487.37V467.15Z"></path>
<path fill="#ABBCCF" d="M477.358 483.979H511.744V467.149H477.358V483.979ZM513.971 486.204H475.131V464.925H513.971V486.204Z"></path>
<path fill="#ABBCCF" d="M354.98 282.033H389.364V265.205H354.98V282.033ZM391.591 284.26H352.751V262.978H391.591V284.26Z"></path>
<path fill="#ABBCCF" d="M286.721 516.974H321.105V500.143H286.721V516.974ZM323.332 519.198H284.492V497.916H323.332V519.198Z"></path>
<path fill="#ABBCCF" d="M323.371 516.974H357.757V500.143H323.371V516.974ZM359.986 519.198H321.145V497.916H359.986V519.198Z"></path>
<path fill="#ABBCCF" d="M305.027 536.029H339.411V519.199H305.027V536.029ZM341.64 538.254H302.798V516.974H341.64V538.254Z"></path>
<path fill="#ABBCCF" d="M230.397 394.573H264.781V377.745H230.397V394.573ZM267.01 396.798H228.168V375.518H267.01V396.798Z"></path>
<path fill="#ABBCCF" d="M203.797 413.63H238.182V396.8H203.797V413.63ZM240.408 415.854H201.568V394.575H240.408V415.854Z"></path>
<path fill="#ABBCCF" d="M165.492 307.029H199.877V290.203H165.492V307.029ZM202.104 309.258H163.265V287.974H202.104V309.258Z"></path>
<path fill="#ABBCCF" d="M202.147 307.029H236.532V290.203H202.147V307.029ZM238.759 309.258H199.92V287.974H238.759V309.258Z"></path>
<path fill="#ABBCCF" d="M183.801 326.085H218.186V309.26H183.801V326.085ZM220.413 328.314H181.573V307.031H220.413V328.314Z"></path>
<path fill="#4D9CF6" d="M490.946 276.072H171.215C162.674 276.072 155.869 283.223 156.294 291.756L170.066 568.301H492.096L505.867 291.756C506.292 283.223 499.49 276.072 490.946 276.072Z"></path>
<path fill="white" d="M185.428 552.158L172.482 292.217H489.681L476.736 552.158H185.428Z"></path>
<path fill="#231F20" d="M490.254 291.671H171.909L184.908 552.7H477.254L490.254 291.671ZM489.11 292.759L476.219 551.611H185.945L173.054 292.759H489.11Z"></path>
<path fill="#231F20" d="M209.48 561.326H178.548C176.6 561.326 175.02 562.906 175.02 564.854V567.547C175.02 569.495 176.6 571.077 178.548 571.077H209.48C211.429 571.077 213.009 569.495 213.009 567.547V564.854C213.009 562.906 211.429 561.326 209.48 561.326Z"></path>
<path fill="#231F20" d="M246.778 561.326H228.967C227.021 561.326 225.441 562.906 225.441 564.854V567.547C225.441 569.495 227.021 571.077 228.967 571.077H246.778C248.723 571.077 250.305 569.495 250.305 567.547V564.854C250.305 562.906 248.723 561.326 246.778 561.326Z"></path>
<path fill="#231F20" d="M302.032 561.326H261.201C259.253 561.326 257.673 562.906 257.673 564.854V567.547C257.673 569.495 259.253 571.077 261.201 571.077H302.032C303.982 571.077 305.56 569.495 305.56 567.547V564.854C305.56 562.906 303.982 561.326 302.032 561.326Z"></path>
<path fill="#231F20" d="M357.977 561.326H322.416C320.468 561.326 318.891 562.906 318.891 564.854V567.547C318.891 569.495 320.468 571.077 322.416 571.077H357.977C359.925 571.077 361.504 569.495 361.504 567.547V564.854C361.504 562.906 359.925 561.326 357.977 561.326Z"></path>
<path fill="#231F20" d="M392.961 561.326H375.153C373.203 561.326 371.625 562.906 371.625 564.854V567.547C371.625 569.495 373.203 571.077 375.153 571.077H392.961C394.909 571.077 396.489 569.495 396.489 567.547V564.854C396.489 562.906 394.909 561.326 392.961 561.326Z"></path>
<path fill="#231F20" d="M483.614 561.326H465.803C463.857 561.326 462.275 562.906 462.275 564.854V567.547C462.275 569.495 463.857 571.077 465.803 571.077H483.614C485.562 571.077 487.139 569.495 487.139 567.547V564.854C487.139 562.906 485.562 561.326 483.614 561.326Z"></path>
<path fill="#231F20" d="M448.217 561.326H407.384C405.436 561.326 403.858 562.906 403.858 564.854V567.547C403.858 569.495 405.436 571.077 407.384 571.077H448.217C450.165 571.077 451.743 569.495 451.743 567.547V564.854C451.743 562.906 450.165 561.326 448.217 561.326Z"></path>
<path fill="#4D9CF6" d="M512.422 585.078H149.741C147.524 585.078 145.724 583.281 145.724 581.065V572.318C145.724 570.1 147.524 568.3 149.741 568.3H512.422C514.643 568.3 516.44 570.1 516.44 572.318V581.065C516.44 583.281 514.643 585.078 512.422 585.078Z"></path>
<path fill="white" d="M157.771 504.756C153.845 504.756 150.65 501.555 150.65 497.622V277.634C150.65 272.541 154.789 268.399 159.874 268.399H451.239C456.331 268.399 460.476 272.535 460.476 277.623V497.622C460.476 501.555 457.275 504.756 453.342 504.756H157.771Z"></path>
<path fill="#231F20" d="M451.239 267.932H159.874C154.524 267.932 150.182 272.275 150.182 277.635V497.623C150.182 501.818 153.578 505.226 157.77 505.226H453.341C457.534 505.226 460.941 501.818 460.941 497.623V277.624C460.941 272.275 456.599 267.932 451.239 267.932ZM451.239 268.867C456.074 268.867 460.004 272.793 460.004 277.624V497.623C460.004 501.299 457.015 504.289 453.341 504.289H157.77C154.103 504.289 151.118 501.299 151.118 497.623V277.635C151.118 272.802 155.045 268.867 159.874 268.867H451.239Z"></path>
<path fill="#231F20" d="M460.938 301.342H150.178V277.63C150.178 272.272 154.521 267.93 159.879 267.93H451.238C456.596 267.93 460.938 272.272 460.938 277.63V301.342Z"></path>
<path fill="#F06F26" d="M203.628 284.634C203.628 281.799 205.925 279.503 208.758 279.503C211.593 279.503 213.891 281.799 213.891 284.634C213.891 287.469 211.593 289.766 208.758 289.766C205.925 289.766 203.628 287.469 203.628 284.634Z"></path>
<path fill="#F6C64D" d="M183.88 284.634C183.88 281.799 186.176 279.503 189.011 279.503C191.847 279.503 194.144 281.799 194.144 284.634C194.144 287.469 191.847 289.766 189.011 289.766C186.176 289.766 183.88 287.469 183.88 284.634Z"></path>
<path fill="white" d="M164.132 284.634C164.132 281.799 166.43 279.503 169.266 279.503C172.1 279.503 174.398 281.799 174.398 284.634C174.398 287.469 172.1 289.766 169.266 289.766C166.43 289.766 164.132 287.469 164.132 284.634Z"></path>
<path fill="white" d="M436.486 280.883L439.027 278.345L442.655 281.972L446.283 278.345L448.823 280.883L445.196 284.513L448.823 288.141L446.283 290.682L442.655 287.052L439.027 290.682L436.486 288.141L440.114 284.513L436.486 280.883Z"></path>
<path fill="#ABBCCF" d="M253.574 315.165L253.836 319.46H325.625L325.368 315.165H253.574Z"></path>
<path fill="#ABBCCF" d="M288.781 328.09L289.06 332.385H405.819L405.562 328.09H288.781Z"></path>
<path fill="#231F20" d="M253.762 328.09L254.019 332.385H283.735L283.454 328.09H253.762Z"></path>
<path fill="#ABBCCF" d="M253.432 341.014L253.691 345.311H313.124L312.697 341.014H253.432Z"></path>
<path fill="#231F20" d="M316.838 341.014L317.265 345.311H375.486L375.229 341.014H316.838Z"></path>
<path fill="#ABBCCF" d="M201.442 341.014L201.416 345.311H230.622L230.653 341.014H201.442Z"></path>
<path fill="#ABBCCF" d="M165.942 328.09L165.917 332.385H213.425L213.443 328.09H165.942Z"></path>
<path fill="#ABBCCF" d="M218.886 328.09L218.866 332.385H230.946L230.975 328.09H218.886Z"></path>
<path fill="#4D9CF6" d="M207.331 315.165L207.372 319.46H231.481L231.511 315.165H207.331Z"></path>
<path fill="#4D9CF6" d="M178.759 315.165L178.735 319.46H202.488L202.448 315.165H178.759Z"></path>
<path fill="#ABBCCF" d="M201.082 389.397L201.057 393.694H230.26L230.291 389.397H201.082Z"></path>
<path fill="#ABBCCF" d="M165.581 376.476L165.556 380.772H213.063L213.083 376.476H165.581Z"></path>
<path fill="#ABBCCF" d="M218.524 376.476L218.507 380.772H230.585L230.613 376.476H218.524Z"></path>
<path fill="#ABBCCF" d="M200.614 416.616L200.588 420.913H229.794L229.822 416.616H200.614Z"></path>
<path fill="#4D9CF6" d="M165.116 403.692L165.091 407.984H212.599L212.616 403.692H165.116Z"></path>
<path fill="#4D9CF6" d="M218.06 403.692L218.04 407.984H230.12L230.148 403.692H218.06Z"></path>
<path fill="#4D9CF6" d="M206.971 363.55L207.011 367.843H231.122L231.15 363.55H206.971Z"></path>
<path fill="#4D9CF6" d="M178.4 363.55L178.375 367.843H202.128L202.088 363.55H178.4Z"></path>
<path fill="#231F20" d="M332.751 315.165L333.012 319.46H354.8L354.54 315.165H332.751Z"></path>
<path fill="#ABBCCF" d="M413.083 328.09L413.34 332.385H448.212L447.953 328.09H413.083Z"></path>
<path fill="#ABBCCF" d="M381.895 341.014L382.152 345.311H417.505L417.244 341.014H381.895Z"></path>
<path fill="#ABBCCF" d="M364.301 315.165L364.815 319.46H426.388L425.873 315.165H364.301Z"></path>
<path fill="#ABBCCF" d="M253.212 363.55L253.473 367.843H325.265L325.006 363.55H253.212Z"></path>
<path fill="#ABBCCF" d="M288.423 376.476L288.7 380.772H405.458L405.201 376.476H288.423Z"></path>
<path fill="#ABBCCF" d="M253.4 376.476L253.66 380.772H283.376L283.095 376.476H253.4Z"></path>
<path fill="#ABBCCF" d="M253.068 389.397L253.328 393.694H312.763L312.336 389.397H253.068Z"></path>
<path fill="#ABBCCF" d="M316.479 389.397L316.907 393.694H375.128L374.869 389.397H316.479Z"></path>
<path fill="#ABBCCF" d="M332.392 363.55L332.651 367.843H354.438L354.177 363.55H332.392Z"></path>
<path fill="#ABBCCF" d="M412.72 376.476L412.977 380.772H447.851L447.589 376.476H412.72Z"></path>
<path fill="#231F20" d="M381.533 389.397L381.793 393.694H417.144L416.884 389.397H381.533Z"></path>
<path fill="#ABBCCF" d="M289.396 403.692L289.675 407.984H406.432L406.173 403.692H289.396Z"></path>
<path fill="#ABBCCF" d="M254.376 403.692L254.633 407.984H284.352L284.068 403.692H254.376Z"></path>
<path fill="#ABBCCF" d="M254.042 416.616L254.306 420.913H313.734L313.309 416.616H254.042Z"></path>
<path fill="#231F20" d="M317.452 416.616L317.877 420.913H376.101L375.841 416.616H317.452Z"></path>
<path fill="#231F20" d="M413.693 403.692L413.95 407.984H448.822L448.561 403.692H413.693Z"></path>
<path fill="#ABBCCF" d="M382.506 416.616L382.763 420.913H418.116L417.857 416.616H382.506Z"></path>
<path fill="#231F20" d="M363.938 363.55L364.452 367.843H426.024L425.512 363.55H363.938Z"></path>
<path fill="#ABBCCF" d="M200.123 461.131L200.097 465.426H229.303L229.332 461.131H200.123Z"></path>
<path fill="#ABBCCF" d="M164.624 448.208L164.599 452.503H212.108L212.125 448.208H164.624Z"></path>
<path fill="#ABBCCF" d="M217.565 448.208L217.548 452.503H229.626L229.656 448.208H217.565Z"></path>
<path fill="#ABBCCF" d="M199.657 488.349L199.631 492.646H228.838L228.866 488.349H199.657Z"></path>
<path fill="#4D9CF6" d="M164.158 475.424L164.132 479.721H211.64L211.66 475.424H164.158Z"></path>
<path fill="#4D9CF6" d="M217.101 475.424L217.084 479.721H229.162L229.19 475.424H217.101Z"></path>
<path fill="#4D9CF6" d="M206.014 435.28L206.054 439.577H230.164L230.193 435.28H206.014Z"></path>
<path fill="#4D9CF6" d="M177.442 435.28L177.416 439.577H201.169L201.129 435.28H177.442Z"></path>
<path fill="#ABBCCF" d="M252.256 435.28L252.515 439.577H324.307L324.048 435.28H252.256Z"></path>
<path fill="#ABBCCF" d="M287.464 448.208L287.741 452.503H404.502L404.242 448.208H287.464Z"></path>
<path fill="#ABBCCF" d="M252.441 448.208L252.701 452.503H282.417L282.136 448.208H252.441Z"></path>
<path fill="#ABBCCF" d="M252.109 461.131L252.369 465.426H311.804L311.377 461.131H252.109Z"></path>
<path fill="#ABBCCF" d="M315.521 461.131L315.946 465.426H374.168L373.908 461.131H315.521Z"></path>
<path fill="#ABBCCF" d="M331.432 435.28L331.693 439.577H353.478L353.219 435.28H331.432Z"></path>
<path fill="#ABBCCF" d="M411.761 448.208L412.02 452.503H446.892L446.63 448.208H411.761Z"></path>
<path fill="#231F20" d="M380.576 461.129L380.833 465.426H416.184L415.925 461.129H380.576Z"></path>
<path fill="#ABBCCF" d="M288.437 475.424L288.718 479.721H405.472L405.213 475.424H288.437Z"></path>
<path fill="#ABBCCF" d="M253.419 475.424L253.676 479.721H283.395L283.114 475.424H253.419Z"></path>
<path fill="#ABBCCF" d="M253.087 488.349L253.346 492.646H312.777L312.354 488.349H253.087Z"></path>
<path fill="#231F20" d="M316.493 488.349L316.918 492.646H375.142L374.882 488.349H316.493Z"></path>
<path fill="#231F20" d="M412.736 475.424L412.993 479.721H447.865L447.606 475.424H412.736Z"></path>
<path fill="#ABBCCF" d="M381.549 488.35L381.806 492.645H417.159L416.898 488.35H381.549Z"></path>
<path fill="#231F20" d="M362.979 435.28L363.493 439.577H425.065L424.553 435.28H362.979Z"></path>
<path fill="white" d="M392.44 536.909L392.501 420.305H409.288L486.686 420.37L486.625 515.028V536.931L392.44 536.909Z"></path>
<path fill="#231F20" d="M409.288 419.707H391.902L391.841 537.508L487.224 537.527V515.028L487.285 419.771L409.288 419.707ZM409.285 420.906L486.087 420.969L486.023 515.028V536.327L393.039 536.309L393.102 420.906H409.285Z"></path>
<path fill="#231F20" d="M478.519 437.424L399.449 437.404L399.451 435.273L478.521 435.288L478.519 437.424Z"></path>
<path fill="#231F20" d="M478.514 445.517L399.446 445.497L399.448 443.362L478.516 443.379L478.514 445.517Z"></path>
<path fill="#231F20" d="M478.512 453.608L399.442 453.589L399.445 451.453L478.512 451.471V453.608Z"></path>
<path fill="#231F20" d="M478.506 461.702L399.437 461.68L399.439 459.547L478.506 459.565V461.702Z"></path>
<path fill="#231F20" d="M478.503 469.791L399.436 469.771L399.438 467.638L478.503 467.658V469.791Z"></path>
<path fill="#231F20" d="M478.525 478.761L399.449 478.719L399.451 476.586L478.525 476.628V478.761Z"></path>
<path fill="#231F20" d="M478.522 486.849L399.446 486.809L399.448 484.674L478.522 484.715V486.849Z"></path>
<path fill="#231F20" d="M478.518 494.94L399.442 494.901L399.445 492.766L478.521 492.807L478.518 494.94Z"></path>
<path fill="#231F20" d="M478.513 503.034L399.437 502.995L399.439 500.86L478.515 500.901L478.513 503.034Z"></path>
<path fill="#231F20" d="M478.512 511.126L399.436 511.085L399.438 508.951L478.512 508.991V511.126Z"></path>
<path fill="#D9DBE0" d="M486.024 515.025L409.244 514.966V511.09L478.511 511.125V508.989L409.244 508.955V502.997L478.513 503.032L478.515 500.899L409.244 500.862V494.905L478.517 494.94L478.519 492.806L409.244 492.772V492.756L409.266 486.814L478.521 486.849V484.716L409.266 484.681V478.722L478.526 478.759V476.626L409.266 476.591V469.775L478.502 469.79V467.657L409.266 467.64V461.682L478.506 461.7V459.562L409.266 459.547V453.59L478.511 453.607V451.47L409.266 451.454V445.499L478.513 445.517L478.515 443.379L409.266 443.364V437.407L478.519 437.424L478.521 435.289L409.286 435.274L409.288 435.263V420.906L486.087 420.969L486.024 515.027"></path>
<path fill="#231F20" d="M487.224 515.027L486.023 515.025L486.086 420.969L409.285 420.906L409.287 419.707L487.285 419.77L487.224 515.027Z"></path>
<path fill="#231F20" d="M478.52 437.424L409.267 437.406V437.404L409.286 435.273L478.522 435.288L478.52 437.424Z"></path>
<path fill="#231F20" d="M478.513 445.517L409.267 445.499V443.364L478.516 443.379L478.513 445.517Z"></path>
<path fill="#231F20" d="M478.511 453.608L409.267 453.591V451.456L478.511 451.471V453.608Z"></path>
<path fill="#231F20" d="M478.507 461.702L409.267 461.685V459.549L478.507 459.565V461.702Z"></path>
<path fill="#231F20" d="M478.503 469.791L409.267 469.776V467.64L478.503 467.658V469.791Z"></path>
<path fill="#231F20" d="M478.527 478.761L409.267 478.724V476.593L478.527 476.628V478.761Z"></path>
<path fill="#231F20" d="M478.522 486.849L409.267 486.814V484.681L478.522 484.715V486.849Z"></path>
<path fill="#231F20" d="M478.517 494.94L409.244 494.906V492.772L478.519 492.807L478.517 494.94Z"></path>
<path fill="#231F20" d="M478.513 503.034L409.244 502.999V500.864L478.515 500.901L478.513 503.034Z"></path>
<path fill="#231F20" d="M478.511 511.126L409.244 511.091V508.956L478.511 508.991V511.126Z"></path>
<path fill="white" d="M416.805 509.49L416.861 405.382L429.632 392.92L511.044 392.962L510.983 509.533L416.805 509.49Z"></path>
<path fill="#231F20" d="M429.39 392.324L416.262 405.127L416.236 450.51L416.203 510.087L511.582 510.135L511.621 435.994L511.645 392.365L429.39 392.324ZM429.876 393.522L510.442 393.563L510.421 435.994L510.384 508.934L417.404 508.888L417.436 450.51L417.46 405.635L429.876 393.522Z"></path>
<path fill="#231F20" d="M502.887 410.017L423.819 409.995V407.862L502.889 407.883L502.887 410.017Z"></path>
<path fill="#231F20" d="M502.883 418.108L423.813 418.087V415.951L502.883 415.971V418.108Z"></path>
<path fill="#231F20" d="M502.878 426.197L423.811 426.178L423.813 424.042L502.88 424.062L502.878 426.197Z"></path>
<path fill="#231F20" d="M502.874 434.29L423.807 434.27L423.809 432.135L502.876 432.155L502.874 434.29Z"></path>
<path fill="#231F20" d="M502.869 442.382L423.804 442.362V440.227L502.871 440.249L502.869 442.382Z"></path>
<path fill="#231F20" d="M502.893 451.347L423.819 451.307L423.822 449.174L502.895 449.216L502.893 451.347Z"></path>
<path fill="#231F20" d="M502.887 459.441L423.813 459.4V457.265L502.89 457.306L502.887 459.441Z"></path>
<path fill="#231F20" d="M502.887 467.529L423.811 467.49L423.813 465.355L502.887 465.396V467.529Z"></path>
<path fill="#231F20" d="M502.883 475.621L423.807 475.58L423.809 473.447L502.885 473.488L502.883 475.621Z"></path>
<path fill="#231F20" d="M502.878 483.716L423.804 483.674V481.539L502.88 481.578L502.878 483.716Z"></path>
<path fill="white" d="M428.716 393.816L428.252 403.447L417.889 404.377L428.716 393.816Z"></path>
<path fill="#231F20" d="M429.389 392.323L416.263 405.124L428.822 403.995L429.389 392.323ZM428.042 395.312L427.676 402.895L419.514 403.629L428.042 395.312Z"></path>
<path fill="white" d="M295.888 511.652C292.397 511.652 288.403 510.26 283.682 507.401L283.3 507.172C274.19 501.653 274.19 501.653 271.129 493.768L270.97 493.362C270.63 492.48 273.316 490.551 276.136 489.218C281.01 493.358 284.148 495.206 286.285 495.206C288.399 495.206 289.297 493.524 290.251 491.739C290.8 490.708 291.367 489.643 292.216 488.752C292.665 488.283 293.367 486.344 295.049 481.611C299.814 468.2 309.735 440.288 321.393 434.335C322.776 433.629 323.707 433.298 324.319 433.298C325.214 433.298 325.5 434.069 326.164 436.455C326.4 437.309 326.676 438.3 327.058 439.416C330.854 450.522 326.053 475.547 317.178 490.907C310.154 503.054 304.514 511.652 295.888 511.652Z"></path>
<path fill="#231F20" d="M324.319 432.77C323.602 432.77 322.609 433.121 321.151 433.864C305.829 441.691 293.553 486.59 291.833 488.388C289.447 490.889 289.168 494.678 286.286 494.678C284.431 494.678 281.494 493.103 276.221 488.597C276.221 488.597 269.706 491.565 270.478 493.554C273.811 502.126 273.606 501.915 283.407 507.852C288.295 510.811 292.345 512.18 295.891 512.18C304.504 512.18 310.154 504.111 317.636 491.17C326.601 475.656 331.44 450.6 327.557 439.246C326.169 435.184 326.202 432.77 324.319 432.77ZM324.319 433.827C324.816 433.827 325.049 434.417 325.655 436.599C325.897 437.468 326.169 438.453 326.557 439.586C330.316 450.579 325.535 475.39 316.721 490.641C308.696 504.521 303.534 511.125 295.891 511.125C292.498 511.125 288.595 509.759 283.954 506.948L283.569 506.717C274.62 501.294 274.62 501.294 271.621 493.574L271.471 493.212C271.515 492.582 273.665 491.02 276.058 489.843C280.947 493.968 284.024 495.735 286.286 495.735C288.717 495.735 289.779 493.744 290.713 491.987C291.249 490.989 291.801 489.954 292.596 489.118C293.119 488.573 293.72 486.923 295.544 481.79C300.29 468.44 310.163 440.662 321.633 434.808C322.923 434.147 323.801 433.827 324.319 433.827Z"></path>
<path fill="#A861C5" d="M336.079 471.396C329.779 472.333 323.811 472.267 318.139 470.838C316.982 470.583 315.858 470.239 314.751 469.842C309.744 468.071 304.902 465.142 300.22 460.797C300.854 457.694 305.645 436.986 316.409 427.56C318.699 425.561 322.471 422.561 326.467 420.539C330.331 418.532 334.44 417.447 337.478 419.149C337.987 419.428 338.447 419.755 338.894 420.201C348.25 429.466 341.67 453.89 336.079 471.396Z"></path>
<path fill="#9CD1F2" d="M327.399 472.639C321.906 471.839 318.138 470.837 314.75 469.841C329.464 459.463 315.356 445.14 320.241 438.695C322.315 435.95 323.418 422.771 326.466 420.538C330.329 418.531 334.439 417.446 337.476 419.148C334.785 421.287 329.745 425.946 327.279 427.72C322.882 433.701 326.741 442.905 326.834 450.211C327.076 451.677 328.212 472.255 327.399 472.639Z"></path>
<path fill="#231F20" d="M440.312 522.97C428.136 521.573 388.383 527.347 347.972 525.578C314.343 524.107 278.815 514.762 271.718 516.174C249.251 520.654 246.166 539.266 248.09 538.769C256.034 536.784 347.903 589.622 356.002 589.218C373.972 588.319 391.044 578.481 405.913 569.17C423.885 557.9 422.163 546.561 438.61 533.246C439.573 532.439 441.769 523.14 440.312 522.97Z"></path>
<path fill="#231F20" d="M340.277 557.78C369.671 566.766 416.087 523.193 432.366 524.191C448.651 525.191 424.855 555.529 424.855 555.529L361.803 578.336C361.803 578.336 310.883 548.794 340.277 557.78Z"></path>
<path fill="#231F20" d="M264.792 522.13C296.564 526.486 313.209 545.175 342.605 554.158C371.996 563.144 361.801 578.336 361.801 578.336L311.051 572.782L268.63 550.232C268.63 550.232 252.25 520.411 264.792 522.13Z"></path>
<path fill="white" d="M353.325 587.371C348.08 587.371 343.094 586.711 338.501 585.414C335.819 584.654 334 583.185 333.095 581.05C331.056 576.228 334.087 569.255 335.052 567.253C338.262 569.698 352.037 580.048 355.556 580.294C358.393 580.49 360.515 581.24 361.273 581.54V586.82C360.21 586.983 357.264 587.371 353.325 587.371Z"></path>
<path fill="#231F20" d="M334.864 566.448C334.864 566.448 326.203 582.485 338.357 585.923C343.842 587.475 349.147 587.899 353.322 587.899C358.401 587.899 361.803 587.27 361.803 587.27V581.19C361.803 581.19 359.31 580.025 355.593 579.768C351.88 579.508 334.864 566.448 334.864 566.448ZM335.252 568.071C339.612 571.376 352.021 580.578 355.518 580.82C357.941 580.988 359.828 581.57 360.744 581.905V586.363C359.445 586.544 356.769 586.843 353.322 586.843C348.128 586.843 343.19 586.191 338.645 584.906C336.089 584.182 334.433 582.855 333.581 580.846C331.788 576.608 334.126 570.548 335.252 568.071Z"></path>
<path fill="#231F20" d="M355.592 577.401C291.025 545.626 261.538 498.293 245.274 535.049C226.369 577.776 344.695 591.144 348.388 588.701C349.377 588.028 354.995 581.029 355.592 577.401Z"></path>
<path fill="white" d="M354.245 587.127C350.07 587.127 346.411 586.552 344.845 586.264L348.39 581.514L348.392 581.516C348.457 581.516 350.159 580.523 352.584 580.292C355.108 580.054 369.702 571.953 373.709 569.706C373.478 572.805 372.175 582.673 365.013 585.432C362.082 586.556 358.461 587.127 354.245 587.127Z"></path>
<path fill="#231F20" d="M374.287 568.774C374.287 568.774 355.265 579.507 352.535 579.766C349.807 580.023 347.972 581.189 347.972 581.189L343.917 586.621C343.917 586.621 348.578 587.656 354.245 587.656C357.803 587.656 361.754 587.249 365.201 585.922C374.135 582.483 374.287 568.774 374.287 568.774ZM373.089 570.656C372.679 574.389 371.067 582.529 364.82 584.937C361.954 586.039 358.396 586.599 354.245 586.599C350.737 586.599 347.597 586.188 345.782 585.889L348.691 581.993C349.149 581.738 350.615 581.008 352.633 580.817C355.099 580.583 367.835 573.591 373.089 570.656Z"></path>
<path fill="#A861C5" d="M398.059 587.212C392.259 592.755 381.965 591.162 374.712 589.031L374.239 588.885L373.705 588.731L373.156 588.556C372.818 588.445 372.5 588.338 372.178 588.227L371.685 588.066C368.536 586.966 366.471 585.985 366.471 585.985C363.891 581.712 360.341 582.684 360.341 582.684C355.53 576.727 362.189 570.233 362.189 570.233L398.059 587.212Z"></path>
<path fill="#231F20" d="M371.824 582.675C370.889 584.377 370.863 586.336 371.687 588.068L372.179 588.229V588.164L372.171 588.129C371.264 586.462 371.284 584.516 372.199 582.849C372.328 582.621 371.953 582.437 371.824 582.675ZM374.478 584.011C373.654 585.538 373.58 587.297 374.241 588.887L374.713 589.033L374.705 588.979C373.992 587.425 374.038 585.706 374.853 584.185C374.979 583.956 374.605 583.784 374.478 584.011Z"></path>
<path fill="#231F20" d="M361.07 572.274L396.088 588.854C396.927 589.248 397.545 587.95 396.704 587.551L361.686 570.974C360.845 570.575 360.229 571.878 361.07 572.274Z"></path>
<path fill="#231F20" d="M355.593 576.602C403.046 544.824 440.136 504.468 450.869 532.173C467.105 574.066 363.605 590.34 360.89 587.898C360.162 587.226 356.033 580.23 355.593 576.602Z"></path>
<path fill="#A861C5" d="M304.521 520.499C304.521 520.499 336.199 545.825 404.095 524.454C404.095 524.454 406.036 409.604 343.459 415.348C297.826 419.538 311.786 471.162 304.521 520.499Z"></path>
<path fill="white" d="M345.761 421.015C342.091 421.012 340.237 417.169 339.806 416.136C343.586 410.97 342.98 406.882 342.569 405.418L353.278 402.526C352.975 409.521 354.344 414.247 354.747 415.476C351.391 419.149 348.367 421.015 345.761 421.015Z"></path>
<path fill="#231F20" d="M353.844 401.826L341.886 405.053C341.886 405.053 343.963 409.742 339.206 416.054C339.206 416.054 341.102 421.541 345.76 421.541C348.175 421.541 351.33 420.07 355.35 415.595C355.35 415.595 353.347 410.237 353.844 401.826ZM352.724 403.223C352.55 409.433 353.672 413.782 354.151 415.34C350.983 418.752 348.162 420.482 345.76 420.482C342.671 420.482 340.967 417.416 340.411 416.203C343.749 411.496 343.579 407.639 343.198 405.794L352.724 403.223Z"></path>
<path fill="#231F20" d="M404.096 524.455C404.096 524.455 405.425 475.311 378.24 433.279L370.218 422.552C370.218 422.552 343.573 438.025 364.182 489.779C368.705 501.145 381.04 530.288 381.04 530.288L404.096 524.455Z"></path>
<path fill="#A861C5" d="M353.297 582.812C353.297 582.812 349.793 581.678 347.011 585.821C347.011 585.821 344.899 586.701 341.696 587.642L341.193 587.79C340.901 587.871 340.6 587.954 340.287 588.037L340.088 588.091C339.766 588.172 339.439 588.263 339.108 588.339L338.633 588.457C331.279 590.242 320.922 591.331 315.396 585.511L352.044 570.298C352.044 570.298 358.383 577.114 353.297 582.812Z"></path>
<path fill="#231F20" d="M338.724 583.617C339.465 585.17 339.428 586.883 338.644 588.41L338.633 588.456L339.108 588.338C339.84 586.783 339.857 585.024 339.108 583.46C338.999 583.214 338.615 583.368 338.724 583.617ZM341.827 582.255C341.707 582.006 341.322 582.17 341.441 582.409C342.274 584.111 342.2 586.059 341.213 587.678L341.202 587.713L341.193 587.789L341.696 587.641C342.603 585.959 342.677 583.991 341.827 582.255Z"></path>
<path fill="#231F20" d="M353.074 572.388L317.29 587.244C316.433 587.599 315.878 586.268 316.736 585.911L352.523 571.057C353.379 570.701 353.933 572.033 353.074 572.388Z"></path>
<path fill="white" d="M318.393 509.531C313.957 508.536 307.102 508.969 304.04 513.003C302.567 514.946 303.805 515.927 305.76 514.855C309.527 512.778 312.761 512.504 306.954 515.256C305.781 515.813 303.635 517.537 304.056 518.413C304.94 520.265 308.854 517.742 310.712 516.875C312.501 516.957 308.475 519.709 308.113 520.625C306.487 524.769 314.114 519.827 314.665 520.187C316.206 521.187 310.525 523.708 313.375 524.479C315.513 525.059 319.677 520.631 321.474 520.084C322.947 519.64 324.255 520.35 325.041 518.748C326.795 515.168 320.267 509.952 318.393 509.531Z"></path>
<path fill="#231F20" d="M313.093 523.8C313.106 523.8 313.202 523.883 313.514 523.968C314.588 524.258 316.767 522.641 318.353 521.456C319.536 520.576 320.556 519.811 321.321 519.58C321.87 519.414 322.388 519.39 322.844 519.368C323.705 519.331 324.18 519.307 324.57 518.514C324.953 517.73 324.879 516.773 324.347 515.666C323.023 512.906 319.405 510.297 318.279 510.045C314.385 509.173 307.495 509.323 304.462 513.322C303.9 514.065 303.863 514.54 303.972 514.666C304.081 514.793 304.595 514.888 305.506 514.387C305.543 514.368 309.448 512.25 310.376 512.827L310.64 512.993L310.657 513.372C310.637 513.684 310.611 514.106 307.179 515.732C305.824 516.379 304.412 517.85 304.532 518.183L304.878 518.495C305.813 518.813 307.942 517.704 309.347 516.974C309.775 516.749 310.162 516.547 310.491 516.394L310.607 516.34L310.74 516.344C311.339 516.372 311.568 516.653 311.653 516.887C311.899 517.558 311.176 518.277 309.875 519.493C309.406 519.933 308.694 520.595 308.607 520.817C308.332 521.517 308.437 521.711 308.439 521.713C308.822 522.112 311.59 520.835 312.5 520.416C314.091 519.687 314.564 519.49 314.956 519.743C315.333 519.989 315.438 520.303 315.459 520.523C315.527 521.227 314.847 521.881 314.126 522.578C313.769 522.922 313.106 523.561 313.091 523.8H313.093ZM313.792 525.058L313.237 524.988C312.991 524.92 312.235 524.716 312.065 524.06C311.868 523.286 312.607 522.574 313.392 521.818C313.686 521.534 314.189 521.048 314.352 520.763C314.015 520.883 313.431 521.153 312.941 521.377C310.417 522.532 308.572 523.29 307.711 522.482C307.06 521.865 307.484 520.787 307.624 520.43C307.79 520.007 308.315 519.506 309.154 518.719C309.448 518.445 309.855 518.068 310.167 517.736L309.836 517.908C308.086 518.819 305.907 519.955 304.545 519.497C304.111 519.353 303.78 519.057 303.58 518.638C303.486 518.445 303.408 518.122 303.562 517.688C303.806 516.993 304.6 516.207 305.414 515.597C304.451 515.965 303.63 515.884 303.17 515.357C302.92 515.065 302.455 514.217 303.619 512.683C306.957 508.284 314.35 508.079 318.508 509.014C319.974 509.343 323.848 512.182 325.302 515.209C325.979 516.623 326.051 517.889 325.517 518.978C324.853 520.336 323.809 520.382 322.89 520.425C322.478 520.443 322.051 520.462 321.628 520.593C321.04 520.772 320.042 521.517 318.985 522.303C317.168 523.661 315.296 525.058 313.792 525.058Z"></path>
<path fill="white" d="M320.164 510.433C318.881 509.236 315.717 506.325 313.904 506.035C312.917 505.881 311.629 506.243 312.425 507.441C312.904 508.164 313.852 508.698 314.608 509.066C315.299 509.398 315.939 509.958 316.641 510.228C317.358 510.509 320.334 510.592 320.164 510.433Z"></path>
<path fill="#231F20" d="M313.47 506.53C313.08 506.53 312.777 506.632 312.714 506.732C312.69 506.769 312.71 506.913 312.867 507.148C313.337 507.863 314.468 508.408 314.839 508.589C315.159 508.743 315.473 508.944 315.782 509.147C316.144 509.38 316.488 509.602 316.83 509.733C317.148 509.859 318.096 509.942 318.878 509.972C316.523 507.865 314.823 506.717 313.821 506.556L313.47 506.53ZM319.295 511.04C318.131 511.04 316.614 510.785 316.447 510.718C316.004 510.548 315.599 510.286 315.209 510.033C314.935 509.855 314.662 509.678 314.379 509.537C313.623 509.173 312.553 508.589 311.984 507.73C311.468 506.955 311.664 506.416 311.825 506.164C312.25 505.497 313.25 505.399 313.987 505.514C315.8 505.804 318.586 508.238 320.523 510.044L320.844 510.345L320.615 510.733C320.473 510.962 319.937 511.04 319.295 511.04Z"></path>
<path fill="white" d="M369.973 522.927C347.776 522.927 325.529 520.092 322.023 519.626L322.348 512.176C322.952 512.076 324.314 511.853 325.943 511.59C370.285 504.438 390.97 499.155 391.037 494.962C391.061 493.792 388.429 490.402 382.949 483.457C374.898 473.256 362.733 457.842 360.656 448.997C358.911 441.652 360.645 435.521 362.101 431.544C363.43 427.92 366.552 425.844 370.673 425.844C372.893 425.844 375.198 426.458 377.338 427.618C390.139 434.551 404.971 450.985 413.406 467.584C422.497 485.477 428.081 499.165 417.121 512.365C411.386 519.275 395.083 522.927 369.973 522.927Z"></path>
<path fill="#231F20" d="M370.674 425.315C366.702 425.315 363.12 427.228 361.608 431.361C359.891 436.044 358.476 442.108 360.141 449.117C363.407 463.021 390.568 492.043 390.511 494.952C390.4 501.6 322.661 511.427 321.838 511.74L321.474 520.083C321.474 520.083 345.592 523.452 369.973 523.452C390.156 523.452 410.521 521.145 417.528 512.703C428.333 499.689 423.59 486.465 413.876 467.342C405.038 449.95 389.934 433.836 377.59 427.151C375.365 425.944 372.956 425.315 370.674 425.315ZM370.674 426.369C372.805 426.369 375.023 426.962 377.085 428.08C389.803 434.97 404.546 451.312 412.935 467.821C423.346 488.317 426.566 500.161 416.715 512.026C411.085 518.809 394.922 522.398 369.973 522.398C348.649 522.398 327.276 519.776 322.572 519.162L322.855 512.625C323.568 512.507 324.714 512.322 326.039 512.106C383.685 502.809 391.514 498.226 391.568 494.971C391.592 493.699 389.93 491.45 383.367 483.133C375.344 472.966 363.22 457.604 361.167 448.873C359.457 441.668 361.165 435.634 362.599 431.725C363.845 428.324 366.789 426.371 370.674 426.369Z"></path>
<path fill="#A861C5" d="M373.907 476.378C371.457 474.04 355.579 458.009 353.22 442.999C352.143 436.166 350.862 420.61 359.364 418.64C372.978 415.485 391.177 435.255 403.734 450.178C397.969 463.174 389.201 472.262 373.907 476.378Z"></path>
<path fill="white" d="M322.586 512.02C322.586 512.02 322.268 512.28 320.963 511.622C319.658 510.955 319.163 519.278 319.163 519.278L320.466 519.795C320.466 519.795 321.495 519.54 322.521 519.747C323.547 519.954 324.615 517.524 324.615 517.524L324.565 517.174L323.942 514.598L322.586 512.02Z"></path>
<path fill="white" d="M320.326 511.065L318.389 509.448L316.077 509.324L314.238 509.52L314.831 511.621L318.23 513.614L320.326 511.065Z"></path>
<path fill="white" d="M341.869 412.001C338.379 412.001 335.267 410.408 334.304 408.127C331.343 401.115 330.41 392.22 330.24 390.344L347.979 381.766C349.382 383.529 356.022 392.626 352.978 403.111C350.576 411.358 343.87 412.001 341.871 412.001H341.869Z"></path>
<path fill="#231F20" d="M348.123 381.108L329.683 390.029C329.683 390.029 330.434 400.322 333.818 408.334C334.888 410.866 338.207 412.528 341.872 412.528C346.439 412.528 351.54 409.948 353.483 403.257C356.989 391.199 348.123 381.108 348.123 381.108ZM347.825 382.428C349.589 384.742 355.296 393.236 352.468 402.963C350.173 410.857 343.776 411.472 341.872 411.472C338.584 411.472 335.673 410.014 334.792 407.924C332.021 401.359 331.04 393.105 330.803 390.663L347.825 382.428Z"></path>
<path fill="#231F20" d="M323.978 391.105C330.602 394.958 340.298 390.584 347.419 387.002C347.658 387.793 348.02 388.58 348.236 389.212C349.194 392.025 349.406 395.953 351.718 398.091C353.26 399.518 355.581 399.605 357.069 398.023C358.034 396.995 358.058 395.973 357.849 394.923C358.647 388.883 354.755 380.42 349.696 377.903C346.488 376.312 343.296 377.014 340.01 377.947C337.348 378.705 335.19 379.363 332.334 379.147C330.641 379.023 329.29 378.696 327.595 379.082C321.267 380.542 317.17 387.148 323.978 391.105Z"></path>
<path fill="#231F20" d="M332.317 524.588L372.36 526.658L334.13 537.378L332.317 524.588Z"></path>
<path fill="white" d="M334.656 537.776L371.868 527.341L372.019 530.058L334.647 541.48L334.656 537.776Z"></path>
<path fill="#231F20" d="M372.359 526.655L334.129 537.377L334.118 542.197L372.57 530.444L372.359 526.655ZM371.376 528.03L371.47 529.677L335.179 540.766L335.186 538.179L371.376 528.03Z"></path>
<path fill="white" d="M252.012 536.183L251.999 532.943L333.601 537.874L333.59 541.631L252.012 536.183Z"></path>
<path fill="#231F20" d="M251.47 532.381L251.487 536.678L334.119 542.197L334.13 537.377L251.47 532.381ZM252.531 533.503L333.073 538.373L333.065 541.066L252.54 535.689L252.531 533.503Z"></path>
<path fill="white" d="M251.468 532.382L334.129 537.378L327.76 492.474C327.559 490.921 326.28 489.727 324.718 489.633L248.701 485.038C246.65 484.915 244.994 486.687 245.258 488.729L251.468 532.382Z"></path>
<path fill="#231F20" d="M251.948 531.864L333.499 536.792L327.224 492.551C327.054 491.248 325.988 490.252 324.687 490.176L248.501 485.574C247.721 485.574 246.975 485.914 246.457 486.502C245.94 487.093 245.701 487.877 245.801 488.655L251.948 531.864ZM334.765 537.958L334.098 537.921L250.993 532.896L244.722 488.803C244.581 487.705 244.914 486.607 245.64 485.783C246.413 484.899 247.548 484.419 248.736 484.491L324.753 489.086C326.574 489.195 328.067 490.59 328.302 492.403L334.765 537.958Z"></path>
<path fill="#F06F26" d="M295.968 202.018C285.871 210.683 270.66 209.52 261.992 199.425C253.329 189.33 254.49 174.119 264.585 165.455C274.682 156.787 289.893 157.946 298.557 168.044C307.225 178.139 306.066 193.352 295.968 202.018ZM316.18 161.716L307.484 151.586L300.62 156.515C297.424 154.114 293.892 152.357 290.17 151.229L290.089 142.779L276.789 141.763L275.425 150.102C271.577 150.653 267.821 151.858 264.295 153.743L258.257 147.832L248.127 156.528L253.056 163.389C250.668 166.579 248.899 170.12 247.768 173.84L239.32 173.922L238.305 187.221L246.644 188.587C247.195 192.433 248.4 196.191 250.287 199.717L244.373 205.752L253.069 215.882L259.933 210.954C263.121 213.342 266.661 215.111 270.379 216.242L270.466 224.692L283.764 225.705L285.13 217.368C288.974 216.815 292.746 215.603 296.258 213.725L302.294 219.637L312.424 210.94L307.497 204.079C309.896 200.88 311.654 197.348 312.783 193.633L321.233 193.548L322.246 180.248L313.91 178.882C313.356 175.036 312.143 171.266 310.267 167.754L316.18 161.716Z"></path>
<path fill="#A861C5" d="M367.847 237.185C361.258 242.841 351.331 242.081 345.674 235.494C340.018 228.905 340.776 218.978 347.365 213.323C353.954 207.665 363.882 208.423 369.538 215.012C375.195 221.603 374.437 231.531 367.847 237.185ZM381.039 210.883L375.365 204.272L370.883 207.49C368.797 205.921 366.492 204.775 364.065 204.037L364.01 198.524L355.329 197.859L354.44 203.302C351.93 203.662 349.477 204.448 347.176 205.68L343.236 201.823L336.623 207.495L339.841 211.975C338.283 214.058 337.126 216.369 336.39 218.795L330.877 218.849L330.215 227.528L335.656 228.421C336.017 230.929 336.802 233.383 338.033 235.684L334.174 239.623L339.848 246.234L344.328 243.018C346.409 244.578 348.721 245.733 351.146 246.469L351.205 251.982L359.881 252.645L360.772 247.204C363.283 246.844 365.745 246.053 368.037 244.827L371.976 248.688L378.587 243.009L375.371 238.529C376.938 236.444 378.086 234.139 378.823 231.714L384.335 231.657L384.998 222.978L379.555 222.085C379.195 219.577 378.404 217.115 377.18 214.825L381.039 210.883Z"></path>
<path fill="black" d="M18.6 78V61.4H56.2V206H37.8V78H18.6Z"></path>
</svg>
