<svg xmlns="http://www.w3.org/2000/svg" fill="none" viewBox="0 0 600 615" height="615" width="600">
<path fill="#231F20" d="M546.803 505.221H133.237V502.079H546.803V505.221Z"></path>
<path fill="#E7EBF0" d="M120.676 277.947C137.065 171.606 229.438 -24.6821 364.927 54.2437C481.245 122 401.204 204.201 496.846 238.027C660.119 295.773 518.22 539.251 320.178 497.19C122.136 455.13 105.435 376.863 120.676 277.947Z"></path>
<path fill="#E7EBF0" d="M449.092 89.1977C441.409 127.963 454.879 200.217 530.647 224.948C606.414 249.677 580.107 190.22 530.647 141.813C481.187 93.4074 460.668 30.7932 449.092 89.1977Z"></path>
<path fill="#ABBCCF" d="M450.759 381.926H485.143V365.096H450.759V381.926ZM487.37 384.15H448.53V362.871H487.37V384.15Z"></path>
<path fill="#ABBCCF" d="M477.358 400.979H511.744V384.149H477.358V400.979ZM513.971 403.204H475.131V381.925H513.971V403.204Z"></path>
<path fill="#ABBCCF" d="M354.98 199.033H389.364V182.205H354.98V199.033ZM391.591 201.26H352.751V179.978H391.591V201.26Z"></path>
<path fill="#ABBCCF" d="M286.721 433.974H321.105V417.143H286.721V433.974ZM323.332 436.198H284.492V414.916H323.332V436.198Z"></path>
<path fill="#ABBCCF" d="M323.371 433.974H357.757V417.143H323.371V433.974ZM359.986 436.198H321.145V414.916H359.986V436.198Z"></path>
<path fill="#ABBCCF" d="M305.027 453.029H339.411V436.199H305.027V453.029ZM341.64 455.254H302.798V433.974H341.64V455.254Z"></path>
<path fill="#ABBCCF" d="M230.397 311.573H264.781V294.745H230.397V311.573ZM267.01 313.798H228.168V292.518H267.01V313.798Z"></path>
<path fill="#ABBCCF" d="M203.797 330.63H238.182V313.8H203.797V330.63ZM240.408 332.854H201.568V311.575H240.408V332.854Z"></path>
<path fill="#ABBCCF" d="M165.492 224.029H199.877V207.203H165.492V224.029ZM202.104 226.258H163.265V204.974H202.104V226.258Z"></path>
<path fill="#ABBCCF" d="M202.147 224.029H236.532V207.203H202.147V224.029ZM238.759 226.258H199.92V204.974H238.759V226.258Z"></path>
<path fill="#ABBCCF" d="M183.801 243.085H218.186V226.26H183.801V243.085ZM220.413 245.314H181.573V224.031H220.413V245.314Z"></path>
<path fill="#4D9CF6" d="M490.946 193.072H171.215C162.674 193.072 155.869 200.223 156.294 208.756L170.066 485.301H492.096L505.867 208.756C506.292 200.223 499.49 193.072 490.946 193.072Z"></path>
<path fill="white" d="M185.428 469.158L172.482 209.217H489.681L476.736 469.158H185.428Z"></path>
<path fill="#231F20" d="M490.254 208.671H171.909L184.908 469.7H477.254L490.254 208.671ZM489.11 209.759L476.219 468.611H185.945L173.054 209.759H489.11Z"></path>
<path fill="#231F20" d="M209.48 478.326H178.548C176.6 478.326 175.02 479.906 175.02 481.854V484.547C175.02 486.495 176.6 488.077 178.548 488.077H209.48C211.429 488.077 213.009 486.495 213.009 484.547V481.854C213.009 479.906 211.429 478.326 209.48 478.326Z"></path>
<path fill="#231F20" d="M246.778 478.326H228.967C227.021 478.326 225.441 479.906 225.441 481.854V484.547C225.441 486.495 227.021 488.077 228.967 488.077H246.778C248.723 488.077 250.305 486.495 250.305 484.547V481.854C250.305 479.906 248.723 478.326 246.778 478.326Z"></path>
<path fill="#231F20" d="M302.032 478.326H261.201C259.253 478.326 257.673 479.906 257.673 481.854V484.547C257.673 486.495 259.253 488.077 261.201 488.077H302.032C303.982 488.077 305.56 486.495 305.56 484.547V481.854C305.56 479.906 303.982 478.326 302.032 478.326Z"></path>
<path fill="#231F20" d="M357.977 478.326H322.416C320.468 478.326 318.891 479.906 318.891 481.854V484.547C318.891 486.495 320.468 488.077 322.416 488.077H357.977C359.925 488.077 361.504 486.495 361.504 484.547V481.854C361.504 479.906 359.925 478.326 357.977 478.326Z"></path>
<path fill="#231F20" d="M392.961 478.326H375.153C373.203 478.326 371.625 479.906 371.625 481.854V484.547C371.625 486.495 373.203 488.077 375.153 488.077H392.961C394.909 488.077 396.489 486.495 396.489 484.547V481.854C396.489 479.906 394.909 478.326 392.961 478.326Z"></path>
<path fill="#231F20" d="M483.614 478.326H465.803C463.857 478.326 462.275 479.906 462.275 481.854V484.547C462.275 486.495 463.857 488.077 465.803 488.077H483.614C485.562 488.077 487.139 486.495 487.139 484.547V481.854C487.139 479.906 485.562 478.326 483.614 478.326Z"></path>
<path fill="#231F20" d="M448.217 478.326H407.384C405.436 478.326 403.858 479.906 403.858 481.854V484.547C403.858 486.495 405.436 488.077 407.384 488.077H448.217C450.165 488.077 451.743 486.495 451.743 484.547V481.854C451.743 479.906 450.165 478.326 448.217 478.326Z"></path>
<path fill="#4D9CF6" d="M512.422 502.078H149.741C147.524 502.078 145.724 500.281 145.724 498.065V489.318C145.724 487.1 147.524 485.3 149.741 485.3H512.422C514.643 485.3 516.44 487.1 516.44 489.318V498.065C516.44 500.281 514.643 502.078 512.422 502.078Z"></path>
<path fill="white" d="M157.771 421.756C153.845 421.756 150.65 418.555 150.65 414.622V194.634C150.65 189.541 154.789 185.399 159.874 185.399H451.239C456.331 185.399 460.476 189.535 460.476 194.623V414.622C460.476 418.555 457.275 421.756 453.342 421.756H157.771Z"></path>
<path fill="#231F20" d="M451.239 184.932H159.874C154.524 184.932 150.182 189.275 150.182 194.635V414.623C150.182 418.818 153.578 422.226 157.77 422.226H453.341C457.534 422.226 460.941 418.818 460.941 414.623V194.624C460.941 189.275 456.599 184.932 451.239 184.932ZM451.239 185.867C456.074 185.867 460.004 189.793 460.004 194.624V414.623C460.004 418.299 457.015 421.289 453.341 421.289H157.77C154.103 421.289 151.118 418.299 151.118 414.623V194.635C151.118 189.802 155.045 185.867 159.874 185.867H451.239Z"></path>
<path fill="#231F20" d="M460.938 218.342H150.178V194.63C150.178 189.272 154.521 184.93 159.879 184.93H451.238C456.596 184.93 460.938 189.272 460.938 194.63V218.342Z"></path>
<path fill="#F06F26" d="M203.628 201.634C203.628 198.799 205.925 196.503 208.758 196.503C211.593 196.503 213.891 198.799 213.891 201.634C213.891 204.469 211.593 206.766 208.758 206.766C205.925 206.766 203.628 204.469 203.628 201.634Z"></path>
<path fill="#F6C64D" d="M183.88 201.634C183.88 198.799 186.176 196.503 189.011 196.503C191.847 196.503 194.144 198.799 194.144 201.634C194.144 204.469 191.847 206.766 189.011 206.766C186.176 206.766 183.88 204.469 183.88 201.634Z"></path>
<path fill="white" d="M164.132 201.634C164.132 198.799 166.43 196.503 169.266 196.503C172.1 196.503 174.398 198.799 174.398 201.634C174.398 204.469 172.1 206.766 169.266 206.766C166.43 206.766 164.132 204.469 164.132 201.634Z"></path>
<path fill="white" d="M436.486 197.883L439.027 195.345L442.655 198.972L446.283 195.345L448.823 197.883L445.196 201.513L448.823 205.141L446.283 207.682L442.655 204.052L439.027 207.682L436.486 205.141L440.114 201.513L436.486 197.883Z"></path>
<path fill="#ABBCCF" d="M253.574 232.165L253.836 236.46H325.625L325.368 232.165H253.574Z"></path>
<path fill="#ABBCCF" d="M288.781 245.09L289.06 249.385H405.819L405.562 245.09H288.781Z"></path>
<path fill="#231F20" d="M253.762 245.09L254.019 249.385H283.735L283.454 245.09H253.762Z"></path>
<path fill="#ABBCCF" d="M253.432 258.014L253.691 262.311H313.124L312.697 258.014H253.432Z"></path>
<path fill="#231F20" d="M316.838 258.014L317.265 262.311H375.486L375.229 258.014H316.838Z"></path>
<path fill="#ABBCCF" d="M201.442 258.014L201.416 262.311H230.622L230.653 258.014H201.442Z"></path>
<path fill="#ABBCCF" d="M165.942 245.09L165.917 249.385H213.425L213.443 245.09H165.942Z"></path>
<path fill="#ABBCCF" d="M218.886 245.09L218.866 249.385H230.946L230.975 245.09H218.886Z"></path>
<path fill="#4D9CF6" d="M207.331 232.165L207.372 236.46H231.481L231.511 232.165H207.331Z"></path>
<path fill="#4D9CF6" d="M178.759 232.165L178.735 236.46H202.488L202.448 232.165H178.759Z"></path>
<path fill="#ABBCCF" d="M201.082 306.397L201.057 310.694H230.26L230.291 306.397H201.082Z"></path>
<path fill="#ABBCCF" d="M165.581 293.476L165.556 297.772H213.063L213.083 293.476H165.581Z"></path>
<path fill="#ABBCCF" d="M218.524 293.476L218.507 297.772H230.585L230.613 293.476H218.524Z"></path>
<path fill="#ABBCCF" d="M200.614 333.616L200.588 337.913H229.794L229.822 333.616H200.614Z"></path>
<path fill="#4D9CF6" d="M165.116 320.692L165.091 324.984H212.599L212.616 320.692H165.116Z"></path>
<path fill="#4D9CF6" d="M218.06 320.692L218.04 324.984H230.12L230.148 320.692H218.06Z"></path>
<path fill="#4D9CF6" d="M206.971 280.55L207.011 284.843H231.122L231.15 280.55H206.971Z"></path>
<path fill="#4D9CF6" d="M178.4 280.55L178.375 284.843H202.128L202.088 280.55H178.4Z"></path>
<path fill="#231F20" d="M332.751 232.165L333.012 236.46H354.8L354.54 232.165H332.751Z"></path>
<path fill="#ABBCCF" d="M413.083 245.09L413.34 249.385H448.212L447.953 245.09H413.083Z"></path>
<path fill="#ABBCCF" d="M381.895 258.014L382.152 262.311H417.505L417.244 258.014H381.895Z"></path>
<path fill="#ABBCCF" d="M364.301 232.165L364.815 236.46H426.388L425.873 232.165H364.301Z"></path>
<path fill="#ABBCCF" d="M253.212 280.55L253.473 284.843H325.265L325.006 280.55H253.212Z"></path>
<path fill="#ABBCCF" d="M288.423 293.476L288.7 297.772H405.458L405.201 293.476H288.423Z"></path>
<path fill="#ABBCCF" d="M253.4 293.476L253.66 297.772H283.376L283.095 293.476H253.4Z"></path>
<path fill="#ABBCCF" d="M253.068 306.397L253.328 310.694H312.763L312.336 306.397H253.068Z"></path>
<path fill="#ABBCCF" d="M316.479 306.397L316.907 310.694H375.128L374.869 306.397H316.479Z"></path>
<path fill="#ABBCCF" d="M332.392 280.55L332.651 284.843H354.438L354.177 280.55H332.392Z"></path>
<path fill="#ABBCCF" d="M412.72 293.476L412.977 297.772H447.851L447.589 293.476H412.72Z"></path>
<path fill="#231F20" d="M381.533 306.397L381.793 310.694H417.144L416.884 306.397H381.533Z"></path>
<path fill="#ABBCCF" d="M289.396 320.692L289.675 324.984H406.432L406.173 320.692H289.396Z"></path>
<path fill="#ABBCCF" d="M254.376 320.692L254.633 324.984H284.352L284.068 320.692H254.376Z"></path>
<path fill="#ABBCCF" d="M254.042 333.616L254.306 337.913H313.734L313.309 333.616H254.042Z"></path>
<path fill="#231F20" d="M317.452 333.616L317.877 337.913H376.101L375.841 333.616H317.452Z"></path>
<path fill="#231F20" d="M413.693 320.692L413.95 324.984H448.822L448.561 320.692H413.693Z"></path>
<path fill="#ABBCCF" d="M382.506 333.616L382.763 337.913H418.116L417.857 333.616H382.506Z"></path>
<path fill="#231F20" d="M363.938 280.55L364.452 284.843H426.024L425.512 280.55H363.938Z"></path>
<path fill="#ABBCCF" d="M200.123 378.131L200.097 382.426H229.303L229.332 378.131H200.123Z"></path>
<path fill="#ABBCCF" d="M164.624 365.208L164.599 369.503H212.108L212.125 365.208H164.624Z"></path>
<path fill="#ABBCCF" d="M217.565 365.208L217.548 369.503H229.626L229.656 365.208H217.565Z"></path>
<path fill="#ABBCCF" d="M199.657 405.349L199.631 409.646H228.838L228.866 405.349H199.657Z"></path>
<path fill="#4D9CF6" d="M164.158 392.424L164.132 396.721H211.64L211.66 392.424H164.158Z"></path>
<path fill="#4D9CF6" d="M217.101 392.424L217.084 396.721H229.162L229.19 392.424H217.101Z"></path>
<path fill="#4D9CF6" d="M206.014 352.28L206.054 356.577H230.164L230.193 352.28H206.014Z"></path>
<path fill="#4D9CF6" d="M177.442 352.28L177.416 356.577H201.169L201.129 352.28H177.442Z"></path>
<path fill="#ABBCCF" d="M252.256 352.28L252.515 356.577H324.307L324.048 352.28H252.256Z"></path>
<path fill="#ABBCCF" d="M287.464 365.208L287.741 369.503H404.502L404.242 365.208H287.464Z"></path>
<path fill="#ABBCCF" d="M252.441 365.208L252.701 369.503H282.417L282.136 365.208H252.441Z"></path>
<path fill="#ABBCCF" d="M252.109 378.131L252.369 382.426H311.804L311.377 378.131H252.109Z"></path>
<path fill="#ABBCCF" d="M315.521 378.131L315.946 382.426H374.168L373.908 378.131H315.521Z"></path>
<path fill="#ABBCCF" d="M331.432 352.28L331.693 356.577H353.478L353.219 352.28H331.432Z"></path>
<path fill="#ABBCCF" d="M411.761 365.208L412.02 369.503H446.892L446.63 365.208H411.761Z"></path>
<path fill="#231F20" d="M380.576 378.129L380.833 382.426H416.184L415.925 378.129H380.576Z"></path>
<path fill="#ABBCCF" d="M288.437 392.424L288.718 396.721H405.472L405.213 392.424H288.437Z"></path>
<path fill="#ABBCCF" d="M253.419 392.424L253.676 396.721H283.395L283.114 392.424H253.419Z"></path>
<path fill="#ABBCCF" d="M253.087 405.349L253.346 409.646H312.777L312.354 405.349H253.087Z"></path>
<path fill="#231F20" d="M316.493 405.349L316.918 409.646H375.142L374.882 405.349H316.493Z"></path>
<path fill="#231F20" d="M412.736 392.424L412.993 396.721H447.865L447.606 392.424H412.736Z"></path>
<path fill="#ABBCCF" d="M381.549 405.35L381.806 409.645H417.159L416.898 405.35H381.549Z"></path>
<path fill="#231F20" d="M362.979 352.28L363.493 356.577H425.065L424.553 352.28H362.979Z"></path>
<path fill="white" d="M392.44 453.909L392.501 337.305H409.288L486.686 337.37L486.625 432.028V453.931L392.44 453.909Z"></path>
<path fill="#231F20" d="M409.288 336.707H391.902L391.841 454.508L487.224 454.527V432.028L487.285 336.771L409.288 336.707ZM409.285 337.906L486.087 337.969L486.023 432.028V453.327L393.039 453.309L393.102 337.906H409.285Z"></path>
<path fill="#231F20" d="M478.519 354.424L399.449 354.404L399.451 352.273L478.521 352.288L478.519 354.424Z"></path>
<path fill="#231F20" d="M478.514 362.517L399.446 362.497L399.448 360.362L478.516 360.379L478.514 362.517Z"></path>
<path fill="#231F20" d="M478.512 370.608L399.442 370.589L399.445 368.453L478.512 368.471V370.608Z"></path>
<path fill="#231F20" d="M478.506 378.702L399.437 378.68L399.439 376.547L478.506 376.565V378.702Z"></path>
<path fill="#231F20" d="M478.503 386.791L399.436 386.771L399.438 384.638L478.503 384.658V386.791Z"></path>
<path fill="#231F20" d="M478.525 395.761L399.449 395.719L399.451 393.586L478.525 393.628V395.761Z"></path>
<path fill="#231F20" d="M478.522 403.849L399.446 403.809L399.448 401.674L478.522 401.715V403.849Z"></path>
<path fill="#231F20" d="M478.518 411.94L399.442 411.901L399.445 409.766L478.521 409.807L478.518 411.94Z"></path>
<path fill="#231F20" d="M478.513 420.034L399.437 419.995L399.439 417.86L478.515 417.901L478.513 420.034Z"></path>
<path fill="#231F20" d="M478.512 428.126L399.436 428.085L399.438 425.951L478.512 425.991V428.126Z"></path>
<path fill="#D9DBE0" d="M486.024 432.025L409.244 431.966V428.09L478.511 428.125V425.989L409.244 425.955V419.997L478.513 420.032L478.515 417.899L409.244 417.862V411.905L478.517 411.94L478.519 409.806L409.244 409.772V409.756L409.266 403.814L478.521 403.849V401.716L409.266 401.681V395.722L478.526 395.759V393.626L409.266 393.591V386.775L478.502 386.79V384.657L409.266 384.64V378.682L478.506 378.7V376.562L409.266 376.547V370.59L478.511 370.607V368.47L409.266 368.454V362.499L478.513 362.517L478.515 360.379L409.266 360.364V354.407L478.519 354.424L478.521 352.289L409.286 352.274L409.288 352.263V337.906L486.087 337.969L486.024 432.027"></path>
<path fill="#231F20" d="M487.224 432.027L486.023 432.025L486.086 337.969L409.285 337.906L409.287 336.707L487.285 336.77L487.224 432.027Z"></path>
<path fill="#231F20" d="M478.52 354.424L409.267 354.406V354.404L409.286 352.273L478.522 352.288L478.52 354.424Z"></path>
<path fill="#231F20" d="M478.513 362.517L409.267 362.499V360.364L478.516 360.379L478.513 362.517Z"></path>
<path fill="#231F20" d="M478.511 370.608L409.267 370.591V368.456L478.511 368.471V370.608Z"></path>
<path fill="#231F20" d="M478.507 378.702L409.267 378.685V376.549L478.507 376.565V378.702Z"></path>
<path fill="#231F20" d="M478.503 386.791L409.267 386.776V384.64L478.503 384.658V386.791Z"></path>
<path fill="#231F20" d="M478.527 395.761L409.267 395.724V393.593L478.527 393.628V395.761Z"></path>
<path fill="#231F20" d="M478.522 403.849L409.267 403.814V401.681L478.522 401.715V403.849Z"></path>
<path fill="#231F20" d="M478.517 411.94L409.244 411.906V409.772L478.519 409.807L478.517 411.94Z"></path>
<path fill="#231F20" d="M478.513 420.034L409.244 419.999V417.864L478.515 417.901L478.513 420.034Z"></path>
<path fill="#231F20" d="M478.511 428.126L409.244 428.091V425.956L478.511 425.991V428.126Z"></path>
<path fill="white" d="M416.805 426.49L416.861 322.382L429.632 309.92L511.044 309.962L510.983 426.533L416.805 426.49Z"></path>
<path fill="#231F20" d="M429.39 309.324L416.262 322.127L416.236 367.51L416.203 427.087L511.582 427.135L511.621 352.994L511.645 309.365L429.39 309.324ZM429.876 310.522L510.442 310.563L510.421 352.994L510.384 425.934L417.404 425.888L417.436 367.51L417.46 322.635L429.876 310.522Z"></path>
<path fill="#231F20" d="M502.887 327.017L423.819 326.995V324.862L502.889 324.883L502.887 327.017Z"></path>
<path fill="#231F20" d="M502.883 335.108L423.813 335.087V332.951L502.883 332.971V335.108Z"></path>
<path fill="#231F20" d="M502.878 343.197L423.811 343.178L423.813 341.042L502.88 341.062L502.878 343.197Z"></path>
<path fill="#231F20" d="M502.874 351.29L423.807 351.27L423.809 349.135L502.876 349.155L502.874 351.29Z"></path>
<path fill="#231F20" d="M502.869 359.382L423.804 359.362V357.227L502.871 357.249L502.869 359.382Z"></path>
<path fill="#231F20" d="M502.893 368.347L423.819 368.307L423.822 366.174L502.895 366.216L502.893 368.347Z"></path>
<path fill="#231F20" d="M502.887 376.441L423.813 376.4V374.265L502.89 374.306L502.887 376.441Z"></path>
<path fill="#231F20" d="M502.887 384.529L423.811 384.49L423.813 382.355L502.887 382.396V384.529Z"></path>
<path fill="#231F20" d="M502.883 392.621L423.807 392.58L423.809 390.447L502.885 390.488L502.883 392.621Z"></path>
<path fill="#231F20" d="M502.878 400.716L423.804 400.674V398.539L502.88 398.578L502.878 400.716Z"></path>
<path fill="white" d="M428.716 310.816L428.252 320.447L417.889 321.377L428.716 310.816Z"></path>
<path fill="#231F20" d="M429.389 309.323L416.263 322.124L428.822 320.995L429.389 309.323ZM428.042 312.312L427.676 319.895L419.514 320.629L428.042 312.312Z"></path>
<path fill="white" d="M295.888 428.652C292.397 428.652 288.403 427.26 283.682 424.401L283.3 424.172C274.19 418.653 274.19 418.653 271.129 410.768L270.97 410.362C270.63 409.48 273.316 407.551 276.136 406.218C281.01 410.358 284.148 412.206 286.285 412.206C288.399 412.206 289.297 410.524 290.251 408.739C290.8 407.708 291.367 406.643 292.216 405.752C292.665 405.283 293.367 403.344 295.049 398.611C299.814 385.2 309.735 357.288 321.393 351.335C322.776 350.629 323.707 350.298 324.319 350.298C325.214 350.298 325.5 351.069 326.164 353.455C326.4 354.309 326.676 355.3 327.058 356.416C330.854 367.522 326.053 392.547 317.178 407.907C310.154 420.054 304.514 428.652 295.888 428.652Z"></path>
<path fill="#231F20" d="M324.319 349.77C323.602 349.77 322.609 350.121 321.151 350.864C305.829 358.691 293.553 403.59 291.833 405.388C289.447 407.889 289.168 411.678 286.286 411.678C284.431 411.678 281.494 410.103 276.221 405.597C276.221 405.597 269.706 408.565 270.478 410.554C273.811 419.126 273.606 418.915 283.407 424.852C288.295 427.811 292.345 429.18 295.891 429.18C304.504 429.18 310.154 421.111 317.636 408.17C326.601 392.656 331.44 367.6 327.557 356.246C326.169 352.184 326.202 349.77 324.319 349.77ZM324.319 350.827C324.816 350.827 325.049 351.417 325.655 353.599C325.897 354.468 326.169 355.453 326.557 356.586C330.316 367.579 325.535 392.39 316.721 407.641C308.696 421.521 303.534 428.125 295.891 428.125C292.498 428.125 288.595 426.759 283.954 423.948L283.569 423.717C274.62 418.294 274.62 418.294 271.621 410.574L271.471 410.212C271.515 409.582 273.665 408.02 276.058 406.843C280.947 410.968 284.024 412.735 286.286 412.735C288.717 412.735 289.779 410.744 290.713 408.987C291.249 407.989 291.801 406.954 292.596 406.118C293.119 405.573 293.72 403.923 295.544 398.79C300.29 385.44 310.163 357.662 321.633 351.808C322.923 351.147 323.801 350.827 324.319 350.827Z"></path>
<path fill="#A861C5" d="M336.079 388.396C329.779 389.333 323.811 389.267 318.139 387.838C316.982 387.583 315.858 387.239 314.751 386.842C309.744 385.071 304.902 382.142 300.22 377.797C300.854 374.694 305.645 353.986 316.409 344.56C318.699 342.561 322.471 339.561 326.467 337.539C330.331 335.532 334.44 334.447 337.478 336.149C337.987 336.428 338.447 336.755 338.894 337.201C348.25 346.466 341.67 370.89 336.079 388.396Z"></path>
<path fill="#9CD1F2" d="M327.399 389.639C321.906 388.839 318.138 387.837 314.75 386.841C329.464 376.463 315.356 362.14 320.241 355.695C322.315 352.95 323.418 339.771 326.466 337.538C330.329 335.531 334.439 334.446 337.476 336.148C334.785 338.287 329.745 342.946 327.279 344.72C322.882 350.701 326.741 359.905 326.834 367.211C327.076 368.677 328.212 389.255 327.399 389.639Z"></path>
<path fill="#231F20" d="M440.312 439.97C428.136 438.573 388.383 444.347 347.972 442.578C314.343 441.107 278.815 431.762 271.718 433.174C249.251 437.654 246.166 456.266 248.09 455.769C256.034 453.784 347.903 506.622 356.002 506.218C373.972 505.319 391.044 495.481 405.913 486.17C423.885 474.9 422.163 463.561 438.61 450.246C439.573 449.439 441.769 440.14 440.312 439.97Z"></path>
<path fill="#231F20" d="M340.277 474.78C369.671 483.766 416.087 440.193 432.366 441.191C448.651 442.191 424.855 472.529 424.855 472.529L361.803 495.336C361.803 495.336 310.883 465.794 340.277 474.78Z"></path>
<path fill="#231F20" d="M264.792 439.13C296.564 443.486 313.209 462.175 342.605 471.158C371.996 480.144 361.801 495.336 361.801 495.336L311.051 489.782L268.63 467.232C268.63 467.232 252.25 437.411 264.792 439.13Z"></path>
<path fill="white" d="M353.325 504.371C348.08 504.371 343.094 503.711 338.501 502.414C335.819 501.654 334 500.185 333.095 498.05C331.056 493.228 334.087 486.255 335.052 484.253C338.262 486.698 352.037 497.048 355.556 497.294C358.393 497.49 360.515 498.24 361.273 498.54V503.82C360.21 503.983 357.264 504.371 353.325 504.371Z"></path>
<path fill="#231F20" d="M334.864 483.448C334.864 483.448 326.203 499.485 338.357 502.923C343.842 504.475 349.147 504.899 353.322 504.899C358.401 504.899 361.803 504.27 361.803 504.27V498.19C361.803 498.19 359.31 497.025 355.593 496.768C351.88 496.508 334.864 483.448 334.864 483.448ZM335.252 485.071C339.612 488.376 352.021 497.578 355.518 497.82C357.941 497.988 359.828 498.57 360.744 498.905V503.363C359.445 503.544 356.769 503.843 353.322 503.843C348.128 503.843 343.19 503.191 338.645 501.906C336.089 501.182 334.433 499.855 333.581 497.846C331.788 493.608 334.126 487.548 335.252 485.071Z"></path>
<path fill="#231F20" d="M355.592 494.401C291.025 462.626 261.538 415.293 245.274 452.049C226.369 494.776 344.695 508.144 348.388 505.701C349.377 505.028 354.995 498.029 355.592 494.401Z"></path>
<path fill="white" d="M354.245 504.127C350.07 504.127 346.411 503.552 344.845 503.264L348.39 498.514L348.392 498.516C348.457 498.516 350.159 497.523 352.584 497.292C355.108 497.054 369.702 488.953 373.709 486.706C373.478 489.805 372.175 499.673 365.013 502.432C362.082 503.556 358.461 504.127 354.245 504.127Z"></path>
<path fill="#231F20" d="M374.287 485.774C374.287 485.774 355.265 496.507 352.535 496.766C349.807 497.023 347.972 498.189 347.972 498.189L343.917 503.621C343.917 503.621 348.578 504.656 354.245 504.656C357.803 504.656 361.754 504.249 365.201 502.922C374.135 499.483 374.287 485.774 374.287 485.774ZM373.089 487.656C372.679 491.389 371.067 499.529 364.82 501.937C361.954 503.039 358.396 503.599 354.245 503.599C350.737 503.599 347.597 503.188 345.782 502.889L348.691 498.993C349.149 498.738 350.615 498.008 352.633 497.817C355.099 497.583 367.835 490.591 373.089 487.656Z"></path>
<path fill="#A861C5" d="M398.059 504.212C392.259 509.755 381.965 508.162 374.712 506.031L374.239 505.885L373.705 505.731L373.156 505.556C372.818 505.445 372.5 505.338 372.178 505.227L371.685 505.066C368.536 503.966 366.471 502.985 366.471 502.985C363.891 498.712 360.341 499.684 360.341 499.684C355.53 493.727 362.189 487.233 362.189 487.233L398.059 504.212Z"></path>
<path fill="#231F20" d="M371.824 499.675C370.889 501.377 370.863 503.336 371.687 505.068L372.179 505.229V505.164L372.171 505.129C371.264 503.462 371.284 501.516 372.199 499.849C372.328 499.621 371.953 499.437 371.824 499.675ZM374.478 501.011C373.654 502.538 373.58 504.297 374.241 505.887L374.713 506.033L374.705 505.979C373.992 504.425 374.038 502.706 374.853 501.185C374.979 500.956 374.605 500.784 374.478 501.011Z"></path>
<path fill="#231F20" d="M361.07 489.274L396.088 505.854C396.927 506.248 397.545 504.95 396.704 504.551L361.686 487.974C360.845 487.575 360.229 488.878 361.07 489.274Z"></path>
<path fill="#231F20" d="M355.593 493.602C403.046 461.824 440.136 421.468 450.869 449.173C467.105 491.066 363.605 507.34 360.89 504.898C360.162 504.226 356.033 497.23 355.593 493.602Z"></path>
<path fill="#A861C5" d="M304.521 437.499C304.521 437.499 336.199 462.825 404.095 441.454C404.095 441.454 406.036 326.604 343.459 332.348C297.826 336.538 311.786 388.162 304.521 437.499Z"></path>
<path fill="white" d="M345.761 338.015C342.091 338.012 340.237 334.169 339.806 333.136C343.586 327.97 342.98 323.882 342.569 322.418L353.278 319.526C352.975 326.521 354.344 331.247 354.747 332.476C351.391 336.149 348.367 338.015 345.761 338.015Z"></path>
<path fill="#231F20" d="M353.844 318.826L341.886 322.053C341.886 322.053 343.963 326.742 339.206 333.054C339.206 333.054 341.102 338.541 345.76 338.541C348.175 338.541 351.33 337.07 355.35 332.595C355.35 332.595 353.347 327.237 353.844 318.826ZM352.724 320.223C352.55 326.433 353.672 330.782 354.151 332.34C350.983 335.752 348.162 337.482 345.76 337.482C342.671 337.482 340.967 334.416 340.411 333.203C343.749 328.496 343.579 324.639 343.198 322.794L352.724 320.223Z"></path>
<path fill="#231F20" d="M404.096 441.455C404.096 441.455 405.425 392.311 378.24 350.279L370.218 339.552C370.218 339.552 343.573 355.025 364.182 406.779C368.705 418.145 381.04 447.288 381.04 447.288L404.096 441.455Z"></path>
<path fill="#A861C5" d="M353.297 499.812C353.297 499.812 349.793 498.678 347.011 502.821C347.011 502.821 344.899 503.701 341.696 504.642L341.193 504.79C340.901 504.871 340.6 504.954 340.287 505.037L340.088 505.091C339.766 505.172 339.439 505.263 339.108 505.339L338.633 505.457C331.279 507.242 320.922 508.331 315.396 502.511L352.044 487.298C352.044 487.298 358.383 494.114 353.297 499.812Z"></path>
<path fill="#231F20" d="M338.724 500.617C339.465 502.17 339.428 503.883 338.644 505.41L338.633 505.456L339.108 505.338C339.84 503.783 339.857 502.024 339.108 500.46C338.999 500.214 338.615 500.368 338.724 500.617ZM341.827 499.255C341.707 499.006 341.322 499.17 341.441 499.409C342.274 501.111 342.2 503.059 341.213 504.678L341.202 504.713L341.193 504.789L341.696 504.641C342.603 502.959 342.677 500.991 341.827 499.255Z"></path>
<path fill="#231F20" d="M353.074 489.388L317.29 504.244C316.433 504.599 315.878 503.268 316.736 502.911L352.523 488.057C353.379 487.701 353.933 489.033 353.074 489.388Z"></path>
<path fill="white" d="M318.393 426.531C313.957 425.536 307.102 425.969 304.04 430.003C302.567 431.946 303.805 432.927 305.76 431.855C309.527 429.778 312.761 429.504 306.954 432.256C305.781 432.813 303.635 434.537 304.056 435.413C304.94 437.265 308.854 434.742 310.712 433.875C312.501 433.957 308.475 436.709 308.113 437.625C306.487 441.769 314.114 436.827 314.665 437.187C316.206 438.187 310.525 440.708 313.375 441.479C315.513 442.059 319.677 437.631 321.474 437.084C322.947 436.64 324.255 437.35 325.041 435.748C326.795 432.168 320.267 426.952 318.393 426.531Z"></path>
<path fill="#231F20" d="M313.093 440.8C313.106 440.8 313.202 440.883 313.514 440.968C314.588 441.258 316.767 439.641 318.353 438.456C319.536 437.576 320.556 436.811 321.321 436.58C321.87 436.414 322.388 436.39 322.844 436.368C323.705 436.331 324.18 436.307 324.57 435.514C324.953 434.73 324.879 433.773 324.347 432.666C323.023 429.906 319.405 427.297 318.279 427.045C314.385 426.173 307.495 426.323 304.462 430.322C303.9 431.065 303.863 431.54 303.972 431.666C304.081 431.793 304.595 431.888 305.506 431.387C305.543 431.368 309.448 429.25 310.376 429.827L310.64 429.993L310.657 430.372C310.637 430.684 310.611 431.106 307.179 432.732C305.824 433.379 304.412 434.85 304.532 435.183L304.878 435.495C305.813 435.813 307.942 434.704 309.347 433.974C309.775 433.749 310.162 433.547 310.491 433.394L310.607 433.34L310.74 433.344C311.339 433.372 311.568 433.653 311.653 433.887C311.899 434.558 311.176 435.277 309.875 436.493C309.406 436.933 308.694 437.595 308.607 437.817C308.332 438.517 308.437 438.711 308.439 438.713C308.822 439.112 311.59 437.835 312.5 437.416C314.091 436.687 314.564 436.49 314.956 436.743C315.333 436.989 315.438 437.303 315.459 437.523C315.527 438.227 314.847 438.881 314.126 439.578C313.769 439.922 313.106 440.561 313.091 440.8H313.093ZM313.792 442.058L313.237 441.988C312.991 441.92 312.235 441.716 312.065 441.06C311.868 440.286 312.607 439.574 313.392 438.818C313.686 438.534 314.189 438.048 314.352 437.763C314.015 437.883 313.431 438.153 312.941 438.377C310.417 439.532 308.572 440.29 307.711 439.482C307.06 438.865 307.484 437.787 307.624 437.43C307.79 437.007 308.315 436.506 309.154 435.719C309.448 435.445 309.855 435.068 310.167 434.736L309.836 434.908C308.086 435.819 305.907 436.955 304.545 436.497C304.111 436.353 303.78 436.057 303.58 435.638C303.486 435.445 303.408 435.122 303.562 434.688C303.806 433.993 304.6 433.207 305.414 432.597C304.451 432.965 303.63 432.884 303.17 432.357C302.92 432.065 302.455 431.217 303.619 429.683C306.957 425.284 314.35 425.079 318.508 426.014C319.974 426.343 323.848 429.182 325.302 432.209C325.979 433.623 326.051 434.889 325.517 435.978C324.853 437.336 323.809 437.382 322.89 437.425C322.478 437.443 322.051 437.462 321.628 437.593C321.04 437.772 320.042 438.517 318.985 439.303C317.168 440.661 315.296 442.058 313.792 442.058Z"></path>
<path fill="white" d="M320.164 427.433C318.881 426.236 315.717 423.325 313.904 423.035C312.917 422.881 311.629 423.243 312.425 424.441C312.904 425.164 313.852 425.698 314.608 426.066C315.299 426.398 315.939 426.958 316.641 427.228C317.358 427.509 320.334 427.592 320.164 427.433Z"></path>
<path fill="#231F20" d="M313.47 423.53C313.08 423.53 312.777 423.632 312.714 423.732C312.69 423.769 312.71 423.913 312.867 424.148C313.337 424.863 314.468 425.408 314.839 425.589C315.159 425.743 315.473 425.944 315.782 426.147C316.144 426.38 316.488 426.602 316.83 426.733C317.148 426.859 318.096 426.942 318.878 426.972C316.523 424.865 314.823 423.717 313.821 423.556L313.47 423.53ZM319.295 428.04C318.131 428.04 316.614 427.785 316.447 427.718C316.004 427.548 315.599 427.286 315.209 427.033C314.935 426.855 314.662 426.678 314.379 426.537C313.623 426.173 312.553 425.589 311.984 424.73C311.468 423.955 311.664 423.416 311.825 423.164C312.25 422.497 313.25 422.399 313.987 422.514C315.8 422.804 318.586 425.238 320.523 427.044L320.844 427.345L320.615 427.733C320.473 427.962 319.937 428.04 319.295 428.04Z"></path>
<path fill="white" d="M369.973 439.927C347.776 439.927 325.529 437.092 322.023 436.626L322.348 429.176C322.952 429.076 324.314 428.853 325.943 428.59C370.285 421.438 390.97 416.155 391.037 411.962C391.061 410.792 388.429 407.402 382.949 400.457C374.898 390.256 362.733 374.842 360.656 365.997C358.911 358.652 360.645 352.521 362.101 348.544C363.43 344.92 366.552 342.844 370.673 342.844C372.893 342.844 375.198 343.458 377.338 344.618C390.139 351.551 404.971 367.985 413.406 384.584C422.497 402.477 428.081 416.165 417.121 429.365C411.386 436.275 395.083 439.927 369.973 439.927Z"></path>
<path fill="#231F20" d="M370.674 342.315C366.702 342.315 363.12 344.228 361.608 348.361C359.891 353.044 358.476 359.108 360.141 366.117C363.407 380.021 390.568 409.043 390.511 411.952C390.4 418.6 322.661 428.427 321.838 428.74L321.474 437.083C321.474 437.083 345.592 440.452 369.973 440.452C390.156 440.452 410.521 438.145 417.528 429.703C428.333 416.689 423.59 403.465 413.876 384.342C405.038 366.95 389.934 350.836 377.59 344.151C375.365 342.944 372.956 342.315 370.674 342.315ZM370.674 343.369C372.805 343.369 375.023 343.962 377.085 345.08C389.803 351.97 404.546 368.312 412.935 384.821C423.346 405.317 426.566 417.161 416.715 429.026C411.085 435.809 394.922 439.398 369.973 439.398C348.649 439.398 327.276 436.776 322.572 436.162L322.855 429.625C323.568 429.507 324.714 429.322 326.039 429.106C383.685 419.809 391.514 415.226 391.568 411.971C391.592 410.699 389.93 408.45 383.367 400.133C375.344 389.966 363.22 374.604 361.167 365.873C359.457 358.668 361.165 352.634 362.599 348.725C363.845 345.324 366.789 343.371 370.674 343.369Z"></path>
<path fill="#A861C5" d="M373.907 393.378C371.457 391.04 355.579 375.009 353.22 359.999C352.143 353.166 350.862 337.61 359.364 335.64C372.978 332.485 391.177 352.255 403.734 367.178C397.969 380.174 389.201 389.262 373.907 393.378Z"></path>
<path fill="white" d="M322.586 429.02C322.586 429.02 322.268 429.28 320.963 428.622C319.658 427.955 319.163 436.278 319.163 436.278L320.466 436.795C320.466 436.795 321.495 436.54 322.521 436.747C323.547 436.954 324.615 434.524 324.615 434.524L324.565 434.174L323.942 431.598L322.586 429.02Z"></path>
<path fill="white" d="M320.326 428.065L318.389 426.448L316.077 426.324L314.238 426.52L314.831 428.621L318.23 430.614L320.326 428.065Z"></path>
<path fill="white" d="M341.869 329.001C338.379 329.001 335.267 327.408 334.304 325.127C331.343 318.115 330.41 309.22 330.24 307.344L347.979 298.766C349.382 300.529 356.022 309.626 352.978 320.111C350.576 328.358 343.87 329.001 341.871 329.001H341.869Z"></path>
<path fill="#231F20" d="M348.123 298.108L329.683 307.029C329.683 307.029 330.434 317.322 333.818 325.334C334.888 327.866 338.207 329.528 341.872 329.528C346.439 329.528 351.54 326.948 353.483 320.257C356.989 308.199 348.123 298.108 348.123 298.108ZM347.825 299.428C349.589 301.742 355.296 310.236 352.468 319.963C350.173 327.857 343.776 328.472 341.872 328.472C338.584 328.472 335.673 327.014 334.792 324.924C332.021 318.359 331.04 310.105 330.803 307.663L347.825 299.428Z"></path>
<path fill="#231F20" d="M323.978 308.105C330.602 311.958 340.298 307.584 347.419 304.002C347.658 304.793 348.02 305.58 348.236 306.212C349.194 309.025 349.406 312.953 351.718 315.091C353.26 316.518 355.581 316.605 357.069 315.023C358.034 313.995 358.058 312.973 357.849 311.923C358.647 305.883 354.755 297.42 349.696 294.903C346.488 293.312 343.296 294.014 340.01 294.947C337.348 295.705 335.19 296.363 332.334 296.147C330.641 296.023 329.29 295.696 327.595 296.082C321.267 297.542 317.17 304.148 323.978 308.105Z"></path>
<path fill="#231F20" d="M332.317 441.588L372.36 443.658L334.13 454.378L332.317 441.588Z"></path>
<path fill="white" d="M334.656 454.776L371.868 444.341L372.019 447.058L334.647 458.48L334.656 454.776Z"></path>
<path fill="#231F20" d="M372.359 443.655L334.129 454.377L334.118 459.197L372.57 447.444L372.359 443.655ZM371.376 445.03L371.47 446.677L335.179 457.766L335.186 455.179L371.376 445.03Z"></path>
<path fill="white" d="M252.012 453.183L251.999 449.943L333.601 454.874L333.59 458.631L252.012 453.183Z"></path>
<path fill="#231F20" d="M251.47 449.381L251.487 453.678L334.119 459.197L334.13 454.377L251.47 449.381ZM252.531 450.503L333.073 455.373L333.065 458.066L252.54 452.689L252.531 450.503Z"></path>
<path fill="white" d="M251.468 449.382L334.129 454.378L327.76 409.474C327.559 407.921 326.28 406.727 324.718 406.633L248.701 402.038C246.65 401.915 244.994 403.687 245.258 405.729L251.468 449.382Z"></path>
<path fill="#231F20" d="M251.948 448.864L333.499 453.792L327.224 409.551C327.054 408.248 325.988 407.252 324.687 407.176L248.501 402.574C247.721 402.574 246.975 402.914 246.457 403.502C245.94 404.093 245.701 404.877 245.801 405.655L251.948 448.864ZM334.765 454.958L334.098 454.921L250.993 449.896L244.722 405.803C244.581 404.705 244.914 403.607 245.64 402.783C246.413 401.899 247.548 401.419 248.736 401.491L324.753 406.086C326.574 406.195 328.067 407.59 328.302 409.403L334.765 454.958Z"></path>
<path fill="#F06F26" d="M295.968 119.018C285.871 127.683 270.66 126.52 261.992 116.425C253.329 106.33 254.49 91.1185 264.585 82.455C274.682 73.7872 289.893 74.9465 298.557 85.0437C307.225 95.1387 306.066 110.352 295.968 119.018ZM316.18 78.716L307.484 68.5861L300.62 73.5149C297.424 71.1137 293.892 69.3574 290.17 68.2287L290.089 59.7788L276.789 58.7634L275.425 67.1022C271.577 67.6535 267.821 68.8584 264.295 70.7432L258.257 64.8318L248.127 73.528L253.056 80.3894C250.668 83.5794 248.899 87.1201 247.768 90.8396L239.32 90.9225L238.305 104.221L246.644 105.587C247.195 109.433 248.4 113.191 250.287 116.717L244.373 122.752L253.069 132.882L259.933 127.954C263.121 130.342 266.661 132.111 270.379 133.242L270.466 141.692L283.764 142.705L285.13 134.368C288.974 133.815 292.746 132.603 296.258 130.725L302.294 136.637L312.424 127.94L307.497 121.079C309.896 117.88 311.654 114.348 312.783 110.633L321.233 110.548L322.246 97.2479L313.91 95.8817C313.356 92.0359 312.143 88.2663 310.267 84.7539L316.18 78.716Z"></path>
<path fill="#A861C5" d="M367.847 154.185C361.258 159.841 351.331 159.081 345.674 152.494C340.018 145.905 340.776 135.978 347.365 130.323C353.954 124.665 363.882 125.423 369.538 132.012C375.195 138.603 374.437 148.531 367.847 154.185ZM381.039 127.883L375.365 121.272L370.883 124.49C368.797 122.921 366.492 121.775 364.065 121.037L364.01 115.524L355.329 114.859L354.44 120.302C351.93 120.662 349.477 121.448 347.176 122.68L343.236 118.823L336.623 124.495L339.841 128.975C338.283 131.058 337.126 133.369 336.39 135.795L330.877 135.849L330.215 144.528L335.656 145.421C336.017 147.929 336.802 150.383 338.033 152.684L334.174 156.623L339.848 163.234L344.328 160.018C346.409 161.578 348.721 162.733 351.146 163.469L351.205 168.982L359.881 169.645L360.772 164.204C363.283 163.844 365.745 163.053 368.037 161.827L371.976 165.688L378.587 160.009L375.371 155.529C376.938 153.444 378.086 151.139 378.823 148.714L384.335 148.657L384.998 139.978L379.555 139.085C379.195 136.577 378.404 134.115 377.18 131.825L381.039 127.883Z"></path>
<path fill="black" d="M165.645 549.6V556.6H175.045V561.04H165.645V568.44H176.245V573H160.045V545.04H176.245V549.6H165.645ZM193.574 573L189.014 566.12L184.974 573H178.974L186.214 561.88L178.894 550.84H185.214L189.734 557.68L193.814 550.84H199.814L192.534 561.88L199.894 573H193.574ZM208.536 554.04C209.256 553.027 210.242 552.187 211.496 551.52C212.776 550.827 214.229 550.48 215.856 550.48C217.749 550.48 219.456 550.947 220.976 551.88C222.522 552.813 223.736 554.147 224.616 555.88C225.522 557.587 225.976 559.573 225.976 561.84C225.976 564.107 225.522 566.12 224.616 567.88C223.736 569.613 222.522 570.96 220.976 571.92C219.456 572.88 217.749 573.36 215.856 573.36C214.229 573.36 212.789 573.027 211.536 572.36C210.309 571.693 209.309 570.853 208.536 569.84V583.56H202.936V550.84H208.536V554.04ZM220.256 561.84C220.256 560.507 219.976 559.36 219.416 558.4C218.882 557.413 218.162 556.667 217.256 556.16C216.376 555.653 215.416 555.4 214.376 555.4C213.362 555.4 212.402 555.667 211.496 556.2C210.616 556.707 209.896 557.453 209.336 558.44C208.802 559.427 208.536 560.587 208.536 561.92C208.536 563.253 208.802 564.413 209.336 565.4C209.896 566.387 210.616 567.147 211.496 567.68C212.402 568.187 213.362 568.44 214.376 568.44C215.416 568.44 216.376 568.173 217.256 567.64C218.162 567.107 218.882 566.347 219.416 565.36C219.976 564.373 220.256 563.2 220.256 561.84ZM235.645 543.4V573H230.045V543.4H235.645ZM251.018 573.36C248.885 573.36 246.965 572.893 245.258 571.96C243.551 571 242.205 569.653 241.218 567.92C240.258 566.187 239.778 564.187 239.778 561.92C239.778 559.653 240.271 557.653 241.258 555.92C242.271 554.187 243.645 552.853 245.378 551.92C247.111 550.96 249.045 550.48 251.178 550.48C253.311 550.48 255.245 550.96 256.978 551.92C258.711 552.853 260.071 554.187 261.058 555.92C262.071 557.653 262.578 559.653 262.578 561.92C262.578 564.187 262.058 566.187 261.018 567.92C260.005 569.653 258.618 571 256.858 571.96C255.125 572.893 253.178 573.36 251.018 573.36ZM251.018 568.48C252.031 568.48 252.978 568.24 253.858 567.76C254.765 567.253 255.485 566.507 256.018 565.52C256.551 564.533 256.818 563.333 256.818 561.92C256.818 559.813 256.258 558.2 255.138 557.08C254.045 555.933 252.698 555.36 251.098 555.36C249.498 555.36 248.151 555.933 247.058 557.08C245.991 558.2 245.458 559.813 245.458 561.92C245.458 564.027 245.978 565.653 247.018 566.8C248.085 567.92 249.418 568.48 251.018 568.48ZM272.286 554.28C273.006 553.107 273.939 552.187 275.086 551.52C276.259 550.853 277.592 550.52 279.086 550.52V556.4H277.606C275.846 556.4 274.512 556.813 273.606 557.64C272.726 558.467 272.286 559.907 272.286 561.96V573H266.686V550.84H272.286V554.28ZM303.458 561.44C303.458 562.24 303.404 562.96 303.298 563.6H287.098C287.231 565.2 287.791 566.453 288.778 567.36C289.764 568.267 290.978 568.72 292.418 568.72C294.498 568.72 295.978 567.827 296.858 566.04H302.898C302.258 568.173 301.031 569.933 299.218 571.32C297.404 572.68 295.178 573.36 292.538 573.36C290.404 573.36 288.484 572.893 286.778 571.96C285.098 571 283.778 569.653 282.818 567.92C281.884 566.187 281.418 564.187 281.418 561.92C281.418 559.627 281.884 557.613 282.818 555.88C283.751 554.147 285.058 552.813 286.738 551.88C288.418 550.947 290.351 550.48 292.538 550.48C294.644 550.48 296.524 550.933 298.178 551.84C299.858 552.747 301.151 554.04 302.058 555.72C302.991 557.373 303.458 559.28 303.458 561.44ZM297.658 559.84C297.631 558.4 297.111 557.253 296.098 556.4C295.084 555.52 293.844 555.08 292.378 555.08C290.991 555.08 289.818 555.507 288.858 556.36C287.924 557.187 287.351 558.347 287.138 559.84H297.658ZM315.636 561.84C315.636 559.6 316.076 557.613 316.956 555.88C317.863 554.147 319.076 552.813 320.596 551.88C322.143 550.947 323.863 550.48 325.756 550.48C327.41 550.48 328.85 550.813 330.076 551.48C331.33 552.147 332.33 552.987 333.076 554V550.84H338.716V573H333.076V569.76C332.356 570.8 331.356 571.667 330.076 572.36C328.823 573.027 327.37 573.36 325.716 573.36C323.85 573.36 322.143 572.88 320.596 571.92C319.076 570.96 317.863 569.613 316.956 567.88C316.076 566.12 315.636 564.107 315.636 561.84ZM333.076 561.92C333.076 560.56 332.81 559.4 332.276 558.44C331.743 557.453 331.023 556.707 330.116 556.2C329.21 555.667 328.236 555.4 327.196 555.4C326.156 555.4 325.196 555.653 324.316 556.16C323.436 556.667 322.716 557.413 322.156 558.4C321.623 559.36 321.356 560.507 321.356 561.84C321.356 563.173 321.623 564.347 322.156 565.36C322.716 566.347 323.436 567.107 324.316 567.64C325.223 568.173 326.183 568.44 327.196 568.44C328.236 568.44 329.21 568.187 330.116 567.68C331.023 567.147 331.743 566.4 332.276 565.44C332.81 564.453 333.076 563.28 333.076 561.92ZM356.466 550.52C359.106 550.52 361.239 551.36 362.866 553.04C364.492 554.693 365.306 557.013 365.306 560V573H359.706V560.76C359.706 559 359.266 557.653 358.386 556.72C357.506 555.76 356.306 555.28 354.786 555.28C353.239 555.28 352.012 555.76 351.106 556.72C350.226 557.653 349.786 559 349.786 560.76V573H344.186V550.84H349.786V553.6C350.532 552.64 351.479 551.893 352.626 551.36C353.799 550.8 355.079 550.52 356.466 550.52ZM369.191 561.84C369.191 559.6 369.631 557.613 370.511 555.88C371.418 554.147 372.644 552.813 374.191 551.88C375.738 550.947 377.458 550.48 379.351 550.48C380.791 550.48 382.164 550.8 383.471 551.44C384.778 552.053 385.818 552.88 386.591 553.92V543.4H392.271V573H386.591V569.72C385.898 570.813 384.924 571.693 383.671 572.36C382.418 573.027 380.964 573.36 379.311 573.36C377.444 573.36 375.738 572.88 374.191 571.92C372.644 570.96 371.418 569.613 370.511 567.88C369.631 566.12 369.191 564.107 369.191 561.84ZM386.631 561.92C386.631 560.56 386.364 559.4 385.831 558.44C385.298 557.453 384.578 556.707 383.671 556.2C382.764 555.667 381.791 555.4 380.751 555.4C379.711 555.4 378.751 555.653 377.871 556.16C376.991 556.667 376.271 557.413 375.711 558.4C375.178 559.36 374.911 560.507 374.911 561.84C374.911 563.173 375.178 564.347 375.711 565.36C376.271 566.347 376.991 567.107 377.871 567.64C378.778 568.173 379.738 568.44 380.751 568.44C381.791 568.44 382.764 568.187 383.671 567.68C384.578 567.147 385.298 566.4 385.831 565.44C386.364 564.453 386.631 563.28 386.631 561.92ZM424.392 567.68H413.272L411.432 573H405.552L415.592 545.04H422.112L432.152 573H426.232L424.392 567.68ZM422.872 563.2L418.832 551.52L414.792 563.2H422.872ZM441.505 554.04C442.225 553.027 443.211 552.187 444.465 551.52C445.745 550.827 447.198 550.48 448.825 550.48C450.718 550.48 452.425 550.947 453.945 551.88C455.491 552.813 456.705 554.147 457.585 555.88C458.491 557.587 458.945 559.573 458.945 561.84C458.945 564.107 458.491 566.12 457.585 567.88C456.705 569.613 455.491 570.96 453.945 571.92C452.425 572.88 450.718 573.36 448.825 573.36C447.198 573.36 445.758 573.027 444.505 572.36C443.278 571.693 442.278 570.853 441.505 569.84V583.56H435.905V550.84H441.505V554.04ZM453.225 561.84C453.225 560.507 452.945 559.36 452.385 558.4C451.851 557.413 451.131 556.667 450.225 556.16C449.345 555.653 448.385 555.4 447.345 555.4C446.331 555.4 445.371 555.667 444.465 556.2C443.585 556.707 442.865 557.453 442.305 558.44C441.771 559.427 441.505 560.587 441.505 561.92C441.505 563.253 441.771 564.413 442.305 565.4C442.865 566.387 443.585 567.147 444.465 567.68C445.371 568.187 446.331 568.44 447.345 568.44C448.385 568.44 449.345 568.173 450.225 567.64C451.131 567.107 451.851 566.347 452.385 565.36C452.945 564.373 453.225 563.2 453.225 561.84ZM468.614 554.04C469.334 553.027 470.321 552.187 471.574 551.52C472.854 550.827 474.307 550.48 475.934 550.48C477.827 550.48 479.534 550.947 481.054 551.88C482.601 552.813 483.814 554.147 484.694 555.88C485.601 557.587 486.054 559.573 486.054 561.84C486.054 564.107 485.601 566.12 484.694 567.88C483.814 569.613 482.601 570.96 481.054 571.92C479.534 572.88 477.827 573.36 475.934 573.36C474.307 573.36 472.867 573.027 471.614 572.36C470.387 571.693 469.387 570.853 468.614 569.84V583.56H463.014V550.84H468.614V554.04ZM480.334 561.84C480.334 560.507 480.054 559.36 479.494 558.4C478.961 557.413 478.241 556.667 477.334 556.16C476.454 555.653 475.494 555.4 474.454 555.4C473.441 555.4 472.481 555.667 471.574 556.2C470.694 556.707 469.974 557.453 469.414 558.44C468.881 559.427 468.614 560.587 468.614 561.92C468.614 563.253 468.881 564.413 469.414 565.4C469.974 566.387 470.694 567.147 471.574 567.68C472.481 568.187 473.441 568.44 474.454 568.44C475.494 568.44 476.454 568.173 477.334 567.64C478.241 567.107 478.961 566.347 479.494 565.36C480.054 564.373 480.334 563.2 480.334 561.84ZM495.723 543.4V573H490.123V543.4H495.723ZM522.456 550.84L508.736 583.48H502.776L507.576 572.44L498.696 550.84H504.976L510.696 566.32L516.496 550.84H522.456Z"></path>
<path fill="black" d="M18.6 78V61.4H56.2V206H37.8V78H18.6Z"></path>
</svg>
