<svg xmlns="http://www.w3.org/2000/svg" fill="none" viewBox="0 0 600 615" height="615" width="600">
<path fill="#E7EBF0" d="M124.659 286.802C102.828 328.46 118.858 367.909 127.803 389.985C146.244 435.49 208.102 493.811 356.405 503.989C547.395 517.098 576.374 351.07 570.977 279.561C565.58 208.052 557.293 114.222 400.569 62.0425C243.865 9.8654 305.294 191.063 184.708 244.219C163.293 253.659 135.603 265.916 124.659 286.802Z"></path>
<path fill="#E7EBF0" d="M124.659 286.802C102.828 328.46 118.858 367.909 127.803 389.985C146.244 435.49 208.102 493.811 356.405 503.989C547.395 517.098 576.374 351.07 570.977 279.561C565.58 208.052 557.293 114.222 400.569 62.0425C243.865 9.8654 305.294 191.063 184.708 244.219C163.293 253.659 135.603 265.916 124.659 286.802Z"></path>
<path fill="#E7EBF0" d="M135.996 211.279C137.823 215.59 141.798 218.479 146.351 218.925C164.266 220.681 190.112 213.089 216.835 179.498C246.713 141.945 279.455 103.207 247.38 106.206C215.305 109.207 162.308 139.649 143.102 171.514C131.306 191.083 132.961 204.126 135.996 211.279Z"></path>
<path fill="#E7EBF0" d="M124.659 286.802C102.828 328.46 118.858 367.909 127.803 389.985C146.244 435.49 208.102 493.811 356.405 503.989C547.395 517.098 576.374 351.07 570.977 279.561C565.58 208.052 557.293 114.222 400.569 62.0425C243.865 9.8654 305.294 191.063 184.708 244.219C163.293 253.659 135.603 265.916 124.659 286.802Z"></path>
<path fill="#231F20" d="M555.167 508H130.1V504.77H555.167V508Z"></path>
<path fill="#ABBCCF" d="M185.258 358.102H220.6V340.806H185.258V358.102ZM222.886 360.391H182.969V338.517H222.886V360.391Z"></path>
<path fill="#ABBCCF" d="M157.918 377.69H193.26V360.391H157.918V377.69ZM195.547 379.976H155.629V358.102H195.547V379.976Z"></path>
<path fill="#ABBCCF" d="M283.699 170.127H319.048V152.828H283.699V170.127ZM321.332 172.413H281.41V150.542H321.332V172.413Z"></path>
<path fill="#ABBCCF" d="M353.853 411.599H389.215V394.3H353.853V411.599ZM391.5 413.888H351.568V392.014H391.5V413.888Z"></path>
<path fill="#ABBCCF" d="M316.183 411.599H351.523V394.3H316.183V411.599ZM353.807 413.888H313.898V392.014H353.807V413.888Z"></path>
<path fill="#ABBCCF" d="M335.038 431.185H370.378V413.889H335.038V431.185ZM372.685 433.474H332.754V411.6H372.685V433.474Z"></path>
<path fill="#ABBCCF" d="M321.337 269.924H356.677V252.628H321.337V269.924ZM358.962 272.213H319.053V250.339H358.962V272.213Z"></path>
<path fill="#ABBCCF" d="M348.679 289.51H384.019V272.214H348.679V289.51ZM386.303 291.799H346.395V269.925H386.303V291.799Z"></path>
<path fill="#ABBCCF" d="M478.46 195.82H513.8V178.522H478.46V195.82ZM516.085 198.106H476.176V176.233H516.085V198.106Z"></path>
<path fill="#ABBCCF" d="M440.791 195.82H476.131V178.522H440.791V195.82ZM478.416 198.106H438.484V176.233H478.416V198.106Z"></path>
<path fill="#ABBCCF" d="M459.648 215.405H494.988V198.106H459.648V215.405ZM497.272 217.691H457.363V195.82H497.272V217.691Z"></path>
<path fill="#231F20" d="M404.688 110.016C392.304 120.518 373.76 118.986 363.257 106.601C352.753 94.2141 354.276 75.6571 366.661 65.1604C379.068 54.6568 397.611 56.1865 408.115 68.5734C418.618 80.9604 417.096 99.5196 404.688 110.016ZM429.659 60.9836L419.134 48.5586L410.713 54.5202C406.838 51.5663 402.538 49.3962 398.015 47.992L397.97 37.6766L381.733 36.3396L380.009 46.5071C375.305 47.1499 370.714 48.5899 366.414 50.8675L359.091 43.6069L346.662 54.1418L352.619 62.5535C349.685 66.428 347.49 70.7369 346.079 75.2652L335.777 75.3055L334.434 91.5289L344.601 93.2578C345.251 97.9541 346.684 102.55 348.968 106.868L341.712 114.189L352.238 126.616L360.659 120.656C364.533 123.595 368.833 125.781 373.357 127.187L373.402 137.498L389.616 138.835L391.363 128.67C396.044 128.025 400.657 126.576 404.957 124.311L412.281 131.572L424.71 121.033L418.753 112.619C421.709 108.738 423.881 104.438 425.292 99.9115L435.594 99.8712L436.938 83.6479L426.77 81.9167C426.121 77.2181 424.665 72.6091 422.403 68.3092L429.659 60.9836Z"></path>
<path fill="#231F20" d="M355.49 42.2648L359.096 43.6063L358.2 50.2354C358.2 50.2354 352.063 48.2892 352.175 47.9891C352.265 47.689 355.49 42.2648 355.49 42.2648Z"></path>
<path fill="#231F20" d="M394.364 36.3367L397.969 37.676L396.334 40.8203L392.482 40.7509L394.364 36.3367Z"></path>
<path fill="#231F20" d="M415.528 47.2173L419.134 48.5588L418.328 53.6426L414.543 52.702L415.528 47.2173Z"></path>
<path fill="#231F20" d="M433.333 82.3049L436.939 83.6464L434.498 89.29L429.369 89.149L433.333 82.3049Z"></path>
<path fill="#231F20" d="M408.697 130.23L412.281 131.571L413.311 128.031L409.347 125.276L408.697 130.23Z"></path>
<path fill="#231F20" d="M369.797 136.159L373.402 137.498L375.037 135.592L371.633 134.186L371.521 134.139L369.797 136.159Z"></path>
<path fill="#231F20" d="M348.637 125.276L352.242 126.615L353.609 124.098L348.95 120.172L348.637 125.276Z"></path>
<path fill="#231F20" d="M330.828 90.1859L334.434 91.5273L336.315 89.6103L331.589 87.8545L330.828 90.1859Z"></path>
<path fill="#228ED5" d="M401.105 108.677C388.721 119.181 370.155 117.647 359.651 105.262C349.148 92.875 350.693 74.3202 363.078 63.819C375.462 53.32 394.006 54.8451 404.509 67.2321C415.013 79.6235 413.49 98.1782 401.105 108.677ZM426.076 59.6445L415.528 47.2172L407.107 53.1811C403.233 50.2294 398.933 48.057 394.409 46.6506L394.364 36.3374L378.15 35.0004L376.425 45.168C371.722 45.8107 367.131 47.253 362.809 49.5261L355.486 42.2655L343.056 52.8026L349.013 61.2144C346.08 65.0888 343.885 69.3977 342.474 73.9284L332.172 73.9664L330.828 90.1875L340.996 91.9187C341.645 96.6172 343.078 101.211 345.363 105.528L338.107 112.852L348.633 125.277L357.053 119.315C360.928 122.253 365.228 124.441 369.752 125.846L369.796 136.159L386.033 137.498L387.758 127.33C392.461 126.686 397.052 125.234 401.374 122.97L408.697 130.231L421.127 119.694L415.147 111.28C418.104 107.396 420.276 103.098 421.687 98.5724L431.989 98.5298L433.333 82.3065L423.165 80.5753C422.515 75.8812 421.06 71.27 418.798 66.9678L426.076 59.6445Z"></path>
<path fill="#231F20" d="M486.769 463.051C474.384 473.552 455.84 472.02 445.314 459.633C434.833 447.249 436.356 428.692 448.741 418.192C461.126 407.691 479.691 409.221 490.195 421.608C500.698 433.995 499.153 452.552 486.769 463.051ZM511.74 414.018L501.214 401.591L492.793 407.553C488.919 404.601 484.618 402.428 480.072 401.024L480.05 390.711L463.813 389.372L462.089 399.539C457.386 400.182 452.794 401.624 448.472 403.902L441.149 396.639L428.719 407.176L434.699 415.585C431.743 419.462 429.57 423.771 428.159 428.3L417.857 428.34L416.514 444.563L426.681 446.29C427.308 450.989 428.764 455.584 431.026 459.9L423.77 467.223L434.318 479.65L442.716 473.691C446.591 476.627 450.913 478.815 455.437 480.222L455.482 490.532L471.696 491.869L473.421 481.704C478.124 481.059 482.737 479.608 487.037 477.348L494.361 484.606L506.79 474.067L500.833 465.653C503.789 461.77 505.962 457.472 507.35 452.945L517.674 452.904L518.996 436.68L508.85 434.951C508.201 430.253 506.745 425.643 504.483 421.343L511.74 414.018Z"></path>
<path fill="#231F20" d="M437.567 395.299L441.15 396.638L440.277 403.267C440.277 403.267 434.118 401.321 434.23 401.021C434.342 400.723 437.567 395.299 437.567 395.299Z"></path>
<path fill="#231F20" d="M476.446 389.368L480.051 390.71L478.417 393.852L474.564 393.784L476.446 389.368Z"></path>
<path fill="#231F20" d="M497.607 400.251L501.213 401.591L500.384 406.677L496.6 405.736L497.607 400.251Z"></path>
<path fill="#231F20" d="M515.413 435.34L518.997 436.679L516.555 442.325L511.449 442.182L515.413 435.34Z"></path>
<path fill="#231F20" d="M490.758 483.264L494.364 484.605L495.394 481.065L491.43 478.31L490.758 483.264Z"></path>
<path fill="#231F20" d="M451.875 489.194L455.481 490.533L457.115 488.627L453.711 487.221L453.577 487.174L451.875 489.194Z"></path>
<path fill="#231F20" d="M430.713 478.311L434.318 479.65L435.685 477.133L431.004 473.207L430.713 478.311Z"></path>
<path fill="#231F20" d="M412.91 443.221L416.516 444.562L418.375 442.643L413.671 440.89L412.91 443.221Z"></path>
<path fill="#228ED5" d="M483.165 461.711C470.78 472.215 452.237 470.68 441.733 458.295C431.23 445.906 432.752 427.352 445.137 416.852C457.544 406.352 476.088 407.879 486.591 420.266C497.095 432.655 495.55 451.212 483.165 461.711ZM508.136 412.68L497.61 400.251L489.189 406.214C485.315 403.261 481.015 401.091 476.469 399.684L476.446 389.369L460.21 388.034L458.485 398.202C453.782 398.844 449.191 400.284 444.891 402.56L437.568 395.299L425.138 405.837L431.095 414.248C428.162 418.123 425.967 422.431 424.556 426.96L414.254 427L412.91 443.221L423.078 444.953C423.727 449.649 425.16 454.244 427.445 458.562L420.189 465.883L430.715 478.311L439.135 472.349C443.01 475.287 447.31 477.475 451.834 478.879L451.878 489.193L468.093 490.529L469.84 480.364C474.52 479.719 479.134 478.268 483.434 476.004L490.757 483.265L503.186 472.727L497.229 464.313C500.186 460.43 502.358 456.132 503.769 451.604L514.071 451.564L515.415 435.34L505.247 433.609C504.597 428.917 503.142 424.304 500.88 420.002L508.136 412.68Z"></path>
<path fill="white" d="M316.247 270.296C313.089 270.296 310.514 267.727 310.514 264.569V87.9514C310.514 83.862 313.828 80.5363 317.927 80.5363H551.848C555.924 80.5363 559.261 83.8575 559.261 87.9447V264.569C559.261 267.727 556.685 270.296 553.528 270.296H316.247Z"></path>
<path fill="#231F20" d="M551.85 80.1617H317.928C313.628 80.1617 310.135 83.651 310.135 87.9531V264.571C310.135 267.939 312.867 270.674 316.249 270.674H553.529C556.911 270.674 559.644 267.939 559.644 264.571V87.9442C559.644 83.6509 556.15 80.1617 551.85 80.1617ZM551.85 80.9142C555.724 80.9142 558.882 84.0675 558.882 87.9442V264.571C558.882 267.521 556.486 269.921 553.529 269.921H316.249C313.292 269.921 310.896 267.521 310.896 264.571V87.9531C310.896 84.072 314.054 80.9142 317.928 80.9142H551.85Z"></path>
<path fill="#231F20" d="M559.644 106.982H310.135V87.9462C310.135 83.6463 313.628 80.1593 317.928 80.1593H551.85C556.15 80.1593 559.644 83.6463 559.644 87.9462V106.982Z"></path>
<path fill="#F06F26" d="M353.045 93.5716C353.045 91.2985 354.904 89.4531 357.166 89.4531C359.45 89.4531 361.286 91.2985 361.286 93.5716C361.286 95.8493 359.45 97.6924 357.166 97.6924C354.904 97.6924 353.045 95.8493 353.045 93.5716Z"></path>
<path fill="#F6C64D" d="M337.189 93.5716C337.189 91.2985 339.048 89.4531 341.31 89.4531C343.595 89.4531 345.431 91.2985 345.431 93.5716C345.431 95.8493 343.595 97.6924 341.31 97.6924C339.048 97.6924 337.189 95.8493 337.189 93.5716Z"></path>
<path fill="white" d="M321.355 93.5716C321.355 91.2985 323.192 89.4531 325.476 89.4531C327.738 89.4531 329.597 91.2985 329.597 93.5716C329.597 95.8493 327.738 97.6924 325.476 97.6924C323.192 97.6924 321.355 95.8493 321.355 93.5716Z"></path>
<path fill="white" d="M540.004 90.5595L542.042 88.5193L544.953 91.4329L547.865 88.5193L549.903 90.5595L546.991 93.4731L549.903 96.3845L547.865 98.4248L544.953 95.5111L542.042 98.4248L540.004 96.3845L542.915 93.4731L540.004 90.5595Z"></path>
<path fill="#ABBCCF" d="M393.156 118.082L393.358 121.531H451.004L450.802 118.082H393.156Z"></path>
<path fill="#ABBCCF" d="M421.418 128.462L421.642 131.908H515.39L515.166 128.462H421.418Z"></path>
<path fill="#231F20" d="M393.311 128.462L393.512 131.908H417.363L417.139 128.462H393.311Z"></path>
<path fill="#ABBCCF" d="M393.043 138.835L393.245 142.286H440.969L440.611 138.835H393.043Z"></path>
<path fill="#231F20" d="M443.949 138.835L444.285 142.286H491.025L490.823 138.835H443.949Z"></path>
<path fill="#ABBCCF" d="M351.298 138.835L351.275 142.286H374.724L374.746 138.835H351.298Z"></path>
<path fill="#ABBCCF" d="M322.789 128.462V131.908H360.929V128.462H322.789Z"></path>
<path fill="#ABBCCF" d="M365.295 128.462V131.908H374.992L375.015 128.462H365.295Z"></path>
<path fill="#F6C64D" d="M356.023 118.082L356.068 121.531H375.418L375.44 118.082H356.023Z"></path>
<path fill="#F6C64D" d="M333.093 118.082L333.07 121.531H352.151L352.107 118.082H333.093Z"></path>
<path fill="#ABBCCF" d="M351.007 177.683L350.984 181.132H374.433L374.455 177.683H351.007Z"></path>
<path fill="#ABBCCF" d="M322.496 167.306V170.753H360.636V167.306H322.496Z"></path>
<path fill="#ABBCCF" d="M365.006 167.306V170.753H374.703L374.726 167.306H365.006Z"></path>
<path fill="#ABBCCF" d="M350.626 199.534L350.604 202.982H374.052L374.074 199.534H350.626Z"></path>
<path fill="#F6C64D" d="M322.138 189.157L322.115 192.604H360.255L360.277 189.157H322.138Z"></path>
<path fill="#F6C64D" d="M364.649 189.157L364.627 192.604H374.324L374.347 189.157H364.649Z"></path>
<path fill="#F6C64D" d="M355.736 156.928L355.781 160.375H375.131L375.153 156.928H355.736Z"></path>
<path fill="#F6C64D" d="M332.8 156.928L332.777 160.375H351.858L351.814 156.928H332.8Z"></path>
<path fill="#231F20" d="M456.715 118.082L456.939 121.531H474.43L474.206 118.082H456.715Z"></path>
<path fill="#ABBCCF" d="M521.215 128.462L521.416 131.908H549.411L549.209 128.462H521.215Z"></path>
<path fill="#ABBCCF" d="M496.178 138.835L496.379 142.286H524.777L524.553 138.835H496.178Z"></path>
<path fill="#ABBCCF" d="M482.045 118.082L482.47 121.531H531.897L531.494 118.082H482.045Z"></path>
<path fill="#ABBCCF" d="M392.863 156.928L393.065 160.375H450.711L450.509 156.928H392.863Z"></path>
<path fill="#ABBCCF" d="M421.131 167.306L421.355 170.753H515.102L514.878 167.306H421.131Z"></path>
<path fill="#ABBCCF" d="M393.021 167.306L393.223 170.753H417.074L416.85 167.306H393.021Z"></path>
<path fill="#ABBCCF" d="M392.754 177.683L392.955 181.132H440.68L440.322 177.683H392.754Z"></path>
<path fill="#ABBCCF" d="M443.66 177.683L443.996 181.132H490.736L490.534 177.683H443.66Z"></path>
<path fill="#ABBCCF" d="M456.424 156.928L456.648 160.375H474.139L473.915 156.928H456.424Z"></path>
<path fill="#ABBCCF" d="M520.922 167.306L521.124 170.753H549.118L548.916 167.306H520.922Z"></path>
<path fill="#231F20" d="M495.887 177.683L496.088 181.132H524.486L524.262 177.683H495.887Z"></path>
<path fill="#ABBCCF" d="M421.91 189.157L422.134 192.604H515.882L515.658 189.157H421.91Z"></path>
<path fill="#ABBCCF" d="M393.807 189.157L394.008 192.604H417.859L417.635 189.157H393.807Z"></path>
<path fill="#ABBCCF" d="M393.537 199.534L393.739 202.982H441.464L441.105 199.534H393.537Z"></path>
<path fill="#231F20" d="M444.443 199.534L444.779 202.982H491.519L491.317 199.534H444.443Z"></path>
<path fill="#231F20" d="M521.707 189.157L521.909 192.604H549.903L549.701 189.157H521.707Z"></path>
<path fill="#ABBCCF" d="M496.67 199.534L496.871 202.982H525.247L525.045 199.534H496.67Z"></path>
<path fill="#231F20" d="M481.752 156.928L482.178 160.375H531.605L531.201 156.928H481.752Z"></path>
<path fill="#ABBCCF" d="M350.247 235.273L350.225 238.724H373.673L373.695 235.273H350.247Z"></path>
<path fill="#ABBCCF" d="M321.737 224.898L321.715 228.345H359.854L359.877 224.898H321.737Z"></path>
<path fill="#ABBCCF" d="M364.243 224.898L364.221 228.345H373.918L373.94 224.898H364.243Z"></path>
<path fill="#ABBCCF" d="M349.866 257.123L349.844 260.574H373.292L373.314 257.123H349.866Z"></path>
<path fill="#F6C64D" d="M321.355 246.746V250.195H359.495V246.746H321.355Z"></path>
<path fill="#F6C64D" d="M363.863 246.746V250.195H373.561L373.583 246.746H363.863Z"></path>
<path fill="#F6C64D" d="M354.973 214.519L354.995 217.968H374.367L374.39 214.519H354.973Z"></path>
<path fill="#F6C64D" d="M332.038 214.519L332.016 217.968H351.074L351.052 214.519H332.038Z"></path>
<path fill="#ABBCCF" d="M392.104 214.519L392.305 217.968H449.951L449.727 214.519H392.104Z"></path>
<path fill="#ABBCCF" d="M420.367 224.898L420.591 228.345H514.316L514.115 224.898H420.367Z"></path>
<path fill="#ABBCCF" d="M392.238 224.898L392.462 228.345H416.313L416.09 224.898H392.238Z"></path>
<path fill="#ABBCCF" d="M391.969 235.273L392.193 238.724H439.895L439.559 235.273H391.969Z"></path>
<path fill="#ABBCCF" d="M442.896 235.273L443.232 238.724H489.972L489.771 235.273H442.896Z"></path>
<path fill="#ABBCCF" d="M455.662 214.519L455.864 217.968H473.355L473.153 214.519H455.662Z"></path>
<path fill="#ABBCCF" d="M520.162 224.898L520.364 228.345H548.358L548.157 224.898H520.162Z"></path>
<path fill="#231F20" d="M495.121 235.273L495.323 238.724H523.698L523.496 235.273H495.121Z"></path>
<path fill="#ABBCCF" d="M421.15 246.746L421.374 250.195H515.1L514.898 246.746H421.15Z"></path>
<path fill="#ABBCCF" d="M393.021 246.746L393.223 250.195H417.097L416.873 246.746H393.021Z"></path>
<path fill="#ABBCCF" d="M392.754 257.123L392.978 260.574H440.68L440.344 257.123H392.754Z"></path>
<path fill="#231F20" d="M443.66 257.123L444.018 260.574H490.758L490.556 257.123H443.66Z"></path>
<path fill="#231F20" d="M520.947 246.746L521.149 250.195H549.143L548.942 246.746H520.947Z"></path>
<path fill="#ABBCCF" d="M495.887 257.123L496.111 260.574H524.486L524.284 257.123H495.887Z"></path>
<path fill="#231F20" d="M480.992 214.519L481.395 217.968H530.845L530.419 214.519H480.992Z"></path>
<path fill="#231F20" d="M387.154 371.134V378.973H388.274V371.134H387.154Z"></path>
<path fill="#231F20" d="M541.863 375.776V391.366H540.743V375.776H541.863ZM541.863 349.05V364.639H540.743V349.05H541.863ZM541.863 322.327V337.917H540.743V322.327H541.863ZM541.863 295.601V311.19H540.743V295.601H541.863ZM540.609 402.409L541.706 402.58C540.855 408.143 536.353 412.463 530.755 413.083L530.643 411.97C535.726 411.405 539.825 407.473 540.609 402.409ZM519.557 412.039V413.159H503.969V412.039H519.557ZM492.839 412.039V413.159H477.251V412.039H492.839ZM466.121 412.039V413.159H450.511V412.039H466.121ZM439.381 412.039V413.159H423.793V412.039H439.381ZM397.21 411.775C398.016 411.95 398.845 412.039 399.673 412.039H412.663V413.159H399.673C398.755 413.159 397.859 413.06 396.963 412.868L397.21 411.775ZM388.274 390.107V400.654C388.274 402.277 388.61 403.847 389.282 405.318L388.252 405.777C387.535 404.161 387.154 402.436 387.154 400.654V390.107H388.274Z"></path>
<path fill="#231F20" d="M540.742 276.558V284.396H541.862V276.558H540.742Z"></path>
<path fill="white" d="M323.642 433.975C321.514 433.975 319.812 432.255 319.812 430.133V315.854C319.812 313.112 322.03 310.88 324.762 310.88H481.643C484.397 310.88 486.614 313.11 486.614 315.847V430.133C486.614 432.255 484.89 433.975 482.785 433.975H323.642Z"></path>
<path fill="#231F20" d="M481.642 310.627H324.761C321.894 310.627 319.543 312.967 319.543 315.854V430.134C319.543 432.393 321.379 434.229 323.641 434.229H482.784C485.046 434.229 486.882 432.393 486.882 430.134V315.847C486.882 312.967 484.531 310.627 481.642 310.627ZM481.642 311.133C484.24 311.133 486.367 313.247 486.367 315.847V430.134C486.367 432.113 484.755 433.724 482.784 433.724H323.641C321.671 433.724 320.058 432.113 320.058 430.134V315.854C320.058 313.249 322.163 311.133 324.761 311.133H481.642Z"></path>
<path fill="#231F20" d="M486.86 328.616H319.543V315.849C319.543 312.964 321.894 310.626 324.761 310.626H481.642C484.531 310.626 486.86 312.964 486.86 315.849V328.616Z"></path>
<path fill="#F06F26" d="M348.32 319.622C348.32 318.095 349.552 316.859 351.097 316.859C352.62 316.859 353.852 318.095 353.852 319.622C353.852 321.148 352.62 322.384 351.097 322.384C349.552 322.384 348.32 321.148 348.32 319.622Z"></path>
<path fill="#F6C64D" d="M337.682 319.622C337.682 318.095 338.936 316.859 340.459 316.859C341.982 316.859 343.213 318.095 343.213 319.622C343.213 321.148 341.982 322.384 340.459 322.384C338.936 322.384 337.682 321.148 337.682 319.622Z"></path>
<path fill="white" d="M329.819 322.133C328.43 322.133 327.311 321.006 327.311 319.622C327.311 318.238 328.43 317.112 329.819 317.112C331.207 317.112 332.327 318.238 332.327 319.622C332.327 321.006 331.207 322.133 329.819 322.133Z"></path>
<path fill="#231F20" d="M329.823 316.859C328.3 316.859 327.068 318.095 327.068 319.622C327.068 321.148 328.3 322.384 329.823 322.384C331.346 322.384 332.578 321.148 332.578 319.622C332.578 318.095 331.346 316.859 329.823 316.859ZM329.823 317.363C331.077 317.363 332.085 318.377 332.085 319.622C332.085 320.868 331.077 321.882 329.823 321.882C328.569 321.882 327.561 320.868 327.561 319.622C327.561 318.377 328.569 317.363 329.823 317.363Z"></path>
<path fill="white" d="M477.029 320.568L475.08 322.523L474.072 321.511L476.021 319.556L474.072 317.603L475.08 316.591L477.029 318.546L478.977 316.591L479.985 317.603L478.036 319.556L479.985 321.511L478.977 322.523L477.029 320.568Z"></path>
<path fill="#231F20" d="M478.974 316.233L477.025 318.189L475.077 316.233L473.711 317.6L475.659 319.555L473.711 321.51L475.077 322.876L477.025 320.923L478.974 322.876L480.34 321.51L478.391 319.555L480.34 317.6L478.974 316.233ZM475.077 316.946L476.667 318.545L477.025 318.901L477.384 318.542L478.974 316.946L479.623 317.6L478.033 319.199L477.675 319.555L478.033 319.913L479.623 321.51L478.974 322.164L477.384 320.567L477.025 320.209L476.667 320.567L475.077 322.166L474.405 321.51L476.018 319.913L476.376 319.555L476.018 319.199L474.405 317.6L475.077 316.946Z"></path>
<path fill="#231F20" d="M414.879 373.86V374.265L381.375 373.914L398.06 345.628L399.605 346.398C408.832 351.997 414.968 362.232 414.879 373.86Z"></path>
<path fill="#F6C64D" d="M332.597 382.045C332.575 382.593 332.597 383.136 332.62 383.673C332.709 385.722 332.978 387.74 333.448 389.688C334.232 392.967 335.509 396.082 337.188 398.915C337.793 399.905 338.42 400.854 339.114 401.77L339.405 402.138C344.288 408.453 351.409 412.846 359.584 413.712C363.951 414.176 367.87 414.092 371.386 413.571C371.633 413.538 371.857 413.504 372.103 413.462C387.713 410.828 394.946 399.33 396.94 388.547C396.962 388.317 397.007 388.079 397.052 387.849C397.276 386.47 397.41 385.106 397.477 383.781C397.499 383.306 397.522 382.824 397.522 382.342L368.676 382.009L367.982 382.002L366.101 381.982L362.451 357.347L362.339 356.655L362.316 356.415L362.047 354.536L361.465 350.68L359.36 351.094C345.542 353.09 334.635 364.429 332.866 378.106C332.642 379.85 332.597 381.113 332.597 382.045Z"></path>
<path fill="#ABBCCF" d="M369.933 377.898L365.006 344.018V344.016L367.089 343.604C369.888 343.205 372.889 343.116 376.159 343.597C380.392 344.209 384.356 345.676 387.872 347.808L369.933 377.898Z"></path>
<path fill="#231F20" d="M426.523 351.119V353.912H455.145L455.167 351.119H426.523Z"></path>
<path fill="#231F20" d="M426.523 359.518V362.309H478.235L478.279 359.518H426.523Z"></path>
<path fill="#231F20" d="M426.523 367.916V370.707H474.54L474.584 367.916H426.523Z"></path>
<path fill="#231F20" d="M458.148 353.912H466.972L467.017 351.119H458.171L458.148 353.912Z"></path>
<path fill="#231F20" d="M426.523 375.763V378.554H455.145L455.167 375.763H426.523Z"></path>
<path fill="#231F20" d="M426.526 384.161L426.504 386.952H478.238L478.282 384.161H426.526Z"></path>
<path fill="#231F20" d="M426.523 392.56V395.351H474.54L474.584 392.56H426.523Z"></path>
<path fill="#231F20" d="M458.148 378.554H466.972L467.017 375.763H458.171L458.148 378.554Z"></path>
<path fill="white" d="M299.349 461.135C297.072 461.135 295.213 459.276 295.213 456.994V353.986C295.213 351.036 297.611 348.64 300.554 348.64H439.158C442.114 348.64 444.51 351.034 444.51 353.979V456.994C444.51 459.276 442.652 461.135 440.367 461.135H299.349Z"></path>
<path fill="#231F20" d="M439.154 348.423H300.55C297.484 348.423 294.996 350.914 294.996 353.986V456.992C294.996 459.395 296.942 461.351 299.345 461.351H440.363C442.76 461.351 444.708 459.395 444.708 456.992V353.98C444.708 350.914 442.222 348.423 439.154 348.423ZM439.154 348.856C441.976 348.856 444.282 351.153 444.282 353.98V456.992C444.282 459.156 442.513 460.921 440.363 460.921H299.345C297.182 460.921 295.426 459.156 295.426 456.992V353.986C295.426 351.158 297.724 348.856 300.55 348.856H439.154Z"></path>
<path fill="#231F20" d="M444.71 367.576H294.996V353.984C294.996 350.911 297.482 348.423 300.552 348.423H439.156C442.224 348.423 444.71 350.911 444.71 353.984V367.576Z"></path>
<path fill="#F6C64D" d="M325.633 358C325.633 356.374 326.954 355.057 328.567 355.057C330.201 355.057 331.523 356.374 331.523 358C331.523 359.624 330.201 360.94 328.567 360.94C326.954 360.94 325.633 359.624 325.633 358Z"></path>
<path fill="white" d="M317.256 360.723C315.755 360.723 314.523 359.5 314.523 357.999C314.523 356.497 315.755 355.274 317.256 355.274C318.756 355.274 319.988 356.497 319.988 357.999C319.988 359.5 318.756 360.723 317.256 360.723Z"></path>
<path fill="#231F20" d="M317.257 355.057C315.622 355.057 314.301 356.374 314.301 358C314.301 359.624 315.622 360.94 317.257 360.94C318.869 360.94 320.191 359.624 320.191 358C320.191 356.374 318.869 355.057 317.257 355.057ZM317.257 355.487C318.645 355.487 319.765 356.614 319.765 358C319.765 359.384 318.645 360.51 317.257 360.51C315.868 360.51 314.749 359.384 314.749 358C314.749 356.614 315.868 355.487 317.257 355.487Z"></path>
<path fill="#F06F26" d="M302.996 358C302.996 356.374 304.313 355.057 305.937 355.057C307.563 355.057 308.879 356.374 308.879 358C308.879 359.624 307.563 360.94 305.937 360.94C304.313 360.94 302.996 359.624 302.996 358Z"></path>
<path fill="#FCFCFD" d="M430.691 355.85L432.147 354.392L434.23 356.473L436.313 354.392L437.769 355.85L435.686 357.929L437.769 360.009L436.313 361.465L434.23 359.387L432.147 361.465L430.691 360.009L432.774 357.929L430.691 355.85Z"></path>
<path fill="#231F20" d="M329.891 447.109L329.846 444.639H308.889L308.938 447.109H329.891Z"></path>
<path fill="#231F20" d="M358.915 447.109L358.848 444.639H337.908L337.953 447.109H358.915Z"></path>
<path fill="#231F20" d="M321.716 439.952L321.671 437.487H309.309L309.353 439.952H321.716Z"></path>
<path fill="#231F20" d="M335.217 432.527L335.173 430.06H309.053L309.104 432.527H335.217Z"></path>
<path fill="#231F20" d="M326.732 439.952L326.687 437.487H322.947L322.992 439.952H326.732Z"></path>
<path fill="#231F20" d="M350.739 439.952L350.672 437.487H338.332L338.377 439.952H350.739Z"></path>
<path fill="#231F20" d="M364.243 432.527L364.198 430.06H338.062L338.107 432.527H364.243Z"></path>
<path fill="#231F20" d="M355.756 439.952L355.689 437.487H351.949L351.994 439.952H355.756Z"></path>
<path fill="#231F20" d="M395.419 447.109L395.374 444.639H374.412L374.457 447.109H395.419Z"></path>
<path fill="#231F20" d="M424.446 447.109L424.378 444.639H403.416L403.483 447.109H424.446Z"></path>
<path fill="#231F20" d="M387.241 439.952L387.196 437.487H374.834L374.879 439.952H387.241Z"></path>
<path fill="#231F20" d="M400.75 432.527L400.705 430.06H374.592L374.637 432.527H400.75Z"></path>
<path fill="#231F20" d="M392.26 439.952L392.215 437.487H388.475L388.519 439.952H392.26Z"></path>
<path fill="#231F20" d="M416.267 439.952L416.199 437.487H403.859L403.904 439.952H416.267Z"></path>
<path fill="#F6C64D" d="M429.772 432.527L429.727 430.06H403.592L403.637 432.527H429.772Z"></path>
<path fill="#231F20" d="M421.284 439.952L421.217 437.487H417.477L417.521 439.952H421.284Z"></path>
<path fill="#F06F26" d="M329.999 409.228L311.075 401.019L311.053 396.464L329.977 388.254V393.62L316.786 398.681L329.999 403.899V409.228Z"></path>
<path fill="#F06F26" d="M331.746 412.84L338.554 384.292L342.518 384.287L335.643 412.836L331.746 412.84Z"></path>
<path fill="#F06F26" d="M344.31 409.23L344.287 403.903L357.5 398.691L344.287 393.567V388.277L363.234 396.448V400.962L344.31 409.23Z"></path>
<path fill="#F06F26" d="M417.86 412.355H385.969V380.465H417.86V412.355Z"></path>
<path fill="white" d="M388.68 410.167L398.019 391.655L403.573 403.345L407.492 397.159L415.106 410.091L388.68 410.167Z"></path>
<path fill="#231F20" d="M398.017 392.146L389.036 409.952L414.746 409.878L407.49 397.571L403.548 403.79L398.017 392.146ZM388.342 410.384L398.017 391.164L403.593 402.897L407.49 396.745L415.485 410.306H415.127L388.342 410.384Z"></path>
<path fill="white" d="M403.971 391.325C402.941 391.315 402.135 390.479 402.135 389.457C402.135 388.448 402.963 387.625 403.971 387.625C405.024 387.637 405.83 388.472 405.83 389.491C405.83 390.504 405.002 391.325 403.994 391.325H403.971Z"></path>
<path fill="#231F20" d="M403.973 387.411C402.853 387.411 401.935 388.324 401.912 389.455C401.912 390.598 402.83 391.529 403.973 391.54H403.995C405.115 391.54 406.033 390.628 406.055 389.496C406.055 388.353 405.137 387.421 403.995 387.411H403.973ZM403.973 387.411L403.995 387.843C404.443 387.847 404.846 388.02 405.159 388.331C405.451 388.642 405.63 389.055 405.607 389.491C405.607 390.383 404.868 391.11 403.973 391.11C403.077 391.102 402.338 390.362 402.36 389.46C402.36 388.568 403.099 387.843 403.973 387.843V387.411Z"></path>
<path fill="#FCFCFD" d="M388.295 410.329L388.004 410.038L415.55 382.491L415.842 382.785L388.295 410.329Z"></path>
<path fill="#FCFCFD" d="M415.55 410.329L388.004 382.785L388.295 382.491L415.842 410.038L415.55 410.329Z"></path>
<path fill="#231F20" d="M415.129 410.587C414.457 410.587 414.367 410.441 414.367 410.281C414.367 410.132 414.457 409.977 415.129 409.977C415.8 409.977 415.89 410.132 415.89 410.281C415.89 410.441 415.8 410.587 415.129 410.587Z"></path>
<path fill="#231F20" d="M412.865 410.587C412.193 410.587 412.104 410.441 412.104 410.281C412.104 410.132 412.193 409.977 412.865 409.977C413.559 409.977 413.649 410.132 413.649 410.281C413.649 410.441 413.537 410.587 412.865 410.587Z"></path>
<path fill="#231F20" d="M410.624 410.587C409.929 410.587 409.84 410.441 409.84 410.281C409.84 410.132 409.929 409.977 410.624 409.977C411.296 409.977 411.385 410.132 411.385 410.281C411.385 410.441 411.296 410.587 410.624 410.587Z"></path>
<path fill="#231F20" d="M408.36 410.587C407.688 410.587 407.576 410.441 407.576 410.281C407.576 410.132 407.688 409.977 408.36 409.977C409.032 409.977 409.121 410.132 409.121 410.281C409.121 410.441 409.032 410.587 408.36 410.587Z"></path>
<path fill="#231F20" d="M406.099 410.587C405.427 410.587 405.338 410.441 405.338 410.281C405.338 410.132 405.427 409.977 406.099 409.977C406.771 409.977 406.883 410.132 406.883 410.281C406.883 410.441 406.771 410.587 406.099 410.587Z"></path>
<path fill="#231F20" d="M403.838 410.587C403.166 410.587 403.076 410.441 403.076 410.281C403.076 410.132 403.166 409.977 403.838 409.977C404.532 409.977 404.622 410.132 404.622 410.281C404.622 410.441 404.532 410.587 403.838 410.587Z"></path>
<path fill="#231F20" d="M401.6 410.587C400.906 410.587 400.816 410.441 400.816 410.281C400.816 410.132 400.906 409.977 401.6 409.977C402.272 409.977 402.362 410.132 402.362 410.281C402.362 410.441 402.272 410.587 401.6 410.587Z"></path>
<path fill="#231F20" d="M399.337 410.587C398.666 410.587 398.576 410.441 398.576 410.281C398.576 410.132 398.666 409.977 399.337 409.977C400.009 409.977 400.099 410.132 400.099 410.281C400.099 410.441 400.009 410.587 399.337 410.587Z"></path>
<path fill="#231F20" d="M397.078 410.587C396.406 410.587 396.316 410.441 396.316 410.281C396.316 410.132 396.406 409.977 397.078 409.977C397.772 409.977 397.862 410.132 397.862 410.281C397.862 410.441 397.772 410.587 397.078 410.587Z"></path>
<path fill="#231F20" d="M394.837 410.587C394.142 410.587 394.053 410.441 394.053 410.281C394.053 410.132 394.142 409.977 394.837 409.977C395.508 409.977 395.598 410.132 395.598 410.281C395.598 410.441 395.508 410.587 394.837 410.587Z"></path>
<path fill="#231F20" d="M392.574 410.587C391.902 410.587 391.812 410.441 391.812 410.281C391.812 410.132 391.902 409.977 392.574 409.977C393.246 409.977 393.335 410.132 393.335 410.281C393.335 410.441 393.246 410.587 392.574 410.587Z"></path>
<path fill="#231F20" d="M390.312 410.587C389.64 410.587 389.551 410.441 389.551 410.281C389.551 410.132 389.64 409.977 390.312 409.977C390.984 409.977 391.096 410.132 391.096 410.281C391.096 410.441 390.984 410.587 390.312 410.587Z"></path>
<path fill="#231F20" d="M388.452 410.696L388.295 410.577L388.161 410.584L387.847 410.593V410.197V410.172L387.623 409.966L387.847 409.971C387.869 409.498 388.004 409.426 388.138 409.426C388.295 409.426 388.407 409.503 388.452 409.997C388.653 410.031 388.832 410.105 388.832 410.282C388.832 410.457 388.676 410.533 388.452 410.561V410.696Z"></path>
<path fill="#231F20" d="M388.139 408.713C388.004 408.713 387.848 408.621 387.848 407.942C387.848 407.266 388.004 407.174 388.139 407.174C388.296 407.174 388.452 407.266 388.452 407.942C388.452 408.619 388.296 408.713 388.139 408.713Z"></path>
<path fill="#231F20" d="M388.139 406.457C388.004 406.457 387.848 406.365 387.848 405.686C387.848 405.008 388.004 404.916 388.139 404.916C388.296 404.916 388.452 405.01 388.452 405.686C388.452 406.363 388.296 406.457 388.139 406.457Z"></path>
<path fill="#231F20" d="M388.139 404.202C388.004 404.202 387.848 404.11 387.848 403.43C387.848 402.753 388.004 402.662 388.139 402.662C388.296 402.662 388.452 402.755 388.452 403.43C388.452 404.108 388.296 404.202 388.139 404.202Z"></path>
<path fill="#231F20" d="M388.139 401.947C388.004 401.947 387.848 401.855 387.848 401.176C387.848 400.498 388.004 400.407 388.139 400.407C388.296 400.407 388.452 400.5 388.452 401.176C388.452 401.855 388.296 401.947 388.139 401.947Z"></path>
<path fill="#231F20" d="M388.139 399.69C388.004 399.69 387.848 399.599 387.848 398.921C387.848 398.239 388.004 398.15 388.139 398.15C388.296 398.15 388.452 398.239 388.452 398.921C388.452 399.597 388.296 399.69 388.139 399.69Z"></path>
<path fill="#231F20" d="M388.139 397.436C388.004 397.436 387.848 397.344 387.848 396.666C387.848 395.984 388.004 395.892 388.139 395.892C388.296 395.892 388.452 395.987 388.452 396.666C388.452 397.342 388.296 397.436 388.139 397.436Z"></path>
<path fill="#231F20" d="M388.139 395.18C388.004 395.18 387.848 395.088 387.848 394.407C387.848 393.731 388.004 393.639 388.139 393.639C388.296 393.639 388.452 393.734 388.452 394.407C388.452 395.086 388.296 395.18 388.139 395.18Z"></path>
<path fill="#231F20" d="M388.139 392.922C388.004 392.922 387.848 392.833 387.848 392.154C387.848 391.478 388.004 391.384 388.139 391.384C388.296 391.384 388.452 391.48 388.452 392.154C388.452 392.833 388.296 392.922 388.139 392.922Z"></path>
<path fill="#231F20" d="M388.139 390.668C388.004 390.668 387.848 390.576 387.848 389.9C387.848 389.219 388.004 389.129 388.139 389.129C388.296 389.129 388.452 389.224 388.452 389.9C388.452 390.573 388.296 390.668 388.139 390.668Z"></path>
<path fill="#231F20" d="M388.139 388.416C388.004 388.416 387.848 388.324 387.848 387.642C387.848 386.965 388.004 386.875 388.139 386.875C388.296 386.875 388.452 386.966 388.452 387.642C388.452 388.322 388.296 388.416 388.139 388.416Z"></path>
<path fill="#231F20" d="M388.139 386.156C388.004 386.156 387.848 386.064 387.848 385.385C387.848 384.707 388.004 384.616 388.139 384.616C388.296 384.616 388.452 384.709 388.452 385.385C388.452 386.063 388.296 386.156 388.139 386.156Z"></path>
<path fill="#231F20" d="M389.996 383.042C389.324 383.042 389.234 382.887 389.234 382.735C389.234 382.578 389.324 382.433 389.996 382.433C390.69 382.433 390.78 382.578 390.78 382.735C390.78 382.887 390.69 383.042 389.996 383.042Z"></path>
<path fill="#231F20" d="M392.26 383.042C391.588 383.042 391.498 382.887 391.498 382.735C391.498 382.578 391.588 382.433 392.26 382.433C392.931 382.433 393.021 382.578 393.021 382.735C393.021 382.887 392.931 383.042 392.26 383.042Z"></path>
<path fill="#231F20" d="M394.52 383.042C393.826 383.042 393.736 382.887 393.736 382.735C393.736 382.578 393.848 382.433 394.52 382.433C395.192 382.433 395.282 382.578 395.282 382.735C395.282 382.887 395.192 383.042 394.52 383.042Z"></path>
<path fill="#231F20" d="M396.761 383.042C396.089 383.042 396 382.887 396 382.735C396 382.578 396.089 382.433 396.761 382.433C397.456 382.433 397.545 382.578 397.545 382.735C397.545 382.887 397.456 383.042 396.761 383.042Z"></path>
<path fill="#231F20" d="M399.023 383.042C398.351 383.042 398.262 382.887 398.262 382.735C398.262 382.578 398.351 382.433 399.023 382.433C399.695 382.433 399.785 382.578 399.785 382.735C399.785 382.887 399.695 383.042 399.023 383.042Z"></path>
<path fill="#231F20" d="M401.286 383.042C400.614 383.042 400.502 382.887 400.502 382.735C400.502 382.578 400.614 382.433 401.286 382.433C401.958 382.433 402.047 382.578 402.047 382.735C402.047 382.887 401.958 383.042 401.286 383.042Z"></path>
<path fill="#231F20" d="M403.549 383.042C402.855 383.042 402.766 382.887 402.766 382.735C402.766 382.578 402.855 382.433 403.549 382.433C404.221 382.433 404.311 382.578 404.311 382.735C404.311 382.887 404.221 383.042 403.549 383.042Z"></path>
<path fill="#231F20" d="M405.787 383.042C405.115 383.042 405.025 382.887 405.025 382.735C405.025 382.578 405.115 382.433 405.787 382.433C406.459 382.433 406.571 382.578 406.571 382.735C406.571 382.887 406.481 383.042 405.787 383.042Z"></path>
<path fill="#231F20" d="M408.049 383.042C407.377 383.042 407.287 382.887 407.287 382.735C407.287 382.578 407.377 382.433 408.049 382.433C408.721 382.433 408.81 382.578 408.81 382.735C408.81 382.887 408.721 383.042 408.049 383.042Z"></path>
<path fill="#231F20" d="M410.311 383.042C409.617 383.042 409.527 382.887 409.527 382.735C409.527 382.578 409.617 382.433 410.311 382.433C410.983 382.433 411.073 382.578 411.073 382.735C411.073 382.887 410.983 383.042 410.311 383.042Z"></path>
<path fill="#231F20" d="M412.548 383.042C411.877 383.042 411.787 382.887 411.787 382.735C411.787 382.578 411.877 382.433 412.548 382.433C413.243 382.433 413.332 382.578 413.332 382.735C413.332 382.887 413.243 383.042 412.548 383.042Z"></path>
<path fill="#231F20" d="M414.812 383.042C414.14 383.042 414.051 382.887 414.051 382.735C414.051 382.578 414.14 382.433 414.812 382.433C415.484 382.433 415.574 382.578 415.574 382.735C415.574 382.887 415.484 383.042 414.812 383.042Z"></path>
<path fill="#231F20" d="M415.688 384.887C415.531 384.887 415.396 384.793 415.396 384.119C415.396 383.441 415.531 383.349 415.688 383.349C415.844 383.349 416.001 383.441 416.001 384.119C416.001 384.796 415.844 384.887 415.688 384.887Z"></path>
<path fill="#231F20" d="M415.688 387.143C415.531 387.143 415.396 387.051 415.396 386.373C415.396 385.698 415.531 385.605 415.688 385.605C415.844 385.605 416.001 385.696 416.001 386.373C416.001 387.051 415.844 387.143 415.688 387.143Z"></path>
<path fill="#231F20" d="M415.688 389.399C415.531 389.399 415.396 389.305 415.396 388.627C415.396 387.952 415.531 387.859 415.688 387.859C415.844 387.859 416.001 387.951 416.001 388.627C416.001 389.308 415.844 389.399 415.688 389.399Z"></path>
<path fill="#231F20" d="M415.688 391.654C415.531 391.654 415.396 391.56 415.396 390.884C415.396 390.205 415.531 390.114 415.688 390.114C415.844 390.114 416.001 390.205 416.001 390.884C416.001 391.562 415.844 391.654 415.688 391.654Z"></path>
<path fill="#231F20" d="M415.688 393.911C415.531 393.911 415.396 393.819 415.396 393.14C415.396 392.461 415.531 392.37 415.688 392.37C415.844 392.37 416.001 392.461 416.001 393.14C416.001 393.819 415.844 393.911 415.688 393.911Z"></path>
<path fill="#231F20" d="M415.688 396.166C415.531 396.166 415.396 396.072 415.396 395.395C415.396 394.719 415.531 394.625 415.688 394.625C415.844 394.625 416.001 394.716 416.001 395.395C416.001 396.074 415.844 396.166 415.688 396.166Z"></path>
<path fill="#231F20" d="M415.688 398.422C415.531 398.422 415.396 398.327 415.396 397.651C415.396 396.975 415.531 396.88 415.688 396.88C415.844 396.88 416.001 396.972 416.001 397.651C416.001 398.33 415.844 398.422 415.688 398.422Z"></path>
<path fill="#231F20" d="M415.688 400.677C415.531 400.677 415.396 400.582 415.396 399.906C415.396 399.23 415.531 399.138 415.688 399.138C415.844 399.138 416.001 399.23 416.001 399.906C416.001 400.585 415.844 400.677 415.688 400.677Z"></path>
<path fill="#231F20" d="M415.688 402.931C415.531 402.931 415.396 402.837 415.396 402.158C415.396 401.485 415.531 401.39 415.688 401.39C415.844 401.39 416.001 401.485 416.001 402.158C416.001 402.84 415.844 402.931 415.688 402.931Z"></path>
<path fill="#231F20" d="M415.688 405.186C415.531 405.186 415.396 405.092 415.396 404.416C415.396 403.739 415.531 403.645 415.688 403.645C415.844 403.645 416.001 403.737 416.001 404.416C416.001 405.094 415.844 405.186 415.688 405.186Z"></path>
<path fill="#231F20" d="M415.688 407.445C415.531 407.445 415.396 407.349 415.396 406.675C415.396 405.997 415.531 405.902 415.688 405.902C415.844 405.902 416.001 405.994 416.001 406.675C416.001 407.353 415.844 407.445 415.688 407.445Z"></path>
<path fill="#231F20" d="M415.688 409.696C415.531 409.696 415.396 409.603 415.396 408.928C415.396 408.249 415.531 408.156 415.688 408.156C415.844 408.156 416.001 408.248 416.001 408.928C416.001 409.604 415.844 409.696 415.688 409.696Z"></path>
<path fill="#231F20" d="M416.716 411.02H414.678V408.982H416.716V411.02Z"></path>
<path fill="#231F20" d="M414.881 410.817H416.493V409.189H414.881V410.817ZM416.919 411.228H414.455V408.777H416.919V411.228Z"></path>
<path fill="#231F20" d="M389.167 411.301H387.129V409.261H389.167V411.301Z"></path>
<path fill="#231F20" d="M387.334 411.096H388.969V409.469H387.334V411.096ZM389.372 411.508H386.908V409.055H389.372V411.508Z"></path>
<path fill="#231F20" d="M416.716 383.559H414.678V381.517H416.716V383.559Z"></path>
<path fill="#231F20" d="M414.881 383.352H416.493V381.722H414.881V383.352ZM416.919 383.762H414.455V381.312H416.919V383.762Z"></path>
<path fill="#231F20" d="M389.167 383.758H387.129V381.718H389.167V383.758Z"></path>
<path fill="#231F20" d="M387.334 383.55H388.969V381.924H387.334V383.55ZM389.372 383.962H386.908V381.512H389.372V383.962Z"></path>
<path fill="#231F20" d="M544.485 262.143C544.485 264.205 542.805 265.876 540.745 265.876C538.685 265.876 537.027 264.205 537.027 262.143C537.027 260.082 538.685 258.409 540.745 258.409C542.805 258.409 544.485 260.082 544.485 262.143Z"></path>
<path fill="white" d="M243.553 483.357C242.437 481.962 230.384 483.129 230.263 483.849C229.894 486.069 229.325 494.565 230.471 495.692C231.587 496.783 241.994 499.15 242.229 497.002C242.435 495.139 244.628 484.701 243.553 483.357Z"></path>
<path fill="#231F20" d="M230.784 484.155C230.311 487.262 230.072 494.516 230.864 495.293C231.65 496.061 239.216 497.906 241.377 497.136L241.675 496.943C241.722 496.509 241.876 495.615 242.071 494.482C242.539 491.774 243.78 484.583 243.119 483.709C242.232 482.805 232.427 483.44 230.784 484.155ZM239.87 498.43C236.526 498.43 231.057 497.048 230.081 496.094C228.598 494.638 229.469 485.226 229.711 483.759C229.792 483.291 230.302 483.12 230.82 482.986C233.023 482.413 242.709 481.403 243.99 483.008C244.817 484.043 244.344 487.904 243.175 494.672C242.985 495.774 242.835 496.643 242.785 497.064C242.747 497.422 242.537 497.91 241.755 498.19C241.292 498.356 240.636 498.43 239.87 498.43Z"></path>
<path fill="#231F20" d="M229.619 493.098C229.619 493.098 224.05 501.064 228.034 507.321C228.034 507.321 257.049 508.688 265.81 507.321C265.81 507.321 266.039 496.627 258.53 495.716C251.018 494.804 242.559 494.932 242.559 494.932C242.559 494.932 235.075 499.015 229.619 493.098Z"></path>
<path fill="white" d="M177.652 483.404C176.536 482.009 166.205 483.129 166.084 483.85C165.715 486.069 165.144 494.566 166.293 495.692C167.408 496.783 176.476 500.315 176.711 498.165C176.913 496.306 178.729 484.746 177.652 483.404Z"></path>
<path fill="#231F20" d="M166.604 484.135C166.13 487.235 165.888 494.514 166.683 495.29C167.632 496.22 174.405 498.802 176.017 498.206L176.154 498.103C176.187 497.792 176.266 497.212 176.369 496.451C177.419 488.684 177.704 484.413 177.213 483.753C176.476 482.858 168.114 483.396 166.604 484.135ZM175.437 499.394C172.588 499.394 166.83 497.002 165.899 496.092C164.416 494.636 165.288 485.224 165.529 483.757C165.603 483.313 166.056 483.112 166.757 482.928C168.68 482.426 176.815 481.461 178.089 483.051C178.85 484.005 178.684 487.676 177.477 496.6C177.377 497.346 177.3 497.919 177.267 498.227C177.213 498.713 176.902 499.079 176.393 499.261C176.136 499.353 175.811 499.394 175.437 499.394Z"></path>
<path fill="#231F20" d="M229.943 380.201C231.307 397.269 230.055 431.684 228.689 448.752C228.606 449.901 228.606 489.55 228.606 489.55L244.648 491.084C253.384 465.024 270.062 406.581 270.062 380.638C270.062 354.693 267.823 311.46 258.289 290.951C249.223 271.449 213.462 298.381 209.258 303.163C207.317 305.373 210.989 325.115 216.069 338.196C221.965 353.353 229.206 371.024 229.943 380.201Z"></path>
<path fill="#231F20" d="M228.605 489.549L238.501 490.496C237.601 484.267 238.488 470.376 238.844 464.042C239.498 453.008 242.23 442.221 244.799 431.515C248.839 414.528 252.691 396.534 247.885 379.271C245.399 370.396 239.961 364.223 235.538 356.385C232.589 351.086 231.115 345.131 231.554 339.069C231.8 335.768 233.847 331.589 232.728 328.283C231.335 324.104 218.84 309.981 215.644 312.111C211.792 314.707 213.738 324.738 212.18 329.407C218.081 344.562 229.205 371.023 229.941 380.2C231.305 397.268 228.484 431.537 227.55 448.637C226.618 465.662 228.605 489.549 228.605 489.549Z"></path>
<path fill="#231F20" d="M164.851 489.55L179.097 491.084C186.528 466.505 206.395 424.511 209.32 398.729C213.85 358.693 219.326 315.821 219.57 305.279C219.597 303.584 219.626 302.681 219.626 302.681C209.822 290.747 193.206 285.882 185.804 285.009C182.88 284.655 180.75 285.226 179.823 286.758C176.817 291.781 174.468 296.424 172.638 300.796C160.704 329.142 170.752 346.265 170.537 383.135C170.537 385.267 170.508 387.45 170.455 389.61C170.072 404.847 174.183 423.615 169.801 439.536C161.207 470.76 164.851 489.55 164.851 489.55Z"></path>
<path fill="#231F20" d="M310.425 226.901C309.798 231.497 309.193 236.059 308.571 240.625C308.344 242.278 308.12 244.009 307.28 245.442C306.447 246.898 306.114 247.814 304.51 247.306C302.324 246.616 301.364 243.859 299.232 243.015C297.704 242.379 295.861 242.961 294.515 243.935C293.162 244.93 292.134 246.314 290.994 247.536C287.442 251.359 283.781 255.825 279.288 256.728C278.688 256.159 278.095 255.565 277.555 254.981C276.639 253.971 275.799 253.005 274.991 252.016C273.92 250.623 272.948 249.279 272.086 247.946C272.829 246.435 273.898 245.14 274.939 243.846C280.478 237.028 286.15 230.063 293.639 225.528C294.284 225.134 294.956 224.747 295.662 224.503C296.083 225.316 296.425 226.093 296.795 226.874C297.021 227.351 297.276 227.835 297.478 228.285C300.987 235.801 302.517 240.036 303.738 240.872C305.841 242.238 306.707 234.424 308.575 225.428V225.401C308.696 225.148 308.88 224.892 309.148 224.771C309.596 224.588 310.156 224.944 310.358 225.43C310.537 225.887 310.47 226.408 310.425 226.901Z"></path>
<path fill="white" d="M327.402 186.617C325.588 186.462 321.982 189.139 320.437 190.308C317.279 192.74 314.368 196.137 313.248 200.014C312.979 199.828 312.688 199.658 312.397 199.505C312.576 198.916 312.867 198.345 313.159 197.855C313.898 196.554 312.151 194.966 311.053 196.146C310.001 197.293 309.15 198.504 309.351 200.142C309.374 200.399 311.345 208.435 312.464 210.918C311.322 212.894 310.27 217.245 309.239 222.143C309.022 223.222 308.8 224.297 308.576 225.401V225.428C306.709 234.422 305.842 242.238 303.739 240.872C302.519 240.037 300.989 235.802 297.479 228.286C297.278 227.836 297.023 227.352 296.796 226.875C296.427 226.093 296.084 225.316 295.663 224.503L295.58 224.322C288.501 209.337 278.663 194.146 269.904 189.152C261.239 184.227 266.468 223.982 266.468 223.982C266.468 223.982 265.814 227.502 266.144 232.617C266.433 237.645 267.937 241.322 271.671 247.271C271.801 247.486 271.962 247.703 272.087 247.947C272.95 249.28 273.922 250.623 274.992 252.016C275.801 253.006 276.64 253.971 277.556 254.981C278.096 255.566 278.69 256.159 279.29 256.728C284.974 262.273 293.067 267.44 304.639 270.128C316.518 272.862 324.67 255.187 324.446 235.706C324.334 227.193 323.304 217.894 321.669 208.719C322.385 208.291 323.125 207.646 324.177 206.616C327.402 203.864 326.036 200.829 325.118 201.454C326.618 199.615 325.969 197.317 324.849 197.62C325.79 195.806 323.976 192.294 321.602 194.395C322.565 192.773 325.723 190.267 327.514 189.32C329.082 188.491 328.925 186.751 327.402 186.617Z"></path>
<path fill="#231F20" d="M268.524 189.287C268.212 189.287 267.991 189.395 267.827 189.505C263.814 192.206 265.89 215.253 267.025 223.907L267.037 223.996L267.023 224.083C267.016 224.115 266.385 227.604 266.703 232.583C266.978 237.346 268.3 240.844 272.147 246.972L272.284 247.189L272.586 247.686C273.361 248.88 274.302 250.199 275.437 251.672C276.19 252.593 277.02 253.556 277.972 254.604C278.501 255.175 279.085 255.76 279.677 256.32C286.312 262.796 294.751 267.255 304.769 269.582C307.895 270.297 310.853 269.564 313.541 267.392C319.879 262.286 324.044 249.554 323.888 235.711C323.776 227.664 322.813 218.366 321.111 208.816L321.043 208.436L321.379 208.236C322.074 207.818 322.835 207.15 323.798 206.212C325.702 204.575 325.679 203.061 325.635 202.633C325.567 202.174 325.388 201.952 325.343 201.923L322.163 204.075L324.694 201.099C325.59 200.001 325.545 198.788 325.254 198.313L324.985 198.158L323.753 198.485L324.336 197.361C324.761 196.546 324.448 195.122 323.709 194.541C323.193 194.154 322.611 194.244 321.984 194.81L319.319 197.164L321.133 194.109C322.163 192.331 325.522 189.751 327.269 188.824C327.896 188.486 328.12 187.995 328.053 187.664C328.008 187.388 327.74 187.209 327.359 187.176C326.732 187.149 325.03 187.512 320.797 190.75C318.737 192.331 315.086 195.655 313.787 200.165L313.586 200.911L312.936 200.476C312.69 200.299 312.421 200.143 312.13 200.002L311.727 199.784L311.861 199.336C312.063 198.689 312.376 198.084 312.667 197.581C312.936 197.104 312.623 196.642 312.354 196.445C312.175 196.311 311.817 196.134 311.458 196.526C310.406 197.675 309.734 198.714 309.913 200.071C309.98 200.519 311.906 208.301 312.959 210.689L313.093 210.946L312.936 211.195C311.794 213.199 310.697 217.913 309.801 222.258L309.667 222.917C309.487 223.774 309.308 224.634 309.129 225.51C308.739 227.398 308.399 229.203 308.081 230.887C306.802 237.615 306.123 240.873 304.688 241.487C304.406 241.606 303.96 241.68 303.434 241.341C302.437 240.656 301.497 238.551 299.622 234.352C298.885 232.699 298.016 230.755 296.975 228.52C296.856 228.26 296.724 227.994 296.592 227.725L295.981 226.446C295.725 225.893 295.465 225.335 295.168 224.76L295.044 224.473C286.812 207.067 277.298 194.013 269.628 189.637C269.169 189.377 268.808 189.287 268.524 189.287ZM307.073 270.971C306.233 270.971 305.382 270.872 304.518 270.671C294.296 268.299 285.681 263.741 278.9 257.128C278.299 256.557 277.695 255.955 277.146 255.357C276.179 254.295 275.334 253.316 274.562 252.369C273.397 250.857 272.436 249.514 271.619 248.25L271.345 247.8L271.195 247.563C267.285 241.332 265.87 237.568 265.585 232.65C265.283 227.913 265.805 224.56 265.903 223.967C265.431 220.328 261.93 192.125 267.204 188.575C267.796 188.183 268.786 187.877 270.183 188.663C278.046 193.148 287.732 206.389 296.088 224.083L296.2 224.343C296.467 224.836 296.733 225.407 296.997 225.974L297.595 227.228C297.734 227.51 297.873 227.79 297.994 228.054C299.033 230.289 299.904 232.238 300.643 233.893C302.263 237.519 303.329 239.91 304.059 240.41L304.249 240.457C305.199 240.051 306.106 235.288 306.979 230.679C307.299 228.988 307.644 227.174 308.029 225.313C308.204 224.41 308.383 223.548 308.562 222.69L308.699 222.03C309.644 217.546 310.674 213.114 311.839 210.886C310.674 208.082 308.827 200.474 308.793 200.21C308.556 198.322 309.532 196.956 310.652 195.764C311.279 195.066 312.242 194.976 313.026 195.54C313.451 195.861 313.81 196.394 313.877 196.987C315.646 193.639 318.401 191.175 320.103 189.861C323.619 187.178 326.038 185.912 327.448 186.06C328.344 186.136 328.994 186.667 329.151 187.44C329.33 188.347 328.792 189.279 327.784 189.814C326.485 190.504 324.604 191.921 323.305 193.204C323.686 193.249 324.045 193.399 324.38 193.659C325.366 194.416 325.836 195.923 325.59 197.155C325.814 197.269 326.015 197.455 326.194 197.706C326.665 198.458 326.732 199.795 326.06 201.063L326.306 201.314C327.113 202.373 327.113 204.85 324.56 207.038C323.686 207.878 322.969 208.521 322.275 208.989C323.955 218.467 324.896 227.694 325.007 235.696C325.164 250.089 320.954 262.872 314.235 268.265C312.018 270.066 309.599 270.971 307.073 270.971Z"></path>
<path fill="#F6C64D" d="M273.569 253.927C271.077 250.558 267.247 246.724 263.841 242.989C262.553 241.562 261.319 240.142 260.235 238.803C258.719 236.897 257.494 235.065 256.847 233.439C256.502 232.662 256.32 231.914 256.269 231.213C256.197 229.791 256.551 225.227 257.274 219.424C259.198 204.381 264.204 184.31 270.804 187.305C282.116 192.431 291.331 209.613 299.383 223.209C298.079 235.809 289.945 248.541 273.569 253.927Z"></path>
<path fill="#231F20" d="M164.849 489.549L168.096 489.86C168.014 481.507 168.211 469.68 169.115 461.378C170.535 448.269 174.195 435.979 178.73 423.637C185.99 403.754 190.882 384.119 189.486 362.737C188.723 351.098 185.036 340.312 183.424 328.895C182.387 321.52 183.914 314.447 185.09 307.294C185.719 303.225 186.266 299.129 186.156 294.923C186.046 291.478 172.645 294.235 172.645 299.901C160.71 328.25 170.75 346.265 170.535 383.134C170.535 385.266 170.506 387.45 170.452 389.609C170.096 404.847 169.545 422.183 167.068 438.512C161.111 477.769 164.849 489.549 164.849 489.549Z"></path>
<path fill="#231F20" d="M278.411 194.311C278.411 194.311 281.139 204.037 276.532 218.207C275.329 221.9 269.168 236.88 266.317 245.659C264.514 244.022 259.668 238.403 258.768 236.903L269.638 215.862L278.411 194.311Z"></path>
<path fill="#F6C64D" d="M265.976 233.505C262.615 240.331 259.473 246.53 258.163 250.655C254.037 263.707 265.421 285.032 263.426 294.757C261.596 296.998 235.308 308.039 215.515 308.754C189.746 309.681 169.675 299.892 169.427 296.125C169.212 292.681 180.356 248.25 187.101 229.241C194.584 208.133 204.962 187.701 210.861 181.668C211.324 181.205 211.763 180.822 212.173 180.519C214.03 179.182 216.733 178.255 220.066 177.762C238.77 174.73 267.77 183.126 279.21 193.166C281.682 202.733 273.237 218.782 265.976 233.505Z"></path>
<path fill="white" d="M261.51 175.098V183.172C261.51 183.172 263.602 187.796 261.51 188.072C254.398 188.99 250.389 179.862 250.389 179.862V170.489L261.51 175.098Z"></path>
<path fill="#231F20" d="M250.948 179.738C251.409 180.715 255.225 188.32 261.436 187.514L261.761 187.315C262.146 186.627 261.545 184.614 260.999 183.407L260.95 183.174V175.472L250.948 171.327V179.738ZM260.486 188.694C253.736 188.697 250.039 180.455 249.875 180.085L249.828 179.862V169.651L262.07 174.724V183.055C262.405 183.826 263.487 186.517 262.737 187.861C262.497 188.293 262.097 188.555 261.581 188.625C261.207 188.672 260.842 188.694 260.486 188.694Z"></path>
<path fill="#231F20" d="M227.259 196.655C227.259 196.655 228.316 210.675 219.519 218.97C210.72 227.265 203.802 229.671 203.802 229.671L202.174 242.967C202.174 242.967 212.787 239.457 222.231 225.003C226.117 219.057 229.248 206.836 227.259 196.655Z"></path>
<path fill="white" d="M264.238 152.622C264.238 152.622 267.644 159.697 268.667 167.432C269.393 172.926 260.025 181.414 251.832 173.676C243.64 165.936 245.918 154.105 245.918 154.105L264.238 152.622Z"></path>
<path fill="#231F20" d="M246.404 154.626C246.112 156.764 245.203 166.639 252.22 173.268C256.67 177.469 260.869 176.289 262.974 175.214C266.208 173.559 268.465 170.173 268.114 167.505C267.24 160.901 264.578 154.718 263.897 153.213L246.404 154.626ZM258.945 177.344C256.327 177.344 253.736 176.24 251.449 174.081C243.132 166.222 245.347 154.117 245.371 153.999L245.45 153.58L264.578 152.035L264.746 152.379C264.779 152.451 268.201 159.622 269.225 167.358C269.637 170.466 267.115 174.356 263.483 176.211C262 176.97 260.468 177.344 258.945 177.344Z"></path>
<path fill="#231F20" d="M243.845 162.906C243.787 162.854 243.742 162.534 243.603 162.18C242.835 160.2 243.382 157.952 244.768 156.402C245.357 155.739 246.228 155.82 246.79 156.227L246.86 156.212C249.189 156.037 249.196 158.868 249.514 160.424C250.049 163.038 251.67 166.173 250.853 168.876C250.313 170.681 248.553 171.803 246.683 171.255C244.432 170.592 244.672 168.498 243.906 166.776C243.449 165.748 243.1 165.024 243.395 163.866C243.483 163.524 243.691 163.219 243.845 162.906Z"></path>
<path fill="#231F20" d="M245.291 159.095C247.766 164.501 251.996 160.273 255.443 158.596C257.786 157.454 261.373 157.021 263.893 155.664C264.267 156.361 265.163 156.795 265.931 156.123C267.924 154.379 270.282 151.396 268.047 148.807C266.309 146.795 263.886 147.646 261.965 148.863C255.416 143.902 241.099 149.938 245.291 159.095Z"></path>
<path fill="white" d="M243.65 261.208L239.681 271.47C239.681 271.47 237.76 272.007 234.548 272.699C225.099 274.681 206.607 275.933 192.05 272.574C178.915 269.541 171.621 253.759 171.977 237.782V237.753C172.114 231.008 173.614 224.206 176.62 218.363C177.549 216.506 178.642 214.757 179.896 213.12C180.308 212.601 180.716 212.081 181.153 211.564L181.18 211.537L181.345 211.344C194.097 196.187 199.289 191.791 209.474 183.487C214.773 179.175 220.056 183.204 222.405 189.621C224.098 194.236 227.937 198.151 226.71 205.147C225.451 212.437 221.435 218.936 215.868 223.798C213.819 225.572 211.496 227.648 209.257 229.778C208.957 230.054 208.681 230.298 208.41 230.571C202.782 235.979 202.182 248.924 202.182 251.054C202.182 253.593 205.373 257.098 208.95 258.357C219.94 262.258 243.65 261.208 243.65 261.208Z"></path>
<path fill="#231F20" d="M213.97 182.252C212.579 182.252 211.193 182.809 209.827 183.92C199.494 192.343 194.394 196.699 181.772 211.704L181.649 211.843C181.156 212.428 180.758 212.934 180.357 213.44C179.118 215.052 178.034 216.788 177.12 218.613C174.261 224.174 172.677 230.796 172.536 237.764C172.209 252.48 178.847 268.954 192.177 272.029C207.146 275.482 225.654 273.995 234.435 272.15C236.908 271.617 238.628 271.171 239.259 271.003L242.82 261.798C238.417 261.953 218.68 262.405 208.761 258.885C204.96 257.546 201.621 253.884 201.621 251.053C201.621 250.905 201.695 236.245 208.022 230.165C208.232 229.954 208.454 229.75 208.691 229.533L208.877 229.365C210.859 227.477 213.155 225.404 215.5 223.372C221.19 218.405 224.975 211.897 226.156 205.05C227.016 200.155 225.296 196.818 223.629 193.586C222.975 192.314 222.353 191.109 221.878 189.813C220.456 185.927 218.03 183.172 215.394 182.447C214.92 182.317 214.445 182.252 213.97 182.252ZM212.799 275.225C205.908 275.225 198.573 274.654 191.922 273.117C177.367 269.762 171.089 252.442 171.416 237.768C171.56 230.604 173.188 223.813 176.122 218.107C177.065 216.224 178.187 214.427 179.452 212.779C179.884 212.23 180.292 211.715 180.722 211.202L180.867 211.041C193.601 195.902 198.73 191.524 209.119 183.051C211.215 181.345 213.488 180.762 215.692 181.367C218.678 182.189 221.383 185.201 222.928 189.427C223.381 190.659 223.985 191.833 224.626 193.076C226.294 196.309 228.185 199.978 227.26 205.243C226.035 212.34 222.12 219.079 216.234 224.219C213.901 226.239 211.619 228.301 209.639 230.183L209.446 230.36C209.224 230.563 209.014 230.756 208.806 230.964C202.907 236.635 202.741 250.91 202.741 251.053C202.741 253.378 205.85 256.67 209.135 257.83C219.898 261.651 243.391 260.661 243.624 260.647L244.479 260.609L240.101 271.932L239.83 272.009C239.81 272.013 237.857 272.557 234.668 273.245C229.685 274.293 221.605 275.225 212.799 275.225Z"></path>
<path fill="#F6C64D" d="M208.432 235.043C210.752 232.824 225.341 218.526 227.576 204.31C228.593 197.844 226.59 182.234 218.539 180.369C205.646 177.383 188.417 196.099 176.527 210.231C181.985 222.537 193.949 231.144 208.432 235.043Z"></path>
<path fill="#231F20" d="M213.546 255.875L184.783 255.617L211.662 265.207L213.546 255.875Z"></path>
<path fill="white" d="M185.053 257.96L185.25 256.381L211.074 265.594L210.922 267.872L185.053 257.96Z"></path>
<path fill="#231F20" d="M184.782 255.618L184.441 258.324L211.428 268.666L211.661 265.208L184.782 255.618ZM185.72 257.139L210.485 265.979L210.413 267.078L185.662 257.594L185.72 257.139Z"></path>
<path fill="#231F20" d="M271.186 265.744L211.661 265.209L211.428 268.666L270.957 268.823L271.186 265.744Z"></path>
<path fill="white" d="M212.348 264.654L219.008 233.443C219.181 232.603 219.92 231.999 220.771 231.999L275.521 232.491C276.056 232.496 276.556 232.74 276.896 233.154C277.232 233.573 277.366 234.113 277.261 234.637L270.731 265.178L212.348 264.654Z"></path>
<path fill="#231F20" d="M220.773 231.439C219.653 231.439 218.688 232.227 218.464 233.329L211.66 265.207L271.185 265.742L277.812 234.747C278.103 233.302 277.004 231.945 275.528 231.932L220.791 231.439H220.773ZM220.773 231.439L220.782 232.559L275.517 233.051C275.886 233.054 276.231 233.222 276.462 233.511C276.695 233.797 276.786 234.167 276.717 234.514L270.283 264.613L213.042 264.101L219.561 233.551C219.678 232.975 220.186 232.559 220.773 232.559V231.439Z"></path>
<path fill="white" d="M249.763 271.495L249.557 271.17C249.127 271.625 248.598 272.066 247.982 272.073C247.185 272.084 246.737 271.412 246.39 270.913L246.358 270.837C245.563 271.932 244.473 272.839 243.178 272.584C241.949 272.337 241.691 271.356 241.796 270.239C241.472 270.619 241.118 270.964 240.739 271.244C239.25 272.371 237.73 271.065 237.248 269.818L237.351 269.316L237.358 269.179C237.707 267.995 238.182 266.852 238.836 265.762C239.286 265.007 239.866 263.865 240.739 263.383C242.298 262.532 242.995 264.246 243.259 265.433C243.691 264.252 244.444 263.236 246.038 263.84C247.133 264.25 247.675 265.014 247.868 265.887C248.197 265.35 248.602 264.877 249.131 264.557C250.481 263.735 251.438 265.175 251.673 266.158C251.785 266.624 251.785 267.088 251.713 267.547L252.033 267.421C253.021 267.235 253.648 268.393 253.774 269.056C254.143 271.031 251.778 272.604 249.763 271.495Z"></path>
<path fill="#231F20" d="M242.517 268.522L242.351 270.289C242.223 271.637 242.752 271.926 243.285 272.033C244.389 272.246 245.31 271.319 245.903 270.506L246.443 269.758L246.857 270.584C247.229 271.142 247.52 271.512 247.959 271.512H247.97C248.308 271.507 248.68 271.279 249.146 270.786L249.905 269.987L250.098 271.039C251.034 271.516 251.936 271.272 252.476 270.878C253.063 270.455 253.341 269.812 253.218 269.158C253.175 268.916 253.025 268.551 252.796 268.282C252.474 267.904 252.221 267.957 252.133 267.971L251.995 268.027L250.973 268.632L251.157 267.458C251.224 267.035 251.213 266.65 251.126 266.282C251 265.765 250.624 265.111 250.174 264.925C250.024 264.865 249.791 264.806 249.419 265.035C249.018 265.277 248.664 265.651 248.342 266.177L247.614 267.357L247.318 266.005C247.144 265.207 246.658 264.67 245.84 264.363C245.386 264.191 245.023 264.168 244.723 264.309C244.351 264.479 244.044 264.907 243.782 265.622L243.128 267.415L242.71 265.552C242.499 264.607 242.141 263.937 241.753 263.761C241.679 263.731 241.46 263.624 241.005 263.875C240.376 264.22 239.883 265.066 239.491 265.745L239.312 266.047C238.714 267.048 238.248 268.125 237.895 269.337V269.572L237.738 269.716C237.986 270.179 238.528 270.869 239.207 271.064C239.619 271.178 240.009 271.093 240.4 270.797C240.727 270.553 241.052 270.244 241.366 269.875L242.517 268.522ZM243.619 273.185L243.066 273.131C242.36 272.99 241.574 272.582 241.307 271.507L241.07 271.693C240.403 272.197 239.655 272.36 238.9 272.141C237.773 271.821 237.025 270.797 236.723 270.018C236.6 269.711 236.631 269.373 236.801 269.102L236.806 269.071C237.2 267.716 237.704 266.556 238.351 265.472L238.522 265.183C238.987 264.383 239.565 263.389 240.468 262.894C241.247 262.466 241.845 262.576 242.214 262.742C242.741 262.981 243.113 263.469 243.372 264.016C243.628 263.682 243.923 263.443 244.257 263.288C244.83 263.026 245.495 263.035 246.234 263.315C247.029 263.613 247.632 264.103 248.017 264.753C248.27 264.479 248.543 264.255 248.837 264.076C249.576 263.628 250.205 263.725 250.602 263.89C251.444 264.24 252.019 265.214 252.214 266.022C252.279 266.291 252.313 266.562 252.319 266.842C252.812 266.867 253.273 267.111 253.652 267.557C254.037 268.011 254.248 268.576 254.322 268.952C254.519 270.025 254.066 271.111 253.132 271.785C252.073 272.553 250.68 272.634 249.502 271.991C249.101 272.327 248.588 272.625 247.986 272.631H247.957C247.198 272.631 246.689 272.208 246.322 271.769C245.482 272.705 244.564 273.185 243.619 273.185Z"></path>
<path fill="#231F20" d="M165.442 493.098C165.442 493.098 159.872 501.064 163.856 507.321C163.856 507.321 192.874 508.688 201.633 507.321C201.633 507.321 201.861 496.627 194.35 495.716C186.841 494.804 177.21 494.397 177.21 494.397C177.21 494.397 170.897 499.015 165.442 493.098Z"></path>
<path fill="black" d="M23 97.8C23.9333 85.5333 28.6667 75.9333 37.2 69C45.7333 62.0667 56.8 58.6 70.4 58.6C79.4667 58.6 87.2667 60.2667 93.8 63.6C100.467 66.8 105.467 71.2 108.8 76.8C112.267 82.4 114 88.7333 114 95.8C114 104.067 111.6 111.2 106.8 117.2C102.133 123.2 96 127.067 88.4 128.8V129.8C97.0667 131.933 103.933 136.133 109 142.4C114.067 148.667 116.6 156.867 116.6 167C116.6 174.6 114.867 181.467 111.4 187.6C107.933 193.6 102.733 198.333 95.8 201.8C88.8667 205.267 80.5333 207 70.8 207C56.6667 207 45.0667 203.333 36 196C26.9333 188.533 21.8667 178 20.8 164.4H38.4C39.3333 172.4 42.6 178.933 48.2 184C53.8 189.067 61.2667 191.6 70.6 191.6C79.9333 191.6 87 189.2 91.8 184.4C96.7333 179.467 99.2 173.133 99.2 165.4C99.2 155.4 95.8667 148.2 89.2 143.8C82.5333 139.4 72.4667 137.2 59 137.2H54.4V122H59.2C71.4667 121.867 80.7333 119.867 87 116C93.2667 112 96.4 105.867 96.4 97.6C96.4 90.5333 94.0667 84.8667 89.4 80.6C84.8667 76.3333 78.3333 74.2 69.8 74.2C61.5333 74.2 54.8667 76.3333 49.8 80.6C44.7333 84.8667 41.7333 90.6 40.8 97.8H23Z"></path>
<path fill="black" d="M188.729 545.08V562.36C188.729 564.253 189.223 565.707 190.209 566.72C191.196 567.707 192.583 568.2 194.369 568.2C196.183 568.2 197.583 567.707 198.569 566.72C199.556 565.707 200.049 564.253 200.049 562.36V545.08H205.689V562.32C205.689 564.693 205.169 566.707 204.129 568.36C203.116 569.987 201.743 571.213 200.009 572.04C198.303 572.867 196.396 573.28 194.289 573.28C192.209 573.28 190.316 572.867 188.609 572.04C186.929 571.213 185.596 569.987 184.609 568.36C183.623 566.707 183.129 564.693 183.129 562.32V545.08H188.729ZM216.7 554.04C217.42 553.027 218.407 552.187 219.66 551.52C220.94 550.827 222.393 550.48 224.02 550.48C225.913 550.48 227.62 550.947 229.14 551.88C230.687 552.813 231.9 554.147 232.78 555.88C233.687 557.587 234.14 559.573 234.14 561.84C234.14 564.107 233.687 566.12 232.78 567.88C231.9 569.613 230.687 570.96 229.14 571.92C227.62 572.88 225.913 573.36 224.02 573.36C222.393 573.36 220.953 573.027 219.7 572.36C218.473 571.693 217.473 570.853 216.7 569.84V583.56H211.1V550.84H216.7V554.04ZM228.42 561.84C228.42 560.507 228.14 559.36 227.58 558.4C227.047 557.413 226.327 556.667 225.42 556.16C224.54 555.653 223.58 555.4 222.54 555.4C221.527 555.4 220.567 555.667 219.66 556.2C218.78 556.707 218.06 557.453 217.5 558.44C216.967 559.427 216.7 560.587 216.7 561.92C216.7 563.253 216.967 564.413 217.5 565.4C218.06 566.387 218.78 567.147 219.66 567.68C220.567 568.187 221.527 568.44 222.54 568.44C223.58 568.44 224.54 568.173 225.42 567.64C226.327 567.107 227.047 566.347 227.58 565.36C228.14 564.373 228.42 563.2 228.42 561.84ZM243.809 543.4V573H238.209V543.4H243.809ZM259.182 573.36C257.049 573.36 255.129 572.893 253.422 571.96C251.715 571 250.369 569.653 249.382 567.92C248.422 566.187 247.942 564.187 247.942 561.92C247.942 559.653 248.435 557.653 249.422 555.92C250.435 554.187 251.809 552.853 253.542 551.92C255.275 550.96 257.209 550.48 259.342 550.48C261.475 550.48 263.409 550.96 265.142 551.92C266.875 552.853 268.235 554.187 269.222 555.92C270.235 557.653 270.742 559.653 270.742 561.92C270.742 564.187 270.222 566.187 269.182 567.92C268.169 569.653 266.782 571 265.022 571.96C263.289 572.893 261.342 573.36 259.182 573.36ZM259.182 568.48C260.195 568.48 261.142 568.24 262.022 567.76C262.929 567.253 263.649 566.507 264.182 565.52C264.715 564.533 264.982 563.333 264.982 561.92C264.982 559.813 264.422 558.2 263.302 557.08C262.209 555.933 260.862 555.36 259.262 555.36C257.662 555.36 256.315 555.933 255.222 557.08C254.155 558.2 253.622 559.813 253.622 561.92C253.622 564.027 254.142 565.653 255.182 566.8C256.249 567.92 257.582 568.48 259.182 568.48ZM273.41 561.84C273.41 559.6 273.85 557.613 274.73 555.88C275.637 554.147 276.85 552.813 278.37 551.88C279.917 550.947 281.637 550.48 283.53 550.48C285.183 550.48 286.623 550.813 287.85 551.48C289.103 552.147 290.103 552.987 290.85 554V550.84H296.49V573H290.85V569.76C290.13 570.8 289.13 571.667 287.85 572.36C286.597 573.027 285.143 573.36 283.49 573.36C281.623 573.36 279.917 572.88 278.37 571.92C276.85 570.96 275.637 569.613 274.73 567.88C273.85 566.12 273.41 564.107 273.41 561.84ZM290.85 561.92C290.85 560.56 290.583 559.4 290.05 558.44C289.517 557.453 288.797 556.707 287.89 556.2C286.983 555.667 286.01 555.4 284.97 555.4C283.93 555.4 282.97 555.653 282.09 556.16C281.21 556.667 280.49 557.413 279.93 558.4C279.397 559.36 279.13 560.507 279.13 561.84C279.13 563.173 279.397 564.347 279.93 565.36C280.49 566.347 281.21 567.107 282.09 567.64C282.997 568.173 283.957 568.44 284.97 568.44C286.01 568.44 286.983 568.187 287.89 567.68C288.797 567.147 289.517 566.4 290.05 565.44C290.583 564.453 290.85 563.28 290.85 561.92ZM300.519 561.84C300.519 559.6 300.959 557.613 301.839 555.88C302.746 554.147 303.973 552.813 305.519 551.88C307.066 550.947 308.786 550.48 310.679 550.48C312.119 550.48 313.493 550.8 314.799 551.44C316.106 552.053 317.146 552.88 317.919 553.92V543.4H323.599V573H317.919V569.72C317.226 570.813 316.253 571.693 314.999 572.36C313.746 573.027 312.293 573.36 310.639 573.36C308.773 573.36 307.066 572.88 305.519 571.92C303.973 570.96 302.746 569.613 301.839 567.88C300.959 566.12 300.519 564.107 300.519 561.84ZM317.959 561.92C317.959 560.56 317.693 559.4 317.159 558.44C316.626 557.453 315.906 556.707 314.999 556.2C314.093 555.667 313.119 555.4 312.079 555.4C311.039 555.4 310.079 555.653 309.199 556.16C308.319 556.667 307.599 557.413 307.039 558.4C306.506 559.36 306.239 560.507 306.239 561.84C306.239 563.173 306.506 564.347 307.039 565.36C307.599 566.347 308.319 567.107 309.199 567.64C310.106 568.173 311.066 568.44 312.079 568.44C313.119 568.44 314.093 568.187 314.999 567.68C315.906 567.147 316.626 566.4 317.159 565.44C317.693 564.453 317.959 563.28 317.959 561.92ZM337.16 561.84C337.16 559.6 337.6 557.613 338.48 555.88C339.387 554.147 340.6 552.813 342.12 551.88C343.667 550.947 345.387 550.48 347.28 550.48C348.933 550.48 350.373 550.813 351.6 551.48C352.853 552.147 353.853 552.987 354.6 554V550.84H360.24V573H354.6V569.76C353.88 570.8 352.88 571.667 351.6 572.36C350.347 573.027 348.893 573.36 347.24 573.36C345.373 573.36 343.667 572.88 342.12 571.92C340.6 570.96 339.387 569.613 338.48 567.88C337.6 566.12 337.16 564.107 337.16 561.84ZM354.6 561.92C354.6 560.56 354.333 559.4 353.8 558.44C353.267 557.453 352.547 556.707 351.64 556.2C350.733 555.667 349.76 555.4 348.72 555.4C347.68 555.4 346.72 555.653 345.84 556.16C344.96 556.667 344.24 557.413 343.68 558.4C343.147 559.36 342.88 560.507 342.88 561.84C342.88 563.173 343.147 564.347 343.68 565.36C344.24 566.347 344.96 567.107 345.84 567.64C346.747 568.173 347.707 568.44 348.72 568.44C349.76 568.44 350.733 568.187 351.64 567.68C352.547 567.147 353.267 566.4 353.8 565.44C354.333 564.453 354.6 563.28 354.6 561.92ZM377.989 550.52C380.629 550.52 382.763 551.36 384.389 553.04C386.016 554.693 386.829 557.013 386.829 560V573H381.229V560.76C381.229 559 380.789 557.653 379.909 556.72C379.029 555.76 377.829 555.28 376.309 555.28C374.763 555.28 373.536 555.76 372.629 556.72C371.749 557.653 371.309 559 371.309 560.76V573H365.709V550.84H371.309V553.6C372.056 552.64 373.003 551.893 374.149 551.36C375.323 550.8 376.603 550.52 377.989 550.52ZM390.715 561.84C390.715 559.6 391.155 557.613 392.035 555.88C392.941 554.147 394.168 552.813 395.715 551.88C397.261 550.947 398.981 550.48 400.875 550.48C402.315 550.48 403.688 550.8 404.995 551.44C406.301 552.053 407.341 552.88 408.115 553.92V543.4H413.795V573H408.115V569.72C407.421 570.813 406.448 571.693 405.195 572.36C403.941 573.027 402.488 573.36 400.835 573.36C398.968 573.36 397.261 572.88 395.715 571.92C394.168 570.96 392.941 569.613 392.035 567.88C391.155 566.12 390.715 564.107 390.715 561.84ZM408.155 561.92C408.155 560.56 407.888 559.4 407.355 558.44C406.821 557.453 406.101 556.707 405.195 556.2C404.288 555.667 403.315 555.4 402.275 555.4C401.235 555.4 400.275 555.653 399.395 556.16C398.515 556.667 397.795 557.413 397.235 558.4C396.701 559.36 396.435 560.507 396.435 561.84C396.435 563.173 396.701 564.347 397.235 565.36C397.795 566.347 398.515 567.107 399.395 567.64C400.301 568.173 401.261 568.44 402.275 568.44C403.315 568.44 404.288 568.187 405.195 567.68C406.101 567.147 406.821 566.4 407.355 565.44C407.888 564.453 408.155 563.28 408.155 561.92ZM443.195 573L437.035 562.12H434.395V573H428.795V545.08H439.275C441.435 545.08 443.275 545.467 444.795 546.24C446.315 546.987 447.448 548.013 448.195 549.32C448.968 550.6 449.355 552.04 449.355 553.64C449.355 555.48 448.822 557.147 447.755 558.64C446.688 560.107 445.102 561.12 442.995 561.68L449.675 573H443.195ZM434.395 557.92H439.075C440.595 557.92 441.728 557.56 442.475 556.84C443.222 556.093 443.595 555.067 443.595 553.76C443.595 552.48 443.222 551.493 442.475 550.8C441.728 550.08 440.595 549.72 439.075 549.72H434.395V557.92ZM475.34 550.84V573H469.7V570.2C468.98 571.16 468.033 571.92 466.86 572.48C465.713 573.013 464.46 573.28 463.1 573.28C461.367 573.28 459.833 572.92 458.5 572.2C457.167 571.453 456.113 570.373 455.34 568.96C454.593 567.52 454.22 565.813 454.22 563.84V550.84H459.82V563.04C459.82 564.8 460.26 566.16 461.14 567.12C462.02 568.053 463.22 568.52 464.74 568.52C466.287 568.52 467.5 568.053 468.38 567.12C469.26 566.16 469.7 564.8 469.7 563.04V550.84H475.34ZM493.145 550.52C495.785 550.52 497.919 551.36 499.545 553.04C501.172 554.693 501.985 557.013 501.985 560V573H496.385V560.76C496.385 559 495.945 557.653 495.065 556.72C494.185 555.76 492.985 555.28 491.465 555.28C489.919 555.28 488.692 555.76 487.785 556.72C486.905 557.653 486.465 559 486.465 560.76V573H480.865V550.84H486.465V553.6C487.212 552.64 488.159 551.893 489.305 551.36C490.479 550.8 491.759 550.52 493.145 550.52Z"></path>
</svg>
