<svg xmlns="http://www.w3.org/2000/svg" fill="none" viewBox="0 0 600 615" height="615" width="600">
<path fill="#E7EBF0" d="M124.659 369.802C102.828 411.46 118.858 450.909 127.803 472.985C146.244 518.49 208.102 576.811 356.405 586.989C547.395 600.098 576.374 434.07 570.977 362.561C565.58 291.052 557.293 197.222 400.569 145.043C243.865 92.8654 305.294 274.063 184.708 327.219C163.293 336.659 135.603 348.916 124.659 369.802Z"></path>
<path fill="#E7EBF0" d="M124.659 369.802C102.828 411.46 118.858 450.909 127.803 472.985C146.244 518.49 208.102 576.811 356.405 586.989C547.395 600.098 576.374 434.07 570.977 362.561C565.58 291.052 557.293 197.222 400.569 145.043C243.865 92.8654 305.294 274.063 184.708 327.219C163.293 336.659 135.603 348.916 124.659 369.802Z"></path>
<path fill="#E7EBF0" d="M135.996 294.279C137.823 298.59 141.798 301.479 146.351 301.925C164.266 303.681 190.112 296.089 216.835 262.498C246.713 224.945 279.455 186.207 247.38 189.206C215.305 192.207 162.308 222.649 143.102 254.514C131.306 274.083 132.961 287.126 135.996 294.279Z"></path>
<path fill="#E7EBF0" d="M124.659 369.802C102.828 411.46 118.858 450.909 127.803 472.985C146.244 518.49 208.102 576.811 356.405 586.989C547.395 600.098 576.374 434.07 570.977 362.561C565.58 291.052 557.293 197.222 400.569 145.043C243.865 92.8654 305.294 274.063 184.708 327.219C163.293 336.659 135.603 348.916 124.659 369.802Z"></path>
<path fill="#231F20" d="M555.167 591H130.1V587.77H555.167V591Z"></path>
<path fill="#ABBCCF" d="M185.258 441.102H220.6V423.806H185.258V441.102ZM222.886 443.391H182.969V421.517H222.886V443.391Z"></path>
<path fill="#ABBCCF" d="M157.918 460.69H193.26V443.391H157.918V460.69ZM195.547 462.976H155.629V441.102H195.547V462.976Z"></path>
<path fill="#ABBCCF" d="M283.699 253.127H319.048V235.828H283.699V253.127ZM321.332 255.413H281.41V233.542H321.332V255.413Z"></path>
<path fill="#ABBCCF" d="M353.853 494.599H389.215V477.3H353.853V494.599ZM391.5 496.888H351.568V475.014H391.5V496.888Z"></path>
<path fill="#ABBCCF" d="M316.183 494.599H351.523V477.3H316.183V494.599ZM353.807 496.888H313.898V475.014H353.807V496.888Z"></path>
<path fill="#ABBCCF" d="M335.038 514.185H370.378V496.889H335.038V514.185ZM372.685 516.474H332.754V494.6H372.685V516.474Z"></path>
<path fill="#ABBCCF" d="M321.337 352.924H356.677V335.628H321.337V352.924ZM358.962 355.213H319.053V333.339H358.962V355.213Z"></path>
<path fill="#ABBCCF" d="M348.679 372.51H384.019V355.214H348.679V372.51ZM386.303 374.799H346.395V352.925H386.303V374.799Z"></path>
<path fill="#ABBCCF" d="M478.46 278.82H513.8V261.522H478.46V278.82ZM516.085 281.106H476.176V259.233H516.085V281.106Z"></path>
<path fill="#ABBCCF" d="M440.791 278.82H476.131V261.522H440.791V278.82ZM478.416 281.106H438.484V259.233H478.416V281.106Z"></path>
<path fill="#ABBCCF" d="M459.648 298.405H494.988V281.106H459.648V298.405ZM497.272 300.691H457.363V278.82H497.272V300.691Z"></path>
<path fill="#231F20" d="M404.688 193.016C392.304 203.518 373.76 201.986 363.257 189.601C352.753 177.214 354.276 158.657 366.661 148.16C379.068 137.657 397.611 139.186 408.115 151.573C418.618 163.96 417.096 182.52 404.688 193.016ZM429.659 143.984L419.134 131.559L410.713 137.52C406.838 134.566 402.538 132.396 398.015 130.992L397.97 120.677L381.733 119.34L380.009 129.507C375.305 130.15 370.714 131.59 366.414 133.868L359.091 126.607L346.662 137.142L352.619 145.554C349.685 149.428 347.49 153.737 346.079 158.265L335.777 158.306L334.434 174.529L344.601 176.258C345.251 180.954 346.684 185.55 348.968 189.868L341.712 197.189L352.238 209.616L360.659 203.656C364.533 206.595 368.833 208.781 373.357 210.187L373.402 220.498L389.616 221.835L391.363 211.67C396.044 211.025 400.657 209.576 404.957 207.311L412.281 214.572L424.71 204.033L418.753 195.619C421.709 191.738 423.881 187.438 425.292 182.911L435.594 182.871L436.938 166.648L426.77 164.917C426.121 160.218 424.665 155.609 422.403 151.309L429.659 143.984Z"></path>
<path fill="#231F20" d="M355.49 125.265L359.096 126.606L358.2 133.235C358.2 133.235 352.063 131.289 352.175 130.989C352.265 130.689 355.49 125.265 355.49 125.265Z"></path>
<path fill="#231F20" d="M394.364 119.337L397.969 120.676L396.334 123.82L392.482 123.751L394.364 119.337Z"></path>
<path fill="#231F20" d="M415.528 130.217L419.134 131.559L418.328 136.643L414.543 135.702L415.528 130.217Z"></path>
<path fill="#231F20" d="M433.333 165.305L436.939 166.646L434.498 172.29L429.369 172.149L433.333 165.305Z"></path>
<path fill="#231F20" d="M408.697 213.23L412.281 214.571L413.311 211.031L409.347 208.276L408.697 213.23Z"></path>
<path fill="#231F20" d="M369.797 219.159L373.402 220.498L375.037 218.592L371.633 217.186L371.521 217.139L369.797 219.159Z"></path>
<path fill="#231F20" d="M348.637 208.276L352.242 209.615L353.609 207.098L348.95 203.172L348.637 208.276Z"></path>
<path fill="#231F20" d="M330.828 173.186L334.434 174.527L336.315 172.61L331.589 170.854L330.828 173.186Z"></path>
<path fill="#228ED5" d="M401.105 191.677C388.721 202.181 370.155 200.647 359.651 188.262C349.148 175.875 350.693 157.32 363.078 146.819C375.462 136.32 394.006 137.845 404.509 150.232C415.013 162.624 413.49 181.178 401.105 191.677ZM426.076 142.644L415.528 130.217L407.107 136.181C403.233 133.229 398.933 131.057 394.409 129.651L394.364 119.337L378.15 118L376.425 128.168C371.722 128.811 367.131 130.253 362.809 132.526L355.486 125.266L343.056 135.803L349.013 144.214C346.08 148.089 343.885 152.398 342.474 156.928L332.172 156.966L330.828 173.187L340.996 174.919C341.645 179.617 343.078 184.211 345.363 188.528L338.107 195.852L348.633 208.277L357.053 202.315C360.928 205.253 365.228 207.441 369.752 208.846L369.796 219.159L386.033 220.498L387.758 210.33C392.461 209.686 397.052 208.234 401.374 205.97L408.697 213.231L421.127 202.694L415.147 194.28C418.104 190.396 420.276 186.098 421.687 181.572L431.989 181.53L433.333 165.307L423.165 163.575C422.515 158.881 421.06 154.27 418.798 149.968L426.076 142.644Z"></path>
<path fill="#231F20" d="M486.769 546.051C474.384 556.552 455.84 555.02 445.314 542.633C434.833 530.249 436.356 511.692 448.741 501.192C461.126 490.691 479.691 492.221 490.195 504.608C500.698 516.995 499.153 535.552 486.769 546.051ZM511.74 497.018L501.214 484.591L492.793 490.553C488.919 487.601 484.618 485.428 480.072 484.024L480.05 473.711L463.813 472.372L462.089 482.539C457.386 483.182 452.794 484.624 448.472 486.902L441.149 479.639L428.719 490.176L434.699 498.585C431.743 502.462 429.57 506.771 428.159 511.3L417.857 511.34L416.514 527.563L426.681 529.29C427.308 533.989 428.764 538.584 431.026 542.9L423.77 550.223L434.318 562.65L442.716 556.691C446.591 559.627 450.913 561.815 455.437 563.222L455.482 573.532L471.696 574.869L473.421 564.704C478.124 564.059 482.737 562.608 487.037 560.348L494.361 567.606L506.79 557.067L500.833 548.653C503.789 544.77 505.962 540.472 507.35 535.945L517.674 535.904L518.996 519.68L508.85 517.951C508.201 513.253 506.745 508.643 504.483 504.343L511.74 497.018Z"></path>
<path fill="#231F20" d="M437.567 478.299L441.15 479.638L440.277 486.267C440.277 486.267 434.118 484.321 434.23 484.021C434.342 483.723 437.567 478.299 437.567 478.299Z"></path>
<path fill="#231F20" d="M476.446 472.368L480.051 473.71L478.417 476.852L474.564 476.784L476.446 472.368Z"></path>
<path fill="#231F20" d="M497.607 483.251L501.213 484.591L500.384 489.677L496.6 488.736L497.607 483.251Z"></path>
<path fill="#231F20" d="M515.413 518.34L518.997 519.679L516.555 525.325L511.449 525.182L515.413 518.34Z"></path>
<path fill="#231F20" d="M490.758 566.264L494.364 567.605L495.394 564.065L491.43 561.31L490.758 566.264Z"></path>
<path fill="#231F20" d="M451.875 572.194L455.481 573.533L457.115 571.627L453.711 570.221L453.577 570.174L451.875 572.194Z"></path>
<path fill="#231F20" d="M430.713 561.311L434.318 562.65L435.685 560.133L431.004 556.207L430.713 561.311Z"></path>
<path fill="#231F20" d="M412.91 526.221L416.516 527.562L418.375 525.643L413.671 523.89L412.91 526.221Z"></path>
<path fill="#228ED5" d="M483.165 544.711C470.78 555.215 452.237 553.68 441.733 541.295C431.23 528.906 432.752 510.352 445.137 499.852C457.544 489.352 476.088 490.879 486.591 503.266C497.095 515.655 495.55 534.212 483.165 544.711ZM508.136 495.68L497.61 483.251L489.189 489.214C485.315 486.261 481.015 484.091 476.469 482.684L476.446 472.369L460.21 471.034L458.485 481.202C453.782 481.844 449.191 483.284 444.891 485.56L437.568 478.299L425.138 488.837L431.095 497.248C428.162 501.123 425.967 505.431 424.556 509.96L414.254 510L412.91 526.221L423.078 527.953C423.727 532.649 425.16 537.244 427.445 541.562L420.189 548.883L430.715 561.311L439.135 555.349C443.01 558.287 447.31 560.475 451.834 561.879L451.878 572.193L468.093 573.529L469.84 563.364C474.52 562.719 479.134 561.268 483.434 559.004L490.757 566.265L503.186 555.727L497.229 547.313C500.186 543.43 502.358 539.132 503.769 534.604L514.071 534.564L515.415 518.34L505.247 516.609C504.597 511.917 503.142 507.304 500.88 503.002L508.136 495.68Z"></path>
<path fill="white" d="M316.247 353.296C313.089 353.296 310.514 350.727 310.514 347.569V170.951C310.514 166.862 313.828 163.536 317.927 163.536H551.848C555.924 163.536 559.261 166.858 559.261 170.945V347.569C559.261 350.727 556.685 353.296 553.528 353.296H316.247Z"></path>
<path fill="#231F20" d="M551.85 163.162H317.928C313.628 163.162 310.135 166.651 310.135 170.953V347.571C310.135 350.939 312.867 353.674 316.249 353.674H553.529C556.911 353.674 559.644 350.939 559.644 347.571V170.944C559.644 166.651 556.15 163.162 551.85 163.162ZM551.85 163.914C555.724 163.914 558.882 167.068 558.882 170.944V347.571C558.882 350.521 556.486 352.921 553.529 352.921H316.249C313.292 352.921 310.896 350.521 310.896 347.571V170.953C310.896 167.072 314.054 163.914 317.928 163.914H551.85Z"></path>
<path fill="#231F20" d="M559.644 189.982H310.135V170.946C310.135 166.646 313.628 163.159 317.928 163.159H551.85C556.15 163.159 559.644 166.646 559.644 170.946V189.982Z"></path>
<path fill="#F06F26" d="M353.045 176.572C353.045 174.298 354.904 172.453 357.166 172.453C359.45 172.453 361.286 174.298 361.286 176.572C361.286 178.849 359.45 180.692 357.166 180.692C354.904 180.692 353.045 178.849 353.045 176.572Z"></path>
<path fill="#F6C64D" d="M337.189 176.572C337.189 174.298 339.048 172.453 341.31 172.453C343.595 172.453 345.431 174.298 345.431 176.572C345.431 178.849 343.595 180.692 341.31 180.692C339.048 180.692 337.189 178.849 337.189 176.572Z"></path>
<path fill="white" d="M321.355 176.572C321.355 174.298 323.192 172.453 325.476 172.453C327.738 172.453 329.597 174.298 329.597 176.572C329.597 178.849 327.738 180.692 325.476 180.692C323.192 180.692 321.355 178.849 321.355 176.572Z"></path>
<path fill="white" d="M540.004 173.559L542.042 171.519L544.953 174.433L547.865 171.519L549.903 173.559L546.991 176.473L549.903 179.385L547.865 181.425L544.953 178.511L542.042 181.425L540.004 179.385L542.915 176.473L540.004 173.559Z"></path>
<path fill="#ABBCCF" d="M393.156 201.082L393.358 204.531H451.004L450.802 201.082H393.156Z"></path>
<path fill="#ABBCCF" d="M421.418 211.462L421.642 214.908H515.39L515.166 211.462H421.418Z"></path>
<path fill="#231F20" d="M393.311 211.462L393.512 214.908H417.363L417.139 211.462H393.311Z"></path>
<path fill="#ABBCCF" d="M393.043 221.835L393.245 225.286H440.969L440.611 221.835H393.043Z"></path>
<path fill="#231F20" d="M443.949 221.835L444.285 225.286H491.025L490.823 221.835H443.949Z"></path>
<path fill="#ABBCCF" d="M351.298 221.835L351.275 225.286H374.724L374.746 221.835H351.298Z"></path>
<path fill="#ABBCCF" d="M322.789 211.462V214.908H360.929V211.462H322.789Z"></path>
<path fill="#ABBCCF" d="M365.295 211.462V214.908H374.992L375.015 211.462H365.295Z"></path>
<path fill="#F6C64D" d="M356.023 201.082L356.068 204.531H375.418L375.44 201.082H356.023Z"></path>
<path fill="#F6C64D" d="M333.093 201.082L333.07 204.531H352.151L352.107 201.082H333.093Z"></path>
<path fill="#ABBCCF" d="M351.007 260.683L350.984 264.132H374.433L374.455 260.683H351.007Z"></path>
<path fill="#ABBCCF" d="M322.496 250.306V253.753H360.636V250.306H322.496Z"></path>
<path fill="#ABBCCF" d="M365.006 250.306V253.753H374.703L374.726 250.306H365.006Z"></path>
<path fill="#ABBCCF" d="M350.626 282.534L350.604 285.982H374.052L374.074 282.534H350.626Z"></path>
<path fill="#F6C64D" d="M322.138 272.157L322.115 275.604H360.255L360.277 272.157H322.138Z"></path>
<path fill="#F6C64D" d="M364.649 272.157L364.627 275.604H374.324L374.347 272.157H364.649Z"></path>
<path fill="#F6C64D" d="M355.736 239.928L355.781 243.375H375.131L375.153 239.928H355.736Z"></path>
<path fill="#F6C64D" d="M332.8 239.928L332.777 243.375H351.858L351.814 239.928H332.8Z"></path>
<path fill="#231F20" d="M456.715 201.082L456.939 204.531H474.43L474.206 201.082H456.715Z"></path>
<path fill="#ABBCCF" d="M521.215 211.462L521.416 214.908H549.411L549.209 211.462H521.215Z"></path>
<path fill="#ABBCCF" d="M496.178 221.835L496.379 225.286H524.777L524.553 221.835H496.178Z"></path>
<path fill="#ABBCCF" d="M482.045 201.082L482.47 204.531H531.897L531.494 201.082H482.045Z"></path>
<path fill="#ABBCCF" d="M392.863 239.928L393.065 243.375H450.711L450.509 239.928H392.863Z"></path>
<path fill="#ABBCCF" d="M421.131 250.306L421.355 253.753H515.102L514.878 250.306H421.131Z"></path>
<path fill="#ABBCCF" d="M393.021 250.306L393.223 253.753H417.074L416.85 250.306H393.021Z"></path>
<path fill="#ABBCCF" d="M392.754 260.683L392.955 264.132H440.68L440.322 260.683H392.754Z"></path>
<path fill="#ABBCCF" d="M443.66 260.683L443.996 264.132H490.736L490.534 260.683H443.66Z"></path>
<path fill="#ABBCCF" d="M456.424 239.928L456.648 243.375H474.139L473.915 239.928H456.424Z"></path>
<path fill="#ABBCCF" d="M520.922 250.306L521.124 253.753H549.118L548.916 250.306H520.922Z"></path>
<path fill="#231F20" d="M495.887 260.683L496.088 264.132H524.486L524.262 260.683H495.887Z"></path>
<path fill="#ABBCCF" d="M421.91 272.157L422.134 275.604H515.882L515.658 272.157H421.91Z"></path>
<path fill="#ABBCCF" d="M393.807 272.157L394.008 275.604H417.859L417.635 272.157H393.807Z"></path>
<path fill="#ABBCCF" d="M393.537 282.534L393.739 285.982H441.464L441.105 282.534H393.537Z"></path>
<path fill="#231F20" d="M444.443 282.534L444.779 285.982H491.519L491.317 282.534H444.443Z"></path>
<path fill="#231F20" d="M521.707 272.157L521.909 275.604H549.903L549.701 272.157H521.707Z"></path>
<path fill="#ABBCCF" d="M496.67 282.534L496.871 285.982H525.247L525.045 282.534H496.67Z"></path>
<path fill="#231F20" d="M481.752 239.928L482.178 243.375H531.605L531.201 239.928H481.752Z"></path>
<path fill="#ABBCCF" d="M350.247 318.273L350.225 321.724H373.673L373.695 318.273H350.247Z"></path>
<path fill="#ABBCCF" d="M321.737 307.898L321.715 311.345H359.854L359.877 307.898H321.737Z"></path>
<path fill="#ABBCCF" d="M364.243 307.898L364.221 311.345H373.918L373.94 307.898H364.243Z"></path>
<path fill="#ABBCCF" d="M349.866 340.123L349.844 343.574H373.292L373.314 340.123H349.866Z"></path>
<path fill="#F6C64D" d="M321.355 329.746V333.195H359.495V329.746H321.355Z"></path>
<path fill="#F6C64D" d="M363.863 329.746V333.195H373.561L373.583 329.746H363.863Z"></path>
<path fill="#F6C64D" d="M354.973 297.519L354.995 300.968H374.367L374.39 297.519H354.973Z"></path>
<path fill="#F6C64D" d="M332.038 297.519L332.016 300.968H351.074L351.052 297.519H332.038Z"></path>
<path fill="#ABBCCF" d="M392.104 297.519L392.305 300.968H449.951L449.727 297.519H392.104Z"></path>
<path fill="#ABBCCF" d="M420.367 307.898L420.591 311.345H514.316L514.115 307.898H420.367Z"></path>
<path fill="#ABBCCF" d="M392.238 307.898L392.462 311.345H416.313L416.09 307.898H392.238Z"></path>
<path fill="#ABBCCF" d="M391.969 318.273L392.193 321.724H439.895L439.559 318.273H391.969Z"></path>
<path fill="#ABBCCF" d="M442.896 318.273L443.232 321.724H489.972L489.771 318.273H442.896Z"></path>
<path fill="#ABBCCF" d="M455.662 297.519L455.864 300.968H473.355L473.153 297.519H455.662Z"></path>
<path fill="#ABBCCF" d="M520.162 307.898L520.364 311.345H548.358L548.157 307.898H520.162Z"></path>
<path fill="#231F20" d="M495.121 318.273L495.323 321.724H523.698L523.496 318.273H495.121Z"></path>
<path fill="#ABBCCF" d="M421.15 329.746L421.374 333.195H515.1L514.898 329.746H421.15Z"></path>
<path fill="#ABBCCF" d="M393.021 329.746L393.223 333.195H417.097L416.873 329.746H393.021Z"></path>
<path fill="#ABBCCF" d="M392.754 340.123L392.978 343.574H440.68L440.344 340.123H392.754Z"></path>
<path fill="#231F20" d="M443.66 340.123L444.018 343.574H490.758L490.556 340.123H443.66Z"></path>
<path fill="#231F20" d="M520.947 329.746L521.149 333.195H549.143L548.942 329.746H520.947Z"></path>
<path fill="#ABBCCF" d="M495.887 340.123L496.111 343.574H524.486L524.284 340.123H495.887Z"></path>
<path fill="#231F20" d="M480.992 297.519L481.395 300.968H530.845L530.419 297.519H480.992Z"></path>
<path fill="#231F20" d="M387.154 454.134V461.973H388.274V454.134H387.154Z"></path>
<path fill="#231F20" d="M541.863 458.776V474.366H540.743V458.776H541.863ZM541.863 432.05V447.639H540.743V432.05H541.863ZM541.863 405.327V420.917H540.743V405.327H541.863ZM541.863 378.601V394.19H540.743V378.601H541.863ZM540.609 485.409L541.706 485.58C540.855 491.143 536.353 495.463 530.755 496.083L530.643 494.97C535.726 494.405 539.825 490.473 540.609 485.409ZM519.557 495.039V496.159H503.969V495.039H519.557ZM492.839 495.039V496.159H477.251V495.039H492.839ZM466.121 495.039V496.159H450.511V495.039H466.121ZM439.381 495.039V496.159H423.793V495.039H439.381ZM397.21 494.775C398.016 494.95 398.845 495.039 399.673 495.039H412.663V496.159H399.673C398.755 496.159 397.859 496.06 396.963 495.868L397.21 494.775ZM388.274 473.107V483.654C388.274 485.277 388.61 486.847 389.282 488.318L388.252 488.777C387.535 487.161 387.154 485.436 387.154 483.654V473.107H388.274Z"></path>
<path fill="#231F20" d="M540.742 359.558V367.396H541.862V359.558H540.742Z"></path>
<path fill="white" d="M323.642 516.975C321.514 516.975 319.812 515.255 319.812 513.133V398.854C319.812 396.112 322.03 393.88 324.762 393.88H481.643C484.397 393.88 486.614 396.11 486.614 398.847V513.133C486.614 515.255 484.89 516.975 482.785 516.975H323.642Z"></path>
<path fill="#231F20" d="M481.642 393.627H324.761C321.894 393.627 319.543 395.967 319.543 398.854V513.134C319.543 515.393 321.379 517.229 323.641 517.229H482.784C485.046 517.229 486.882 515.393 486.882 513.134V398.847C486.882 395.967 484.531 393.627 481.642 393.627ZM481.642 394.133C484.24 394.133 486.367 396.247 486.367 398.847V513.134C486.367 515.113 484.755 516.724 482.784 516.724H323.641C321.671 516.724 320.058 515.113 320.058 513.134V398.854C320.058 396.249 322.163 394.133 324.761 394.133H481.642Z"></path>
<path fill="#231F20" d="M486.86 411.616H319.543V398.849C319.543 395.964 321.894 393.626 324.761 393.626H481.642C484.531 393.626 486.86 395.964 486.86 398.849V411.616Z"></path>
<path fill="#F06F26" d="M348.32 402.622C348.32 401.095 349.552 399.859 351.097 399.859C352.62 399.859 353.852 401.095 353.852 402.622C353.852 404.148 352.62 405.384 351.097 405.384C349.552 405.384 348.32 404.148 348.32 402.622Z"></path>
<path fill="#F6C64D" d="M337.682 402.622C337.682 401.095 338.936 399.859 340.459 399.859C341.982 399.859 343.213 401.095 343.213 402.622C343.213 404.148 341.982 405.384 340.459 405.384C338.936 405.384 337.682 404.148 337.682 402.622Z"></path>
<path fill="white" d="M329.819 405.133C328.43 405.133 327.311 404.006 327.311 402.622C327.311 401.238 328.43 400.112 329.819 400.112C331.207 400.112 332.327 401.238 332.327 402.622C332.327 404.006 331.207 405.133 329.819 405.133Z"></path>
<path fill="#231F20" d="M329.823 399.859C328.3 399.859 327.068 401.095 327.068 402.622C327.068 404.148 328.3 405.384 329.823 405.384C331.346 405.384 332.578 404.148 332.578 402.622C332.578 401.095 331.346 399.859 329.823 399.859ZM329.823 400.363C331.077 400.363 332.085 401.377 332.085 402.622C332.085 403.868 331.077 404.882 329.823 404.882C328.569 404.882 327.561 403.868 327.561 402.622C327.561 401.377 328.569 400.363 329.823 400.363Z"></path>
<path fill="white" d="M477.029 403.568L475.08 405.523L474.072 404.511L476.021 402.556L474.072 400.603L475.08 399.591L477.029 401.546L478.977 399.591L479.985 400.603L478.036 402.556L479.985 404.511L478.977 405.523L477.029 403.568Z"></path>
<path fill="#231F20" d="M478.974 399.233L477.025 401.189L475.077 399.233L473.711 400.6L475.659 402.555L473.711 404.51L475.077 405.876L477.025 403.923L478.974 405.876L480.34 404.51L478.391 402.555L480.34 400.6L478.974 399.233ZM475.077 399.946L476.667 401.545L477.025 401.901L477.384 401.542L478.974 399.946L479.623 400.6L478.033 402.199L477.675 402.555L478.033 402.913L479.623 404.51L478.974 405.164L477.384 403.567L477.025 403.209L476.667 403.567L475.077 405.166L474.405 404.51L476.018 402.913L476.376 402.555L476.018 402.199L474.405 400.6L475.077 399.946Z"></path>
<path fill="#231F20" d="M414.879 456.86V457.265L381.375 456.914L398.06 428.628L399.605 429.398C408.832 434.997 414.968 445.232 414.879 456.86Z"></path>
<path fill="#F6C64D" d="M332.597 465.045C332.575 465.593 332.597 466.136 332.62 466.673C332.709 468.722 332.978 470.74 333.448 472.688C334.232 475.967 335.509 479.082 337.188 481.915C337.793 482.905 338.42 483.854 339.114 484.77L339.405 485.138C344.288 491.453 351.409 495.846 359.584 496.712C363.951 497.176 367.87 497.092 371.386 496.571C371.633 496.538 371.857 496.504 372.103 496.462C387.713 493.828 394.946 482.33 396.94 471.547C396.962 471.317 397.007 471.079 397.052 470.849C397.276 469.47 397.41 468.106 397.477 466.781C397.499 466.306 397.522 465.824 397.522 465.342L368.676 465.009L367.982 465.002L366.101 464.982L362.451 440.347L362.339 439.655L362.316 439.415L362.047 437.536L361.465 433.68L359.36 434.094C345.542 436.09 334.635 447.429 332.866 461.106C332.642 462.85 332.597 464.113 332.597 465.045Z"></path>
<path fill="#ABBCCF" d="M369.933 460.898L365.006 427.018V427.016L367.089 426.604C369.888 426.205 372.889 426.116 376.159 426.597C380.392 427.209 384.356 428.676 387.872 430.808L369.933 460.898Z"></path>
<path fill="#231F20" d="M426.523 434.119V436.912H455.145L455.167 434.119H426.523Z"></path>
<path fill="#231F20" d="M426.523 442.518V445.309H478.235L478.279 442.518H426.523Z"></path>
<path fill="#231F20" d="M426.523 450.916V453.707H474.54L474.584 450.916H426.523Z"></path>
<path fill="#231F20" d="M458.148 436.912H466.972L467.017 434.119H458.171L458.148 436.912Z"></path>
<path fill="#231F20" d="M426.523 458.763V461.554H455.145L455.167 458.763H426.523Z"></path>
<path fill="#231F20" d="M426.526 467.161L426.504 469.952H478.238L478.282 467.161H426.526Z"></path>
<path fill="#231F20" d="M426.523 475.56V478.351H474.54L474.584 475.56H426.523Z"></path>
<path fill="#231F20" d="M458.148 461.554H466.972L467.017 458.763H458.171L458.148 461.554Z"></path>
<path fill="white" d="M299.349 544.135C297.072 544.135 295.213 542.276 295.213 539.994V436.986C295.213 434.036 297.611 431.64 300.554 431.64H439.158C442.114 431.64 444.51 434.034 444.51 436.979V539.994C444.51 542.276 442.652 544.135 440.367 544.135H299.349Z"></path>
<path fill="#231F20" d="M439.154 431.423H300.55C297.484 431.423 294.996 433.914 294.996 436.986V539.992C294.996 542.395 296.942 544.351 299.345 544.351H440.363C442.76 544.351 444.708 542.395 444.708 539.992V436.98C444.708 433.914 442.222 431.423 439.154 431.423ZM439.154 431.856C441.976 431.856 444.282 434.153 444.282 436.98V539.992C444.282 542.156 442.513 543.921 440.363 543.921H299.345C297.182 543.921 295.426 542.156 295.426 539.992V436.986C295.426 434.158 297.724 431.856 300.55 431.856H439.154Z"></path>
<path fill="#231F20" d="M444.71 450.576H294.996V436.984C294.996 433.911 297.482 431.423 300.552 431.423H439.156C442.224 431.423 444.71 433.911 444.71 436.984V450.576Z"></path>
<path fill="#F6C64D" d="M325.633 441C325.633 439.374 326.954 438.057 328.567 438.057C330.201 438.057 331.523 439.374 331.523 441C331.523 442.624 330.201 443.94 328.567 443.94C326.954 443.94 325.633 442.624 325.633 441Z"></path>
<path fill="white" d="M317.256 443.723C315.755 443.723 314.523 442.5 314.523 440.999C314.523 439.497 315.755 438.274 317.256 438.274C318.756 438.274 319.988 439.497 319.988 440.999C319.988 442.5 318.756 443.723 317.256 443.723Z"></path>
<path fill="#231F20" d="M317.257 438.057C315.622 438.057 314.301 439.374 314.301 441C314.301 442.624 315.622 443.94 317.257 443.94C318.869 443.94 320.191 442.624 320.191 441C320.191 439.374 318.869 438.057 317.257 438.057ZM317.257 438.487C318.645 438.487 319.765 439.614 319.765 441C319.765 442.384 318.645 443.51 317.257 443.51C315.868 443.51 314.749 442.384 314.749 441C314.749 439.614 315.868 438.487 317.257 438.487Z"></path>
<path fill="#F06F26" d="M302.996 441C302.996 439.374 304.313 438.057 305.937 438.057C307.563 438.057 308.879 439.374 308.879 441C308.879 442.624 307.563 443.94 305.937 443.94C304.313 443.94 302.996 442.624 302.996 441Z"></path>
<path fill="#FCFCFD" d="M430.691 438.85L432.147 437.392L434.23 439.473L436.313 437.392L437.769 438.85L435.686 440.929L437.769 443.009L436.313 444.465L434.23 442.387L432.147 444.465L430.691 443.009L432.774 440.929L430.691 438.85Z"></path>
<path fill="#231F20" d="M329.891 530.109L329.846 527.639H308.889L308.938 530.109H329.891Z"></path>
<path fill="#231F20" d="M358.915 530.109L358.848 527.639H337.908L337.953 530.109H358.915Z"></path>
<path fill="#231F20" d="M321.716 522.952L321.671 520.487H309.309L309.353 522.952H321.716Z"></path>
<path fill="#231F20" d="M335.217 515.527L335.173 513.06H309.053L309.104 515.527H335.217Z"></path>
<path fill="#231F20" d="M326.732 522.952L326.687 520.487H322.947L322.992 522.952H326.732Z"></path>
<path fill="#231F20" d="M350.739 522.952L350.672 520.487H338.332L338.377 522.952H350.739Z"></path>
<path fill="#231F20" d="M364.243 515.527L364.198 513.06H338.062L338.107 515.527H364.243Z"></path>
<path fill="#231F20" d="M355.756 522.952L355.689 520.487H351.949L351.994 522.952H355.756Z"></path>
<path fill="#231F20" d="M395.419 530.109L395.374 527.639H374.412L374.457 530.109H395.419Z"></path>
<path fill="#231F20" d="M424.446 530.109L424.378 527.639H403.416L403.483 530.109H424.446Z"></path>
<path fill="#231F20" d="M387.241 522.952L387.196 520.487H374.834L374.879 522.952H387.241Z"></path>
<path fill="#231F20" d="M400.75 515.527L400.705 513.06H374.592L374.637 515.527H400.75Z"></path>
<path fill="#231F20" d="M392.26 522.952L392.215 520.487H388.475L388.519 522.952H392.26Z"></path>
<path fill="#231F20" d="M416.267 522.952L416.199 520.487H403.859L403.904 522.952H416.267Z"></path>
<path fill="#F6C64D" d="M429.772 515.527L429.727 513.06H403.592L403.637 515.527H429.772Z"></path>
<path fill="#231F20" d="M421.284 522.952L421.217 520.487H417.477L417.521 522.952H421.284Z"></path>
<path fill="#F06F26" d="M329.999 492.228L311.075 484.019L311.053 479.464L329.977 471.254V476.62L316.786 481.681L329.999 486.899V492.228Z"></path>
<path fill="#F06F26" d="M331.746 495.84L338.554 467.292L342.518 467.287L335.643 495.836L331.746 495.84Z"></path>
<path fill="#F06F26" d="M344.31 492.23L344.287 486.903L357.5 481.691L344.287 476.567V471.277L363.234 479.448V483.962L344.31 492.23Z"></path>
<path fill="#F06F26" d="M417.86 495.355H385.969V463.465H417.86V495.355Z"></path>
<path fill="white" d="M388.68 493.167L398.019 474.655L403.573 486.345L407.492 480.159L415.106 493.091L388.68 493.167Z"></path>
<path fill="#231F20" d="M398.017 475.146L389.036 492.952L414.746 492.878L407.49 480.571L403.548 486.79L398.017 475.146ZM388.342 493.384L398.017 474.164L403.593 485.897L407.49 479.745L415.485 493.306H415.127L388.342 493.384Z"></path>
<path fill="white" d="M403.971 474.325C402.941 474.315 402.135 473.479 402.135 472.457C402.135 471.448 402.963 470.625 403.971 470.625C405.024 470.637 405.83 471.472 405.83 472.491C405.83 473.504 405.002 474.325 403.994 474.325H403.971Z"></path>
<path fill="#231F20" d="M403.973 470.411C402.853 470.411 401.935 471.324 401.912 472.455C401.912 473.598 402.83 474.529 403.973 474.54H403.995C405.115 474.54 406.033 473.628 406.055 472.496C406.055 471.353 405.137 470.421 403.995 470.411H403.973ZM403.973 470.411L403.995 470.843C404.443 470.847 404.846 471.02 405.159 471.331C405.451 471.642 405.63 472.055 405.607 472.491C405.607 473.383 404.868 474.11 403.973 474.11C403.077 474.102 402.338 473.362 402.36 472.46C402.36 471.568 403.099 470.843 403.973 470.843V470.411Z"></path>
<path fill="#FCFCFD" d="M388.295 493.329L388.004 493.038L415.55 465.491L415.842 465.785L388.295 493.329Z"></path>
<path fill="#FCFCFD" d="M415.55 493.329L388.004 465.785L388.295 465.491L415.842 493.038L415.55 493.329Z"></path>
<path fill="#231F20" d="M415.129 493.587C414.457 493.587 414.367 493.441 414.367 493.281C414.367 493.132 414.457 492.977 415.129 492.977C415.8 492.977 415.89 493.132 415.89 493.281C415.89 493.441 415.8 493.587 415.129 493.587Z"></path>
<path fill="#231F20" d="M412.865 493.587C412.193 493.587 412.104 493.441 412.104 493.281C412.104 493.132 412.193 492.977 412.865 492.977C413.559 492.977 413.649 493.132 413.649 493.281C413.649 493.441 413.537 493.587 412.865 493.587Z"></path>
<path fill="#231F20" d="M410.624 493.587C409.929 493.587 409.84 493.441 409.84 493.281C409.84 493.132 409.929 492.977 410.624 492.977C411.296 492.977 411.385 493.132 411.385 493.281C411.385 493.441 411.296 493.587 410.624 493.587Z"></path>
<path fill="#231F20" d="M408.36 493.587C407.688 493.587 407.576 493.441 407.576 493.281C407.576 493.132 407.688 492.977 408.36 492.977C409.032 492.977 409.121 493.132 409.121 493.281C409.121 493.441 409.032 493.587 408.36 493.587Z"></path>
<path fill="#231F20" d="M406.099 493.587C405.427 493.587 405.338 493.441 405.338 493.281C405.338 493.132 405.427 492.977 406.099 492.977C406.771 492.977 406.883 493.132 406.883 493.281C406.883 493.441 406.771 493.587 406.099 493.587Z"></path>
<path fill="#231F20" d="M403.838 493.587C403.166 493.587 403.076 493.441 403.076 493.281C403.076 493.132 403.166 492.977 403.838 492.977C404.532 492.977 404.622 493.132 404.622 493.281C404.622 493.441 404.532 493.587 403.838 493.587Z"></path>
<path fill="#231F20" d="M401.6 493.587C400.906 493.587 400.816 493.441 400.816 493.281C400.816 493.132 400.906 492.977 401.6 492.977C402.272 492.977 402.362 493.132 402.362 493.281C402.362 493.441 402.272 493.587 401.6 493.587Z"></path>
<path fill="#231F20" d="M399.337 493.587C398.666 493.587 398.576 493.441 398.576 493.281C398.576 493.132 398.666 492.977 399.337 492.977C400.009 492.977 400.099 493.132 400.099 493.281C400.099 493.441 400.009 493.587 399.337 493.587Z"></path>
<path fill="#231F20" d="M397.078 493.587C396.406 493.587 396.316 493.441 396.316 493.281C396.316 493.132 396.406 492.977 397.078 492.977C397.772 492.977 397.862 493.132 397.862 493.281C397.862 493.441 397.772 493.587 397.078 493.587Z"></path>
<path fill="#231F20" d="M394.837 493.587C394.142 493.587 394.053 493.441 394.053 493.281C394.053 493.132 394.142 492.977 394.837 492.977C395.508 492.977 395.598 493.132 395.598 493.281C395.598 493.441 395.508 493.587 394.837 493.587Z"></path>
<path fill="#231F20" d="M392.574 493.587C391.902 493.587 391.812 493.441 391.812 493.281C391.812 493.132 391.902 492.977 392.574 492.977C393.246 492.977 393.335 493.132 393.335 493.281C393.335 493.441 393.246 493.587 392.574 493.587Z"></path>
<path fill="#231F20" d="M390.312 493.587C389.64 493.587 389.551 493.441 389.551 493.281C389.551 493.132 389.64 492.977 390.312 492.977C390.984 492.977 391.096 493.132 391.096 493.281C391.096 493.441 390.984 493.587 390.312 493.587Z"></path>
<path fill="#231F20" d="M388.452 493.696L388.295 493.577L388.161 493.584L387.847 493.593V493.197V493.172L387.623 492.966L387.847 492.971C387.869 492.498 388.004 492.426 388.138 492.426C388.295 492.426 388.407 492.503 388.452 492.997C388.653 493.031 388.832 493.105 388.832 493.282C388.832 493.457 388.676 493.533 388.452 493.561V493.696Z"></path>
<path fill="#231F20" d="M388.139 491.713C388.004 491.713 387.848 491.621 387.848 490.942C387.848 490.266 388.004 490.174 388.139 490.174C388.296 490.174 388.452 490.266 388.452 490.942C388.452 491.619 388.296 491.713 388.139 491.713Z"></path>
<path fill="#231F20" d="M388.139 489.457C388.004 489.457 387.848 489.365 387.848 488.686C387.848 488.008 388.004 487.916 388.139 487.916C388.296 487.916 388.452 488.01 388.452 488.686C388.452 489.363 388.296 489.457 388.139 489.457Z"></path>
<path fill="#231F20" d="M388.139 487.202C388.004 487.202 387.848 487.11 387.848 486.43C387.848 485.753 388.004 485.662 388.139 485.662C388.296 485.662 388.452 485.755 388.452 486.43C388.452 487.108 388.296 487.202 388.139 487.202Z"></path>
<path fill="#231F20" d="M388.139 484.947C388.004 484.947 387.848 484.855 387.848 484.176C387.848 483.498 388.004 483.407 388.139 483.407C388.296 483.407 388.452 483.5 388.452 484.176C388.452 484.855 388.296 484.947 388.139 484.947Z"></path>
<path fill="#231F20" d="M388.139 482.69C388.004 482.69 387.848 482.599 387.848 481.921C387.848 481.239 388.004 481.15 388.139 481.15C388.296 481.15 388.452 481.239 388.452 481.921C388.452 482.597 388.296 482.69 388.139 482.69Z"></path>
<path fill="#231F20" d="M388.139 480.436C388.004 480.436 387.848 480.344 387.848 479.666C387.848 478.984 388.004 478.892 388.139 478.892C388.296 478.892 388.452 478.987 388.452 479.666C388.452 480.342 388.296 480.436 388.139 480.436Z"></path>
<path fill="#231F20" d="M388.139 478.18C388.004 478.18 387.848 478.088 387.848 477.407C387.848 476.731 388.004 476.639 388.139 476.639C388.296 476.639 388.452 476.734 388.452 477.407C388.452 478.086 388.296 478.18 388.139 478.18Z"></path>
<path fill="#231F20" d="M388.139 475.922C388.004 475.922 387.848 475.833 387.848 475.154C387.848 474.478 388.004 474.384 388.139 474.384C388.296 474.384 388.452 474.48 388.452 475.154C388.452 475.833 388.296 475.922 388.139 475.922Z"></path>
<path fill="#231F20" d="M388.139 473.668C388.004 473.668 387.848 473.576 387.848 472.9C387.848 472.219 388.004 472.129 388.139 472.129C388.296 472.129 388.452 472.224 388.452 472.9C388.452 473.573 388.296 473.668 388.139 473.668Z"></path>
<path fill="#231F20" d="M388.139 471.416C388.004 471.416 387.848 471.324 387.848 470.642C387.848 469.965 388.004 469.875 388.139 469.875C388.296 469.875 388.452 469.966 388.452 470.642C388.452 471.322 388.296 471.416 388.139 471.416Z"></path>
<path fill="#231F20" d="M388.139 469.156C388.004 469.156 387.848 469.064 387.848 468.385C387.848 467.707 388.004 467.616 388.139 467.616C388.296 467.616 388.452 467.709 388.452 468.385C388.452 469.063 388.296 469.156 388.139 469.156Z"></path>
<path fill="#231F20" d="M389.996 466.042C389.324 466.042 389.234 465.887 389.234 465.735C389.234 465.578 389.324 465.433 389.996 465.433C390.69 465.433 390.78 465.578 390.78 465.735C390.78 465.887 390.69 466.042 389.996 466.042Z"></path>
<path fill="#231F20" d="M392.26 466.042C391.588 466.042 391.498 465.887 391.498 465.735C391.498 465.578 391.588 465.433 392.26 465.433C392.931 465.433 393.021 465.578 393.021 465.735C393.021 465.887 392.931 466.042 392.26 466.042Z"></path>
<path fill="#231F20" d="M394.52 466.042C393.826 466.042 393.736 465.887 393.736 465.735C393.736 465.578 393.848 465.433 394.52 465.433C395.192 465.433 395.282 465.578 395.282 465.735C395.282 465.887 395.192 466.042 394.52 466.042Z"></path>
<path fill="#231F20" d="M396.761 466.042C396.089 466.042 396 465.887 396 465.735C396 465.578 396.089 465.433 396.761 465.433C397.456 465.433 397.545 465.578 397.545 465.735C397.545 465.887 397.456 466.042 396.761 466.042Z"></path>
<path fill="#231F20" d="M399.023 466.042C398.351 466.042 398.262 465.887 398.262 465.735C398.262 465.578 398.351 465.433 399.023 465.433C399.695 465.433 399.785 465.578 399.785 465.735C399.785 465.887 399.695 466.042 399.023 466.042Z"></path>
<path fill="#231F20" d="M401.286 466.042C400.614 466.042 400.502 465.887 400.502 465.735C400.502 465.578 400.614 465.433 401.286 465.433C401.958 465.433 402.047 465.578 402.047 465.735C402.047 465.887 401.958 466.042 401.286 466.042Z"></path>
<path fill="#231F20" d="M403.549 466.042C402.855 466.042 402.766 465.887 402.766 465.735C402.766 465.578 402.855 465.433 403.549 465.433C404.221 465.433 404.311 465.578 404.311 465.735C404.311 465.887 404.221 466.042 403.549 466.042Z"></path>
<path fill="#231F20" d="M405.787 466.042C405.115 466.042 405.025 465.887 405.025 465.735C405.025 465.578 405.115 465.433 405.787 465.433C406.459 465.433 406.571 465.578 406.571 465.735C406.571 465.887 406.481 466.042 405.787 466.042Z"></path>
<path fill="#231F20" d="M408.049 466.042C407.377 466.042 407.287 465.887 407.287 465.735C407.287 465.578 407.377 465.433 408.049 465.433C408.721 465.433 408.81 465.578 408.81 465.735C408.81 465.887 408.721 466.042 408.049 466.042Z"></path>
<path fill="#231F20" d="M410.311 466.042C409.617 466.042 409.527 465.887 409.527 465.735C409.527 465.578 409.617 465.433 410.311 465.433C410.983 465.433 411.073 465.578 411.073 465.735C411.073 465.887 410.983 466.042 410.311 466.042Z"></path>
<path fill="#231F20" d="M412.548 466.042C411.877 466.042 411.787 465.887 411.787 465.735C411.787 465.578 411.877 465.433 412.548 465.433C413.243 465.433 413.332 465.578 413.332 465.735C413.332 465.887 413.243 466.042 412.548 466.042Z"></path>
<path fill="#231F20" d="M414.812 466.042C414.14 466.042 414.051 465.887 414.051 465.735C414.051 465.578 414.14 465.433 414.812 465.433C415.484 465.433 415.574 465.578 415.574 465.735C415.574 465.887 415.484 466.042 414.812 466.042Z"></path>
<path fill="#231F20" d="M415.688 467.887C415.531 467.887 415.396 467.793 415.396 467.119C415.396 466.441 415.531 466.349 415.688 466.349C415.844 466.349 416.001 466.441 416.001 467.119C416.001 467.796 415.844 467.887 415.688 467.887Z"></path>
<path fill="#231F20" d="M415.688 470.143C415.531 470.143 415.396 470.051 415.396 469.373C415.396 468.698 415.531 468.605 415.688 468.605C415.844 468.605 416.001 468.696 416.001 469.373C416.001 470.051 415.844 470.143 415.688 470.143Z"></path>
<path fill="#231F20" d="M415.688 472.399C415.531 472.399 415.396 472.305 415.396 471.627C415.396 470.952 415.531 470.859 415.688 470.859C415.844 470.859 416.001 470.951 416.001 471.627C416.001 472.308 415.844 472.399 415.688 472.399Z"></path>
<path fill="#231F20" d="M415.688 474.654C415.531 474.654 415.396 474.56 415.396 473.884C415.396 473.205 415.531 473.114 415.688 473.114C415.844 473.114 416.001 473.205 416.001 473.884C416.001 474.562 415.844 474.654 415.688 474.654Z"></path>
<path fill="#231F20" d="M415.688 476.911C415.531 476.911 415.396 476.819 415.396 476.14C415.396 475.461 415.531 475.37 415.688 475.37C415.844 475.37 416.001 475.461 416.001 476.14C416.001 476.819 415.844 476.911 415.688 476.911Z"></path>
<path fill="#231F20" d="M415.688 479.166C415.531 479.166 415.396 479.072 415.396 478.395C415.396 477.719 415.531 477.625 415.688 477.625C415.844 477.625 416.001 477.716 416.001 478.395C416.001 479.074 415.844 479.166 415.688 479.166Z"></path>
<path fill="#231F20" d="M415.688 481.422C415.531 481.422 415.396 481.327 415.396 480.651C415.396 479.975 415.531 479.88 415.688 479.88C415.844 479.88 416.001 479.972 416.001 480.651C416.001 481.33 415.844 481.422 415.688 481.422Z"></path>
<path fill="#231F20" d="M415.688 483.677C415.531 483.677 415.396 483.582 415.396 482.906C415.396 482.23 415.531 482.138 415.688 482.138C415.844 482.138 416.001 482.23 416.001 482.906C416.001 483.585 415.844 483.677 415.688 483.677Z"></path>
<path fill="#231F20" d="M415.688 485.931C415.531 485.931 415.396 485.837 415.396 485.158C415.396 484.485 415.531 484.39 415.688 484.39C415.844 484.39 416.001 484.485 416.001 485.158C416.001 485.84 415.844 485.931 415.688 485.931Z"></path>
<path fill="#231F20" d="M415.688 488.186C415.531 488.186 415.396 488.092 415.396 487.416C415.396 486.739 415.531 486.645 415.688 486.645C415.844 486.645 416.001 486.737 416.001 487.416C416.001 488.094 415.844 488.186 415.688 488.186Z"></path>
<path fill="#231F20" d="M415.688 490.445C415.531 490.445 415.396 490.349 415.396 489.675C415.396 488.997 415.531 488.902 415.688 488.902C415.844 488.902 416.001 488.994 416.001 489.675C416.001 490.353 415.844 490.445 415.688 490.445Z"></path>
<path fill="#231F20" d="M415.688 492.696C415.531 492.696 415.396 492.603 415.396 491.928C415.396 491.249 415.531 491.156 415.688 491.156C415.844 491.156 416.001 491.248 416.001 491.928C416.001 492.604 415.844 492.696 415.688 492.696Z"></path>
<path fill="#231F20" d="M416.716 494.02H414.678V491.982H416.716V494.02Z"></path>
<path fill="#231F20" d="M414.881 493.817H416.493V492.189H414.881V493.817ZM416.919 494.228H414.455V491.777H416.919V494.228Z"></path>
<path fill="#231F20" d="M389.167 494.301H387.129V492.261H389.167V494.301Z"></path>
<path fill="#231F20" d="M387.334 494.096H388.969V492.469H387.334V494.096ZM389.372 494.508H386.908V492.055H389.372V494.508Z"></path>
<path fill="#231F20" d="M416.716 466.559H414.678V464.517H416.716V466.559Z"></path>
<path fill="#231F20" d="M414.881 466.352H416.493V464.722H414.881V466.352ZM416.919 466.762H414.455V464.312H416.919V466.762Z"></path>
<path fill="#231F20" d="M389.167 466.758H387.129V464.718H389.167V466.758Z"></path>
<path fill="#231F20" d="M387.334 466.55H388.969V464.924H387.334V466.55ZM389.372 466.962H386.908V464.512H389.372V466.962Z"></path>
<path fill="#231F20" d="M544.485 345.143C544.485 347.205 542.805 348.876 540.745 348.876C538.685 348.876 537.027 347.205 537.027 345.143C537.027 343.082 538.685 341.409 540.745 341.409C542.805 341.409 544.485 343.082 544.485 345.143Z"></path>
<path fill="white" d="M243.553 566.357C242.437 564.962 230.384 566.129 230.263 566.849C229.894 569.069 229.325 577.565 230.471 578.692C231.587 579.783 241.994 582.15 242.229 580.002C242.435 578.139 244.628 567.701 243.553 566.357Z"></path>
<path fill="#231F20" d="M230.784 567.155C230.311 570.262 230.072 577.516 230.864 578.293C231.65 579.061 239.216 580.906 241.377 580.136L241.675 579.943C241.722 579.509 241.876 578.615 242.071 577.482C242.539 574.774 243.78 567.583 243.119 566.709C242.232 565.805 232.427 566.44 230.784 567.155ZM239.87 581.43C236.526 581.43 231.057 580.048 230.081 579.094C228.598 577.638 229.469 568.226 229.711 566.759C229.792 566.291 230.302 566.12 230.82 565.986C233.023 565.413 242.709 564.403 243.99 566.008C244.817 567.043 244.344 570.904 243.175 577.672C242.985 578.774 242.835 579.643 242.785 580.064C242.747 580.422 242.537 580.91 241.755 581.19C241.292 581.356 240.636 581.43 239.87 581.43Z"></path>
<path fill="#231F20" d="M229.619 576.098C229.619 576.098 224.05 584.064 228.034 590.321C228.034 590.321 257.049 591.688 265.81 590.321C265.81 590.321 266.039 579.627 258.53 578.716C251.018 577.804 242.559 577.932 242.559 577.932C242.559 577.932 235.075 582.015 229.619 576.098Z"></path>
<path fill="white" d="M177.652 566.404C176.536 565.009 166.205 566.129 166.084 566.85C165.715 569.069 165.144 577.566 166.293 578.692C167.408 579.783 176.476 583.315 176.711 581.165C176.913 579.306 178.729 567.746 177.652 566.404Z"></path>
<path fill="#231F20" d="M166.604 567.135C166.13 570.235 165.888 577.514 166.683 578.29C167.632 579.22 174.405 581.802 176.017 581.206L176.154 581.103C176.187 580.792 176.266 580.212 176.369 579.451C177.419 571.684 177.704 567.413 177.213 566.753C176.476 565.858 168.114 566.396 166.604 567.135ZM175.437 582.394C172.588 582.394 166.83 580.002 165.899 579.092C164.416 577.636 165.288 568.224 165.529 566.757C165.603 566.313 166.056 566.112 166.757 565.928C168.68 565.426 176.815 564.461 178.089 566.051C178.85 567.005 178.684 570.676 177.477 579.6C177.377 580.346 177.3 580.919 177.267 581.227C177.213 581.713 176.902 582.079 176.393 582.261C176.136 582.353 175.811 582.394 175.437 582.394Z"></path>
<path fill="#231F20" d="M229.943 463.201C231.307 480.269 230.055 514.684 228.689 531.752C228.606 532.901 228.606 572.55 228.606 572.55L244.648 574.084C253.384 548.024 270.062 489.581 270.062 463.638C270.062 437.693 267.823 394.46 258.289 373.951C249.223 354.449 213.462 381.381 209.258 386.163C207.317 388.373 210.989 408.115 216.069 421.196C221.965 436.353 229.206 454.024 229.943 463.201Z"></path>
<path fill="#231F20" d="M228.605 572.549L238.501 573.496C237.601 567.267 238.488 553.376 238.844 547.042C239.498 536.008 242.23 525.221 244.799 514.515C248.839 497.528 252.691 479.534 247.885 462.271C245.399 453.396 239.961 447.223 235.538 439.385C232.589 434.086 231.115 428.131 231.554 422.069C231.8 418.768 233.847 414.589 232.728 411.283C231.335 407.104 218.84 392.981 215.644 395.111C211.792 397.707 213.738 407.738 212.18 412.407C218.081 427.562 229.205 454.023 229.941 463.2C231.305 480.268 228.484 514.537 227.55 531.637C226.618 548.662 228.605 572.549 228.605 572.549Z"></path>
<path fill="#231F20" d="M164.851 572.55L179.097 574.084C186.528 549.505 206.395 507.511 209.32 481.729C213.85 441.693 219.326 398.821 219.57 388.279C219.597 386.584 219.626 385.681 219.626 385.681C209.822 373.747 193.206 368.882 185.804 368.009C182.88 367.655 180.75 368.226 179.823 369.758C176.817 374.781 174.468 379.424 172.638 383.796C160.704 412.142 170.752 429.265 170.537 466.135C170.537 468.267 170.508 470.45 170.455 472.61C170.072 487.847 174.183 506.615 169.801 522.536C161.207 553.76 164.851 572.55 164.851 572.55Z"></path>
<path fill="#231F20" d="M310.425 309.901C309.798 314.497 309.193 319.059 308.571 323.625C308.344 325.278 308.12 327.009 307.28 328.442C306.447 329.898 306.114 330.814 304.51 330.306C302.324 329.616 301.364 326.859 299.232 326.015C297.704 325.379 295.861 325.961 294.515 326.935C293.162 327.93 292.134 329.314 290.994 330.536C287.442 334.359 283.781 338.825 279.288 339.728C278.688 339.159 278.095 338.565 277.555 337.981C276.639 336.971 275.799 336.005 274.991 335.016C273.92 333.623 272.948 332.279 272.086 330.946C272.829 329.435 273.898 328.14 274.939 326.846C280.478 320.028 286.15 313.063 293.639 308.528C294.284 308.134 294.956 307.747 295.662 307.503C296.083 308.316 296.425 309.093 296.795 309.874C297.021 310.351 297.276 310.835 297.478 311.285C300.987 318.801 302.517 323.036 303.738 323.872C305.841 325.238 306.707 317.424 308.575 308.428V308.401C308.696 308.148 308.88 307.892 309.148 307.771C309.596 307.588 310.156 307.944 310.358 308.43C310.537 308.887 310.47 309.408 310.425 309.901Z"></path>
<path fill="white" d="M327.402 269.617C325.588 269.462 321.982 272.139 320.437 273.308C317.279 275.74 314.368 279.137 313.248 283.014C312.979 282.828 312.688 282.658 312.397 282.505C312.576 281.916 312.867 281.345 313.159 280.855C313.898 279.554 312.151 277.966 311.053 279.146C310.001 280.293 309.15 281.504 309.351 283.142C309.374 283.399 311.345 291.435 312.464 293.918C311.322 295.894 310.27 300.245 309.239 305.143C309.022 306.222 308.8 307.297 308.576 308.401V308.428C306.709 317.422 305.842 325.238 303.739 323.872C302.519 323.037 300.989 318.802 297.479 311.286C297.278 310.836 297.023 310.352 296.796 309.875C296.427 309.093 296.084 308.316 295.663 307.503L295.58 307.322C288.501 292.337 278.663 277.146 269.904 272.152C261.239 267.227 266.468 306.982 266.468 306.982C266.468 306.982 265.814 310.502 266.144 315.617C266.433 320.645 267.937 324.322 271.671 330.271C271.801 330.486 271.962 330.703 272.087 330.947C272.95 332.28 273.922 333.623 274.992 335.016C275.801 336.006 276.64 336.971 277.556 337.981C278.096 338.566 278.69 339.159 279.29 339.728C284.974 345.273 293.067 350.44 304.639 353.128C316.518 355.862 324.67 338.187 324.446 318.706C324.334 310.193 323.304 300.894 321.669 291.719C322.385 291.291 323.125 290.646 324.177 289.616C327.402 286.864 326.036 283.829 325.118 284.454C326.618 282.615 325.969 280.317 324.849 280.62C325.79 278.806 323.976 275.294 321.602 277.395C322.565 275.773 325.723 273.267 327.514 272.32C329.082 271.491 328.925 269.751 327.402 269.617Z"></path>
<path fill="#231F20" d="M268.524 272.287C268.212 272.287 267.991 272.395 267.827 272.505C263.814 275.206 265.89 298.253 267.025 306.907L267.037 306.996L267.023 307.083C267.016 307.115 266.385 310.604 266.703 315.583C266.978 320.346 268.3 323.844 272.147 329.972L272.284 330.189L272.586 330.686C273.361 331.88 274.302 333.199 275.437 334.672C276.19 335.593 277.02 336.556 277.972 337.604C278.501 338.175 279.085 338.76 279.677 339.32C286.312 345.796 294.751 350.255 304.769 352.582C307.895 353.297 310.853 352.564 313.541 350.392C319.879 345.286 324.044 332.554 323.888 318.711C323.776 310.664 322.813 301.366 321.111 291.816L321.043 291.436L321.379 291.236C322.074 290.818 322.835 290.15 323.798 289.212C325.702 287.575 325.679 286.061 325.635 285.633C325.567 285.174 325.388 284.952 325.343 284.923L322.163 287.075L324.694 284.099C325.59 283.001 325.545 281.788 325.254 281.313L324.985 281.158L323.753 281.485L324.336 280.361C324.761 279.546 324.448 278.122 323.709 277.541C323.193 277.154 322.611 277.244 321.984 277.81L319.319 280.164L321.133 277.109C322.163 275.331 325.522 272.751 327.269 271.824C327.896 271.486 328.12 270.995 328.053 270.664C328.008 270.388 327.74 270.209 327.359 270.176C326.732 270.149 325.03 270.512 320.797 273.75C318.737 275.331 315.086 278.655 313.787 283.165L313.586 283.911L312.936 283.476C312.69 283.299 312.421 283.143 312.13 283.002L311.727 282.784L311.861 282.336C312.063 281.689 312.376 281.084 312.667 280.581C312.936 280.104 312.623 279.642 312.354 279.445C312.175 279.311 311.817 279.134 311.458 279.526C310.406 280.675 309.734 281.714 309.913 283.071C309.98 283.519 311.906 291.301 312.959 293.689L313.093 293.946L312.936 294.195C311.794 296.199 310.697 300.913 309.801 305.258L309.667 305.917C309.487 306.774 309.308 307.634 309.129 308.51C308.739 310.398 308.399 312.203 308.081 313.887C306.802 320.615 306.123 323.873 304.688 324.487C304.406 324.606 303.96 324.68 303.434 324.341C302.437 323.656 301.497 321.551 299.622 317.352C298.885 315.699 298.016 313.755 296.975 311.52C296.856 311.26 296.724 310.994 296.592 310.725L295.981 309.446C295.725 308.893 295.465 308.335 295.168 307.76L295.044 307.473C286.812 290.067 277.298 277.013 269.628 272.637C269.169 272.377 268.808 272.287 268.524 272.287ZM307.073 353.971C306.233 353.971 305.382 353.872 304.518 353.671C294.296 351.299 285.681 346.741 278.9 340.128C278.299 339.557 277.695 338.955 277.146 338.357C276.179 337.295 275.334 336.316 274.562 335.369C273.397 333.857 272.436 332.514 271.619 331.25L271.345 330.8L271.195 330.563C267.285 324.332 265.87 320.568 265.585 315.65C265.283 310.913 265.805 307.56 265.903 306.967C265.431 303.328 261.93 275.125 267.204 271.575C267.796 271.183 268.786 270.877 270.183 271.663C278.046 276.148 287.732 289.389 296.088 307.083L296.2 307.343C296.467 307.836 296.733 308.407 296.997 308.974L297.595 310.228C297.734 310.51 297.873 310.79 297.994 311.054C299.033 313.289 299.904 315.238 300.643 316.893C302.263 320.519 303.329 322.91 304.059 323.41L304.249 323.457C305.199 323.051 306.106 318.288 306.979 313.679C307.299 311.988 307.644 310.174 308.029 308.313C308.204 307.41 308.383 306.548 308.562 305.69L308.699 305.03C309.644 300.546 310.674 296.114 311.839 293.886C310.674 291.082 308.827 283.474 308.793 283.21C308.556 281.322 309.532 279.956 310.652 278.764C311.279 278.066 312.242 277.976 313.026 278.54C313.451 278.861 313.81 279.394 313.877 279.987C315.646 276.639 318.401 274.175 320.103 272.861C323.619 270.178 326.038 268.912 327.448 269.06C328.344 269.136 328.994 269.667 329.151 270.44C329.33 271.347 328.792 272.279 327.784 272.814C326.485 273.504 324.604 274.921 323.305 276.204C323.686 276.249 324.045 276.399 324.38 276.659C325.366 277.416 325.836 278.923 325.59 280.155C325.814 280.269 326.015 280.455 326.194 280.706C326.665 281.458 326.732 282.795 326.06 284.063L326.306 284.314C327.113 285.373 327.113 287.85 324.56 290.038C323.686 290.878 322.969 291.521 322.275 291.989C323.955 301.467 324.896 310.694 325.007 318.696C325.164 333.089 320.954 345.872 314.235 351.265C312.018 353.066 309.599 353.971 307.073 353.971Z"></path>
<path fill="#F6C64D" d="M273.569 336.927C271.077 333.558 267.247 329.724 263.841 325.989C262.553 324.562 261.319 323.142 260.235 321.803C258.719 319.897 257.494 318.065 256.847 316.439C256.502 315.662 256.32 314.914 256.269 314.213C256.197 312.791 256.551 308.227 257.274 302.424C259.198 287.381 264.204 267.31 270.804 270.305C282.116 275.431 291.331 292.613 299.383 306.209C298.079 318.809 289.945 331.541 273.569 336.927Z"></path>
<path fill="#231F20" d="M164.849 572.549L168.096 572.86C168.014 564.507 168.211 552.68 169.115 544.378C170.535 531.269 174.195 518.979 178.73 506.637C185.99 486.754 190.882 467.119 189.486 445.737C188.723 434.098 185.036 423.312 183.424 411.895C182.387 404.52 183.914 397.447 185.09 390.294C185.719 386.225 186.266 382.129 186.156 377.923C186.046 374.478 172.645 377.235 172.645 382.901C160.71 411.25 170.75 429.265 170.535 466.134C170.535 468.266 170.506 470.45 170.452 472.609C170.096 487.847 169.545 505.183 167.068 521.512C161.111 560.769 164.849 572.549 164.849 572.549Z"></path>
<path fill="#231F20" d="M278.411 277.311C278.411 277.311 281.139 287.037 276.532 301.207C275.329 304.9 269.168 319.88 266.317 328.659C264.514 327.022 259.668 321.403 258.768 319.903L269.638 298.862L278.411 277.311Z"></path>
<path fill="#F6C64D" d="M265.976 316.505C262.615 323.331 259.473 329.53 258.163 333.655C254.037 346.707 265.421 368.032 263.426 377.757C261.596 379.998 235.308 391.039 215.515 391.754C189.746 392.681 169.675 382.892 169.427 379.125C169.212 375.681 180.356 331.25 187.101 312.241C194.584 291.133 204.962 270.701 210.861 264.668C211.324 264.205 211.763 263.822 212.173 263.519C214.03 262.182 216.733 261.255 220.066 260.762C238.77 257.73 267.77 266.126 279.21 276.166C281.682 285.733 273.237 301.782 265.976 316.505Z"></path>
<path fill="white" d="M261.51 258.098V266.172C261.51 266.172 263.602 270.796 261.51 271.072C254.398 271.99 250.389 262.862 250.389 262.862V253.489L261.51 258.098Z"></path>
<path fill="#231F20" d="M250.948 262.738C251.409 263.715 255.225 271.32 261.436 270.514L261.761 270.315C262.146 269.627 261.545 267.614 260.999 266.407L260.95 266.174V258.472L250.948 254.327V262.738ZM260.486 271.694C253.736 271.697 250.039 263.455 249.875 263.085L249.828 262.862V252.651L262.07 257.724V266.055C262.405 266.826 263.487 269.517 262.737 270.861C262.497 271.293 262.097 271.555 261.581 271.625C261.207 271.672 260.842 271.694 260.486 271.694Z"></path>
<path fill="#231F20" d="M227.259 279.655C227.259 279.655 228.316 293.675 219.519 301.97C210.72 310.265 203.802 312.671 203.802 312.671L202.174 325.967C202.174 325.967 212.787 322.457 222.231 308.003C226.117 302.057 229.248 289.836 227.259 279.655Z"></path>
<path fill="white" d="M264.238 235.622C264.238 235.622 267.644 242.697 268.667 250.432C269.393 255.926 260.025 264.414 251.832 256.676C243.64 248.936 245.918 237.105 245.918 237.105L264.238 235.622Z"></path>
<path fill="#231F20" d="M246.404 237.626C246.112 239.764 245.203 249.639 252.22 256.268C256.67 260.469 260.869 259.289 262.974 258.214C266.208 256.559 268.465 253.173 268.114 250.505C267.24 243.901 264.578 237.718 263.897 236.213L246.404 237.626ZM258.945 260.344C256.327 260.344 253.736 259.24 251.449 257.081C243.132 249.222 245.347 237.117 245.371 236.999L245.45 236.58L264.578 235.035L264.746 235.379C264.779 235.451 268.201 242.622 269.225 250.358C269.637 253.466 267.115 257.356 263.483 259.211C262 259.97 260.468 260.344 258.945 260.344Z"></path>
<path fill="#231F20" d="M243.845 245.906C243.787 245.854 243.742 245.534 243.603 245.18C242.835 243.2 243.382 240.952 244.768 239.402C245.357 238.739 246.228 238.82 246.79 239.227L246.86 239.212C249.189 239.037 249.196 241.868 249.514 243.424C250.049 246.038 251.67 249.173 250.853 251.876C250.313 253.681 248.553 254.803 246.683 254.255C244.432 253.592 244.672 251.498 243.906 249.776C243.449 248.748 243.1 248.024 243.395 246.866C243.483 246.524 243.691 246.219 243.845 245.906Z"></path>
<path fill="#231F20" d="M245.291 242.095C247.766 247.501 251.996 243.273 255.443 241.596C257.786 240.454 261.373 240.021 263.893 238.664C264.267 239.361 265.163 239.795 265.931 239.123C267.924 237.379 270.282 234.396 268.047 231.807C266.309 229.795 263.886 230.646 261.965 231.863C255.416 226.902 241.099 232.938 245.291 242.095Z"></path>
<path fill="white" d="M243.65 344.208L239.681 354.47C239.681 354.47 237.76 355.007 234.548 355.699C225.099 357.681 206.607 358.933 192.05 355.574C178.915 352.541 171.621 336.759 171.977 320.782V320.753C172.114 314.008 173.614 307.206 176.62 301.363C177.549 299.506 178.642 297.757 179.896 296.12C180.308 295.601 180.716 295.081 181.153 294.564L181.18 294.537L181.345 294.344C194.097 279.187 199.289 274.791 209.474 266.487C214.773 262.175 220.056 266.204 222.405 272.621C224.098 277.236 227.937 281.151 226.71 288.147C225.451 295.437 221.435 301.936 215.868 306.798C213.819 308.572 211.496 310.648 209.257 312.778C208.957 313.054 208.681 313.298 208.41 313.571C202.782 318.979 202.182 331.924 202.182 334.054C202.182 336.593 205.373 340.098 208.95 341.357C219.94 345.258 243.65 344.208 243.65 344.208Z"></path>
<path fill="#231F20" d="M213.97 265.252C212.579 265.252 211.193 265.809 209.827 266.92C199.494 275.343 194.394 279.699 181.772 294.704L181.649 294.843C181.156 295.428 180.758 295.934 180.357 296.44C179.118 298.052 178.034 299.788 177.12 301.613C174.261 307.174 172.677 313.796 172.536 320.764C172.209 335.48 178.847 351.954 192.177 355.029C207.146 358.482 225.654 356.995 234.435 355.15C236.908 354.617 238.628 354.171 239.259 354.003L242.82 344.798C238.417 344.953 218.68 345.405 208.761 341.885C204.96 340.546 201.621 336.884 201.621 334.053C201.621 333.905 201.695 319.245 208.022 313.165C208.232 312.954 208.454 312.75 208.691 312.533L208.877 312.365C210.859 310.477 213.155 308.404 215.5 306.372C221.19 301.405 224.975 294.897 226.156 288.05C227.016 283.155 225.296 279.818 223.629 276.586C222.975 275.314 222.353 274.109 221.878 272.813C220.456 268.927 218.03 266.172 215.394 265.447C214.92 265.317 214.445 265.252 213.97 265.252ZM212.799 358.225C205.908 358.225 198.573 357.654 191.922 356.117C177.367 352.762 171.089 335.442 171.416 320.768C171.56 313.604 173.188 306.813 176.122 301.107C177.065 299.224 178.187 297.427 179.452 295.779C179.884 295.23 180.292 294.715 180.722 294.202L180.867 294.041C193.601 278.902 198.73 274.524 209.119 266.051C211.215 264.345 213.488 263.762 215.692 264.367C218.678 265.189 221.383 268.201 222.928 272.427C223.381 273.659 223.985 274.833 224.626 276.076C226.294 279.309 228.185 282.978 227.26 288.243C226.035 295.34 222.12 302.079 216.234 307.219C213.901 309.239 211.619 311.301 209.639 313.183L209.446 313.36C209.224 313.563 209.014 313.756 208.806 313.964C202.907 319.635 202.741 333.91 202.741 334.053C202.741 336.378 205.85 339.67 209.135 340.83C219.898 344.651 243.391 343.661 243.624 343.647L244.479 343.609L240.101 354.932L239.83 355.009C239.81 355.013 237.857 355.557 234.668 356.245C229.685 357.293 221.605 358.225 212.799 358.225Z"></path>
<path fill="#F6C64D" d="M208.432 318.043C210.752 315.824 225.341 301.526 227.576 287.31C228.593 280.844 226.59 265.234 218.539 263.369C205.646 260.383 188.417 279.099 176.527 293.231C181.985 305.537 193.949 314.144 208.432 318.043Z"></path>
<path fill="#231F20" d="M213.546 338.875L184.783 338.617L211.662 348.207L213.546 338.875Z"></path>
<path fill="white" d="M185.053 340.96L185.25 339.381L211.074 348.594L210.922 350.872L185.053 340.96Z"></path>
<path fill="#231F20" d="M184.782 338.618L184.441 341.324L211.428 351.666L211.661 348.208L184.782 338.618ZM185.72 340.139L210.485 348.979L210.413 350.078L185.662 340.594L185.72 340.139Z"></path>
<path fill="#231F20" d="M271.186 348.744L211.661 348.209L211.428 351.666L270.957 351.823L271.186 348.744Z"></path>
<path fill="white" d="M212.348 347.654L219.008 316.443C219.181 315.603 219.92 314.999 220.771 314.999L275.521 315.491C276.056 315.496 276.556 315.74 276.896 316.154C277.232 316.573 277.366 317.113 277.261 317.637L270.731 348.178L212.348 347.654Z"></path>
<path fill="#231F20" d="M220.773 314.439C219.653 314.439 218.688 315.227 218.464 316.329L211.66 348.207L271.185 348.742L277.812 317.747C278.103 316.302 277.004 314.945 275.528 314.932L220.791 314.439H220.773ZM220.773 314.439L220.782 315.559L275.517 316.051C275.886 316.054 276.231 316.222 276.462 316.511C276.695 316.797 276.786 317.167 276.717 317.514L270.283 347.613L213.042 347.101L219.561 316.551C219.678 315.975 220.186 315.559 220.773 315.559V314.439Z"></path>
<path fill="white" d="M249.763 354.495L249.557 354.17C249.127 354.625 248.598 355.066 247.982 355.073C247.185 355.084 246.737 354.412 246.39 353.913L246.358 353.837C245.563 354.932 244.473 355.839 243.178 355.584C241.949 355.337 241.691 354.356 241.796 353.239C241.472 353.619 241.118 353.964 240.739 354.244C239.25 355.371 237.73 354.065 237.248 352.818L237.351 352.316L237.358 352.179C237.707 350.995 238.182 349.852 238.836 348.762C239.286 348.007 239.866 346.865 240.739 346.383C242.298 345.532 242.995 347.246 243.259 348.433C243.691 347.252 244.444 346.236 246.038 346.84C247.133 347.25 247.675 348.014 247.868 348.887C248.197 348.35 248.602 347.877 249.131 347.557C250.481 346.735 251.438 348.175 251.673 349.158C251.785 349.624 251.785 350.088 251.713 350.547L252.033 350.421C253.021 350.235 253.648 351.393 253.774 352.056C254.143 354.031 251.778 355.604 249.763 354.495Z"></path>
<path fill="#231F20" d="M242.517 351.522L242.351 353.289C242.223 354.637 242.752 354.926 243.285 355.033C244.389 355.246 245.31 354.319 245.903 353.506L246.443 352.758L246.857 353.584C247.229 354.142 247.52 354.512 247.959 354.512H247.97C248.308 354.507 248.68 354.279 249.146 353.786L249.905 352.987L250.098 354.039C251.034 354.516 251.936 354.272 252.476 353.878C253.063 353.455 253.341 352.812 253.218 352.158C253.175 351.916 253.025 351.551 252.796 351.282C252.474 350.904 252.221 350.957 252.133 350.971L251.995 351.027L250.973 351.632L251.157 350.458C251.224 350.035 251.213 349.65 251.126 349.282C251 348.765 250.624 348.111 250.174 347.925C250.024 347.865 249.791 347.806 249.419 348.035C249.018 348.277 248.664 348.651 248.342 349.177L247.614 350.357L247.318 349.005C247.144 348.207 246.658 347.67 245.84 347.363C245.386 347.191 245.023 347.168 244.723 347.309C244.351 347.479 244.044 347.907 243.782 348.622L243.128 350.415L242.71 348.552C242.499 347.607 242.141 346.937 241.753 346.761C241.679 346.731 241.46 346.624 241.005 346.875C240.376 347.22 239.883 348.066 239.491 348.745L239.312 349.047C238.714 350.048 238.248 351.125 237.895 352.337V352.572L237.738 352.716C237.986 353.179 238.528 353.869 239.207 354.064C239.619 354.178 240.009 354.093 240.4 353.797C240.727 353.553 241.052 353.244 241.366 352.875L242.517 351.522ZM243.619 356.185L243.066 356.131C242.36 355.99 241.574 355.582 241.307 354.507L241.07 354.693C240.403 355.197 239.655 355.36 238.9 355.141C237.773 354.821 237.025 353.797 236.723 353.018C236.6 352.711 236.631 352.373 236.801 352.102L236.806 352.071C237.2 350.716 237.704 349.556 238.351 348.472L238.522 348.183C238.987 347.383 239.565 346.389 240.468 345.894C241.247 345.466 241.845 345.576 242.214 345.742C242.741 345.981 243.113 346.469 243.372 347.016C243.628 346.682 243.923 346.443 244.257 346.288C244.83 346.026 245.495 346.035 246.234 346.315C247.029 346.613 247.632 347.103 248.017 347.753C248.27 347.479 248.543 347.255 248.837 347.076C249.576 346.628 250.205 346.725 250.602 346.89C251.444 347.24 252.019 348.214 252.214 349.022C252.279 349.291 252.313 349.562 252.319 349.842C252.812 349.867 253.273 350.111 253.652 350.557C254.037 351.011 254.248 351.576 254.322 351.952C254.519 353.025 254.066 354.111 253.132 354.785C252.073 355.553 250.68 355.634 249.502 354.991C249.101 355.327 248.588 355.625 247.986 355.631H247.957C247.198 355.631 246.689 355.208 246.322 354.769C245.482 355.705 244.564 356.185 243.619 356.185Z"></path>
<path fill="#231F20" d="M165.442 576.098C165.442 576.098 159.872 584.064 163.856 590.321C163.856 590.321 192.874 591.688 201.633 590.321C201.633 590.321 201.861 579.627 194.35 578.716C186.841 577.804 177.21 577.397 177.21 577.397C177.21 577.397 170.897 582.015 165.442 576.098Z"></path>
<path fill="black" d="M23 317.8C23.9333 305.533 28.6667 295.933 37.2 289C45.7333 282.067 56.8 278.6 70.4 278.6C79.4667 278.6 87.2667 280.267 93.8 283.6C100.467 286.8 105.467 291.2 108.8 296.8C112.267 302.4 114 308.733 114 315.8C114 324.067 111.6 331.2 106.8 337.2C102.133 343.2 96 347.067 88.4 348.8V349.8C97.0667 351.933 103.933 356.133 109 362.4C114.067 368.667 116.6 376.867 116.6 387C116.6 394.6 114.867 401.467 111.4 407.6C107.933 413.6 102.733 418.333 95.8 421.8C88.8667 425.267 80.5333 427 70.8 427C56.6667 427 45.0667 423.333 36 416C26.9333 408.533 21.8667 398 20.8 384.4H38.4C39.3333 392.4 42.6 398.933 48.2 404C53.8 409.067 61.2667 411.6 70.6 411.6C79.9333 411.6 87 409.2 91.8 404.4C96.7333 399.467 99.2 393.133 99.2 385.4C99.2 375.4 95.8667 368.2 89.2 363.8C82.5333 359.4 72.4667 357.2 59 357.2H54.4V342H59.2C71.4667 341.867 80.7333 339.867 87 336C93.2667 332 96.4 325.867 96.4 317.6C96.4 310.533 94.0667 304.867 89.4 300.6C84.8667 296.333 78.3333 294.2 69.8 294.2C61.5333 294.2 54.8667 296.333 49.8 300.6C44.7333 304.867 41.7333 310.6 40.8 317.8H23Z"></path>
</svg>
