<svg xmlns="http://www.w3.org/2000/svg" fill="none" viewBox="0 0 600 615" height="615" width="600">
<path fill="#0B315E" d="M229.737 265.751C231.907 265.73 234.059 266.143 236.065 266.968C238.072 267.792 239.893 269.011 241.421 270.551C244.978 274.146 248.421 275.886 251.978 275.886C253.671 275.915 255.353 275.59 256.914 274.931C258.475 274.273 259.881 273.295 261.042 272.061C262.278 270.903 263.258 269.497 263.917 267.935C264.576 266.374 264.899 264.692 264.867 262.997C264.9 261.305 264.577 259.626 263.918 258.067C263.259 256.509 262.279 255.106 261.042 253.952C259.882 252.716 258.476 251.738 256.915 251.079C255.354 250.42 253.672 250.096 251.978 250.127C248.421 250.127 244.959 251.848 241.421 255.405C239.906 256.967 238.089 258.205 236.08 259.043C234.072 259.881 231.914 260.303 229.737 260.282H193.403C191.221 260.299 189.058 259.873 187.046 259.028C185.034 258.183 183.215 256.937 181.7 255.367C178.181 251.848 174.739 250.127 171.163 250.127C169.471 250.095 167.792 250.419 166.233 251.078C164.675 251.737 163.273 252.716 162.117 253.952C160.88 255.106 159.901 256.509 159.242 258.067C158.583 259.626 158.259 261.305 158.293 262.997C158.258 264.689 158.581 266.369 159.24 267.928C159.899 269.487 160.88 270.889 162.117 272.042C163.273 273.278 164.675 274.258 166.233 274.917C167.792 275.575 169.471 275.899 171.163 275.867C174.72 275.867 178.181 274.127 181.719 270.551C183.245 269.007 185.066 267.785 187.073 266.958C189.08 266.13 191.232 265.713 193.403 265.732L229.737 265.751Z"></path>
<path fill="#0B315E" d="M171.125 244.525C176.225 244.525 181.101 246.845 185.755 251.486C186.739 252.519 187.927 253.337 189.244 253.887C190.56 254.437 191.977 254.707 193.404 254.679C194.828 254.701 196.242 254.43 197.558 253.884C198.873 253.338 200.063 252.529 201.053 251.505C202.083 250.519 202.896 249.33 203.443 248.013C203.989 246.696 204.256 245.281 204.228 243.855C204.246 242.435 203.977 241.026 203.438 239.712C202.899 238.397 202.101 237.205 201.092 236.206C192.231 227.282 182.255 222.82 171.164 222.82C165.877 222.74 160.629 223.743 155.745 225.769C150.861 227.795 146.444 230.801 142.766 234.6C138.969 238.279 135.967 242.697 133.944 247.581C131.921 252.465 130.921 257.712 131.005 262.998C130.921 268.284 131.921 273.531 133.944 278.415C135.967 283.299 138.969 287.717 142.766 291.396C146.441 295.199 150.857 298.206 155.742 300.233C160.627 302.259 165.876 303.261 171.164 303.176C182.255 303.176 192.231 298.714 201.092 289.79C202.114 288.8 202.92 287.61 203.46 286.293C204 284.977 204.261 283.563 204.228 282.14C204.252 280.716 203.982 279.301 203.436 277.985C202.89 276.669 202.079 275.48 201.053 274.491C200.062 273.47 198.872 272.663 197.556 272.12C196.24 271.577 194.827 271.31 193.404 271.336C191.982 271.302 190.568 271.563 189.251 272.103C187.935 272.643 186.744 273.449 185.755 274.472C181.127 279.138 176.25 281.471 171.125 281.471C168.687 281.507 166.267 281.044 164.014 280.11C161.762 279.176 159.724 277.791 158.026 276.04C156.271 274.341 154.884 272.301 153.949 270.044C153.015 267.788 152.554 265.363 152.595 262.921C152.552 260.482 153.012 258.06 153.947 255.806C154.881 253.553 156.27 251.516 158.026 249.822C159.733 248.093 161.776 246.731 164.028 245.82C166.281 244.909 168.696 244.468 171.125 244.525Z"></path>
<path fill="#0B315E" d="M251.979 222.894C240.887 222.894 230.918 227.356 222.07 236.28C221.057 237.277 220.256 238.468 219.717 239.783C219.178 241.098 218.912 242.509 218.934 243.93C218.906 245.353 219.172 246.767 219.715 248.083C220.258 249.399 221.066 250.589 222.089 251.579C223.082 252.6 224.272 253.408 225.587 253.954C226.902 254.5 228.315 254.772 229.739 254.753C231.165 254.776 232.58 254.504 233.896 253.954C235.213 253.405 236.401 252.59 237.388 251.56C242.016 246.919 246.886 244.599 251.998 244.599C254.441 244.562 256.866 245.026 259.122 245.964C261.379 246.901 263.419 248.292 265.117 250.049C266.869 251.745 268.255 253.783 269.189 256.036C270.123 258.289 270.586 260.71 270.548 263.148C270.584 265.59 270.121 268.013 269.187 270.268C268.253 272.524 266.868 274.566 265.117 276.267C263.415 278.018 261.374 279.403 259.118 280.337C256.862 281.271 254.439 281.734 251.998 281.698C246.898 281.698 242.028 279.365 237.388 274.699C236.396 273.68 235.205 272.876 233.889 272.337C232.573 271.797 231.16 271.534 229.739 271.563C228.316 271.541 226.904 271.809 225.589 272.352C224.273 272.894 223.083 273.699 222.089 274.718C221.07 275.711 220.264 276.901 219.721 278.217C219.179 279.532 218.911 280.944 218.934 282.367C218.896 283.79 219.155 285.206 219.695 286.523C220.235 287.84 221.044 289.03 222.07 290.017C230.931 298.941 240.9 303.403 251.979 303.403C257.269 303.486 262.52 302.483 267.408 300.457C272.296 298.431 276.716 295.424 280.396 291.623C284.193 287.944 287.195 283.526 289.218 278.642C291.24 273.758 292.241 268.511 292.157 263.225C292.241 257.939 291.24 252.692 289.218 247.808C287.195 242.924 284.193 238.506 280.396 234.827C276.726 231.001 272.311 227.969 267.424 225.916C262.536 223.864 257.28 222.835 251.979 222.894Z"></path>
<path fill="#FDC300" d="M379.585 264.239C379.669 269.525 378.669 274.772 376.646 279.656C374.623 284.54 371.621 288.958 367.824 292.637C364.14 296.432 359.719 299.434 354.832 301.456C349.945 303.479 344.695 304.48 339.407 304.398C334.121 304.482 328.874 303.482 323.99 301.459C319.106 299.436 314.688 296.434 311.009 292.637C307.212 288.958 304.21 284.54 302.187 279.656C300.164 274.772 299.164 269.525 299.248 264.239C299.165 258.95 300.165 253.701 302.188 248.814C304.211 243.926 307.213 239.505 311.009 235.822C314.688 232.025 319.106 229.023 323.99 227C328.874 224.977 334.121 223.977 339.407 224.061C345.86 223.976 352.234 225.494 357.956 228.479V207.806C357.931 206.383 358.198 204.97 358.741 203.655C359.284 202.339 360.091 201.148 361.112 200.157C362.105 199.139 363.296 198.333 364.611 197.791C365.926 197.248 367.339 196.98 368.761 197.002C370.184 196.976 371.597 197.243 372.913 197.786C374.229 198.329 375.419 199.136 376.41 200.157C377.434 201.147 378.244 202.337 378.79 203.653C379.336 204.969 379.606 206.382 379.585 207.806V264.239ZM357.956 264.239C357.995 261.797 357.533 259.374 356.599 257.118C355.665 254.861 354.279 252.82 352.525 251.12C350.824 249.369 348.783 247.984 346.527 247.05C344.271 246.116 341.848 245.653 339.407 245.689C336.968 245.651 334.548 246.114 332.294 247.048C330.041 247.982 328.004 249.368 326.307 251.12C324.548 252.817 323.157 254.857 322.219 257.113C321.281 259.37 320.818 261.796 320.857 264.239C320.821 266.679 321.285 269.101 322.223 271.354C323.16 273.608 324.551 275.644 326.307 277.338C328.001 279.095 330.038 280.483 332.292 281.418C334.545 282.352 336.967 282.812 339.407 282.769C341.849 282.81 344.273 282.349 346.53 281.415C348.786 280.481 350.827 279.093 352.525 277.338C354.276 275.641 355.661 273.603 356.595 271.35C357.529 269.097 357.992 266.677 357.956 264.239Z"></path>
<path fill="#FDC300" d="M387.658 264.24C387.575 258.952 388.576 253.702 390.598 248.815C392.621 243.928 395.623 239.506 399.419 235.823C403.098 232.027 407.516 229.024 412.4 227.001C417.284 224.979 422.531 223.978 427.817 224.063C433.106 223.98 438.355 224.981 443.242 227.004C448.129 229.027 452.551 232.028 456.234 235.823C460.031 239.506 463.032 243.928 465.055 248.815C467.078 253.702 468.078 258.952 467.995 264.24C468.079 269.526 467.079 274.773 465.056 279.658C463.033 284.542 460.031 288.96 456.234 292.638C452.551 296.434 448.129 299.435 443.242 301.458C438.355 303.48 433.106 304.481 427.817 304.399C421.364 304.479 414.992 302.961 409.268 299.982V322.662C409.296 324.085 409.031 325.499 408.488 326.816C407.945 328.132 407.136 329.322 406.112 330.311C405.123 331.337 403.934 332.148 402.618 332.694C401.302 333.24 399.888 333.51 398.463 333.486C397.038 333.51 395.624 333.24 394.308 332.694C392.992 332.148 391.803 331.337 390.814 330.311C389.79 329.322 388.981 328.132 388.438 326.816C387.895 325.499 387.63 324.085 387.658 322.662V264.24ZM446.367 264.24C446.405 261.799 445.943 259.375 445.009 257.119C444.075 254.863 442.689 252.822 440.936 251.122C439.234 249.371 437.193 247.986 434.937 247.052C432.681 246.118 430.258 245.655 427.817 245.691C425.379 245.655 422.959 246.118 420.706 247.052C418.453 247.986 416.415 249.371 414.718 251.122C412.958 252.818 411.567 254.858 410.629 257.115C409.692 259.372 409.228 261.797 409.268 264.24C409.231 266.681 409.695 269.103 410.633 271.356C411.57 273.609 412.961 275.646 414.718 277.34C416.413 279.094 418.45 280.482 420.703 281.416C422.957 282.35 425.378 282.811 427.817 282.771C430.259 282.812 432.683 282.351 434.94 281.416C437.196 280.482 439.237 279.095 440.936 277.34C442.686 275.642 444.071 273.604 445.005 271.352C445.939 269.099 446.403 266.679 446.367 264.24Z"></path>
<path fill="#0B315E" d="M156.082 344.211C159.261 344.211 161.727 345.049 163.482 346.724C165.236 348.398 166.211 350.301 166.404 352.432H163.089C162.713 350.814 161.961 349.532 160.833 348.586C159.716 347.641 158.144 347.168 156.116 347.168C153.644 347.168 151.644 348.04 150.118 349.783C148.602 351.514 147.845 354.175 147.845 357.764C147.845 360.703 148.528 363.09 149.896 364.924C151.274 366.747 153.325 367.659 156.048 367.659C158.554 367.659 160.463 366.696 161.773 364.771C162.468 363.757 162.986 362.424 163.328 360.771H166.644C166.347 363.415 165.368 365.631 163.704 367.419C161.71 369.573 159.021 370.649 155.638 370.649C152.721 370.649 150.271 369.766 148.289 368C145.68 365.665 144.375 362.059 144.375 357.183C144.375 353.48 145.355 350.444 147.315 348.074C149.434 345.499 152.356 344.211 156.082 344.211ZM177.649 368.018C179.689 368.018 181.084 367.249 181.836 365.71C182.6 364.161 182.981 362.441 182.981 360.549C182.981 358.84 182.708 357.45 182.161 356.379C181.295 354.693 179.803 353.85 177.684 353.85C175.804 353.85 174.437 354.568 173.582 356.003C172.728 357.439 172.3 359.171 172.3 361.199C172.3 363.147 172.728 364.771 173.582 366.069C174.437 367.368 175.792 368.018 177.649 368.018ZM177.769 351.167C180.127 351.167 182.121 351.953 183.75 353.525C185.38 355.098 186.194 357.41 186.194 360.464C186.194 363.415 185.477 365.853 184.041 367.778C182.605 369.704 180.378 370.667 177.359 370.667C174.841 370.667 172.841 369.818 171.36 368.12C169.879 366.411 169.139 364.121 169.139 361.25C169.139 358.174 169.919 355.724 171.48 353.901C173.041 352.078 175.137 351.167 177.769 351.167ZM189.869 351.697H192.911V354.294C193.64 353.394 194.301 352.739 194.893 352.329C195.907 351.634 197.058 351.287 198.345 351.287C199.804 351.287 200.977 351.646 201.866 352.363C202.367 352.773 202.823 353.377 203.233 354.175C203.917 353.195 204.72 352.472 205.643 352.004C206.565 351.526 207.602 351.287 208.753 351.287C211.214 351.287 212.889 352.175 213.777 353.953C214.256 354.91 214.495 356.197 214.495 357.815V370H211.299V357.285C211.299 356.066 210.992 355.229 210.376 354.773C209.773 354.317 209.032 354.089 208.155 354.089C206.947 354.089 205.905 354.494 205.027 355.303C204.161 356.112 203.729 357.462 203.729 359.353V370H200.601V358.054C200.601 356.812 200.453 355.907 200.157 355.337C199.69 354.482 198.818 354.055 197.542 354.055C196.38 354.055 195.32 354.505 194.363 355.405C193.418 356.305 192.945 357.935 192.945 360.293V370H189.869V351.697ZM219.024 351.697H222.066V354.294C222.795 353.394 223.456 352.739 224.048 352.329C225.062 351.634 226.213 351.287 227.5 351.287C228.959 351.287 230.132 351.646 231.021 352.363C231.522 352.773 231.978 353.377 232.388 354.175C233.072 353.195 233.875 352.472 234.798 352.004C235.721 351.526 236.757 351.287 237.908 351.287C240.369 351.287 242.044 352.175 242.933 353.953C243.411 354.91 243.65 356.197 243.65 357.815V370H240.455V357.285C240.455 356.066 240.147 355.229 239.532 354.773C238.928 354.317 238.187 354.089 237.31 354.089C236.102 354.089 235.06 354.494 234.183 355.303C233.317 356.112 232.884 357.462 232.884 359.353V370H229.756V358.054C229.756 356.812 229.608 355.907 229.312 355.337C228.845 354.482 227.973 354.055 226.697 354.055C225.535 354.055 224.476 354.505 223.519 355.405C222.573 356.305 222.1 357.935 222.1 360.293V370H219.024V351.697ZM255.442 368.018C257.482 368.018 258.877 367.249 259.629 365.71C260.393 364.161 260.774 362.441 260.774 360.549C260.774 358.84 260.501 357.45 259.954 356.379C259.088 354.693 257.596 353.85 255.477 353.85C253.597 353.85 252.229 354.568 251.375 356.003C250.521 357.439 250.093 359.171 250.093 361.199C250.093 363.147 250.521 364.771 251.375 366.069C252.229 367.368 253.585 368.018 255.442 368.018ZM255.562 351.167C257.92 351.167 259.914 351.953 261.543 353.525C263.173 355.098 263.987 357.41 263.987 360.464C263.987 363.415 263.27 365.853 261.834 367.778C260.398 369.704 258.171 370.667 255.152 370.667C252.634 370.667 250.634 369.818 249.153 368.12C247.672 366.411 246.932 364.121 246.932 361.25C246.932 358.174 247.712 355.724 249.273 353.901C250.834 352.078 252.93 351.167 255.562 351.167ZM267.662 351.697H270.584V354.294C271.45 353.223 272.367 352.454 273.335 351.987C274.304 351.52 275.381 351.287 276.565 351.287C279.163 351.287 280.918 352.192 281.829 354.004C282.33 354.995 282.581 356.414 282.581 358.259V370H279.454V358.464C279.454 357.348 279.288 356.448 278.958 355.764C278.411 354.625 277.42 354.055 275.984 354.055C275.255 354.055 274.657 354.129 274.19 354.277C273.347 354.528 272.606 355.029 271.968 355.781C271.456 356.385 271.119 357.012 270.96 357.661C270.812 358.299 270.738 359.216 270.738 360.413V370H267.662V351.697ZM307.874 344.211C311.053 344.211 313.519 345.049 315.274 346.724C317.028 348.398 318.003 350.301 318.196 352.432H314.881C314.505 350.814 313.753 349.532 312.625 348.586C311.508 347.641 309.936 347.168 307.908 347.168C305.436 347.168 303.436 348.04 301.91 349.783C300.394 351.514 299.637 354.175 299.637 357.764C299.637 360.703 300.32 363.09 301.688 364.924C303.066 366.747 305.117 367.659 307.84 367.659C310.346 367.659 312.255 366.696 313.565 364.771C314.26 363.757 314.778 362.424 315.12 360.771H318.436C318.139 363.415 317.16 365.631 315.496 367.419C313.502 369.573 310.813 370.649 307.43 370.649C304.513 370.649 302.063 369.766 300.081 368C297.472 365.665 296.167 362.059 296.167 357.183C296.167 353.48 297.147 350.444 299.107 348.074C301.226 345.499 304.148 344.211 307.874 344.211ZM329.441 368.018C331.481 368.018 332.876 367.249 333.628 365.71C334.392 364.161 334.773 362.441 334.773 360.549C334.773 358.84 334.5 357.45 333.953 356.379C333.087 354.693 331.595 353.85 329.476 353.85C327.596 353.85 326.229 354.568 325.374 356.003C324.52 357.439 324.092 359.171 324.092 361.199C324.092 363.147 324.52 364.771 325.374 366.069C326.229 367.368 327.584 368.018 329.441 368.018ZM329.561 351.167C331.919 351.167 333.913 351.953 335.542 353.525C337.172 355.098 337.986 357.41 337.986 360.464C337.986 363.415 337.269 365.853 335.833 367.778C334.397 369.704 332.17 370.667 329.151 370.667C326.633 370.667 324.633 369.818 323.152 368.12C321.671 366.411 320.931 364.121 320.931 361.25C320.931 358.174 321.711 355.724 323.272 353.901C324.833 352.078 326.929 351.167 329.561 351.167ZM341.661 351.697H344.583V354.294C345.449 353.223 346.366 352.454 347.334 351.987C348.303 351.52 349.38 351.287 350.564 351.287C353.162 351.287 354.917 352.192 355.828 354.004C356.329 354.995 356.58 356.414 356.58 358.259V370H353.453V358.464C353.453 357.348 353.287 356.448 352.957 355.764C352.41 354.625 351.419 354.055 349.983 354.055C349.254 354.055 348.656 354.129 348.189 354.277C347.346 354.528 346.605 355.029 345.967 355.781C345.455 356.385 345.118 357.012 344.959 357.661C344.811 358.299 344.737 359.216 344.737 360.413V370H341.661V351.697ZM362.972 364.258C363.063 365.283 363.319 366.069 363.741 366.616C364.515 367.607 365.86 368.103 367.774 368.103C368.913 368.103 369.916 367.858 370.782 367.368C371.648 366.867 372.081 366.098 372.081 365.061C372.081 364.275 371.733 363.677 371.038 363.267C370.594 363.016 369.716 362.725 368.406 362.395L365.962 361.78C364.402 361.392 363.251 360.959 362.51 360.481C361.189 359.649 360.528 358.499 360.528 357.029C360.528 355.297 361.149 353.896 362.391 352.825C363.644 351.754 365.324 351.218 367.432 351.218C370.189 351.218 372.177 352.027 373.396 353.645C374.16 354.67 374.53 355.776 374.507 356.96H371.602C371.545 356.265 371.3 355.633 370.867 355.063C370.161 354.255 368.936 353.85 367.193 353.85C366.031 353.85 365.148 354.072 364.544 354.517C363.951 354.961 363.655 355.548 363.655 356.277C363.655 357.074 364.048 357.712 364.834 358.191C365.29 358.476 365.962 358.726 366.851 358.943L368.885 359.438C371.095 359.974 372.576 360.492 373.328 360.994C374.524 361.78 375.123 363.016 375.123 364.702C375.123 366.331 374.502 367.738 373.26 368.923C372.029 370.108 370.149 370.701 367.62 370.701C364.897 370.701 362.966 370.085 361.827 368.855C360.699 367.613 360.095 366.081 360.015 364.258H362.972ZM381.719 351.697V363.848C381.719 364.782 381.867 365.545 382.164 366.138C382.71 367.231 383.73 367.778 385.223 367.778C387.365 367.778 388.823 366.821 389.598 364.907C390.019 363.882 390.23 362.475 390.23 360.686V351.697H393.306V370H390.401L390.435 367.3C390.036 367.995 389.541 368.582 388.948 369.06C387.775 370.017 386.351 370.496 384.676 370.496C382.067 370.496 380.289 369.624 379.344 367.881C378.831 366.947 378.575 365.699 378.575 364.138V351.697H381.719ZM398.125 351.697H401.167V354.294C401.897 353.394 402.557 352.739 403.15 352.329C404.164 351.634 405.315 351.287 406.602 351.287C408.06 351.287 409.234 351.646 410.123 352.363C410.624 352.773 411.08 353.377 411.49 354.175C412.173 353.195 412.977 352.472 413.899 352.004C414.822 351.526 415.859 351.287 417.01 351.287C419.471 351.287 421.146 352.175 422.034 353.953C422.513 354.91 422.752 356.197 422.752 357.815V370H419.556V357.285C419.556 356.066 419.249 355.229 418.633 354.773C418.029 354.317 417.289 354.089 416.412 354.089C415.204 354.089 414.161 354.494 413.284 355.303C412.418 356.112 411.985 357.462 411.985 359.353V370H408.858V358.054C408.858 356.812 408.71 355.907 408.414 355.337C407.946 354.482 407.075 354.055 405.799 354.055C404.637 354.055 403.577 354.505 402.62 355.405C401.674 356.305 401.202 357.935 401.202 360.293V370H398.125V351.697ZM434.903 351.287C436.202 351.287 437.461 351.594 438.68 352.209C439.899 352.813 440.827 353.599 441.465 354.568C442.081 355.491 442.491 356.567 442.696 357.798C442.878 358.641 442.969 359.985 442.969 361.831H429.554C429.611 363.688 430.049 365.181 430.87 366.309C431.69 367.425 432.96 367.983 434.681 367.983C436.287 367.983 437.569 367.454 438.526 366.394C439.073 365.779 439.46 365.067 439.688 364.258H442.713C442.633 364.93 442.365 365.682 441.91 366.514C441.465 367.334 440.964 368.006 440.406 368.53C439.472 369.442 438.315 370.057 436.937 370.376C436.196 370.558 435.359 370.649 434.424 370.649C432.146 370.649 430.215 369.823 428.631 368.171C427.047 366.508 426.255 364.184 426.255 361.199C426.255 358.259 427.053 355.872 428.648 354.038C430.243 352.204 432.328 351.287 434.903 351.287ZM439.808 359.387C439.682 358.054 439.392 356.989 438.936 356.191C438.093 354.71 436.686 353.97 434.715 353.97C433.302 353.97 432.117 354.482 431.16 355.508C430.203 356.522 429.696 357.815 429.639 359.387H439.808ZM446.849 351.697H449.771V354.858C450.01 354.243 450.597 353.497 451.531 352.62C452.465 351.731 453.542 351.287 454.761 351.287C454.818 351.287 454.915 351.292 455.052 351.304C455.188 351.315 455.422 351.338 455.752 351.372V354.619C455.57 354.585 455.399 354.562 455.24 354.551C455.092 354.539 454.926 354.534 454.744 354.534C453.195 354.534 452.004 355.035 451.172 356.038C450.341 357.029 449.925 358.174 449.925 359.473V370H446.849V351.697ZM193.047 407.095C194.198 407.095 195.144 406.975 195.884 406.736C197.206 406.292 198.288 405.437 199.131 404.172C199.804 403.158 200.288 401.86 200.584 400.276C200.755 399.33 200.84 398.453 200.84 397.644C200.84 394.534 200.219 392.118 198.978 390.398C197.747 388.678 195.759 387.817 193.013 387.817H186.98V407.095H193.047ZM183.562 384.895H193.731C197.183 384.895 199.861 386.12 201.763 388.569C203.461 390.78 204.31 393.611 204.31 397.063C204.31 399.729 203.808 402.139 202.806 404.292C201.04 408.097 198.003 410 193.697 410H183.562V384.895ZM208.292 391.782H211.419V410H208.292V391.782ZM208.292 384.895H211.419V388.381H208.292V384.895ZM222.544 391.372C223.98 391.372 225.233 391.725 226.304 392.432C226.885 392.83 227.478 393.411 228.082 394.175V391.868H230.918V408.513C230.918 410.837 230.577 412.672 229.893 414.016C228.617 416.5 226.207 417.742 222.664 417.742C220.693 417.742 219.035 417.297 217.691 416.409C216.347 415.531 215.595 414.153 215.435 412.273H218.562C218.711 413.093 219.007 413.726 219.451 414.17C220.146 414.854 221.24 415.195 222.732 415.195C225.091 415.195 226.635 414.364 227.364 412.7C227.797 411.72 227.996 409.972 227.962 407.454C227.347 408.388 226.606 409.083 225.74 409.539C224.874 409.994 223.729 410.222 222.305 410.222C220.323 410.222 218.585 409.521 217.093 408.12C215.612 406.707 214.871 404.377 214.871 401.13C214.871 398.066 215.617 395.673 217.11 393.953C218.614 392.232 220.425 391.372 222.544 391.372ZM228.082 400.771C228.082 398.504 227.614 396.824 226.68 395.73C225.746 394.636 224.555 394.089 223.108 394.089C220.944 394.089 219.463 395.103 218.665 397.131C218.243 398.214 218.033 399.632 218.033 401.387C218.033 403.449 218.449 405.021 219.28 406.104C220.123 407.174 221.251 407.71 222.664 407.71C224.874 407.71 226.43 406.713 227.33 404.719C227.831 403.591 228.082 402.275 228.082 400.771ZM235.567 391.782H238.694V410H235.567V391.782ZM235.567 384.895H238.694V388.381H235.567V384.895ZM243.975 386.587H247.085V391.697H250.008V394.209H247.085V406.155C247.085 406.793 247.302 407.22 247.735 407.437C247.974 407.562 248.373 407.625 248.931 407.625C249.079 407.625 249.239 407.625 249.41 407.625C249.581 407.613 249.78 407.596 250.008 407.573V410C249.655 410.103 249.284 410.177 248.897 410.222C248.521 410.268 248.111 410.291 247.667 410.291C246.231 410.291 245.257 409.926 244.744 409.197C244.231 408.456 243.975 407.499 243.975 406.326V394.209H241.497V391.697H243.975V386.587ZM255.459 405.129C255.459 406.018 255.784 406.719 256.434 407.231C257.083 407.744 257.852 408 258.741 408C259.823 408 260.871 407.75 261.885 407.249C263.594 406.417 264.449 405.055 264.449 403.164V400.686C264.073 400.925 263.589 401.125 262.996 401.284C262.404 401.444 261.823 401.558 261.253 401.626L259.39 401.865C258.274 402.013 257.436 402.247 256.878 402.566C255.932 403.101 255.459 403.956 255.459 405.129ZM262.911 398.909C263.617 398.818 264.09 398.521 264.329 398.02C264.466 397.747 264.534 397.354 264.534 396.841C264.534 395.793 264.158 395.035 263.406 394.568C262.666 394.089 261.6 393.85 260.21 393.85C258.604 393.85 257.465 394.283 256.792 395.149C256.417 395.627 256.172 396.34 256.058 397.285H253.187C253.243 395.029 253.973 393.463 255.374 392.585C256.787 391.697 258.422 391.252 260.279 391.252C262.432 391.252 264.181 391.663 265.525 392.483C266.858 393.303 267.525 394.579 267.525 396.311V406.855C267.525 407.174 267.588 407.431 267.713 407.625C267.85 407.818 268.129 407.915 268.55 407.915C268.687 407.915 268.841 407.909 269.012 407.898C269.183 407.875 269.365 407.847 269.559 407.812V410.085C269.08 410.222 268.715 410.308 268.465 410.342C268.214 410.376 267.872 410.393 267.439 410.393C266.38 410.393 265.611 410.017 265.132 409.265C264.882 408.866 264.705 408.302 264.603 407.573C263.976 408.394 263.076 409.106 261.902 409.709C260.729 410.313 259.436 410.615 258.023 410.615C256.325 410.615 254.935 410.103 253.853 409.077C252.782 408.04 252.247 406.747 252.247 405.198C252.247 403.5 252.776 402.184 253.836 401.25C254.896 400.316 256.285 399.74 258.006 399.524L262.911 398.909ZM272.669 384.895H275.745V410H272.669V384.895ZM290.853 384.895H302.149C304.382 384.895 306.182 385.527 307.549 386.792C308.917 388.045 309.6 389.811 309.6 392.09C309.6 394.049 308.991 395.758 307.771 397.217C306.552 398.664 304.678 399.387 302.149 399.387H294.253V410H290.853V384.895ZM306.165 392.107C306.165 390.261 305.481 389.008 304.114 388.347C303.362 387.994 302.331 387.817 301.021 387.817H294.253V396.516H301.021C302.548 396.516 303.784 396.191 304.729 395.542C305.687 394.893 306.165 393.748 306.165 392.107ZM313.548 384.895H316.624V410H313.548V384.895ZM323.614 405.129C323.614 406.018 323.938 406.719 324.588 407.231C325.237 407.744 326.006 408 326.895 408C327.977 408 329.026 407.75 330.04 407.249C331.749 406.417 332.603 405.055 332.603 403.164V400.686C332.227 400.925 331.743 401.125 331.15 401.284C330.558 401.444 329.977 401.558 329.407 401.626L327.544 401.865C326.428 402.013 325.59 402.247 325.032 402.566C324.087 403.101 323.614 403.956 323.614 405.129ZM331.065 398.909C331.771 398.818 332.244 398.521 332.483 398.02C332.62 397.747 332.688 397.354 332.688 396.841C332.688 395.793 332.312 395.035 331.561 394.568C330.82 394.089 329.755 393.85 328.365 393.85C326.758 393.85 325.619 394.283 324.947 395.149C324.571 395.627 324.326 396.34 324.212 397.285H321.341C321.398 395.029 322.127 393.463 323.528 392.585C324.941 391.697 326.576 391.252 328.433 391.252C330.586 391.252 332.335 391.663 333.68 392.483C335.013 393.303 335.679 394.579 335.679 396.311V406.855C335.679 407.174 335.742 407.431 335.867 407.625C336.004 407.818 336.283 407.915 336.705 407.915C336.841 407.915 336.995 407.909 337.166 407.898C337.337 407.875 337.519 407.847 337.713 407.812V410.085C337.234 410.222 336.87 410.308 336.619 410.342C336.368 410.376 336.027 410.393 335.594 410.393C334.534 410.393 333.765 410.017 333.287 409.265C333.036 408.866 332.859 408.302 332.757 407.573C332.13 408.394 331.23 409.106 330.057 409.709C328.883 410.313 327.59 410.615 326.177 410.615C324.48 410.615 323.09 410.103 322.007 409.077C320.936 408.04 320.401 406.747 320.401 405.198C320.401 403.5 320.931 402.184 321.99 401.25C323.05 400.316 324.44 399.74 326.16 399.524L331.065 398.909ZM341.353 386.587H344.463V391.697H347.386V394.209H344.463V406.155C344.463 406.793 344.68 407.22 345.113 407.437C345.352 407.562 345.751 407.625 346.309 407.625C346.457 407.625 346.617 407.625 346.788 407.625C346.958 407.613 347.158 407.596 347.386 407.573V410C347.033 410.103 346.662 410.177 346.275 410.222C345.899 410.268 345.489 410.291 345.044 410.291C343.609 410.291 342.635 409.926 342.122 409.197C341.609 408.456 341.353 407.499 341.353 406.326V394.209H338.875V391.697H341.353V386.587ZM351.248 388.911C351.294 387.635 351.516 386.701 351.915 386.108C352.632 385.06 354.017 384.536 356.067 384.536C356.261 384.536 356.46 384.542 356.666 384.553C356.871 384.565 357.104 384.582 357.366 384.604V387.407C357.047 387.384 356.814 387.373 356.666 387.373C356.529 387.362 356.398 387.356 356.272 387.356C355.338 387.356 354.78 387.601 354.598 388.091C354.415 388.569 354.324 389.8 354.324 391.782H357.366V394.209H354.29V410H351.248V394.209H348.702V391.782H351.248V388.911ZM367.483 408.018C369.523 408.018 370.918 407.249 371.67 405.71C372.434 404.161 372.815 402.441 372.815 400.549C372.815 398.84 372.542 397.45 371.995 396.379C371.129 394.693 369.637 393.85 367.518 393.85C365.638 393.85 364.271 394.568 363.416 396.003C362.562 397.439 362.134 399.171 362.134 401.199C362.134 403.147 362.562 404.771 363.416 406.069C364.271 407.368 365.626 408.018 367.483 408.018ZM367.603 391.167C369.961 391.167 371.955 391.953 373.584 393.525C375.214 395.098 376.028 397.41 376.028 400.464C376.028 403.415 375.311 405.853 373.875 407.778C372.439 409.704 370.212 410.667 367.193 410.667C364.675 410.667 362.675 409.818 361.194 408.12C359.713 406.411 358.973 404.121 358.973 401.25C358.973 398.174 359.753 395.724 361.314 393.901C362.875 392.078 364.971 391.167 367.603 391.167ZM379.788 391.697H382.71V394.858C382.95 394.243 383.536 393.497 384.471 392.62C385.405 391.731 386.482 391.287 387.701 391.287C387.758 391.287 387.854 391.292 387.991 391.304C388.128 391.315 388.361 391.338 388.692 391.372V394.619C388.51 394.585 388.339 394.562 388.179 394.551C388.031 394.539 387.866 394.534 387.684 394.534C386.134 394.534 384.944 395.035 384.112 396.038C383.28 397.029 382.864 398.174 382.864 399.473V410H379.788V391.697ZM391.358 391.697H394.4V394.294C395.129 393.394 395.79 392.739 396.382 392.329C397.396 391.634 398.547 391.287 399.834 391.287C401.293 391.287 402.466 391.646 403.355 392.363C403.856 392.773 404.312 393.377 404.722 394.175C405.406 393.195 406.209 392.472 407.132 392.004C408.055 391.526 409.091 391.287 410.242 391.287C412.703 391.287 414.378 392.175 415.267 393.953C415.745 394.91 415.984 396.197 415.984 397.815V410H412.789V397.285C412.789 396.066 412.481 395.229 411.866 394.773C411.262 394.317 410.521 394.089 409.644 394.089C408.436 394.089 407.394 394.494 406.517 395.303C405.651 396.112 405.218 397.462 405.218 399.353V410H402.09V398.054C402.09 396.812 401.942 395.907 401.646 395.337C401.179 394.482 400.307 394.055 399.031 394.055C397.869 394.055 396.81 394.505 395.853 395.405C394.907 396.305 394.434 397.935 394.434 400.293V410H391.358V391.697Z"></path>
</svg>
