<svg xmlns="http://www.w3.org/2000/svg" fill="none" viewBox="0 0 2058 2474" height="2474" width="2058">
<path fill="#62B0DF" d="M291.173 0H1769.65L1812.06 5.65385L1862.94 22.6154L1908.17 45.2308L1942.1 70.6731L1970.37 96.1154L1998.63 130.038L2024.08 172.442L2038.21 203.538L2049.52 240.288L2055.17 268.558L2058 305.308V1747.04L2055.17 1795.1L2041.04 1848.81L2015.6 1902.52L1987.33 1942.1L1953.4 1976.02L1930.79 1995.81L1888.38 2021.25L1851.63 2038.21L1814.88 2049.52L1783.79 2055.17L1749.87 2058L1614.17 2060.83L1221.23 2453.77L1204.27 2473.56H1198.62V2058H316.615L260.077 2055.17L209.192 2041.04L172.442 2024.08L141.346 2007.12L110.25 1981.67L84.8077 1959.06L62.1923 1930.79L33.9231 1885.56L19.7885 1854.46L5.65385 1809.23L0 1764V277.038L8.48077 237.462L22.6154 195.058L45.2308 147L81.9808 101.769L110.25 73.5L169.615 33.9231L214.846 14.1346L265.731 2.82692L291.173 0Z"></path>
<path fill="#FEFEFE" d="M1472.83 811.327H1546.33L1560.46 839.596L1591.56 927.231L1639.62 1057.27L1684.85 1181.65L1724.42 1291.9V1297.56L1713.12 1300.38H1631.13L1619.83 1277.77L1600.04 1215.58H1424.77L1396.5 1297.56L1379.54 1300.38H1300.38L1297.56 1289.08L1359.75 1119.46L1396.5 1017.69L1427.6 932.885L1464.35 831.115L1472.83 811.327Z"></path>
<path fill="#FEFEFE" d="M350.538 805.673H398.596L432.519 811.327L466.442 825.462L491.884 842.423L506.019 853.731L528.634 882L551.25 930.058L554.077 941.365V961.154H463.615L441 918.75L424.038 904.615L392.942 893.308H350.538L325.096 904.615L310.961 915.923L296.827 944.192L291.173 969.635L288.346 1026.17V1110.98L294 1159.04L310.961 1192.96L327.923 1207.1L350.538 1215.58H398.596L424.038 1204.27L443.827 1187.31L455.134 1164.69L460.788 1144.9V1108.15H378.807L373.154 1105.33V1029H554.077L556.904 1031.83V1136.42L548.423 1184.48L534.288 1221.23L508.846 1249.5L489.057 1269.29L443.827 1291.9L398.596 1303.21H347.711L302.48 1291.9L268.557 1274.94L237.461 1249.5L214.846 1218.4L200.711 1178.83L192.23 1119.46V995.077L200.711 927.231L214.846 890.481L234.634 865.038L257.25 842.423L288.346 822.635L319.442 811.327L350.538 805.673Z"></path>
<path fill="#FEFEFE" d="M726.519 938.538H785.885L825.461 949.846L856.558 969.635L876.346 989.423L896.135 1023.35L907.442 1060.1L910.269 1077.06V1147.73L689.769 1150.56V1170.35L698.25 1190.13L715.211 1212.75L737.827 1224.06L746.308 1226.88H788.711L814.154 1218.4L833.942 1207.1L845.25 1195.79L876.346 1221.23L896.135 1241.02L893.308 1255.15L870.692 1274.94L836.769 1291.9L794.365 1303.21H740.654L698.25 1294.73L658.673 1274.94L641.711 1260.81L621.923 1229.71L610.615 1204.27L602.135 1167.52L599.308 1147.73V1091.19L607.788 1048.79L621.923 1012.04L644.538 980.942L667.154 961.154L695.423 947.019L726.519 938.538Z"></path>
<path fill="#FEFEFE" d="M1110.98 938.538H1164.69L1195.79 949.846L1221.23 966.808L1238.19 989.423L1252.33 1020.52L1255.15 1031.83V1297.56L1232.54 1300.38H1178.83L1170.35 1297.56L1167.52 1071.4L1156.21 1040.31L1139.25 1026.17L1125.12 1020.52H1088.37L1065.75 1034.65L1054.44 1054.44L1051.62 1060.1L1048.79 1297.56L1045.96 1300.38H961.154V944.192L963.981 941.365H1045.96L1048.79 949.846L1045.96 969.635L1065.75 958.327L1099.67 941.365L1110.98 938.538Z"></path>
<path fill="#FEFEFE" d="M1764 811.327H1857.29L1860.12 814.154V1297.56L1848.81 1300.38H1766.83L1764 1291.9V811.327Z"></path>
<path fill="#62B0DF" d="M1506.75 958.327H1515.23L1537.85 1017.69L1571.77 1122.29V1130.77L1560.46 1133.6H1486.96L1453.04 1130.77L1455.87 1113.81L1486.96 1026.17L1503.92 972.462L1506.75 958.327Z"></path>
<path fill="#62B0DF" d="M732.173 1012.04H777.404L802.846 1026.17L814.154 1040.31L825.462 1077.06V1085.54L797.192 1088.37H718.039L686.942 1085.54L689.769 1057.27L703.904 1029L723.692 1014.87L732.173 1012.04Z"></path>
</svg>
