<svg xmlns="http://www.w3.org/2000/svg" fill="none" viewBox="0 0 600 615" height="615" width="600">
<g clip-path="url(#clip0_352_248)">
<path fill="#CE1141" d="M299.402 454.465C292.612 447.456 285.932 440.557 279.251 433.657C256.308 410.003 233.365 386.293 210.476 362.637C200.511 352.343 192.735 340.57 189.943 326.334C184.686 299.557 193.83 277.983 215.405 261.939C236.651 246.115 263.974 246.005 286.808 260.899C291.572 264.02 295.788 267.962 300.223 271.522C300.935 272.124 301.537 272.891 302.249 273.657C303.016 272.946 303.618 272.453 304.22 271.905C314.405 262.597 325.904 255.533 339.594 252.74C365.275 247.429 391.175 258.216 405.247 280.721C419.539 303.555 418.498 326.607 404.7 349.331C401.141 355.245 396.651 360.447 391.722 365.211C361.278 394.67 330.833 424.13 300.388 453.589C300.114 453.863 299.84 454.082 299.402 454.465ZM302.304 289.592C300.716 288.113 299.183 286.799 297.814 285.321C292.393 279.626 286.863 274.15 280.128 270.098C261.674 258.873 242.948 258.106 224.385 269.605C205.329 281.378 196.13 303.774 201.332 325.019C204.179 336.683 210.531 346.375 218.799 354.862C245.412 382.35 271.969 409.783 298.581 437.271C298.909 437.6 299.293 437.929 299.731 438.367C300.114 437.983 300.442 437.709 300.771 437.436C328.314 410.769 355.966 384.157 383.399 357.326C387.616 353.165 391.503 348.51 394.734 343.582C403.769 329.729 406.671 314.725 401.414 298.736C392.982 273.11 366.425 258.052 340.634 264.239C329.08 267.032 319.443 273.274 310.956 281.323C307.999 284.116 305.097 286.963 302.304 289.646V289.592Z"></path>
<path fill="#CE1141" d="M156.487 261.008C161.306 254.382 166.07 247.921 170.943 241.241C167.548 238.722 164.208 236.313 160.923 233.903C159.499 232.863 158.02 231.877 156.652 230.673C153.968 228.318 153.695 224.978 155.83 221.966C158.02 218.9 161.306 218.078 164.482 219.886C164.92 220.159 165.358 220.433 165.741 220.707C178.39 229.961 191.094 239.215 203.742 248.469C207.576 251.316 208.069 255.368 205.057 258.818C202.593 261.61 199.253 261.939 196.022 259.584C191.203 256.135 186.494 252.63 181.73 249.126C181.237 248.743 180.69 248.414 180.142 248.03C175.324 254.602 170.56 261.118 165.741 267.743C166.343 268.181 166.891 268.619 167.439 269.057C172.203 272.562 177.021 276.011 181.73 279.516C185.015 281.98 185.563 285.594 183.209 288.879C180.799 292.22 177.131 292.877 173.736 290.412C160.813 280.994 147.89 271.576 134.968 262.048C131.573 259.53 131.08 255.861 133.544 252.575C135.953 249.345 139.567 248.743 142.907 251.152C146.905 253.999 150.793 256.901 154.735 259.803C155.283 260.187 155.83 260.57 156.487 261.063V261.008Z"></path>
<path fill="#CE1141" d="M364.617 191.303C370.148 188.894 375.514 189.386 380.716 192.289C387.122 195.902 389.696 201.926 387.396 208.935C385.918 213.37 383.837 217.586 381.975 221.912C380.278 225.855 378.58 229.852 376.719 233.74C375.076 237.244 372.448 238.065 368.834 236.477C365.384 234.944 364.234 232.37 365.713 228.866C368.341 222.734 371.079 216.656 373.761 210.577C373.871 210.304 374.036 209.975 374.145 209.701C376.28 204.828 375.404 201.214 371.626 199.078C367.465 196.724 362.153 197.983 359.47 201.981C358.649 203.185 358.101 204.554 357.554 205.868C355.199 211.179 352.899 216.546 350.49 221.857C348.847 225.526 346.219 226.457 342.55 224.814C338.936 223.226 337.896 220.598 339.538 216.929C343.152 208.551 346.876 200.228 350.545 191.85C353.501 185.115 356.459 178.38 359.47 171.645C361.003 168.25 363.577 167.1 366.917 168.305C370.75 169.729 372.119 172.685 370.531 176.464C368.505 181.228 366.424 185.991 364.343 190.755C364.343 190.92 364.234 191.139 364.234 191.303C364.398 191.303 364.508 191.248 364.672 191.193L364.617 191.303Z"></path>
<path fill="#CE1141" d="M275.473 214.194C272.133 220.328 267.095 223.668 260.688 225.037C251.05 227.173 243 219.78 244.752 210.361C245.3 207.404 246.888 204.94 249.352 203.406C252.255 201.599 255.321 200.121 258.442 198.642C260.962 197.492 263.645 196.671 266.219 195.576C268.464 194.59 269.176 193.385 268.902 191.304C268.683 189.223 267.478 187.964 265.288 187.471C261.235 186.54 255.923 188.621 253.35 192.235C252.583 193.33 251.926 194.48 251.159 195.576C249.571 197.711 246.997 198.314 244.697 197.273C242.616 196.287 241.412 193.933 242.288 191.468C243.054 189.388 244.205 187.307 245.738 185.664C249.736 181.392 255.102 179.421 260.742 178.49C263.974 177.997 267.314 177.778 270.545 178.052C275.637 178.49 278.869 181.557 280.128 186.485C281.716 192.618 283.195 198.806 284.838 204.94C285.385 206.966 286.097 208.937 287.028 210.799C288.123 212.88 289.054 214.852 287.411 216.987C285.659 219.232 283.25 219.78 280.566 219.342C277.828 218.959 276.514 216.987 275.419 214.249L275.473 214.194ZM271.421 201.106C268.464 202.475 265.671 203.735 262.933 205.104C261.181 205.98 259.428 206.911 257.895 208.116C256.361 209.321 256.088 211.128 256.636 212.99C257.183 214.797 258.552 215.782 260.359 216.111C265.89 217.151 274.761 212.059 272.133 203.79C271.804 202.804 271.585 201.818 271.421 201.106Z"></path>
<path fill="#CE1141" d="M413.631 245.842C409.25 249.347 408.154 254.494 410.838 259.149C413.083 263.037 416.314 265.611 420.969 266.049C421.243 266.049 421.461 266.049 421.736 266.158C425.295 266.816 427.321 269.061 426.938 272.018C426.554 274.865 423.816 276.837 420.421 276.508C419.107 276.399 417.738 276.125 416.533 275.632C408.154 272.127 402.35 266.103 399.612 257.451C397.366 250.332 399.228 243.816 404.157 238.394C409.797 232.151 416.642 228.428 425.35 229.468C436.795 230.783 450.211 246.171 443.421 260.627C442.271 263.092 440.409 265.337 438.438 267.254C435.535 270.101 433.728 269.828 431.154 266.706C427.157 261.942 423.159 257.177 419.162 252.413C417.355 250.223 415.493 248.032 413.685 245.897L413.631 245.842ZM432.304 257.287C436.192 253.563 436.576 247.704 433.29 243.597C429.731 239.216 423.762 238.23 419.052 241.406C423.488 246.718 427.923 251.975 432.359 257.287H432.304Z"></path>
<path fill="#CE1141" d="M209.822 228.869C212.287 233.086 216.722 235.003 221.103 233.743C225.922 232.319 229.372 229.362 230.632 224.324C230.742 223.831 230.906 223.338 231.015 222.846C232.001 219.725 234.301 218.191 237.149 218.793C239.777 219.286 241.53 222.024 241.091 225.091C240.982 226.132 240.708 227.227 240.324 228.212C236.601 237.631 224.498 245.188 214.477 244.422C211.246 244.148 208.289 243.053 205.606 241.3C196.844 235.605 192.189 223.558 195.147 214.412C198.87 202.803 213.492 195.356 224.663 199.463C228.715 200.941 231.946 203.57 234.246 207.239C236.163 210.306 235.889 211.894 232.877 213.92C226.032 218.41 219.187 222.846 212.342 227.336C211.52 227.829 210.753 228.377 209.877 228.979L209.822 228.869ZM206.044 223.01C211.849 219.232 217.653 215.453 223.458 211.674C219.734 207.239 214.313 206.308 209.877 209.155C205.058 212.222 203.47 217.753 206.044 223.01Z"></path>
<path fill="#CE1141" d="M319.883 182.378C314.188 180.571 313.422 179.859 313.97 177.176C314.517 174.328 315.284 174 321.471 174.219C321.909 171.974 322.347 169.674 322.84 167.429C323.771 163.048 326.838 161.351 331.054 162.775C333.846 163.705 335.161 165.731 334.777 168.798C334.449 171.371 333.901 173.89 333.408 176.628C335.215 177.011 336.967 177.34 338.61 177.833C341.074 178.599 342.005 180.187 341.512 182.432C341.074 184.404 339.925 185.444 337.898 185.335C335.927 185.28 334.011 184.896 331.875 184.623C330.944 189.441 330.014 194.26 329.137 199.079C328.59 201.926 328.042 204.828 327.549 207.676C327.166 210.03 327.823 210.906 330.123 211.453C330.67 211.563 331.273 211.673 331.82 211.782C333.628 212.165 334.941 213.151 335.161 215.122C335.379 217.094 334.394 219.12 332.587 219.776C331.382 220.215 329.959 220.598 328.699 220.434C326.18 220.16 323.662 219.722 321.307 218.901C316.324 217.094 314.243 213.316 315.229 208.059C316.707 199.9 318.295 191.741 319.829 183.582C319.883 183.199 319.938 182.816 319.993 182.323L319.883 182.378Z"></path>
<path fill="#CE1141" d="M304.553 187.853C304.991 195.848 305.429 203.843 305.867 211.782C306.086 216.053 303.841 218.408 299.68 218.408C296.23 218.408 294.094 216.382 293.93 212.877C293.437 204.499 292.944 196.176 292.452 187.799C292.013 179.749 291.575 171.7 291.083 163.651C290.864 159.708 292.78 157.244 296.449 157.025C300.556 156.751 302.91 158.723 303.129 162.775C303.622 171.152 304.115 179.475 304.553 187.853Z"></path>
<path fill="#CE1141" d="M455.576 280.175C458.095 280.394 460.559 280.394 462.969 280.942C465.926 281.599 467.788 283.625 468.664 286.528C469.705 289.813 468.335 292.825 465.324 294.085C462.093 295.399 459.464 294.358 457.767 291.073C454.7 285.049 452.29 283.954 445.883 286.308C441.721 287.841 437.779 289.868 433.726 291.675C432.248 292.332 430.769 293.099 429.236 293.756C424.691 295.837 421.186 293.975 420.2 289.047C419.707 286.418 420.748 284.501 423.541 283.132C427.374 281.27 431.208 279.518 435.096 277.711C441.393 274.754 447.745 271.742 454.043 268.84C457.219 267.361 459.902 268.182 461.436 270.866C463.078 273.768 462.257 276.725 459.355 278.368C458.095 279.08 456.781 279.628 455.576 280.23V280.175Z"></path>
<path fill="#CE1141" d="M413.077 214.903C412.694 215.67 412.31 217.039 411.489 218.079C404.808 226.95 398.127 235.767 391.337 244.584C388.215 248.691 382.52 247.76 380.549 242.941C379.563 240.641 380.658 238.779 381.973 236.972C387.942 229.087 393.965 221.256 399.934 213.37C400.811 212.22 401.687 211.015 402.673 209.975C404.425 208.058 406.396 207.62 408.532 208.66C410.887 209.81 412.858 211.344 413.077 214.903Z"></path>
<path fill="#CC2B40" d="M422.833 201.6C422.833 205.106 420.04 207.845 416.534 207.845C413.028 207.845 410.234 205.051 410.289 201.546C410.289 198.095 413.192 195.246 416.588 195.246C420.04 195.246 422.833 198.095 422.833 201.6Z"></path>
<path fill="#FFFEFE" d="M364.617 191.302C364.617 191.302 364.343 191.357 364.179 191.412C364.179 191.248 364.289 191.029 364.289 190.864C364.398 191.029 364.508 191.138 364.617 191.302Z"></path>
<path fill="#CE1141" d="M352.897 341.556C346.052 341.556 339.372 341.556 332.637 341.556C329.899 341.556 329.406 341.009 329.461 338.326C329.461 336.026 329.571 333.781 329.625 331.481C329.625 329.783 330.392 328.907 332.199 328.907C342.986 329.127 353.773 329.291 364.56 329.455C366.093 329.455 367.079 330.112 367.134 331.81C367.298 340.187 365.655 348.072 360.946 355.136C353.17 366.909 338.551 372.768 324.259 369.866C310.022 366.964 299.564 356.45 296.99 342.213C294.8 330.167 296.716 318.887 304.656 309.195C311.555 300.817 320.755 297.094 331.487 297.039C341.726 296.984 350.652 300.324 357.935 307.662C359.632 309.359 359.632 310.235 357.989 311.988C356.347 313.74 354.704 315.492 353.006 317.244C351.419 318.887 350.762 318.942 349.119 317.244C345.45 313.576 341.233 310.947 335.977 310.071C322.616 307.826 311.555 316.094 309.913 329.565C309.201 335.314 309.748 340.845 312.322 346.046C316.374 354.26 324.533 358.586 334.006 357.655C343.424 356.724 350.269 351.194 352.842 342.378C352.842 342.268 352.842 342.159 352.842 341.392L352.897 341.556Z"></path>
<path fill="#CE1141" d="M264.691 369.318C253.63 369.482 244.048 364.226 236.491 354.917C235.451 353.657 235.451 352.617 236.601 351.412C238.517 349.496 240.379 347.47 242.241 345.499C243.774 343.911 244.759 343.966 246.074 345.772C249.249 350.098 253.137 353.603 258.339 355.3C263.432 356.998 268.579 357.326 273.671 355.519C277.887 353.986 280.023 350.317 278.545 346.594C277.887 344.951 276.519 343.308 274.985 342.378C272.685 341.008 270.057 340.132 267.483 339.257C263.705 337.997 259.818 336.956 256.039 335.752C251.823 334.383 247.99 332.357 244.814 329.181C236.929 321.296 237.477 309.03 246.074 301.967C251.604 297.422 258.12 295.889 265.075 295.889C274.383 295.889 282.706 298.736 289.222 305.69C291.084 307.662 291.084 308.428 289.222 310.29C287.47 312.042 285.718 313.794 283.965 315.547C282.487 317.025 281.994 317.025 280.571 315.437C277.066 311.549 272.959 308.702 267.648 308.045C264.144 307.607 260.639 307.88 257.354 309.25C254.506 310.454 252.371 312.371 252.207 315.711C252.042 318.941 253.904 321.022 256.532 322.282C259.051 323.486 261.679 324.472 264.308 325.293C268.907 326.772 273.562 327.976 278.107 329.564C284.239 331.7 289.222 335.204 291.303 341.72C294.589 352.069 290.098 361.981 280.133 366.416C275.588 368.442 270.769 369.209 264.746 369.154L264.691 369.318Z"></path>
</g>
<defs>
<clipPath id="clip0_352_248">
<rect transform="translate(132 157)" fill="white" height="301.053" width="337"></rect>
</clipPath>
</defs>
</svg>
