<svg xmlns="http://www.w3.org/2000/svg" fill="none" viewBox="0 0 600 615" height="615" width="600">
<path fill="#1672DF" d="M115.646 333H105.417V280.46H121.385L130.938 321.772L140.419 280.46H156.21V333H145.98V297.462C145.98 296.441 145.992 295.015 146.016 293.185C146.039 291.332 146.051 289.906 146.051 288.908L136.106 333H125.449L115.575 288.908C115.575 289.906 115.587 291.332 115.611 293.185C115.635 295.015 115.646 296.441 115.646 297.462V333ZM165.549 280.46H176.456V333H165.549V280.46ZM223.792 329.079C219.871 332.667 214.857 334.461 208.75 334.461C201.193 334.461 195.253 332.038 190.928 327.19C186.603 322.319 184.44 315.641 184.44 307.158C184.44 297.985 186.9 290.916 191.819 285.949C196.096 281.624 201.538 279.462 208.144 279.462C216.984 279.462 223.447 282.361 227.535 288.159C229.792 291.415 231.004 294.682 231.17 297.961H220.192C219.479 295.443 218.564 293.542 217.447 292.258C215.451 289.977 212.493 288.836 208.572 288.836C204.58 288.836 201.431 290.452 199.126 293.684C196.821 296.892 195.668 301.443 195.668 307.336C195.668 313.229 196.88 317.649 199.304 320.596C201.752 323.519 204.853 324.98 208.607 324.98C212.457 324.98 215.392 323.721 217.412 321.202C218.528 319.847 219.455 317.815 220.192 315.106H231.063C230.113 320.833 227.689 325.491 223.792 329.079ZM279.54 292.543H286.277L281.714 308.013C281.358 309.273 281.097 310.211 280.93 310.829C280.788 311.423 280.716 311.946 280.716 312.397C280.716 313.11 280.954 313.788 281.429 314.429C281.904 315.047 282.665 315.356 283.71 315.356C285.754 315.356 287.798 314.025 289.841 311.364C291.909 308.679 292.942 305.126 292.942 300.706C292.942 294.171 290.138 289.478 284.53 286.626C281.013 284.82 277.057 283.917 272.661 283.917C264.581 283.917 258.094 286.389 253.199 291.332C248.779 295.799 246.569 301.158 246.569 307.407C246.569 314.346 249.159 319.847 254.339 323.911C258.926 327.499 264.522 329.293 271.128 329.293C275.643 329.293 279.861 328.461 283.782 326.798C285.92 325.919 288.13 324.671 290.412 323.055L291.267 322.449L293.869 326.441C290.495 329.055 286.835 331.051 282.891 332.43C278.97 333.784 274.894 334.461 270.665 334.461C260.803 334.461 253.163 331.396 247.745 325.265C243.254 320.18 241.008 314.156 241.008 307.193C241.008 299.399 243.812 292.793 249.42 287.375C255.314 281.648 262.858 278.785 272.055 278.785C279.54 278.785 285.742 280.745 290.661 284.666C295.841 288.801 298.432 294.29 298.432 301.134C298.432 306.528 296.792 311.162 293.513 315.035C290.233 318.885 286.491 320.81 282.285 320.81C280.098 320.81 278.411 320.192 277.223 318.956C276.059 317.72 275.477 316.449 275.477 315.142C275.477 314.976 275.477 314.798 275.477 314.607C275.5 314.394 275.524 314.168 275.548 313.93C274.645 315.641 273.635 317.007 272.518 318.029C270.498 319.859 268.074 320.774 265.247 320.774C262.371 320.774 259.971 319.74 258.046 317.673C256.145 315.605 255.195 312.718 255.195 309.011C255.195 304.71 256.656 300.682 259.579 296.928C262.502 293.173 266.09 291.296 270.344 291.296C272.839 291.296 274.776 291.985 276.154 293.363C277.199 294.433 277.9 295.656 278.257 297.035L279.54 292.543ZM264.177 313.93C264.961 315 266.078 315.534 267.528 315.534C270.07 315.534 272.15 313.609 273.766 309.76C275.405 305.886 276.225 302.845 276.225 300.635C276.225 299.375 275.845 298.318 275.084 297.462C274.324 296.607 273.302 296.179 272.019 296.179C269.548 296.179 267.421 297.724 265.639 300.813C263.856 303.878 262.965 306.849 262.965 309.724C262.965 311.459 263.369 312.861 264.177 313.93ZM344.983 310.188V333H334.611V309.368C334.611 307.277 334.254 305.589 333.542 304.306C332.615 302.5 330.856 301.597 328.266 301.597C325.581 301.597 323.537 302.5 322.135 304.306C320.757 306.088 320.068 308.643 320.068 311.97V333H309.945V280.638H320.068V299.209C321.541 296.951 323.24 295.383 325.165 294.504C327.114 293.601 329.157 293.149 331.296 293.149C333.696 293.149 335.87 293.565 337.819 294.397C339.791 295.229 341.407 296.5 342.667 298.211C343.736 299.66 344.389 301.158 344.627 302.702C344.865 304.223 344.983 306.718 344.983 310.188ZM386.901 299.066C390.181 303.177 391.82 308.037 391.82 313.645C391.82 319.348 390.181 324.231 386.901 328.295C383.622 332.335 378.644 334.354 371.966 334.354C365.289 334.354 360.311 332.335 357.031 328.295C353.752 324.231 352.112 319.348 352.112 313.645C352.112 308.037 353.752 303.177 357.031 299.066C360.311 294.955 365.289 292.9 371.966 292.9C378.644 292.9 383.622 294.955 386.901 299.066ZM371.931 301.49C368.96 301.49 366.667 302.548 365.051 304.663C363.459 306.754 362.663 309.748 362.663 313.645C362.663 317.542 363.459 320.548 365.051 322.663C366.667 324.778 368.96 325.835 371.931 325.835C374.901 325.835 377.182 324.778 378.774 322.663C380.367 320.548 381.163 317.542 381.163 313.645C381.163 309.748 380.367 306.754 378.774 304.663C377.182 302.548 374.901 301.49 371.931 301.49ZM420.942 304.841C420.086 302.964 418.411 302.025 415.916 302.025C413.017 302.025 411.068 302.964 410.07 304.841C409.524 305.91 409.25 307.502 409.25 309.617V333H398.949V294.219H408.823V299.886C410.082 297.866 411.27 296.429 412.387 295.573C414.36 294.052 416.914 293.292 420.051 293.292C423.021 293.292 425.421 293.945 427.251 295.252C428.724 296.464 429.841 298.021 430.602 299.922C431.932 297.641 433.584 295.965 435.556 294.896C437.647 293.827 439.976 293.292 442.542 293.292C444.253 293.292 445.941 293.625 447.604 294.29C449.267 294.955 450.776 296.12 452.131 297.783C453.224 299.138 453.961 300.801 454.341 302.773C454.578 304.08 454.697 305.993 454.697 308.512L454.626 333H444.218V308.263C444.218 306.789 443.98 305.577 443.505 304.627C442.602 302.821 440.938 301.918 438.515 301.918C435.711 301.918 433.774 303.082 432.705 305.411C432.158 306.647 431.885 308.132 431.885 309.867V333H421.655V309.867C421.655 307.562 421.417 305.886 420.942 304.841ZM497.328 321.594C497.067 323.899 495.867 326.239 493.728 328.616C490.401 332.394 485.744 334.283 479.755 334.283C474.813 334.283 470.452 332.691 466.674 329.507C462.896 326.323 461.006 321.142 461.006 313.966C461.006 307.241 462.705 302.084 466.104 298.496C469.525 294.908 473.957 293.114 479.399 293.114C482.631 293.114 485.542 293.72 488.132 294.932C490.722 296.144 492.861 298.056 494.548 300.67C496.069 302.975 497.055 305.649 497.506 308.69C497.768 310.473 497.875 313.039 497.827 316.39H471.236C471.379 320.287 472.603 323.02 474.908 324.588C476.31 325.562 477.997 326.049 479.969 326.049C482.06 326.049 483.759 325.455 485.066 324.267C485.779 323.625 486.409 322.734 486.956 321.594H497.328ZM487.276 309.688C487.11 307.003 486.29 304.972 484.817 303.593C483.367 302.191 481.561 301.49 479.399 301.49C477.046 301.49 475.217 302.227 473.91 303.7C472.626 305.174 471.819 307.17 471.486 309.688H487.276Z"></path>
</svg>
