<svg xmlns="http://www.w3.org/2000/svg" fill="none" viewBox="0 0 600 615" height="615" width="600">
<path fill="#515151" d="M391.555 270.118L432.897 296.186L421.413 357.855L384.435 312.838L391.555 270.118Z"></path>
<path fill="url(#paint0_linear_355_330)" d="M167 321.404L180.712 246.507L393.863 222.241L382.184 297.575L167 321.404Z"></path>
<path fill="url(#paint1_linear_355_330)" d="M422.091 359.084L184.226 387.713L195.136 324.495L433 295.877L422.091 359.084Z"></path>
<path fill="url(#paint2_linear_355_330)" d="M368.61 299.102L382.184 297.575L393.875 222.241L180.712 246.507L176.382 270.175C242.644 237.193 348.376 248.493 368.61 299.102Z" style="mix-blend-mode:screen"></path>
<path fill="black" d="M270.274 231.074C270.067 231.074 269.872 230.901 269.837 230.695C269.792 230.454 269.952 230.247 270.182 230.224L412.225 214.284C412.455 214.261 412.685 214.434 412.731 214.663C412.777 214.904 412.616 215.111 412.386 215.134L270.343 231.074C270.32 231.074 270.297 231.074 270.274 231.074Z"></path>
<path fill="#0047E5" d="M305.92 221.507C305.713 221.507 305.518 221.335 305.483 221.128C305.438 220.887 305.598 220.68 305.828 220.657L418.955 208.002C419.185 207.979 419.414 208.151 419.46 208.381C419.506 208.622 419.346 208.829 419.116 208.852L305.989 221.507C305.966 221.507 305.943 221.507 305.92 221.507Z"></path>
<path fill="#0047E5" d="M184.788 406.442C184.582 406.442 184.387 406.269 184.352 406.063C184.306 405.821 184.467 405.615 184.697 405.592L297.824 392.937C298.053 392.914 298.283 393.086 298.329 393.316C298.375 393.557 298.214 393.763 297.985 393.786L184.857 406.442C184.834 406.442 184.811 406.442 184.788 406.442Z"></path>
<path fill="black" d="M253.576 387.023L253.599 387.896L184.949 395.579H184.892C184.673 395.567 184.49 395.407 184.455 395.2C184.409 394.97 184.57 394.752 184.8 394.729L253.576 387.023Z"></path>
<path fill="#F5E9AD" d="M291.634 301.802C291.427 301.802 291.232 301.63 291.198 301.412C291.152 301.171 291.313 300.964 291.542 300.941L370.31 292.466C370.551 292.443 370.769 292.615 370.815 292.845C370.861 293.086 370.7 293.293 370.471 293.316L291.703 301.791C291.68 301.791 291.657 301.791 291.634 301.791V301.802Z"></path>
<path fill="black" d="M201.394 305.971L202.599 254.753L209.742 253.926L218.654 279.937H218.803C218.803 279.925 228.92 251.709 228.92 251.709L236.144 250.871L234.938 302.089L227.496 302.95L228.231 271.806H228.082C228.082 271.818 220.193 294.682 220.193 294.682L216.472 295.107L209.696 273.942H209.547C209.547 273.954 208.812 305.109 208.812 305.109L201.371 305.971H201.394Z"></path>
<path fill="black" d="M251.682 261.138C251.728 259.082 252.141 257.21 252.899 255.545C253.668 253.88 254.667 252.444 255.908 251.25C257.102 250.113 258.446 249.195 259.938 248.494C261.431 247.793 262.936 247.357 264.44 247.185C265.944 247.013 267.437 247.104 268.907 247.46C270.377 247.816 271.709 248.425 272.904 249.298C274.041 250.217 274.959 251.422 275.648 252.927C276.337 254.42 276.659 256.211 276.613 258.267L275.97 285.311C275.924 287.47 275.511 289.353 274.741 290.973C273.972 292.592 272.996 293.97 271.813 295.118C270.572 296.313 269.206 297.266 267.713 297.955C266.22 298.655 264.716 299.092 263.211 299.264C261.707 299.436 260.214 299.344 258.744 298.988C257.274 298.632 255.965 297.989 254.828 297.071C253.634 296.209 252.692 295.049 252.003 293.591C251.314 292.144 250.993 290.341 251.038 288.182L251.682 261.138ZM258.48 287.332C258.434 289.112 258.905 290.353 259.881 291.076C260.857 291.8 262.029 292.087 263.384 291.926C264.739 291.765 265.933 291.214 266.955 290.261C267.966 289.308 268.505 287.941 268.54 286.172L269.183 259.128C269.229 257.36 268.758 256.108 267.782 255.384C266.806 254.661 265.634 254.374 264.279 254.534C262.924 254.695 261.73 255.246 260.708 256.2C259.686 257.153 259.158 258.519 259.123 260.288L258.48 287.332Z"></path>
<path fill="black" d="M291.519 295.567L292.725 244.349L304.679 242.971C313.43 241.96 317.69 246.462 317.449 256.487C317.38 259.508 316.841 262.126 315.842 264.342C314.842 266.559 313.143 268.454 310.731 270.027L318.196 292.478L310.318 293.385L303.91 272.312L299.466 272.829L298.949 294.694L291.507 295.555L291.519 295.567ZM300.005 250.401L299.626 266.375L303.852 265.893C305.162 265.743 306.218 265.445 306.999 264.997C307.78 264.549 308.4 263.963 308.859 263.24C309.261 262.528 309.548 261.667 309.721 260.668C309.893 259.668 309.985 258.52 310.019 257.222C310.054 255.925 310.008 254.799 309.881 253.835C309.755 252.87 309.491 252.055 309.066 251.377C308.17 250.137 306.436 249.666 303.864 249.965L300.005 250.412V250.401Z"></path>
<path fill="black" d="M331.839 290.915L333.045 239.698L355.208 237.137L355.048 244.038L340.314 245.738L339.958 260.77L352.785 259.289L352.625 266.191L339.797 267.672L339.441 282.705L354.175 281.005L354.003 288.343L331.839 290.904V290.915Z"></path>
<path fill="black" d="M207.722 375.792L208.526 337.023L201.004 337.907L201.13 331.867L222.685 329.317L222.559 335.358L215.037 336.242L214.233 375.012L207.733 375.781L207.722 375.792Z"></path>
<path fill="black" d="M224.177 339.687C224.212 337.884 224.568 336.253 225.234 334.795C225.9 333.336 226.773 332.085 227.852 331.028C228.886 330.029 230.069 329.214 231.366 328.605C232.676 327.985 233.985 327.606 235.305 327.445C236.626 327.284 237.924 327.365 239.21 327.675C240.496 327.985 241.667 328.513 242.712 329.271C243.711 330.075 244.515 331.131 245.124 332.441C245.733 333.75 246.02 335.311 245.985 337.114L245.491 360.783C245.457 362.666 245.101 364.32 244.435 365.744C243.769 367.168 242.919 368.373 241.874 369.373C240.795 370.418 239.6 371.256 238.291 371.865C236.982 372.485 235.673 372.864 234.352 373.024C233.032 373.185 231.734 373.105 230.448 372.795C229.161 372.485 228.013 371.933 227.014 371.13C225.969 370.372 225.142 369.361 224.533 368.098C223.925 366.835 223.638 365.25 223.672 363.366L224.166 339.698L224.177 339.687ZM230.195 362.586C230.161 364.136 230.574 365.227 231.435 365.858C232.297 366.49 233.319 366.731 234.501 366.593C235.696 366.456 236.729 365.962 237.614 365.124C238.498 364.285 238.957 363.091 238.992 361.541L239.485 337.872C239.52 336.322 239.106 335.231 238.245 334.599C237.384 333.968 236.362 333.727 235.179 333.865C233.996 334.002 232.951 334.496 232.067 335.334C231.183 336.173 230.723 337.367 230.689 338.917L230.195 362.586Z"></path>
<path fill="black" d="M283.813 354.042L283.756 356.81C283.721 358.199 283.434 359.543 282.872 360.841C282.309 362.138 281.562 363.333 280.598 364.401C279.645 365.48 278.531 366.376 277.268 367.088C276.004 367.8 274.649 368.248 273.202 368.42C271.755 368.592 270.722 368.546 269.447 368.362C268.184 368.179 267.047 367.731 266.036 367.007C265.037 366.284 264.21 365.308 263.579 364.067C262.947 362.827 262.649 361.174 262.695 359.118L263.211 334.439C263.246 332.969 263.521 331.58 264.061 330.259C264.601 328.938 265.347 327.767 266.3 326.734C267.254 325.7 268.391 324.85 269.7 324.161C271.009 323.484 272.444 323.047 274.018 322.864C277.084 322.496 279.541 323.197 281.413 324.942C282.332 325.792 283.032 326.848 283.538 328.112C284.043 329.375 284.273 330.776 284.25 332.326L284.192 334.841L277.692 335.611L277.738 333.475C277.761 332.211 277.428 331.166 276.728 330.328C276.027 329.49 275.051 329.145 273.822 329.294C272.594 329.444 271.124 330.11 270.572 331.155C270.021 332.2 269.734 333.486 269.7 334.99L269.217 357.901C269.194 359.198 269.459 360.255 270.01 361.07C270.561 361.886 271.583 362.207 273.076 362.023C274.569 361.84 273.96 361.851 274.454 361.644C274.948 361.438 275.407 361.151 275.844 360.76C276.234 360.381 276.567 359.876 276.831 359.267C277.095 358.647 277.245 357.901 277.256 357.016L277.302 354.812L283.802 354.042H283.813Z"></path>
<path fill="black" d="M289.177 332.005C289.211 330.202 289.567 328.572 290.233 327.113C290.899 325.655 291.772 324.403 292.851 323.346C293.885 322.347 295.068 321.532 296.365 320.923C297.675 320.303 298.984 319.924 300.304 319.763C301.625 319.603 302.923 319.683 304.209 319.993C305.495 320.303 306.666 320.831 307.711 321.589C308.711 322.393 309.514 323.45 310.123 324.759C310.732 326.068 311.019 327.63 310.984 329.433L310.49 353.101C310.456 354.984 310.1 356.638 309.434 358.062C308.768 359.486 307.918 360.692 306.873 361.691C305.794 362.736 304.599 363.574 303.29 364.183C301.981 364.803 300.672 365.182 299.351 365.343C298.031 365.504 296.733 365.423 295.447 365.113C294.16 364.803 293.012 364.252 292.013 363.448C290.968 362.69 290.141 361.679 289.533 360.416C288.924 359.153 288.637 357.568 288.671 355.685L289.165 332.017L289.177 332.005ZM295.183 354.904C295.148 356.454 295.562 357.545 296.423 358.177C297.284 358.808 298.306 359.05 299.489 358.912C300.683 358.774 301.717 358.28 302.601 357.442C303.485 356.604 303.945 355.409 303.979 353.859L304.473 330.191C304.507 328.64 304.094 327.549 303.233 326.918C302.371 326.286 301.349 326.045 300.167 326.183C298.972 326.321 297.939 326.814 297.054 327.653C296.17 328.491 295.711 329.685 295.676 331.236L295.183 354.904Z"></path>
<path fill="black" d="M316.014 362.988L316.944 318.166L323.192 317.431L331.046 340.169H331.173C331.173 340.158 339.958 315.445 339.958 315.445L346.274 314.698L345.344 359.52L338.844 360.289L339.418 333.038H339.292C339.292 333.049 332.448 353.077 332.448 353.077L329.198 353.456L323.226 334.944H323.1C323.1 334.956 322.525 362.218 322.525 362.218L316.026 362.988H316.014Z"></path>
<path fill="black" d="M351.465 358.796L352.395 313.974L371.78 311.678L371.653 317.718L358.768 319.246L358.493 332.406L369.712 331.074L369.586 337.114L358.366 338.447L358.091 351.607L370.976 350.08L370.838 356.499L351.453 358.796H351.465Z"></path>
<path fill="black" d="M378.291 344.568L376.511 311.127L384.676 310.162L381.483 344.189L378.291 344.568ZM376.407 355.845L376.545 349.425L383.045 348.656L382.907 355.075L376.407 355.845Z"></path>
<path fill="white" d="M199.442 303.903L200.648 252.685L207.791 251.858L216.702 277.869H216.851C216.851 277.858 226.969 249.642 226.969 249.642L234.192 248.804L232.986 300.022L225.545 300.883L226.28 269.739H226.13C226.13 269.75 218.241 292.615 218.241 292.615L214.52 293.039L207.745 271.875H207.595C207.595 271.886 206.86 303.042 206.86 303.042L199.419 303.903H199.442Z"></path>
<path fill="white" d="M249.729 259.07C249.775 257.015 250.189 255.143 250.947 253.478C251.716 251.813 252.715 250.377 253.955 249.183C255.15 248.046 256.493 247.127 257.986 246.427C259.479 245.726 260.984 245.29 262.488 245.117C263.992 244.945 265.485 245.037 266.955 245.393C268.425 245.749 269.757 246.358 270.952 247.23C272.088 248.149 273.007 249.355 273.696 250.859C274.385 252.352 274.707 254.144 274.661 256.199L274.018 283.244C273.972 285.403 273.558 287.286 272.789 288.905C272.02 290.525 271.043 291.903 269.861 293.051C268.62 294.245 267.254 295.198 265.761 295.887C264.268 296.588 262.764 297.024 261.259 297.197C259.755 297.369 258.262 297.277 256.792 296.921C255.322 296.565 254.013 295.922 252.876 295.003C251.682 294.142 250.74 292.982 250.051 291.524C249.362 290.077 249.04 288.274 249.086 286.115L249.729 259.07ZM256.528 285.265C256.482 287.045 256.953 288.285 257.929 289.009C258.905 289.732 260.076 290.019 261.431 289.858C262.787 289.698 263.981 289.146 265.003 288.193C266.013 287.24 266.553 285.874 266.588 284.105L267.231 257.061C267.277 255.292 266.806 254.04 265.83 253.317C264.854 252.593 263.682 252.306 262.327 252.467C260.972 252.628 259.778 253.179 258.756 254.132C257.734 255.085 257.205 256.452 257.171 258.221L256.528 285.265Z"></path>
<path fill="white" d="M289.567 293.499L290.773 242.281L302.728 240.903C311.478 239.892 315.739 244.394 315.498 254.419C315.429 257.439 314.889 260.058 313.89 262.274C312.891 264.49 311.191 266.385 308.78 267.959L316.244 290.409L308.366 291.317L301.958 270.244L297.514 270.761L296.997 292.626L289.556 293.487L289.567 293.499ZM298.054 248.333L297.675 264.307L301.901 263.824C303.21 263.675 304.266 263.376 305.047 262.929C305.828 262.481 306.448 261.895 306.908 261.172C307.31 260.46 307.597 259.598 307.769 258.599C307.941 257.6 308.033 256.452 308.068 255.154C308.102 253.856 308.056 252.731 307.93 251.766C307.803 250.802 307.539 249.986 307.114 249.309C306.219 248.069 304.485 247.598 301.912 247.896L298.054 248.344V248.333Z"></path>
<path fill="white" d="M329.887 288.848L331.093 237.63L353.256 235.069L353.096 241.971L338.362 243.671L338.006 258.703L350.833 257.222L350.672 264.123L337.845 265.605L337.489 280.637L352.223 278.938L352.05 286.276L329.887 288.837V288.848Z"></path>
<path fill="white" d="M205.77 373.725L206.574 334.956L199.052 335.84L199.178 329.799L220.733 327.25L220.607 333.291L213.085 334.175L212.281 372.944L205.781 373.714L205.77 373.725Z"></path>
<path fill="white" d="M222.226 337.619C222.261 335.816 222.617 334.186 223.283 332.727C223.949 331.269 224.822 330.017 225.901 328.961C226.935 327.962 228.118 327.146 229.415 326.538C230.724 325.917 232.034 325.538 233.354 325.378C234.675 325.217 235.972 325.297 237.259 325.607C238.545 325.917 239.716 326.446 240.761 327.204C241.76 328.007 242.564 329.064 243.173 330.373C243.781 331.682 244.069 333.244 244.034 335.047L243.54 358.715C243.506 360.599 243.15 362.252 242.484 363.676C241.818 365.1 240.968 366.306 239.923 367.305C238.843 368.35 237.649 369.188 236.34 369.797C235.031 370.417 233.722 370.796 232.401 370.957C231.08 371.118 229.783 371.037 228.496 370.727C227.21 370.417 226.062 369.866 225.063 369.062C224.018 368.304 223.191 367.294 222.582 366.03C221.974 364.767 221.687 363.182 221.721 361.299L222.215 337.631L222.226 337.619ZM228.244 360.518C228.209 362.069 228.623 363.159 229.484 363.791C230.345 364.423 231.367 364.664 232.55 364.526C233.745 364.388 234.778 363.894 235.662 363.056C236.547 362.218 237.006 361.023 237.04 359.473L237.534 335.805C237.569 334.255 237.155 333.164 236.294 332.532C235.433 331.9 234.411 331.659 233.228 331.797C232.045 331.935 231 332.429 230.116 333.267C229.231 334.105 228.772 335.3 228.738 336.85L228.244 360.518Z"></path>
<path fill="white" d="M281.862 351.975L281.804 354.742C281.77 356.132 281.483 357.475 280.92 358.773C280.357 360.071 279.611 361.265 278.646 362.333C277.693 363.413 276.579 364.308 275.316 365.02C274.053 365.732 272.698 366.18 271.251 366.352C269.804 366.525 268.77 366.479 267.495 366.295C266.232 366.111 265.095 365.663 264.085 364.94C263.086 364.216 262.259 363.24 261.627 362C260.996 360.76 260.697 359.106 260.743 357.051L261.26 332.372C261.294 330.902 261.57 329.512 262.109 328.192C262.649 326.871 263.396 325.7 264.349 324.666C265.302 323.633 266.439 322.783 267.748 322.094C269.057 321.416 270.493 320.98 272.066 320.796C275.132 320.429 277.59 321.129 279.462 322.875C280.38 323.724 281.081 324.781 281.586 326.044C282.091 327.307 282.321 328.708 282.298 330.259L282.241 332.774L275.741 333.543L275.787 331.407C275.81 330.144 275.477 329.099 274.776 328.261C274.076 327.422 273.099 327.078 271.871 327.227C270.642 327.376 269.172 328.042 268.621 329.087C268.07 330.132 267.782 331.419 267.748 332.923L267.266 355.833C267.243 357.131 267.507 358.187 268.058 359.003C268.609 359.818 269.631 360.14 271.124 359.956C272.617 359.772 272.009 359.784 272.502 359.577C272.996 359.37 273.455 359.083 273.892 358.693C274.282 358.314 274.615 357.809 274.879 357.2C275.144 356.58 275.293 355.833 275.304 354.949L275.35 352.744L281.85 351.975H281.862Z"></path>
<path fill="white" d="M287.224 329.938C287.259 328.135 287.615 326.504 288.281 325.046C288.947 323.587 289.82 322.336 290.899 321.279C291.933 320.28 293.116 319.465 294.413 318.856C295.722 318.236 297.032 317.857 298.352 317.696C299.673 317.535 300.971 317.616 302.257 317.926C303.543 318.236 304.714 318.764 305.759 319.522C306.758 320.326 307.562 321.382 308.171 322.692C308.78 324.001 309.067 325.562 309.032 327.365L308.538 351.034C308.504 352.917 308.148 354.571 307.482 355.995C306.816 357.419 305.966 358.624 304.921 359.624C303.841 360.669 302.647 361.507 301.338 362.116C300.029 362.736 298.72 363.115 297.399 363.275C296.078 363.436 294.781 363.356 293.495 363.046C292.208 362.736 291.06 362.184 290.061 361.381C289.016 360.623 288.189 359.612 287.58 358.349C286.972 357.086 286.685 355.501 286.719 353.617L287.213 329.949L287.224 329.938ZM293.23 352.837C293.196 354.387 293.609 355.478 294.471 356.109C295.332 356.741 296.354 356.982 297.537 356.844C298.731 356.707 299.765 356.213 300.649 355.374C301.533 354.536 301.993 353.342 302.027 351.792L302.521 328.123C302.555 326.573 302.142 325.482 301.281 324.85C300.419 324.219 299.397 323.978 298.214 324.116C297.02 324.253 295.987 324.747 295.102 325.585C294.218 326.424 293.759 327.618 293.724 329.168L293.23 352.837Z"></path>
<path fill="white" d="M314.062 360.92L314.993 316.099L321.24 315.364L329.095 338.102H329.221C329.221 338.09 338.006 313.377 338.006 313.377L344.322 312.631L343.392 357.452L336.892 358.222L337.467 330.971H337.34C337.34 330.982 330.496 351.01 330.496 351.01L327.246 351.389L321.274 332.877H321.148C321.148 332.888 320.574 360.151 320.574 360.151L314.074 360.92H314.062Z"></path>
<path fill="white" d="M349.513 356.729L350.443 311.907L369.828 309.61L369.702 315.651L356.817 317.178L356.541 330.339L367.761 329.007L367.634 335.047L356.415 336.379L356.139 349.54L369.024 348.012L368.886 354.432L349.501 356.729H349.513Z"></path>
<path fill="white" d="M376.339 342.5L374.559 309.059L382.724 308.095L379.532 342.121L376.339 342.5ZM374.456 353.777L374.594 347.358L381.094 346.589L380.956 353.008L374.456 353.777Z"></path>
<defs>
<linearGradient gradientUnits="userSpaceOnUse" y2="198.1" x2="405.79" y1="351.901" x1="124.796" id="paint0_linear_355_330">
<stop stop-color="#1B1464"></stop>
<stop stop-color="#0000FF" offset="1"></stop>
</linearGradient>
<linearGradient gradientUnits="userSpaceOnUse" y2="316.545" x2="464.891" y1="357.308" x1="269.612" id="paint1_linear_355_330">
<stop stop-color="#1A1A1A"></stop>
<stop stop-color="#232323" offset="0.5"></stop>
<stop stop-color="#333333" offset="1"></stop>
</linearGradient>
<linearGradient gradientUnits="userSpaceOnUse" y2="292.022" x2="268.383" y1="241.617" x1="277.569" id="paint2_linear_355_330">
<stop></stop>
<stop stop-color="#010303" offset="0.2"></stop>
<stop stop-color="#060C0D" offset="0.4"></stop>
<stop stop-color="#0E1C1E" offset="0.6"></stop>
<stop stop-color="#193336" offset="0.7"></stop>
<stop stop-color="#275055" offset="0.8"></stop>
<stop stop-color="#3B777E" offset="1"></stop>
</linearGradient>
</defs>
</svg>
