<svg xmlns="http://www.w3.org/2000/svg" fill="none" viewBox="0 0 600 615" height="615" width="600">
<path fill="#1672DF" d="M212.062 260.337C209.73 249.061 212.529 236.852 220.228 228.298C225.827 222.076 233.215 218.655 240.991 218.655C248.768 218.655 256.155 222.076 261.755 228.298L272.486 240.196C275.441 243.462 281.118 243.462 284.073 240.196L294.805 228.298C306.003 215.855 325.133 215.855 336.332 228.298C344.03 236.852 346.83 249.061 344.497 260.337H360.128C362.305 245.173 358.184 229.309 347.919 217.877C339.364 208.39 327.855 203.102 315.646 203.102C303.437 203.102 291.928 208.312 283.373 217.877L278.396 223.398L273.419 217.877C264.865 208.39 253.356 203.102 241.147 203.102C228.938 203.102 217.428 208.312 208.874 217.877C198.609 229.231 194.488 245.173 196.665 260.337H212.296H212.062Z"></path>
<path fill="#1672DF" d="M287.339 279.389L282.673 286.388L278.163 259.17C277.619 255.982 275.208 253.493 272.097 252.871C268.987 252.171 265.798 253.493 264.01 256.137L250.79 275.967H185V291.52H211.285C221.083 305.129 232.437 317.261 245.501 327.137L273.575 348.445C274.975 349.533 276.608 350 278.241 350C279.874 350 281.585 349.456 282.907 348.445L310.98 327.137C324.045 317.183 335.398 305.129 345.197 291.52H371.481V275.967H293.716C291.15 275.967 288.661 277.289 287.261 279.467L287.339 279.389ZM325.911 291.443C318.679 300.152 310.591 307.929 301.648 314.695L278.241 332.425L254.833 314.695C245.89 307.929 237.803 300.152 230.571 291.443H254.911C257.477 291.443 259.966 290.121 261.366 287.943L266.032 280.944L270.542 308.162C271.086 311.351 273.497 313.839 276.608 314.461C277.152 314.617 277.696 314.617 278.241 314.617C280.807 314.617 283.218 313.373 284.695 311.117L297.915 291.287H325.833L325.911 291.443Z"></path>
<path fill="#1672DF" d="M378.867 176C364.705 176 351.239 182.017 341.867 192.494L347.965 197.938C355.783 189.179 367.079 184.145 378.867 184.145C390.654 184.145 401.951 189.179 409.768 197.938L415.867 192.494C406.494 182.017 392.987 176 378.867 176Z"></path>
<path fill="#1672DF" d="M355.455 205.592L361.022 211.609C365.851 207.147 372.195 204.692 378.867 204.692C385.538 204.692 391.882 207.147 396.712 211.609L402.278 205.592C395.934 199.698 387.626 196.465 378.867 196.465C370.108 196.465 361.799 199.698 355.455 205.592Z"></path>
<path fill="#1672DF" d="M368.716 220.408L378.867 229.207L389.017 220.408C386.234 218.238 382.755 216.929 378.867 216.929C374.978 216.929 371.499 218.238 368.716 220.408Z"></path>
<path fill="#0E59B2" d="M183.491 373.015C185.758 373.015 187.626 373.288 189.096 373.835C190.577 374.382 191.677 375.208 192.395 376.313C193.112 377.418 193.471 378.814 193.471 380.5C193.471 381.639 193.255 382.636 192.822 383.491C192.389 384.345 191.819 385.069 191.113 385.661C190.406 386.254 189.643 386.738 188.823 387.114L196.171 398H190.292L184.328 388.413H181.508V398H176.21V373.015H183.491ZM183.115 377.355H181.508V384.106H183.217C184.972 384.106 186.225 383.815 186.977 383.234C187.74 382.642 188.122 381.776 188.122 380.637C188.122 379.452 187.712 378.609 186.892 378.107C186.083 377.606 184.824 377.355 183.115 377.355ZM206.784 378.535C208.55 378.535 210.071 378.876 211.347 379.56C212.623 380.232 213.609 381.212 214.304 382.5C214.999 383.787 215.346 385.359 215.346 387.216V389.746H203.024C203.081 391.215 203.52 392.372 204.34 393.215C205.172 394.047 206.323 394.462 207.792 394.462C209.012 394.462 210.128 394.337 211.142 394.086C212.156 393.836 213.199 393.46 214.27 392.958V396.992C213.324 397.459 212.333 397.801 211.296 398.017C210.271 398.234 209.023 398.342 207.553 398.342C205.639 398.342 203.942 397.989 202.46 397.282C200.991 396.576 199.834 395.499 198.991 394.052C198.16 392.605 197.744 390.782 197.744 388.583C197.744 386.35 198.12 384.493 198.872 383.012C199.635 381.52 200.694 380.403 202.05 379.663C203.406 378.911 204.984 378.535 206.784 378.535ZM206.818 382.243C205.804 382.243 204.961 382.568 204.289 383.217C203.628 383.867 203.247 384.886 203.144 386.276H210.458C210.447 385.502 210.305 384.812 210.031 384.208C209.769 383.605 209.37 383.126 208.835 382.773C208.311 382.42 207.639 382.243 206.818 382.243ZM242.023 378.535C244.188 378.535 245.823 379.093 246.928 380.209C248.045 381.315 248.603 383.092 248.603 385.542V398H243.374V386.84C243.374 385.473 243.14 384.442 242.673 383.747C242.206 383.052 241.482 382.705 240.502 382.705C239.124 382.705 238.144 383.2 237.563 384.191C236.982 385.171 236.691 386.578 236.691 388.413V398H231.479V386.84C231.479 385.929 231.376 385.166 231.171 384.55C230.966 383.935 230.653 383.474 230.231 383.166C229.81 382.858 229.269 382.705 228.608 382.705C227.639 382.705 226.876 382.95 226.318 383.439C225.771 383.918 225.378 384.63 225.139 385.576C224.911 386.51 224.797 387.655 224.797 389.011V398H219.584V378.894H223.566L224.267 381.337H224.558C224.945 380.677 225.429 380.141 226.01 379.731C226.603 379.321 227.252 379.019 227.958 378.825C228.665 378.632 229.383 378.535 230.112 378.535C231.513 378.535 232.698 378.763 233.667 379.218C234.646 379.674 235.398 380.38 235.922 381.337H236.384C236.953 380.358 237.757 379.646 238.793 379.201C239.842 378.757 240.918 378.535 242.023 378.535ZM271.333 388.413C271.333 390.008 271.116 391.42 270.683 392.651C270.262 393.881 269.641 394.924 268.82 395.778C268.011 396.621 267.032 397.259 265.881 397.692C264.742 398.125 263.454 398.342 262.019 398.342C260.674 398.342 259.438 398.125 258.31 397.692C257.194 397.259 256.219 396.621 255.388 395.778C254.567 394.924 253.929 393.881 253.474 392.651C253.029 391.42 252.807 390.008 252.807 388.413C252.807 386.293 253.183 384.499 253.935 383.029C254.687 381.56 255.758 380.443 257.148 379.68C258.538 378.916 260.196 378.535 262.121 378.535C263.91 378.535 265.493 378.916 266.872 379.68C268.262 380.443 269.35 381.56 270.136 383.029C270.934 384.499 271.333 386.293 271.333 388.413ZM258.122 388.413C258.122 389.666 258.259 390.72 258.532 391.574C258.806 392.429 259.233 393.072 259.814 393.505C260.395 393.938 261.153 394.155 262.087 394.155C263.01 394.155 263.756 393.938 264.326 393.505C264.907 393.072 265.328 392.429 265.59 391.574C265.864 390.72 266 389.666 266 388.413C266 387.148 265.864 386.1 265.59 385.268C265.328 384.425 264.907 383.793 264.326 383.371C263.745 382.95 262.987 382.739 262.053 382.739C260.674 382.739 259.672 383.212 259.045 384.157C258.43 385.103 258.122 386.521 258.122 388.413ZM283.688 394.189C284.258 394.189 284.811 394.132 285.346 394.018C285.893 393.904 286.434 393.762 286.97 393.591V397.47C286.411 397.721 285.716 397.926 284.885 398.085C284.064 398.256 283.164 398.342 282.185 398.342C281.045 398.342 280.02 398.16 279.108 397.795C278.208 397.419 277.496 396.775 276.972 395.864C276.459 394.941 276.203 393.659 276.203 392.019V382.807H273.708V380.603L276.579 378.859L278.083 374.826H281.416V378.894H286.765V382.807H281.416V392.019C281.416 392.748 281.621 393.295 282.031 393.659C282.452 394.012 283.005 394.189 283.688 394.189ZM298.728 378.535C300.493 378.535 302.014 378.876 303.291 379.56C304.567 380.232 305.552 381.212 306.247 382.5C306.942 383.787 307.29 385.359 307.29 387.216V389.746H294.968C295.025 391.215 295.463 392.372 296.284 393.215C297.115 394.047 298.266 394.462 299.736 394.462C300.955 394.462 302.071 394.337 303.085 394.086C304.099 393.836 305.142 393.46 306.213 392.958V396.992C305.267 397.459 304.276 397.801 303.239 398.017C302.214 398.234 300.966 398.342 299.497 398.342C297.583 398.342 295.885 397.989 294.404 397.282C292.934 396.576 291.778 395.499 290.935 394.052C290.103 392.605 289.687 390.782 289.687 388.583C289.687 386.35 290.063 384.493 290.815 383.012C291.578 381.52 292.638 380.403 293.994 379.663C295.349 378.911 296.927 378.535 298.728 378.535ZM298.762 382.243C297.748 382.243 296.905 382.568 296.232 383.217C295.572 383.867 295.19 384.886 295.087 386.276H302.402C302.39 385.502 302.248 384.812 301.975 384.208C301.713 383.605 301.314 383.126 300.778 382.773C300.254 382.42 299.582 382.243 298.762 382.243ZM331.643 377.065C330.629 377.065 329.729 377.264 328.942 377.663C328.168 378.05 327.513 378.614 326.977 379.355C326.453 380.096 326.054 380.99 325.781 382.038C325.507 383.086 325.371 384.265 325.371 385.576C325.371 387.342 325.587 388.851 326.02 390.104C326.464 391.346 327.148 392.298 328.071 392.958C328.994 393.608 330.184 393.933 331.643 393.933C332.657 393.933 333.671 393.819 334.685 393.591C335.71 393.363 336.821 393.038 338.017 392.617V397.06C336.912 397.516 335.824 397.84 334.753 398.034C333.682 398.239 332.48 398.342 331.147 398.342C328.572 398.342 326.453 397.812 324.79 396.752C323.138 395.681 321.913 394.189 321.115 392.275C320.318 390.349 319.919 388.105 319.919 385.542C319.919 383.65 320.175 381.918 320.688 380.346C321.201 378.774 321.953 377.412 322.944 376.262C323.935 375.111 325.16 374.222 326.618 373.596C328.076 372.969 329.751 372.656 331.643 372.656C332.884 372.656 334.126 372.815 335.368 373.134C336.621 373.442 337.818 373.869 338.957 374.416L337.248 378.723C336.314 378.278 335.374 377.891 334.428 377.561C333.483 377.23 332.554 377.065 331.643 377.065ZM350.766 378.5C353.33 378.5 355.295 379.059 356.662 380.175C358.029 381.292 358.713 382.989 358.713 385.268V398H355.073L354.064 395.402H353.928C353.381 396.086 352.823 396.644 352.253 397.077C351.683 397.51 351.028 397.829 350.288 398.034C349.547 398.239 348.647 398.342 347.587 398.342C346.459 398.342 345.445 398.125 344.545 397.692C343.657 397.259 342.956 396.599 342.443 395.71C341.931 394.81 341.674 393.671 341.674 392.292C341.674 390.264 342.386 388.771 343.811 387.814C345.235 386.846 347.371 386.311 350.219 386.208L353.535 386.105V385.268C353.535 384.265 353.273 383.531 352.749 383.063C352.224 382.596 351.495 382.363 350.561 382.363C349.638 382.363 348.732 382.494 347.844 382.756C346.955 383.018 346.066 383.348 345.178 383.747L343.452 380.227C344.466 379.691 345.599 379.27 346.853 378.962C348.117 378.654 349.422 378.5 350.766 378.5ZM353.535 389.147L351.518 389.216C349.832 389.261 348.658 389.563 347.998 390.122C347.348 390.68 347.023 391.415 347.023 392.326C347.023 393.124 347.257 393.693 347.724 394.035C348.191 394.366 348.801 394.531 349.553 394.531C350.669 394.531 351.609 394.2 352.373 393.54C353.147 392.879 353.535 391.939 353.535 390.72V389.147ZM374.76 378.535C375.022 378.535 375.324 378.552 375.666 378.586C376.019 378.609 376.304 378.643 376.521 378.688L376.127 383.576C375.957 383.519 375.712 383.479 375.393 383.457C375.085 383.422 374.817 383.405 374.589 383.405C373.917 383.405 373.262 383.491 372.624 383.662C371.997 383.833 371.433 384.112 370.932 384.499C370.431 384.875 370.032 385.376 369.736 386.003C369.451 386.618 369.309 387.376 369.309 388.276V398H364.096V378.894H368.044L368.813 382.106H369.069C369.445 381.457 369.912 380.865 370.471 380.329C371.04 379.782 371.684 379.349 372.402 379.03C373.131 378.7 373.917 378.535 374.76 378.535ZM387.868 378.535C389.634 378.535 391.155 378.876 392.431 379.56C393.707 380.232 394.693 381.212 395.388 382.5C396.083 383.787 396.43 385.359 396.43 387.216V389.746H384.108C384.165 391.215 384.604 392.372 385.424 393.215C386.256 394.047 387.407 394.462 388.876 394.462C390.096 394.462 391.212 394.337 392.226 394.086C393.24 393.836 394.283 393.46 395.354 392.958V396.992C394.408 397.459 393.417 397.801 392.38 398.017C391.354 398.234 390.107 398.342 388.637 398.342C386.723 398.342 385.026 397.989 383.544 397.282C382.075 396.576 380.918 395.499 380.075 394.052C379.243 392.605 378.828 390.782 378.828 388.583C378.828 386.35 379.204 384.493 379.956 383.012C380.719 381.52 381.778 380.403 383.134 379.663C384.49 378.911 386.068 378.535 387.868 378.535ZM387.902 382.243C386.888 382.243 386.045 382.568 385.373 383.217C384.712 383.867 384.331 384.886 384.228 386.276H391.542C391.531 385.502 391.389 384.812 391.115 384.208C390.853 383.605 390.454 383.126 389.919 382.773C389.395 382.42 388.723 382.243 387.902 382.243ZM201.896 446L195.881 426.398H195.727C195.75 426.865 195.784 427.571 195.83 428.517C195.887 429.451 195.938 430.448 195.983 431.508C196.029 432.567 196.052 433.524 196.052 434.379V446H191.318V421.015H198.53L204.443 440.121H204.545L210.817 421.015H218.029V446H213.09V434.174C213.09 433.388 213.102 432.482 213.125 431.457C213.159 430.431 213.199 429.457 213.244 428.534C213.29 427.6 213.324 426.899 213.347 426.432H213.193L206.75 446H201.896ZM241.289 436.413C241.289 438.008 241.072 439.42 240.639 440.651C240.218 441.881 239.597 442.924 238.776 443.778C237.967 444.621 236.988 445.259 235.837 445.692C234.698 446.125 233.41 446.342 231.975 446.342C230.63 446.342 229.394 446.125 228.266 445.692C227.15 445.259 226.175 444.621 225.344 443.778C224.523 442.924 223.885 441.881 223.43 440.651C222.985 439.42 222.763 438.008 222.763 436.413C222.763 434.293 223.139 432.499 223.891 431.029C224.643 429.56 225.714 428.443 227.104 427.68C228.494 426.916 230.152 426.535 232.077 426.535C233.866 426.535 235.45 426.916 236.828 427.68C238.218 428.443 239.306 429.56 240.092 431.029C240.89 432.499 241.289 434.293 241.289 436.413ZM228.078 436.413C228.078 437.666 228.215 438.72 228.488 439.574C228.762 440.429 229.189 441.072 229.77 441.505C230.351 441.938 231.109 442.155 232.043 442.155C232.966 442.155 233.712 441.938 234.282 441.505C234.863 441.072 235.284 440.429 235.546 439.574C235.82 438.72 235.957 437.666 235.957 436.413C235.957 435.148 235.82 434.1 235.546 433.268C235.284 432.425 234.863 431.793 234.282 431.371C233.701 430.95 232.943 430.739 232.009 430.739C230.63 430.739 229.628 431.212 229.001 432.157C228.386 433.103 228.078 434.521 228.078 436.413ZM256.447 426.535C258.487 426.535 260.127 427.093 261.369 428.209C262.611 429.315 263.232 431.092 263.232 433.542V446H258.02V434.84C258.02 433.473 257.769 432.442 257.268 431.747C256.778 431.052 256.003 430.705 254.943 430.705C253.348 430.705 252.26 431.246 251.679 432.328C251.098 433.41 250.808 434.971 250.808 437.011V446H245.595V426.894H249.577L250.278 429.337H250.568C250.979 428.677 251.486 428.141 252.089 427.731C252.705 427.321 253.382 427.019 254.123 426.825C254.875 426.632 255.65 426.535 256.447 426.535ZM273.811 426.894V446H268.598V426.894H273.811ZM271.213 419.408C271.988 419.408 272.654 419.59 273.212 419.955C273.771 420.308 274.05 420.975 274.05 421.955C274.05 422.923 273.771 423.595 273.212 423.971C272.654 424.336 271.988 424.518 271.213 424.518C270.427 424.518 269.755 424.336 269.196 423.971C268.649 423.595 268.376 422.923 268.376 421.955C268.376 420.975 268.649 420.308 269.196 419.955C269.755 419.59 270.427 419.408 271.213 419.408ZM287.346 442.189C287.915 442.189 288.468 442.132 289.003 442.018C289.55 441.904 290.091 441.762 290.627 441.591V445.47C290.069 445.721 289.374 445.926 288.542 446.085C287.722 446.256 286.822 446.342 285.842 446.342C284.702 446.342 283.677 446.16 282.766 445.795C281.866 445.419 281.153 444.775 280.629 443.864C280.117 442.941 279.86 441.659 279.86 440.019V430.807H277.365V428.603L280.236 426.859L281.74 422.826H285.073V426.894H290.422V430.807H285.073V440.019C285.073 440.748 285.278 441.295 285.688 441.659C286.11 442.012 286.662 442.189 287.346 442.189ZM311.87 436.413C311.87 438.008 311.653 439.42 311.22 440.651C310.799 441.881 310.178 442.924 309.357 443.778C308.549 444.621 307.569 445.259 306.418 445.692C305.279 446.125 303.991 446.342 302.556 446.342C301.211 446.342 299.975 446.125 298.847 445.692C297.731 445.259 296.757 444.621 295.925 443.778C295.104 442.924 294.466 441.881 294.011 440.651C293.566 439.42 293.344 438.008 293.344 436.413C293.344 434.293 293.72 432.499 294.472 431.029C295.224 429.56 296.295 428.443 297.685 427.68C299.075 426.916 300.733 426.535 302.658 426.535C304.447 426.535 306.031 426.916 307.409 427.68C308.799 428.443 309.887 429.56 310.673 431.029C311.471 432.499 311.87 434.293 311.87 436.413ZM298.659 436.413C298.659 437.666 298.796 438.72 299.069 439.574C299.343 440.429 299.77 441.072 300.351 441.505C300.932 441.938 301.69 442.155 302.624 442.155C303.547 442.155 304.293 441.938 304.863 441.505C305.444 441.072 305.865 440.429 306.127 439.574C306.401 438.72 306.538 437.666 306.538 436.413C306.538 435.148 306.401 434.1 306.127 433.268C305.865 432.425 305.444 431.793 304.863 431.371C304.282 430.95 303.524 430.739 302.59 430.739C301.211 430.739 300.209 431.212 299.582 432.157C298.967 433.103 298.659 434.521 298.659 436.413ZM326.84 426.535C327.102 426.535 327.404 426.552 327.746 426.586C328.099 426.609 328.384 426.643 328.601 426.688L328.208 431.576C328.037 431.519 327.792 431.479 327.473 431.457C327.165 431.422 326.897 431.405 326.669 431.405C325.997 431.405 325.342 431.491 324.704 431.662C324.077 431.833 323.514 432.112 323.012 432.499C322.511 432.875 322.112 433.376 321.816 434.003C321.531 434.618 321.389 435.376 321.389 436.276V446H316.176V426.894H320.124L320.893 430.106H321.149C321.525 429.457 321.993 428.865 322.551 428.329C323.12 427.782 323.764 427.349 324.482 427.03C325.211 426.7 325.997 426.535 326.84 426.535ZM337.282 426.894V446H332.07V426.894H337.282ZM334.685 419.408C335.459 419.408 336.126 419.59 336.684 419.955C337.242 420.308 337.521 420.975 337.521 421.955C337.521 422.923 337.242 423.595 336.684 423.971C336.126 424.336 335.459 424.518 334.685 424.518C333.898 424.518 333.226 424.336 332.668 423.971C332.121 423.595 331.848 422.923 331.848 421.955C331.848 420.975 332.121 420.308 332.668 419.955C333.226 419.59 333.898 419.408 334.685 419.408ZM353.62 426.535C355.66 426.535 357.3 427.093 358.542 428.209C359.784 429.315 360.405 431.092 360.405 433.542V446H355.192V434.84C355.192 433.473 354.942 432.442 354.44 431.747C353.951 431.052 353.176 430.705 352.116 430.705C350.521 430.705 349.433 431.246 348.852 432.328C348.271 433.41 347.98 434.971 347.98 437.011V446H342.768V426.894H346.75L347.451 429.337H347.741C348.151 428.677 348.658 428.141 349.262 427.731C349.877 427.321 350.555 427.019 351.296 426.825C352.048 426.632 352.823 426.535 353.62 426.535ZM371.359 454.408C368.693 454.408 366.654 453.941 365.241 453.007C363.84 452.084 363.139 450.785 363.139 449.11C363.139 447.96 363.498 446.997 364.216 446.222C364.934 445.447 365.987 444.895 367.377 444.564C366.842 444.337 366.375 443.966 365.976 443.454C365.577 442.93 365.378 442.377 365.378 441.796C365.378 441.067 365.589 440.463 366.01 439.984C366.432 439.494 367.041 439.016 367.839 438.549C366.836 438.116 366.039 437.421 365.446 436.464C364.865 435.507 364.575 434.379 364.575 433.08C364.575 431.69 364.877 430.511 365.48 429.542C366.096 428.563 366.984 427.816 368.146 427.304C369.32 426.791 370.744 426.535 372.419 426.535C372.772 426.535 373.182 426.557 373.649 426.603C374.117 426.649 374.544 426.7 374.931 426.757C375.33 426.814 375.598 426.859 375.734 426.894H382.399V429.542L379.409 430.312C379.682 430.733 379.887 431.183 380.024 431.662C380.161 432.14 380.229 432.647 380.229 433.183C380.229 435.233 379.511 436.834 378.076 437.985C376.652 439.124 374.669 439.694 372.128 439.694C371.525 439.66 370.955 439.614 370.419 439.557C370.157 439.762 369.958 439.979 369.821 440.207C369.685 440.434 369.616 440.674 369.616 440.924C369.616 441.175 369.719 441.386 369.924 441.557C370.14 441.716 370.459 441.841 370.881 441.933C371.314 442.012 371.849 442.052 372.487 442.052H375.734C377.831 442.052 379.426 442.502 380.52 443.402C381.625 444.302 382.177 445.624 382.177 447.367C382.177 449.6 381.243 451.332 379.375 452.562C377.517 453.793 374.846 454.408 371.359 454.408ZM371.582 451.007C372.823 451.007 373.889 450.888 374.777 450.648C375.677 450.421 376.367 450.09 376.845 449.657C377.324 449.236 377.563 448.729 377.563 448.136C377.563 447.658 377.421 447.276 377.136 446.991C376.862 446.718 376.441 446.524 375.871 446.41C375.313 446.296 374.595 446.239 373.718 446.239H371.018C370.38 446.239 369.804 446.342 369.292 446.547C368.79 446.752 368.391 447.037 368.095 447.401C367.799 447.777 367.651 448.21 367.651 448.7C367.651 449.418 367.993 449.982 368.676 450.392C369.371 450.802 370.34 451.007 371.582 451.007ZM372.419 436.515C373.399 436.515 374.117 436.213 374.572 435.609C375.028 435.006 375.256 434.185 375.256 433.148C375.256 431.998 375.017 431.138 374.538 430.568C374.071 429.987 373.365 429.696 372.419 429.696C371.462 429.696 370.744 429.987 370.266 430.568C369.787 431.138 369.548 431.998 369.548 433.148C369.548 434.185 369.781 435.006 370.249 435.609C370.727 436.213 371.451 436.515 372.419 436.515Z"></path>
</svg>
