<svg xmlns="http://www.w3.org/2000/svg" fill="none" viewBox="0 0 600 615" height="615" width="600">
<path fill="#1672DF" d="M212.062 260.337C209.73 249.061 212.529 236.852 220.228 228.298C225.827 222.076 233.215 218.655 240.991 218.655C248.768 218.655 256.155 222.076 261.755 228.298L272.486 240.196C275.441 243.462 281.118 243.462 284.073 240.196L294.805 228.298C306.003 215.855 325.133 215.855 336.332 228.298C344.03 236.852 346.83 249.061 344.497 260.337H360.128C362.305 245.173 358.184 229.309 347.919 217.877C339.364 208.39 327.855 203.102 315.646 203.102C303.437 203.102 291.928 208.312 283.373 217.877L278.396 223.398L273.419 217.877C264.865 208.39 253.356 203.102 241.147 203.102C228.938 203.102 217.428 208.312 208.874 217.877C198.609 229.231 194.488 245.173 196.665 260.337H212.296H212.062Z"></path>
<path fill="#1672DF" d="M287.339 279.389L282.673 286.388L278.163 259.17C277.619 255.982 275.208 253.493 272.097 252.871C268.987 252.171 265.798 253.493 264.01 256.137L250.79 275.967H185V291.52H211.285C221.083 305.129 232.437 317.261 245.501 327.137L273.575 348.445C274.975 349.533 276.608 350 278.241 350C279.874 350 281.585 349.456 282.907 348.445L310.98 327.137C324.045 317.183 335.398 305.129 345.197 291.52H371.481V275.967H293.716C291.15 275.967 288.661 277.289 287.261 279.467L287.339 279.389ZM325.911 291.443C318.679 300.152 310.591 307.929 301.648 314.695L278.241 332.425L254.833 314.695C245.89 307.929 237.803 300.152 230.571 291.443H254.911C257.477 291.443 259.966 290.121 261.366 287.943L266.032 280.944L270.542 308.162C271.086 311.351 273.497 313.839 276.608 314.461C277.152 314.617 277.696 314.617 278.241 314.617C280.807 314.617 283.218 313.373 284.695 311.117L297.915 291.287H325.833L325.911 291.443Z"></path>
<path fill="#1672DF" d="M378.867 176C364.705 176 351.239 182.017 341.867 192.494L347.965 197.938C355.783 189.179 367.079 184.145 378.867 184.145C390.654 184.145 401.951 189.179 409.768 197.938L415.867 192.494C406.494 182.017 392.987 176 378.867 176Z"></path>
<path fill="#1672DF" d="M355.455 205.592L361.022 211.609C365.851 207.147 372.195 204.692 378.867 204.692C385.538 204.692 391.882 207.147 396.712 211.609L402.278 205.592C395.934 199.698 387.626 196.465 378.867 196.465C370.108 196.465 361.799 199.698 355.455 205.592Z"></path>
<path fill="#1672DF" d="M368.716 220.408L378.867 229.207L389.017 220.408C386.234 218.238 382.755 216.929 378.867 216.929C374.978 216.929 371.499 218.238 368.716 220.408Z"></path>
<path fill="#0E59B2" d="M182.46 382.122H177.026V392H171.882V366.81H184.238C186.004 366.844 187.36 367.06 188.305 367.459C189.262 367.858 190.071 368.444 190.732 369.219C191.279 369.857 191.712 370.564 192.031 371.338C192.35 372.113 192.509 372.996 192.509 373.987C192.509 375.184 192.207 376.363 191.604 377.525C191 378.676 190.003 379.49 188.613 379.969C189.775 380.436 190.595 381.102 191.074 381.968C191.564 382.823 191.809 384.133 191.809 385.899V387.591C191.809 388.742 191.854 389.522 191.945 389.932C192.082 390.582 192.401 391.06 192.902 391.368V392H187.109C186.949 391.442 186.835 390.992 186.767 390.65C186.63 389.944 186.556 389.22 186.545 388.479L186.511 386.138C186.488 384.532 186.192 383.461 185.622 382.925C185.064 382.39 184.01 382.122 182.46 382.122ZM185.656 377.542C186.704 377.063 187.229 376.118 187.229 374.705C187.229 373.178 186.722 372.153 185.708 371.629C185.138 371.333 184.283 371.185 183.144 371.185H177.026V377.952H182.99C184.175 377.952 185.064 377.815 185.656 377.542ZM212.607 386.531C212.482 387.636 211.906 388.759 210.881 389.898C209.286 391.709 207.053 392.615 204.182 392.615C201.812 392.615 199.721 391.852 197.91 390.325C196.098 388.799 195.192 386.315 195.192 382.874C195.192 379.65 196.007 377.177 197.636 375.457C199.277 373.737 201.402 372.876 204.011 372.876C205.56 372.876 206.956 373.167 208.198 373.748C209.44 374.329 210.465 375.246 211.274 376.5C212.003 377.605 212.476 378.886 212.692 380.345C212.818 381.199 212.869 382.43 212.846 384.036H200.097C200.166 385.905 200.752 387.215 201.857 387.967C202.53 388.434 203.339 388.667 204.284 388.667C205.287 388.667 206.101 388.383 206.728 387.813C207.07 387.505 207.372 387.078 207.634 386.531H212.607ZM207.788 380.823C207.708 379.536 207.315 378.562 206.608 377.901C205.913 377.229 205.048 376.893 204.011 376.893C202.883 376.893 202.006 377.246 201.379 377.952C200.764 378.659 200.376 379.616 200.217 380.823H207.788ZM226.604 378.499C226.193 377.599 225.39 377.149 224.194 377.149C222.804 377.149 221.87 377.599 221.391 378.499C221.129 379.012 220.998 379.775 220.998 380.789V392H216.059V373.406H220.793V376.124C221.397 375.155 221.966 374.466 222.502 374.056C223.448 373.326 224.672 372.962 226.176 372.962C227.6 372.962 228.751 373.275 229.628 373.902C230.335 374.483 230.87 375.229 231.235 376.141C231.873 375.047 232.665 374.244 233.61 373.731C234.613 373.218 235.729 372.962 236.96 372.962C237.78 372.962 238.589 373.121 239.387 373.44C240.184 373.759 240.908 374.318 241.557 375.115C242.081 375.765 242.434 376.562 242.617 377.508C242.731 378.134 242.788 379.052 242.788 380.259L242.753 392H237.763V380.14C237.763 379.433 237.649 378.852 237.421 378.396C236.988 377.531 236.191 377.098 235.029 377.098C233.684 377.098 232.756 377.656 232.243 378.772C231.981 379.365 231.85 380.077 231.85 380.909V392H226.945V380.909C226.945 379.804 226.831 379 226.604 378.499ZM262.817 375.73C264.389 377.701 265.175 380.031 265.175 382.72C265.175 385.455 264.389 387.796 262.817 389.744C261.245 391.681 258.858 392.649 255.656 392.649C252.455 392.649 250.068 391.681 248.496 389.744C246.923 387.796 246.137 385.455 246.137 382.72C246.137 380.031 246.923 377.701 248.496 375.73C250.068 373.759 252.455 372.774 255.656 372.774C258.858 372.774 261.245 373.759 262.817 375.73ZM255.639 376.893C254.215 376.893 253.116 377.4 252.341 378.414C251.577 379.416 251.196 380.852 251.196 382.72C251.196 384.589 251.577 386.03 252.341 387.044C253.116 388.058 254.215 388.565 255.639 388.565C257.063 388.565 258.157 388.058 258.92 387.044C259.684 386.03 260.065 384.589 260.065 382.72C260.065 380.852 259.684 379.416 258.92 378.414C258.157 377.4 257.063 376.893 255.639 376.893ZM277.207 388.531V392.171L274.899 392.256C272.598 392.336 271.026 391.937 270.183 391.06C269.636 390.502 269.362 389.642 269.362 388.479V377.012H266.765V373.543H269.362V368.348H274.182V373.543H277.207V377.012H274.182V386.856C274.182 387.619 274.278 388.098 274.472 388.292C274.666 388.474 275.258 388.565 276.25 388.565C276.398 388.565 276.551 388.565 276.711 388.565C276.882 388.554 277.047 388.542 277.207 388.531ZM296.279 386.531C296.153 387.636 295.578 388.759 294.553 389.898C292.958 391.709 290.725 392.615 287.854 392.615C285.484 392.615 283.393 391.852 281.582 390.325C279.77 388.799 278.864 386.315 278.864 382.874C278.864 379.65 279.679 377.177 281.308 375.457C282.949 373.737 285.074 372.876 287.683 372.876C289.232 372.876 290.628 373.167 291.87 373.748C293.111 374.329 294.137 375.246 294.946 376.5C295.675 377.605 296.148 378.886 296.364 380.345C296.49 381.199 296.541 382.43 296.518 384.036H283.769C283.837 385.905 284.424 387.215 285.529 387.967C286.201 388.434 287.01 388.667 287.956 388.667C288.959 388.667 289.773 388.383 290.4 387.813C290.742 387.505 291.044 387.078 291.306 386.531H296.279ZM291.459 380.823C291.38 379.536 290.987 378.562 290.28 377.901C289.585 377.229 288.719 376.893 287.683 376.893C286.555 376.893 285.677 377.246 285.051 377.952C284.436 378.659 284.048 379.616 283.889 380.823H291.459ZM327.724 390.12C325.844 391.84 323.44 392.701 320.512 392.701C316.889 392.701 314.041 391.539 311.967 389.214C309.894 386.879 308.857 383.677 308.857 379.61C308.857 375.212 310.036 371.823 312.395 369.441C314.445 367.368 317.054 366.331 320.222 366.331C324.46 366.331 327.559 367.721 329.519 370.501C330.601 372.062 331.182 373.628 331.262 375.201H325.998C325.656 373.993 325.218 373.082 324.682 372.466C323.725 371.373 322.307 370.826 320.427 370.826C318.513 370.826 317.003 371.6 315.898 373.15C314.793 374.688 314.24 376.87 314.24 379.695C314.24 382.521 314.821 384.64 315.983 386.053C317.157 387.454 318.644 388.155 320.444 388.155C322.29 388.155 323.697 387.551 324.665 386.343C325.201 385.694 325.645 384.72 325.998 383.421H331.21C330.755 386.167 329.593 388.4 327.724 390.12ZM334.953 366.81H339.824V392H334.953V366.81ZM349.599 373.372V392H344.66V373.372H349.599ZM349.599 366.656V371.15H344.66V366.656H349.599ZM363.1 376.978C361.448 376.978 360.314 377.679 359.699 379.08C359.38 379.821 359.221 380.766 359.221 381.917V392H354.367V373.406H359.067V376.124C359.694 375.167 360.286 374.477 360.844 374.056C361.847 373.304 363.117 372.928 364.655 372.928C366.581 372.928 368.153 373.435 369.372 374.449C370.603 375.451 371.218 377.12 371.218 379.456V392H366.228V380.669C366.228 379.69 366.097 378.938 365.834 378.414C365.356 377.457 364.444 376.978 363.1 376.978ZM380.737 373.372V392H375.798V373.372H380.737ZM380.737 366.656V371.15H375.798V366.656H380.737ZM401.586 380.054H396.596C396.505 379.359 396.271 378.733 395.896 378.174C395.349 377.422 394.5 377.046 393.349 377.046C391.708 377.046 390.586 377.861 389.982 379.49C389.663 380.356 389.504 381.507 389.504 382.942C389.504 384.31 389.663 385.409 389.982 386.241C390.563 387.79 391.657 388.565 393.264 388.565C394.403 388.565 395.212 388.257 395.69 387.642C396.169 387.027 396.459 386.229 396.562 385.25H401.535C401.421 386.731 400.886 388.132 399.929 389.454C398.402 391.584 396.14 392.649 393.144 392.649C390.148 392.649 387.943 391.761 386.53 389.983C385.118 388.206 384.411 385.899 384.411 383.062C384.411 379.861 385.192 377.371 386.752 375.594C388.313 373.816 390.467 372.928 393.212 372.928C395.548 372.928 397.456 373.452 398.938 374.5C400.43 375.548 401.313 377.4 401.586 380.054ZM405.654 375.389C406.941 373.748 409.152 372.928 412.285 372.928C414.324 372.928 416.136 373.332 417.719 374.141C419.303 374.95 420.095 376.477 420.095 378.721V387.266C420.095 387.859 420.106 388.576 420.129 389.419C420.163 390.057 420.26 390.49 420.419 390.718C420.579 390.946 420.818 391.134 421.137 391.282V392H415.839C415.691 391.624 415.589 391.271 415.532 390.94C415.475 390.61 415.429 390.234 415.395 389.812C414.723 390.542 413.948 391.163 413.071 391.675C412.023 392.279 410.838 392.581 409.516 392.581C407.83 392.581 406.434 392.103 405.329 391.146C404.235 390.177 403.688 388.81 403.688 387.044C403.688 384.754 404.571 383.096 406.337 382.071C407.306 381.513 408.73 381.114 410.61 380.875L412.268 380.669C413.168 380.556 413.811 380.413 414.199 380.242C414.894 379.946 415.241 379.485 415.241 378.858C415.241 378.095 414.973 377.57 414.438 377.286C413.914 376.989 413.139 376.841 412.114 376.841C410.963 376.841 410.148 377.126 409.67 377.696C409.328 378.117 409.1 378.687 408.986 379.405H404.287C404.389 377.776 404.845 376.437 405.654 375.389ZM409.277 388.479C409.733 388.855 410.291 389.043 410.952 389.043C412 389.043 412.963 388.736 413.84 388.121C414.729 387.505 415.19 386.383 415.224 384.754V382.942C414.917 383.136 414.603 383.296 414.284 383.421C413.977 383.535 413.549 383.643 413.002 383.746L411.909 383.951C410.883 384.133 410.148 384.355 409.704 384.617C408.952 385.062 408.576 385.751 408.576 386.685C408.576 387.517 408.81 388.115 409.277 388.479ZM424.538 366.81H429.409V392H424.538V366.81ZM217.529 432H212.624V406.81H220.28L224.86 426.617L229.406 406.81H236.977V432H232.072V414.961C232.072 414.472 232.078 413.788 232.089 412.911C232.101 412.022 232.106 411.338 232.106 410.86L227.338 432H222.229L217.495 410.86C217.495 411.338 217.5 412.022 217.512 412.911C217.523 413.788 217.529 414.472 217.529 414.961V432ZM257.006 415.73C258.579 417.701 259.365 420.031 259.365 422.72C259.365 425.455 258.579 427.796 257.006 429.744C255.434 431.681 253.047 432.649 249.846 432.649C246.644 432.649 244.257 431.681 242.685 429.744C241.113 427.796 240.327 425.455 240.327 422.72C240.327 420.031 241.113 417.701 242.685 415.73C244.257 413.759 246.644 412.774 249.846 412.774C253.047 412.774 255.434 413.759 257.006 415.73ZM249.829 416.893C248.404 416.893 247.305 417.4 246.53 418.414C245.767 419.416 245.385 420.852 245.385 422.72C245.385 424.589 245.767 426.03 246.53 427.044C247.305 428.058 248.404 428.565 249.829 428.565C251.253 428.565 252.347 428.058 253.11 427.044C253.873 426.03 254.255 424.589 254.255 422.72C254.255 420.852 253.873 419.416 253.11 418.414C252.347 417.4 251.253 416.893 249.829 416.893ZM271.635 416.978C269.983 416.978 268.85 417.679 268.234 419.08C267.915 419.821 267.756 420.766 267.756 421.917V432H262.902V413.406H267.602V416.124C268.229 415.167 268.821 414.477 269.379 414.056C270.382 413.304 271.652 412.928 273.19 412.928C275.116 412.928 276.688 413.435 277.907 414.449C279.138 415.451 279.753 417.12 279.753 419.456V432H274.763V420.669C274.763 419.69 274.632 418.938 274.37 418.414C273.891 417.457 272.98 416.978 271.635 416.978ZM289.272 413.372V432H284.333V413.372H289.272ZM289.272 406.656V411.15H284.333V406.656H289.272ZM302.534 428.531V432.171L300.227 432.256C297.925 432.336 296.353 431.937 295.51 431.06C294.963 430.502 294.689 429.642 294.689 428.479V417.012H292.092V413.543H294.689V408.348H299.509V413.543H302.534V417.012H299.509V426.856C299.509 427.619 299.606 428.098 299.799 428.292C299.993 428.474 300.585 428.565 301.577 428.565C301.725 428.565 301.879 428.565 302.038 428.565C302.209 428.554 302.374 428.542 302.534 428.531ZM321.196 415.73C322.768 417.701 323.554 420.031 323.554 422.72C323.554 425.455 322.768 427.796 321.196 429.744C319.624 431.681 317.237 432.649 314.035 432.649C310.834 432.649 308.447 431.681 306.875 429.744C305.302 427.796 304.516 425.455 304.516 422.72C304.516 420.031 305.302 417.701 306.875 415.73C308.447 413.759 310.834 412.774 314.035 412.774C317.237 412.774 319.624 413.759 321.196 415.73ZM314.018 416.893C312.594 416.893 311.494 417.4 310.72 418.414C309.956 419.416 309.575 420.852 309.575 422.72C309.575 424.589 309.956 426.03 310.72 427.044C311.494 428.058 312.594 428.565 314.018 428.565C315.442 428.565 316.536 428.058 317.299 427.044C318.063 426.03 318.444 424.589 318.444 422.72C318.444 420.852 318.063 419.416 317.299 418.414C316.536 417.4 315.442 416.893 314.018 416.893ZM336.423 417.867C334.463 417.867 333.147 418.505 332.475 419.781C332.099 420.499 331.911 421.604 331.911 423.096V432H327.006V413.372H331.655V416.619C332.407 415.377 333.062 414.528 333.62 414.073C334.532 413.309 335.716 412.928 337.175 412.928C337.266 412.928 337.34 412.933 337.397 412.945C337.465 412.945 337.608 412.951 337.824 412.962V417.952C337.517 417.918 337.243 417.895 337.004 417.884C336.765 417.872 336.571 417.867 336.423 417.867ZM345.703 413.372V432H340.764V413.372H345.703ZM345.703 406.656V411.15H340.764V406.656H345.703ZM359.204 416.978C357.552 416.978 356.418 417.679 355.803 419.08C355.484 419.821 355.324 420.766 355.324 421.917V432H350.471V413.406H355.17V416.124C355.797 415.167 356.389 414.477 356.948 414.056C357.95 413.304 359.221 412.928 360.759 412.928C362.684 412.928 364.257 413.435 365.476 414.449C366.706 415.451 367.321 417.12 367.321 419.456V432H362.331V420.669C362.331 419.69 362.2 418.938 361.938 418.414C361.459 417.457 360.548 416.978 359.204 416.978ZM377.097 435.264C377.621 435.708 378.504 435.931 379.746 435.931C381.5 435.931 382.674 435.344 383.266 434.17C383.653 433.418 383.847 432.154 383.847 430.376V429.18C383.38 429.978 382.879 430.576 382.343 430.975C381.375 431.715 380.116 432.085 378.566 432.085C376.174 432.085 374.26 431.248 372.824 429.573C371.4 427.887 370.688 425.608 370.688 422.737C370.688 419.969 371.377 417.645 372.756 415.765C374.134 413.873 376.088 412.928 378.618 412.928C379.552 412.928 380.367 413.07 381.062 413.355C382.246 413.845 383.203 414.745 383.933 416.055V413.372H388.667V431.043C388.667 433.447 388.262 435.258 387.453 436.478C386.063 438.574 383.397 439.622 379.455 439.622C377.074 439.622 375.131 439.155 373.627 438.221C372.124 437.286 371.292 435.891 371.132 434.034H376.43C376.567 434.603 376.789 435.014 377.097 435.264ZM376.276 425.643C376.937 427.215 378.122 428.001 379.831 428.001C380.97 428.001 381.933 427.574 382.719 426.719C383.505 425.853 383.898 424.48 383.898 422.601C383.898 420.835 383.522 419.49 382.771 418.567C382.03 417.645 381.033 417.183 379.78 417.183C378.071 417.183 376.892 417.986 376.242 419.593C375.9 420.447 375.729 421.501 375.729 422.754C375.729 423.837 375.912 424.799 376.276 425.643Z"></path>
</svg>