<svg xmlns="http://www.w3.org/2000/svg" fill="none" viewBox="0 0 600 615" height="615" width="600">
<path fill="#1672DF" d="M210.095 279.555C206.897 264.099 210.735 247.364 221.288 235.638C228.962 227.111 239.089 222.421 249.748 222.421C260.408 222.421 270.534 227.111 278.209 235.638L292.919 251.947C296.97 256.424 304.751 256.424 308.802 251.947L323.512 235.638C338.862 218.583 365.084 218.583 380.434 235.638C390.987 247.364 394.824 264.099 391.626 279.555H413.052C416.037 258.769 410.387 237.024 396.317 221.355C384.591 208.35 368.815 201.102 352.08 201.102C335.344 201.102 319.568 208.243 307.843 221.355L301.021 228.923L294.199 221.355C282.473 208.35 266.697 201.102 249.962 201.102C233.226 201.102 217.45 208.243 205.725 221.355C191.654 236.917 186.005 258.769 188.989 279.555H210.415H210.095Z"></path>
<path fill="#1672DF" d="M313.279 305.671L306.883 315.264L300.701 277.956C299.955 273.585 296.65 270.174 292.386 269.322C288.123 268.362 283.752 270.174 281.301 273.799L263.179 300.98H173V322.299H209.029C222.46 340.953 238.023 357.582 255.931 371.12L294.412 400.327C296.33 401.819 298.569 402.459 300.807 402.459C303.046 402.459 305.391 401.713 307.203 400.327L345.684 371.12C363.592 357.476 379.155 340.953 392.586 322.299H428.615V300.98H322.02C318.502 300.98 315.091 302.792 313.172 305.777L313.279 305.671ZM366.15 322.193C356.237 334.131 345.151 344.791 332.893 354.065L300.807 378.368L268.722 354.065C256.464 344.791 245.378 334.131 235.465 322.193H268.829C272.347 322.193 275.758 320.381 277.676 317.396L284.072 307.802L290.255 345.111C291.001 349.481 294.305 352.892 298.569 353.745C299.315 353.958 300.061 353.958 300.807 353.958C304.325 353.958 307.629 352.253 309.655 349.161L327.776 321.98H366.044L366.15 322.193Z"></path>
<path fill="#1672DF" d="M392 119C377.838 119 364.373 125.017 355 135.494L361.098 140.938C368.916 132.179 380.212 127.145 392 127.145C403.788 127.145 415.084 132.179 422.902 140.938L429 135.494C419.627 125.017 406.121 119 392 119Z"></path>
<path fill="#1672DF" d="M368.589 148.592L374.155 154.609C378.985 150.147 385.329 147.692 392 147.692C398.672 147.692 405.016 150.147 409.845 154.609L415.412 148.592C409.068 142.698 400.759 139.465 392 139.465C383.241 139.465 374.933 142.698 368.589 148.592Z"></path>
<path fill="#1672DF" d="M381.85 163.408L392 172.207L402.15 163.408C399.367 161.238 395.888 159.929 392 159.929C388.112 159.929 384.633 161.238 381.85 163.408Z"></path>
<path fill="#1672DF" d="M201.215 151.397H189.88V172H179.151V119.46H204.922C208.606 119.531 211.433 119.983 213.406 120.814C215.402 121.646 217.089 122.87 218.467 124.486C219.608 125.817 220.511 127.29 221.176 128.906C221.842 130.522 222.174 132.363 222.174 134.431C222.174 136.926 221.545 139.385 220.285 141.809C219.026 144.209 216.946 145.908 214.047 146.906C216.471 147.881 218.182 149.271 219.18 151.077C220.202 152.859 220.713 155.592 220.713 159.275V162.804C220.713 165.204 220.808 166.832 220.998 167.687C221.283 169.042 221.949 170.04 222.994 170.681V172H210.911C210.578 170.836 210.34 169.897 210.198 169.184C209.913 167.711 209.758 166.202 209.734 164.657L209.663 159.774C209.616 156.423 208.998 154.19 207.81 153.073C206.645 151.956 204.447 151.397 201.215 151.397ZM207.881 141.845C210.067 140.847 211.16 138.874 211.16 135.928C211.16 132.743 210.103 130.605 207.988 129.512C206.8 128.894 205.017 128.585 202.641 128.585H189.88V142.7H202.32C204.792 142.7 206.645 142.415 207.881 141.845ZM268.726 168.079C264.805 171.667 259.791 173.461 253.684 173.461C246.127 173.461 240.187 171.038 235.862 166.19C231.537 161.319 229.375 154.641 229.375 146.158C229.375 136.985 231.834 129.916 236.753 124.949C241.03 120.624 246.472 118.462 253.078 118.462C261.918 118.462 268.382 121.361 272.469 127.159C274.726 130.415 275.938 133.682 276.104 136.961H265.126C264.413 134.443 263.498 132.542 262.381 131.258C260.385 128.977 257.427 127.836 253.506 127.836C249.514 127.836 246.365 129.452 244.06 132.684C241.755 135.892 240.603 140.443 240.603 146.336C240.603 152.229 241.814 156.649 244.238 159.596C246.686 162.519 249.787 163.98 253.542 163.98C257.391 163.98 260.326 162.721 262.346 160.202C263.463 158.847 264.389 156.815 265.126 154.106H275.998C275.047 159.833 272.623 164.491 268.726 168.079ZM294.461 172H284.231V119.46H300.2L309.753 160.772L319.234 119.46H335.025V172H324.795V136.462C324.795 135.441 324.807 134.015 324.831 132.185C324.854 130.332 324.866 128.906 324.866 127.908L314.921 172H304.264L294.39 127.908C294.39 128.906 294.402 130.332 294.426 132.185C294.45 134.015 294.461 135.441 294.461 136.462V172Z"></path>
<path fill="#686868" d="M192.185 449.396C193.78 449.396 195.039 449.077 195.961 448.439C196.896 447.801 197.363 446.651 197.363 444.987C197.363 443.199 196.713 441.979 195.415 441.33C194.72 440.988 193.791 440.817 192.629 440.817H184.323V449.396H192.185ZM180.922 437.895H192.543C194.458 437.895 196.035 438.174 197.277 438.732C199.636 439.803 200.815 441.78 200.815 444.663C200.815 446.167 200.502 447.397 199.875 448.354C199.26 449.311 198.394 450.08 197.277 450.661C198.257 451.06 198.992 451.584 199.482 452.233C199.983 452.883 200.262 453.937 200.319 455.395L200.439 458.762C200.473 459.719 200.553 460.431 200.678 460.898C200.883 461.695 201.248 462.208 201.772 462.436V463H197.602C197.488 462.784 197.397 462.504 197.329 462.163C197.26 461.821 197.203 461.16 197.158 460.18L196.953 455.993C196.873 454.353 196.263 453.253 195.124 452.695C194.475 452.387 193.455 452.233 192.065 452.233H184.323V463H180.922V437.895ZM213.017 444.287C214.316 444.287 215.575 444.594 216.794 445.209C218.013 445.813 218.942 446.599 219.58 447.568C220.195 448.491 220.605 449.567 220.81 450.798C220.992 451.641 221.083 452.985 221.083 454.831H207.668C207.725 456.688 208.164 458.181 208.984 459.309C209.804 460.425 211.075 460.983 212.795 460.983C214.401 460.983 215.683 460.454 216.64 459.394C217.187 458.779 217.574 458.067 217.802 457.258H220.827C220.747 457.93 220.48 458.682 220.024 459.514C219.58 460.334 219.078 461.006 218.52 461.53C217.586 462.442 216.429 463.057 215.051 463.376C214.31 463.558 213.473 463.649 212.539 463.649C210.26 463.649 208.329 462.823 206.745 461.171C205.161 459.508 204.37 457.184 204.37 454.199C204.37 451.259 205.167 448.872 206.762 447.038C208.357 445.204 210.442 444.287 213.017 444.287ZM217.922 452.387C217.797 451.054 217.506 449.989 217.05 449.191C216.207 447.71 214.8 446.97 212.829 446.97C211.416 446.97 210.231 447.482 209.274 448.508C208.317 449.522 207.81 450.815 207.753 452.387H217.922ZM224.877 444.697H227.919V447.294C228.649 446.394 229.309 445.739 229.902 445.329C230.916 444.634 232.067 444.287 233.354 444.287C234.812 444.287 235.986 444.646 236.875 445.363C237.376 445.773 237.832 446.377 238.242 447.175C238.925 446.195 239.729 445.472 240.651 445.004C241.574 444.526 242.611 444.287 243.762 444.287C246.223 444.287 247.897 445.175 248.786 446.953C249.265 447.91 249.504 449.197 249.504 450.815V463H246.308V450.285C246.308 449.066 246 448.229 245.385 447.773C244.781 447.317 244.041 447.089 243.164 447.089C241.956 447.089 240.913 447.494 240.036 448.303C239.17 449.112 238.737 450.462 238.737 452.353V463H235.61V451.054C235.61 449.812 235.462 448.907 235.166 448.337C234.698 447.482 233.827 447.055 232.551 447.055C231.389 447.055 230.329 447.505 229.372 448.405C228.426 449.305 227.954 450.935 227.954 453.293V463H224.877V444.697ZM261.296 461.018C263.335 461.018 264.731 460.249 265.483 458.71C266.246 457.161 266.628 455.441 266.628 453.549C266.628 451.84 266.354 450.45 265.808 449.379C264.942 447.693 263.449 446.85 261.33 446.85C259.45 446.85 258.083 447.568 257.229 449.003C256.374 450.439 255.947 452.171 255.947 454.199C255.947 456.147 256.374 457.771 257.229 459.069C258.083 460.368 259.439 461.018 261.296 461.018ZM261.416 444.167C263.774 444.167 265.768 444.953 267.397 446.525C269.026 448.098 269.841 450.41 269.841 453.464C269.841 456.415 269.123 458.853 267.688 460.778C266.252 462.704 264.025 463.667 261.005 463.667C258.487 463.667 256.488 462.818 255.007 461.12C253.526 459.411 252.785 457.121 252.785 454.25C252.785 451.174 253.566 448.724 255.126 446.901C256.687 445.078 258.784 444.167 261.416 444.167ZM274.13 439.587H277.241V444.697H280.163V447.209H277.241V459.155C277.241 459.793 277.457 460.22 277.89 460.437C278.129 460.562 278.528 460.625 279.086 460.625C279.235 460.625 279.394 460.625 279.565 460.625C279.736 460.613 279.935 460.596 280.163 460.573V463C279.81 463.103 279.44 463.177 279.052 463.222C278.676 463.268 278.266 463.291 277.822 463.291C276.386 463.291 275.412 462.926 274.899 462.197C274.387 461.456 274.13 460.499 274.13 459.326V447.209H271.652V444.697H274.13V439.587ZM290.878 444.287C292.177 444.287 293.436 444.594 294.655 445.209C295.874 445.813 296.803 446.599 297.441 447.568C298.056 448.491 298.466 449.567 298.671 450.798C298.854 451.641 298.945 452.985 298.945 454.831H285.529C285.586 456.688 286.025 458.181 286.845 459.309C287.666 460.425 288.936 460.983 290.656 460.983C292.263 460.983 293.544 460.454 294.501 459.394C295.048 458.779 295.436 458.067 295.664 457.258H298.688C298.609 457.93 298.341 458.682 297.885 459.514C297.441 460.334 296.94 461.006 296.381 461.53C295.447 462.442 294.291 463.057 292.912 463.376C292.172 463.558 291.334 463.649 290.4 463.649C288.121 463.649 286.19 462.823 284.606 461.171C283.023 459.508 282.231 457.184 282.231 454.199C282.231 451.259 283.028 448.872 284.624 447.038C286.219 445.204 288.304 444.287 290.878 444.287ZM295.783 452.387C295.658 451.054 295.367 449.989 294.912 449.191C294.069 447.71 292.661 446.97 290.69 446.97C289.278 446.97 288.093 447.482 287.136 448.508C286.179 449.522 285.672 450.815 285.615 452.387H295.783ZM323.469 437.211C326.647 437.211 329.114 438.049 330.869 439.724C332.623 441.398 333.597 443.301 333.791 445.432H330.476C330.1 443.814 329.348 442.532 328.22 441.586C327.103 440.641 325.531 440.168 323.503 440.168C321.031 440.168 319.031 441.04 317.504 442.783C315.989 444.514 315.231 447.175 315.231 450.764C315.231 453.703 315.915 456.09 317.282 457.924C318.661 459.747 320.712 460.659 323.435 460.659C325.941 460.659 327.849 459.696 329.16 457.771C329.855 456.757 330.373 455.424 330.715 453.771H334.03C333.734 456.415 332.754 458.631 331.091 460.419C329.097 462.573 326.408 463.649 323.024 463.649C320.108 463.649 317.658 462.766 315.676 461C313.067 458.665 311.762 455.059 311.762 450.183C311.762 446.48 312.742 443.444 314.702 441.074C316.821 438.499 319.743 437.211 323.469 437.211ZM337.858 437.895H340.935V463H337.858V437.895ZM345.566 444.782H348.693V463H345.566V444.782ZM345.566 437.895H348.693V441.381H345.566V437.895ZM353.359 444.697H356.281V447.294C357.147 446.223 358.064 445.454 359.033 444.987C360.001 444.52 361.078 444.287 362.263 444.287C364.86 444.287 366.615 445.192 367.526 447.004C368.028 447.995 368.278 449.414 368.278 451.259V463H365.151V451.464C365.151 450.348 364.986 449.448 364.655 448.764C364.108 447.625 363.117 447.055 361.682 447.055C360.952 447.055 360.354 447.129 359.887 447.277C359.044 447.528 358.304 448.029 357.666 448.781C357.153 449.385 356.817 450.012 356.657 450.661C356.509 451.299 356.435 452.216 356.435 453.413V463H353.359V444.697ZM372.841 444.782H375.969V463H372.841V444.782ZM372.841 437.895H375.969V441.381H372.841V437.895ZM387.692 444.167C389.755 444.167 391.429 444.668 392.717 445.671C394.016 446.674 394.796 448.4 395.058 450.849H392.067C391.885 449.721 391.469 448.787 390.82 448.046C390.17 447.294 389.128 446.918 387.692 446.918C385.733 446.918 384.331 447.875 383.488 449.79C382.941 451.031 382.668 452.564 382.668 454.387C382.668 456.221 383.055 457.765 383.83 459.018C384.605 460.271 385.824 460.898 387.487 460.898C388.763 460.898 389.772 460.511 390.512 459.736C391.264 458.95 391.783 457.879 392.067 456.523H395.058C394.716 458.95 393.862 460.727 392.495 461.855C391.127 462.972 389.379 463.53 387.248 463.53C384.855 463.53 382.947 462.658 381.523 460.915C380.099 459.16 379.387 456.973 379.387 454.353C379.387 451.14 380.167 448.639 381.728 446.85C383.289 445.061 385.277 444.167 387.692 444.167ZM400.493 458.129C400.493 459.018 400.817 459.719 401.467 460.231C402.116 460.744 402.885 461 403.774 461C404.856 461 405.904 460.75 406.918 460.249C408.627 459.417 409.482 458.055 409.482 456.164V453.686C409.106 453.925 408.622 454.125 408.029 454.284C407.437 454.444 406.856 454.558 406.286 454.626L404.423 454.865C403.307 455.013 402.469 455.247 401.911 455.566C400.965 456.101 400.493 456.956 400.493 458.129ZM407.944 451.909C408.65 451.818 409.123 451.521 409.362 451.02C409.499 450.747 409.567 450.354 409.567 449.841C409.567 448.793 409.191 448.035 408.439 447.568C407.699 447.089 406.634 446.85 405.244 446.85C403.637 446.85 402.498 447.283 401.826 448.149C401.45 448.627 401.205 449.34 401.091 450.285H398.22C398.277 448.029 399.006 446.463 400.407 445.585C401.82 444.697 403.455 444.252 405.312 444.252C407.465 444.252 409.214 444.663 410.559 445.483C411.892 446.303 412.558 447.579 412.558 449.311V459.855C412.558 460.174 412.621 460.431 412.746 460.625C412.883 460.818 413.162 460.915 413.583 460.915C413.72 460.915 413.874 460.909 414.045 460.898C414.216 460.875 414.398 460.847 414.592 460.812V463.085C414.113 463.222 413.749 463.308 413.498 463.342C413.247 463.376 412.906 463.393 412.473 463.393C411.413 463.393 410.644 463.017 410.166 462.265C409.915 461.866 409.738 461.302 409.636 460.573C409.009 461.394 408.109 462.106 406.936 462.709C405.762 463.313 404.469 463.615 403.056 463.615C401.359 463.615 399.969 463.103 398.886 462.077C397.815 461.04 397.28 459.747 397.28 458.198C397.28 456.5 397.81 455.184 398.869 454.25C399.929 453.316 401.319 452.74 403.039 452.524L407.944 451.909ZM417.702 437.895H420.778V463H417.702V437.895ZM221.306 477.895H226.176L233.388 499.121L240.549 477.895H245.368V503H242.138V488.183C242.138 487.67 242.15 486.822 242.172 485.637C242.195 484.452 242.207 483.181 242.207 481.826L235.046 503H231.679L224.467 481.826V482.595C224.467 483.21 224.479 484.15 224.501 485.415C224.536 486.668 224.553 487.591 224.553 488.183V503H221.306V477.895ZM257.399 501.018C259.439 501.018 260.834 500.249 261.586 498.71C262.35 497.161 262.731 495.441 262.731 493.549C262.731 491.84 262.458 490.45 261.911 489.379C261.045 487.693 259.553 486.85 257.434 486.85C255.554 486.85 254.187 487.568 253.332 489.003C252.478 490.439 252.05 492.171 252.05 494.199C252.05 496.147 252.478 497.771 253.332 499.069C254.187 500.368 255.542 501.018 257.399 501.018ZM257.519 484.167C259.877 484.167 261.871 484.953 263.5 486.525C265.13 488.098 265.944 490.41 265.944 493.464C265.944 496.415 265.227 498.853 263.791 500.778C262.355 502.704 260.128 503.667 257.109 503.667C254.591 503.667 252.591 502.818 251.11 501.12C249.629 499.411 248.889 497.121 248.889 494.25C248.889 491.174 249.669 488.724 251.23 486.901C252.791 485.078 254.887 484.167 257.519 484.167ZM269.619 484.697H272.541V487.294C273.407 486.223 274.324 485.454 275.292 484.987C276.261 484.52 277.338 484.287 278.522 484.287C281.12 484.287 282.875 485.192 283.786 487.004C284.287 487.995 284.538 489.414 284.538 491.259V503H281.411V491.464C281.411 490.348 281.245 489.448 280.915 488.764C280.368 487.625 279.377 487.055 277.941 487.055C277.212 487.055 276.614 487.129 276.147 487.277C275.304 487.528 274.563 488.029 273.925 488.781C273.413 489.385 273.076 490.012 272.917 490.661C272.769 491.299 272.695 492.216 272.695 493.413V503H269.619V484.697ZM289.101 484.782H292.229V503H289.101V484.782ZM289.101 477.895H292.229V481.381H289.101V477.895ZM297.509 479.587H300.62V484.697H303.542V487.209H300.62V499.155C300.62 499.793 300.836 500.22 301.269 500.437C301.508 500.562 301.907 500.625 302.465 500.625C302.613 500.625 302.773 500.625 302.944 500.625C303.115 500.613 303.314 500.596 303.542 500.573V503C303.189 503.103 302.819 503.177 302.431 503.222C302.055 503.268 301.645 503.291 301.201 503.291C299.765 503.291 298.791 502.926 298.278 502.197C297.766 501.456 297.509 500.499 297.509 499.326V487.209H295.031V484.697H297.509V479.587ZM313.898 501.018C315.938 501.018 317.333 500.249 318.085 498.71C318.849 497.161 319.23 495.441 319.23 493.549C319.23 491.84 318.957 490.45 318.41 489.379C317.544 487.693 316.052 486.85 313.933 486.85C312.053 486.85 310.686 487.568 309.831 489.003C308.977 490.439 308.549 492.171 308.549 494.199C308.549 496.147 308.977 497.771 309.831 499.069C310.686 500.368 312.041 501.018 313.898 501.018ZM314.018 484.167C316.376 484.167 318.37 484.953 320 486.525C321.629 488.098 322.443 490.41 322.443 493.464C322.443 496.415 321.726 498.853 320.29 500.778C318.854 502.704 316.627 503.667 313.608 503.667C311.09 503.667 309.09 502.818 307.609 501.12C306.128 499.411 305.388 497.121 305.388 494.25C305.388 491.174 306.168 488.724 307.729 486.901C309.29 485.078 311.386 484.167 314.018 484.167ZM326.203 484.697H329.125V487.858C329.365 487.243 329.951 486.497 330.886 485.62C331.82 484.731 332.897 484.287 334.116 484.287C334.173 484.287 334.27 484.292 334.406 484.304C334.543 484.315 334.777 484.338 335.107 484.372V487.619C334.925 487.585 334.754 487.562 334.594 487.551C334.446 487.539 334.281 487.534 334.099 487.534C332.549 487.534 331.359 488.035 330.527 489.038C329.695 490.029 329.279 491.174 329.279 492.473V503H326.203V484.697ZM337.773 484.782H340.9V503H337.773V484.782ZM337.773 477.895H340.9V481.381H337.773V477.895ZM345.566 484.697H348.488V487.294C349.354 486.223 350.271 485.454 351.24 484.987C352.208 484.52 353.285 484.287 354.47 484.287C357.067 484.287 358.822 485.192 359.733 487.004C360.235 487.995 360.485 489.414 360.485 491.259V503H357.358V491.464C357.358 490.348 357.193 489.448 356.862 488.764C356.315 487.625 355.324 487.055 353.889 487.055C353.16 487.055 352.561 487.129 352.094 487.277C351.251 487.528 350.511 488.029 349.873 488.781C349.36 489.385 349.024 490.012 348.864 490.661C348.716 491.299 348.642 492.216 348.642 493.413V503H345.566V484.697ZM371.508 484.372C372.944 484.372 374.197 484.725 375.268 485.432C375.849 485.83 376.442 486.411 377.045 487.175V484.868H379.882V501.513C379.882 503.837 379.541 505.672 378.857 507.016C377.581 509.5 375.171 510.742 371.628 510.742C369.657 510.742 367.999 510.297 366.655 509.409C365.31 508.531 364.558 507.153 364.399 505.273H367.526C367.674 506.093 367.971 506.726 368.415 507.17C369.11 507.854 370.204 508.195 371.696 508.195C374.055 508.195 375.598 507.364 376.328 505.7C376.761 504.72 376.96 502.972 376.926 500.454C376.311 501.388 375.57 502.083 374.704 502.539C373.838 502.994 372.693 503.222 371.269 503.222C369.287 503.222 367.549 502.521 366.057 501.12C364.576 499.707 363.835 497.377 363.835 494.13C363.835 491.066 364.581 488.673 366.074 486.953C367.578 485.232 369.389 484.372 371.508 484.372ZM377.045 493.771C377.045 491.504 376.578 489.824 375.644 488.73C374.71 487.636 373.519 487.089 372.072 487.089C369.908 487.089 368.426 488.103 367.629 490.131C367.207 491.214 366.997 492.632 366.997 494.387C366.997 496.449 367.412 498.021 368.244 499.104C369.087 500.174 370.215 500.71 371.628 500.71C373.838 500.71 375.393 499.713 376.293 497.719C376.795 496.591 377.045 495.275 377.045 493.771Z"></path>
</svg>
