<svg xmlns="http://www.w3.org/2000/svg" fill="none" viewBox="0 0 3760 1955" height="1955" width="3760">
<g clip-path="url(#clip0_625_3051)">
<path fill="#676868" d="M407.403 1579.6H94.5429V1692.49H380.677C422.436 1692.49 450.944 1699.61 466.2 1713.86C481.456 1728.11 489.084 1755.28 489.084 1795.35V1847.46C489.084 1887.65 481.623 1914.81 466.701 1928.95C451.779 1943.09 423.104 1950.21 380.677 1950.32H109.409C66.8704 1950.32 38.0287 1943.2 22.8841 1928.95C7.73937 1914.7 0.111358 1887.53 0 1847.46V1820.24H77.004V1885.03H413.583V1762.62H126.28C84.1866 1762.62 55.5676 1755.5 40.4229 1741.25C25.2782 1727 17.8173 1699.72 18.04 1659.42V1618.17C18.04 1578.43 25.5566 1551.26 40.59 1536.68C55.6233 1522.1 84.2423 1514.8 126.447 1514.8H374.497C415.922 1514.8 444.541 1521.82 460.354 1535.84C476.166 1549.87 484.184 1574.64 484.407 1610.16V1636.54H407.403V1579.6Z"></path>
<path fill="#676868" d="M751.666 1595.63C751.666 1601.97 751.666 1610.66 752.669 1621.68C752.669 1639.72 753.671 1651.24 753.671 1656.41V1950.32H684.852V1514.97H754.172L975.496 1797.19L1179.45 1514.97H1257.45V1950.32H1179.45V1656.41C1179.45 1645.73 1179.45 1635.37 1180.78 1625.35C1182.12 1615.33 1182.96 1605.65 1184.63 1596.3C1180.19 1608.66 1175.06 1620.76 1169.26 1632.53C1165.4 1641.02 1160.58 1649.03 1154.89 1656.41L983.68 1881.52H961.632L783.904 1658.42C777.507 1649.94 771.915 1640.88 767.201 1631.37C761.05 1619.9 755.854 1607.95 751.666 1595.63Z"></path>
<path fill="#676868" d="M2251.32 1955V1519.65H2609.78C2635.29 1517.32 2660.78 1524.38 2681.44 1539.52C2689.41 1548.12 2695.48 1558.31 2699.25 1569.42C2703.02 1580.52 2704.41 1592.3 2703.32 1603.98V1701.17C2704.41 1712.72 2703.01 1724.37 2699.24 1735.34C2695.47 1746.31 2689.4 1756.35 2681.44 1764.79C2660.69 1779.73 2635.24 1786.67 2609.78 1784.33H2550.65L2747.42 1954.83H2634.84L2457.11 1784.33H2335.34V1954.83H2251.82L2251.32 1955ZM2572.37 1583.44H2335.51V1723.88H2572.37C2585.72 1725.38 2599.19 1722.19 2610.45 1714.86C2618.17 1704.9 2621.65 1692.3 2620.14 1679.79V1627.52C2621.16 1615.47 2617.44 1603.49 2609.78 1594.13C2599 1586.24 2585.65 1582.67 2572.37 1584.11"></path>
<path fill="#676868" d="M3131.77 1584.44V1955H3048.09V1584.44H2837.46V1519.65H3343.41V1584.44H3131.77Z"></path>
<path fill="#64AED0" d="M2095.64 1954H1935.79L1748.54 1643.56L1555.78 1954H1400.1L1748.21 1383.21L2095.64 1954Z"></path>
<path fill="#722772" d="M1401.61 0H1560.46L1746.54 308.438L1938.13 0H2092.64L1746.87 567.112L1401.61 0Z"></path>
<path fill="#E24A31" d="M1012.41 596.503L1091.92 470.255H1465.92L1280.67 158.477L1358.01 31.2279L1701.94 596.503H1012.41Z"></path>
<path fill="#89BF44" d="M2484.17 647.603L2404.83 773.684H2030.67L2215.91 1088.13L2138.57 1215.38L1794.64 647.603H2484.17Z"></path>
<path fill="#E77D26" d="M2138.07 28.89L2217.58 159.479L2029.5 470.255H2406.33L2483.67 596.503H1793.98L2138.07 28.89Z"></path>
<path fill="#F1B42A" d="M1357.68 1215.22L1278.33 1084.46L1466.25 773.684H1089.58L1012.24 647.603H1701.94L1357.68 1215.22Z"></path>
<path fill="#676868" d="M3450.48 1498.44C3458.8 1480.24 3470.67 1463.89 3485.39 1450.34C3500.41 1436.61 3517.85 1425.79 3536.84 1418.45C3576.88 1402.99 3621.24 1402.99 3661.28 1418.45C3680.11 1425.81 3697.39 1436.62 3712.23 1450.34C3726.84 1463.95 3738.64 1480.29 3746.97 1498.44C3755.63 1517.23 3760.02 1537.7 3759.83 1558.39C3760.04 1579.35 3755.65 1600.1 3746.97 1619.17C3738.64 1637.42 3726.84 1653.86 3712.23 1667.6C3697.46 1681.42 3680.16 1692.25 3661.28 1699.5C3621.2 1714.72 3576.92 1714.72 3536.84 1699.5C3517.8 1692.27 3500.33 1681.44 3485.39 1667.6C3470.68 1653.91 3458.82 1637.46 3450.48 1619.17C3441.8 1600.1 3437.41 1579.35 3437.62 1558.39C3437.43 1537.7 3441.82 1517.23 3450.48 1498.44ZM3476.87 1610.32C3483.31 1625.85 3492.8 1639.93 3504.77 1651.74C3516.81 1663.57 3531.06 1672.93 3546.69 1679.29C3563.34 1686.07 3581.17 1689.47 3599.14 1689.31C3616.95 1689.47 3634.62 1686.06 3651.09 1679.29C3666.66 1672.89 3680.84 1663.53 3692.85 1651.74C3704.81 1639.93 3714.3 1625.85 3720.75 1610.32C3727.55 1593.87 3730.96 1576.2 3730.77 1558.39C3730.82 1541.19 3727.41 1524.15 3720.75 1508.29C3714.27 1492.93 3704.79 1479.02 3692.85 1467.38C3680.78 1455.74 3666.61 1446.5 3651.09 1440.16C3634.62 1433.39 3616.95 1429.98 3599.14 1430.14C3581.17 1430 3563.35 1433.41 3546.69 1440.16C3531.11 1446.47 3516.87 1455.71 3504.77 1467.38C3492.83 1479.01 3483.34 1492.93 3476.87 1508.29C3470.21 1524.15 3466.8 1541.19 3466.85 1558.39C3466.65 1576.2 3470.06 1593.87 3476.87 1610.32ZM3609.17 1470.05C3626.81 1468.61 3644.44 1473.07 3659.28 1482.74C3664.89 1487.33 3669.34 1493.2 3672.24 1499.85C3675.15 1506.5 3676.43 1513.74 3675.98 1520.98C3676.53 1527.56 3675.53 1534.17 3673.07 1540.29C3670.6 1546.4 3666.74 1551.86 3661.78 1556.22C3651.11 1564.43 3638.16 1569.16 3624.7 1569.74L3678.32 1648.4H3647.08L3596.14 1571.92H3565.23V1648.4H3536V1469.55H3608.5L3609.17 1470.05ZM3596.3 1549.04C3602.82 1549.04 3609 1549.04 3615.01 1549.04C3620.4 1548.72 3625.7 1547.54 3630.71 1545.53C3635.11 1543.6 3638.83 1540.4 3641.4 1536.35C3644.41 1531.32 3645.81 1525.49 3645.41 1519.65C3645.65 1514.65 3644.37 1509.7 3641.74 1505.45C3639.38 1501.96 3636.16 1499.14 3632.38 1497.27C3628.22 1495.29 3623.76 1494 3619.19 1493.43C3614.26 1492.75 3609.29 1492.41 3604.32 1492.43H3565.74V1549.04H3596.14H3596.3Z"></path>
</g>
<defs>
<clipPath id="clip0_625_3051">
<rect fill="white" height="1955" width="3760"></rect>
</clipPath>
</defs>
</svg>
