<svg xmlns="http://www.w3.org/2000/svg" fill="none" viewBox="0 0 600 615" height="615" width="600">
<mask height="200" width="333" y="209" x="135" maskUnits="userSpaceOnUse" style="mask-type:luminance" id="mask0_347_7238">
<path fill="white" d="M135.026 209.71H467.591V408.04H135.026V209.71Z"></path>
</mask>
<g mask="url(#mask0_347_7238)">
<mask height="200" width="333" y="209" x="135" maskUnits="userSpaceOnUse" style="mask-type:luminance" id="mask1_347_7238">
<path fill="white" d="M135.026 209.71H467.591V408.04H135.026V209.71Z"></path>
</mask>
<g mask="url(#mask1_347_7238)">
<path fill="#E30514" d="M288.496 315.443H321.844V321.47H295.428V346.45H320.639V352.473H295.428V385.487H288.496V315.443ZM334.198 315.443H341.129V346.45H376.588V315.443H383.517V385.487H376.588V352.473H341.129V385.487H334.2L334.198 315.443ZM400.095 315.445H407.024V385.487H400.095V315.445Z"></path>
<mask height="71" width="45" y="315" x="423" maskUnits="userSpaceOnUse" style="mask-type:luminance" id="mask2_347_7238">
<path fill="white" d="M423.497 315.445H467.593V385.489H423.497V315.445Z"></path>
</mask>
<g mask="url(#mask2_347_7238)">
<mask height="71" width="45" y="315" x="423" maskUnits="userSpaceOnUse" style="mask-type:luminance" id="mask3_347_7238">
<path fill="white" d="M423.497 315.445H467.593V385.489H423.497V315.445Z"></path>
</mask>
<g mask="url(#mask3_347_7238)">
<path fill="#E30514" d="M430.43 346.452H437.763C445.899 346.452 455.24 343.341 455.24 333.608C455.24 322.17 447.1 321.466 437.561 321.466H430.43V346.452ZM423.497 315.445H441.577C454.034 315.445 462.167 320.764 462.167 333.608C462.167 342.641 455.24 348.657 446.598 349.765V349.965C452.226 350.667 453.431 353.679 455.64 358.392L467.591 385.487H459.958L449.811 361.806C445.798 352.775 442.781 352.473 436.153 352.473H430.43V385.487H423.497V315.445Z"></path>
</g>
</g>
<path fill="url(#paint0_linear_347_7238)" d="M183.374 279.878C163.961 302.696 155.966 326.086 154.82 339.207C152.537 381.418 183.945 397.39 195.936 405.953C186.798 399.107 180.518 373.056 191.369 347.954C202.217 322.855 224.294 308.025 227.912 275.318C231.339 242.798 210.784 209.71 210.784 209.71C215.35 247.93 202.789 257.059 183.374 279.878Z"></path>
<path fill="url(#paint1_linear_347_7238)" d="M160.532 287.103C142.535 303.083 135.026 323.99 136.172 337.682C137.311 368.866 166.625 389.404 166.625 389.404C153.3 373.431 144.926 349.092 149.113 325.512C153.3 301.935 179.187 274.552 190.989 260.479C186.801 265.045 181.089 268.849 160.532 287.103Z"></path>
<path fill="url(#paint2_linear_347_7238)" d="M226.013 307.256C218.398 324.754 202.409 343.767 197.841 352.512C184.516 381.417 202.789 408.04 202.789 408.04C253.04 405.758 262.556 366.587 264.46 345.673C260.651 355.938 250.755 365.445 243.903 369.633C265.604 331.979 246.57 283.299 234.768 266.943C235.147 279.114 233.624 289.761 226.013 307.256Z"></path>
<path fill="url(#paint3_linear_347_7238)" d="M206.214 362.403C193.063 383.049 204.694 403.854 204.694 403.854C224.107 400.435 231.341 390.166 235.147 382.179C229.435 385.98 225.248 388.266 218.398 389.406C234.768 368.108 235.53 343.006 234.386 323.991C227.914 342.245 216.873 345.673 206.214 362.403Z"></path>
<path fill="url(#paint4_linear_347_7238)" d="M175.761 318.288C152.537 356.699 185.568 394.114 185.568 394.114C174.907 373.96 178.7 345.405 195.044 324.178C219.949 291.835 216.904 277.599 216.904 248.573C212.341 288.793 191.747 290.524 175.761 318.288Z"></path>
<path fill="url(#paint5_linear_347_7238)" d="M175.069 314.658C156.591 351.097 173.153 381.934 190.281 399.637C148.046 348.74 187.846 307.022 208 278.959C235.767 240.303 226.5 213.38 226.5 213.38C232.81 260.074 191.907 281.466 175.069 314.658Z"></path>
<path fill-opacity="0.941" fill="#66666F" d="M267.782 240.527C262.822 240.527 258.574 242.281 255.04 245.787C251.552 249.272 249.81 253.492 249.81 258.448C249.81 263.427 251.552 267.672 255.04 271.179C258.528 274.685 262.775 276.439 267.782 276.439C272.768 276.439 277.016 274.685 280.526 271.179C284.014 267.671 285.756 263.427 285.756 258.448C285.756 253.492 284.012 249.272 280.526 245.789C276.993 242.281 272.745 240.527 267.782 240.527ZM288.002 258.412C288.002 264.001 286.026 268.782 282.071 272.756C278.115 276.707 273.341 278.681 267.749 278.681C262.131 278.681 257.357 276.707 253.426 272.756C249.517 268.805 247.562 264.023 247.562 258.414C247.562 252.849 249.541 248.102 253.495 244.173C257.426 240.246 262.178 238.281 267.749 238.281C273.341 238.281 278.115 240.246 282.071 244.173C286.026 248.102 288.002 252.847 288.002 258.412ZM272.276 254.066C272.276 252.265 271.815 251.056 270.89 250.437C269.964 249.815 268.485 249.506 266.45 249.506H263.29V258.485H266.625C268.168 258.485 269.338 258.298 270.135 257.922C271.562 257.246 272.276 255.96 272.276 254.066ZM258.796 247.262H266.871C269.749 247.262 271.855 247.531 273.19 248.07C275.576 249.051 276.77 250.979 276.77 253.855C276.77 255.889 275.951 257.385 274.312 258.343C273.446 258.835 272.241 259.197 270.697 259.431C272.804 259.712 274.342 260.436 275.313 261.606C276.283 262.774 276.77 263.908 276.77 265.006V269.706H272.487C272.463 269.632 272.445 269.556 272.435 269.478C272.422 269.39 272.404 269.302 272.382 269.216L272.276 268.479V266.691C272.276 264.048 271.621 262.307 270.31 261.466C269.515 260.974 268.146 260.728 266.204 260.728H263.288V269.706H258.796V247.262Z" clip-rule="evenodd" fill-rule="evenodd"></path>
</g>
</g>
<defs>
<linearGradient gradientUnits="userSpaceOnUse" y2="226.698" x2="191.501" y1="443.262" x1="191.501" id="paint0_linear_347_7238">
<stop stop-color="white"></stop>
<stop stop-color="#FFDD00" offset="0.14691"></stop>
<stop stop-color="#FFDD00" offset="0.24176"></stop>
<stop stop-color="#FFDD00" offset="0.32395"></stop>
<stop stop-color="#DE101A" offset="0.62088"></stop>
<stop stop-color="#E20D18" offset="1"></stop>
</linearGradient>
<linearGradient gradientUnits="userSpaceOnUse" y2="247.233" x2="163.521" y1="411.517" x1="163.521" id="paint1_linear_347_7238">
<stop stop-color="white"></stop>
<stop stop-color="#FFDD00" offset="0.14691"></stop>
<stop stop-color="#FFDD00" offset="0.24176"></stop>
<stop stop-color="#FFDD00" offset="0.32395"></stop>
<stop stop-color="#DE101A" offset="0.62088"></stop>
<stop stop-color="#E20D18" offset="1"></stop>
</linearGradient>
<linearGradient gradientUnits="userSpaceOnUse" y2="216.428" x2="228.717" y1="443.261" x1="228.717" id="paint2_linear_347_7238">
<stop stop-color="white"></stop>
<stop stop-color="#FFDD00" offset="0.14691"></stop>
<stop stop-color="#FFDD00" offset="0.24176"></stop>
<stop stop-color="#FFDD00" offset="0.32395"></stop>
<stop stop-color="#DE101A" offset="0.62088"></stop>
<stop stop-color="#E20D18" offset="1"></stop>
</linearGradient>
<linearGradient gradientUnits="userSpaceOnUse" y2="301.993" x2="217.547" y1="402.958" x1="217.547" id="paint3_linear_347_7238">
<stop stop-color="#FFFCED"></stop>
<stop stop-color="#FFFCED" offset="0.01049"></stop>
<stop stop-color="#FFE200" offset="0.75275"></stop>
<stop stop-color="#FFE200" offset="0.90558"></stop>
<stop stop-color="#EC7302" offset="1"></stop>
</linearGradient>
<linearGradient gradientUnits="userSpaceOnUse" y2="164.124" x2="192.252" y1="386.758" x1="192.252" id="paint4_linear_347_7238">
<stop stop-color="white"></stop>
<stop stop-color="#FFE200" offset="0.14691"></stop>
<stop stop-color="#FFE200" offset="0.24176"></stop>
<stop stop-color="#FFE200" offset="0.32395"></stop>
<stop stop-color="#DE101A" offset="0.62088"></stop>
<stop stop-color="#E20D18" offset="1"></stop>
</linearGradient>
<linearGradient gradientUnits="userSpaceOnUse" y2="237.652" x2="197.474" y1="390.786" x1="197.474" id="paint5_linear_347_7238">
<stop stop-color="#FFFCED"></stop>
<stop stop-color="#FFFCED" offset="0.00965"></stop>
<stop stop-color="#FFE200" offset="0.69231"></stop>
<stop stop-color="#F49700" offset="0.94858"></stop>
<stop stop-color="#F49700" offset="1"></stop>
</linearGradient>
</defs>
</svg>
