<svg xmlns="http://www.w3.org/2000/svg" fill="none" viewBox="0 0 586 110" height="110" width="586">
<g clip-path="url(#clip0_611_10737)">
<mask height="327" width="423" y="-108" x="187" maskUnits="userSpaceOnUse" style="mask-type:luminance" id="mask0_611_10737">
<path fill="white" d="M187.712 -107.582H609.704V218.983H187.712V-107.582Z"></path>
</mask>
<g mask="url(#mask0_611_10737)">
<path fill="#737373" d="M380.868 34.5065L379.03 39.6621H378.93C378.606 38.4482 378.058 36.7406 377.203 34.5625L367.357 9.87158H357.759V49.1341H364.097V24.995C364.097 23.5094 364.06 21.7053 363.998 19.6456C363.973 18.6003 363.848 17.7705 363.816 17.1366H363.96C364.202 18.2704 364.502 19.3912 364.858 20.4946L376.643 49.1336H381.074L392.779 20.2293C393.034 19.5741 393.327 18.2881 393.582 17.1366H393.719C393.575 19.9956 393.439 22.6039 393.426 24.1866V49.1336H400.176V9.87158H390.952L380.868 34.5065ZM406.545 49.1336H413.164V20.9999H406.545V49.1336ZM409.923 9.04181C408.833 9.04181 407.879 9.41 407.106 10.1464C406.321 10.8827 405.928 11.8128 405.928 12.9019C405.928 13.9819 406.321 14.8901 407.094 15.6137C407.866 16.3287 408.82 16.6873 409.923 16.6873C411.033 16.6873 411.986 16.3287 412.772 15.6137C413.544 14.8901 413.943 13.9819 413.943 12.9019C413.943 11.8475 413.557 10.9329 412.79 10.1747C412.03 9.42228 411.076 9.04181 409.923 9.04181ZM436.56 20.7133C435.343 20.456 434.102 20.3242 432.858 20.3201C429.835 20.3201 427.13 20.9721 424.825 22.2586C422.525 23.5441 420.742 25.3786 419.527 27.7131C418.318 30.0439 417.701 32.7626 417.701 35.8052C417.701 38.461 418.306 40.8948 419.471 43.0457C420.649 45.2015 422.313 46.8877 424.42 48.0477C426.526 49.2184 428.95 49.8113 431.649 49.8113C434.791 49.8113 437.458 49.1838 439.614 47.9479L439.714 47.8978V41.828L439.434 42.0308C438.441 42.7479 437.349 43.3168 436.193 43.7197C435.027 44.1316 433.961 44.3312 433.026 44.3312C430.427 44.3312 428.34 43.5233 426.837 41.9182C425.329 40.3174 424.563 38.0613 424.563 35.2311C424.563 32.3726 425.348 30.0658 426.944 28.3583C428.508 26.6587 430.596 25.8002 433.132 25.8002C435.307 25.8002 437.426 26.5333 439.434 27.9944L439.714 28.1966V21.8024L439.614 21.7523C438.86 21.3307 437.825 20.9817 436.56 20.7133ZM458.335 20.5095C456.665 20.5095 455.182 21.0442 453.917 22.0927C452.796 23.0196 451.991 24.2895 451.374 25.8653H451.306V21.0004H444.699V49.1341H451.306V34.7439C451.306 32.2877 451.854 30.2846 452.951 28.7649C454.017 27.2638 455.462 26.5019 457.226 26.5019C457.818 26.5019 458.479 26.6022 459.209 26.7985C459.924 26.989 460.443 27.2041 460.747 27.4229L461.029 27.6224V20.947L460.928 20.8974C460.311 20.6381 459.432 20.51 458.335 20.51M481.545 41.9838C480.298 43.5414 478.429 44.3306 475.985 44.3306C473.561 44.3306 471.642 43.5292 470.302 41.9401C468.931 40.3393 468.245 38.0608 468.245 35.174C468.245 32.1885 468.931 29.854 470.302 28.2313C471.642 26.6145 473.536 25.8002 475.93 25.8002C478.248 25.8002 480.099 26.5803 481.421 28.1246C482.747 29.6789 483.427 31.991 483.427 35.0123C483.427 38.0608 482.791 40.415 481.545 41.9838ZM476.272 20.3142C471.655 20.3142 467.977 21.6776 465.353 24.3616C462.729 27.0349 461.396 30.7526 461.396 35.3901C461.396 39.7961 462.698 43.3387 465.254 45.9224C467.809 48.5029 471.299 49.8113 475.606 49.8113C480.087 49.8113 483.708 48.4378 486.331 45.7132C488.943 42.9955 490.277 39.326 490.277 34.7935C490.277 30.3193 489.037 26.7484 486.568 24.1866C484.112 21.6146 480.648 20.3142 476.272 20.3142ZM504.935 32.6218C502.847 31.7856 501.513 31.086 500.964 30.5562C500.435 30.0381 500.167 29.314 500.167 28.393C500.167 27.5728 500.492 26.9234 501.19 26.3839C501.875 25.8498 502.828 25.5819 504.024 25.5819C505.146 25.5819 506.293 25.7532 507.421 26.1027C508.543 26.4496 509.552 26.9047 510.382 27.4789L510.65 27.663V21.5431L510.538 21.5025C509.79 21.1685 508.767 20.8878 507.546 20.6568C506.324 20.4321 505.203 20.3195 504.249 20.3195C501.09 20.3195 498.484 21.1279 496.503 22.717C494.495 24.3173 493.474 26.4176 493.474 28.9612C493.474 30.2846 493.697 31.4516 494.128 32.4473C494.565 33.4456 495.237 34.3293 496.134 35.0689C497.007 35.7988 498.372 36.5635 500.192 37.3442C501.719 37.9706 502.847 38.4983 503.576 38.9194C504.286 39.3281 504.779 39.74 505.066 40.1429C505.34 40.5426 505.483 41.0756 505.483 41.7373C505.483 43.6321 504.068 44.5521 501.164 44.5521C500.08 44.5521 498.845 44.3274 497.5 43.8845C496.163 43.4418 494.9 42.8001 493.754 41.9812L493.474 41.7784V48.2291L493.574 48.2788C494.527 48.719 495.717 49.0866 497.132 49.3678C498.534 49.6672 499.812 49.8113 500.908 49.8113C504.343 49.8113 507.097 48.9965 509.092 47.3983C511.123 45.7852 512.146 43.6354 512.146 41.0047C512.146 39.1099 511.59 37.484 510.506 36.1697C509.415 34.8661 507.546 33.6767 504.935 32.6218ZM535.174 41.9838C533.927 43.5414 532.058 44.3306 529.621 44.3306C527.191 44.3306 525.271 43.5292 523.925 41.9401C522.56 40.3393 521.874 38.0608 521.874 35.174C521.874 32.1885 522.56 29.854 523.924 28.2313C525.271 26.6145 527.166 25.8002 529.558 25.8002C531.889 25.8002 533.728 26.5803 535.049 28.1246C536.383 29.6789 537.055 31.991 537.055 35.0123C537.055 38.0608 536.42 40.415 535.174 41.9838ZM529.914 20.3142C525.283 20.3142 521.606 21.6776 518.982 24.3616C516.358 27.0349 515.025 30.7526 515.025 35.3901C515.025 39.7961 516.327 43.3387 518.883 45.9224C521.438 48.5029 524.928 49.8113 529.229 49.8113C533.728 49.8113 537.337 48.4378 539.96 45.7132C542.584 42.9955 543.905 39.326 543.905 34.7935C543.905 30.3193 542.665 26.7484 540.197 24.1866C537.741 21.6146 534.276 20.3142 529.914 20.3142ZM579.149 26.393V21.0004H572.455V12.6052L572.232 12.6746L565.943 14.5993L565.818 14.6372V21.0004H555.902V17.4546C555.902 15.8042 556.276 14.5433 556.993 13.7007C557.722 12.8704 558.751 12.4494 560.066 12.4494C561.006 12.4494 561.991 12.6682 562.97 13.1111L563.213 13.2178V7.53385L563.101 7.4965C562.185 7.16033 560.938 6.99704 559.379 6.99704C557.429 6.99704 555.659 7.41859 554.114 8.26435C552.562 9.10745 551.341 10.3081 550.486 11.847C549.639 13.3731 549.209 15.1425 549.209 17.103V21.0004H544.547V26.393H549.21V49.1336H555.902V26.393H565.818V40.8451C565.818 46.7905 568.622 49.8113 574.144 49.8113C575.054 49.8113 576.02 49.7051 576.992 49.4991C577.983 49.283 578.663 49.0712 579.055 48.8401L579.149 48.7905V43.3387L578.881 43.5233C578.519 43.7597 578.058 43.9624 577.535 44.106C576.992 44.2586 576.556 44.3306 576.207 44.3306C574.911 44.3306 573.957 43.9843 573.365 43.2981C572.754 42.5991 572.455 41.3851 572.455 39.6776V26.393H579.149Z"></path>
<path fill="#F1511B" d="M280.188 54.1938H236.059V9.99012H280.188V54.1938Z"></path>
<path fill="#80CC28" d="M328.909 54.1938H284.771V9.99012H328.909V54.1938Z"></path>
<path fill="#00ADEF" d="M280.188 103.018H236.059V58.8053H280.188V103.018Z"></path>
<path fill="#FBBC09" d="M328.909 103.018H284.771V58.8053H328.909V103.018Z"></path>
<path fill="#737373" d="M379.787 87.2212L374.302 71.4372C374.137 70.9234 373.963 70.0952 373.78 68.9549H373.669C373.502 70.0034 373.319 70.83 373.117 71.4372L367.69 87.2212H379.787ZM392.267 102.646H385.075L381.521 92.5738H365.981L362.566 102.646H355.401L370.198 63.0767H377.581L392.267 102.646ZM416.679 77.0667L401.444 97.6521H416.624V102.647H392.488V100.245L408.056 79.3858H393.975V74.3907H416.679L416.679 77.0667ZM445.531 102.646H439.139V98.1756H439.028C437.172 101.598 434.289 103.309 430.377 103.309C423.71 103.309 420.375 99.2988 420.375 91.2782V74.3913H426.767V90.6155C426.767 95.6932 428.723 98.2316 432.636 98.2316C434.528 98.2316 436.084 97.5326 437.305 96.1345C438.528 94.737 439.139 92.9062 439.139 90.6427V74.3907H445.531V102.646ZM469.086 80.4887C468.315 79.8815 467.205 79.5789 465.754 79.5789C463.862 79.5789 462.283 80.4332 461.016 82.1456C459.748 83.8552 459.115 86.1818 459.115 89.1262V102.646H452.722V74.3907H459.115V80.2123H459.223C459.847 78.2257 460.807 76.6762 462.103 75.5647C463.399 74.451 464.844 73.8945 466.442 73.8945C467.599 73.8945 468.481 74.069 469.086 74.419V80.4887ZM489.698 85.7319C489.679 83.4321 489.137 81.6429 488.072 80.3649C487.007 79.087 485.539 78.4466 483.664 78.4466C481.827 78.4466 480.27 79.119 478.994 80.4605C477.718 81.8051 476.932 83.5618 476.639 85.7325L489.698 85.7319ZM495.871 90.2569H476.638C476.71 92.8683 477.515 94.8832 479.049 96.3C480.584 97.7172 482.69 98.4242 485.372 98.4242C488.385 98.4242 491.149 97.524 493.665 95.721V100.881C491.093 102.499 487.694 103.309 483.472 103.309C479.318 103.309 476.064 102.025 473.703 99.4594C471.342 96.8933 470.163 93.2824 470.163 88.6283C470.163 84.2325 471.461 80.6499 474.061 77.8816C476.661 75.1121 479.89 73.7285 483.747 73.7285C487.603 73.7285 490.589 74.9702 492.703 77.4531C494.814 79.937 495.871 83.3867 495.871 87.8002V90.2569Z"></path>
</g>
</g>
<g clip-path="url(#clip1_611_10737)">
<path fill="#161D26" d="M44.5219 42.1194C44.5219 44.0745 44.7215 45.627 45.1208 46.7823C45.5201 47.9428 46.0876 49.1922 46.8231 50.5356C47.0648 50.9643 47.1909 51.3563 47.1909 51.7222C47.1909 52.2711 46.8546 52.7886 46.1769 53.28L42.8669 55.4756C42.3783 55.7787 41.916 55.9356 41.4904 55.9356C40.9387 55.9356 40.4186 55.6951 39.93 55.2037C39.1945 54.4719 38.564 53.6616 38.0439 52.7782C37.5237 51.8948 36.9878 50.8754 36.4362 49.7149C32.3276 54.5346 27.1788 56.9445 20.9898 56.9445C16.5765 56.9445 13.0827 55.6951 10.5083 53.1912C7.93386 50.6924 6.64666 47.3364 6.64666 43.1283C6.64666 38.6798 8.23858 35.0937 11.4277 32.3807C14.6115 29.6676 18.904 28.3085 24.2997 28.3085C26.0755 28.3085 27.9301 28.4444 29.8636 28.7215C31.797 28.9985 33.804 29.3801 35.8845 29.8663V26.0241C35.8845 22.0617 35.0544 19.2702 33.4047 17.655C31.7497 16.0397 28.8968 15.2294 24.8514 15.2294C23.0125 15.2294 21.1264 15.4594 19.1982 15.9142C17.27 16.3742 15.3839 16.9649 13.545 17.6968C12.6886 18.0627 12.0739 18.2927 11.7061 18.3816C11.3384 18.4704 11.0652 18.5175 10.8813 18.5175C10.1457 18.5175 9.77797 17.9686 9.77797 16.8708V14.3094C9.77797 13.4573 9.89881 12.8457 10.1457 12.4798C10.3874 12.1139 10.8813 11.7479 11.6168 11.382C13.4557 10.4672 15.6623 9.67787 18.2367 9.00353C20.8111 8.33441 23.5379 7.99463 26.417 7.99463C32.6691 7.99463 37.2505 9.41127 40.1612 12.2498C43.0718 15.0831 44.5271 19.3696 44.5271 25.1041V42.1194H44.5219ZM23.1911 50.0808C24.9092 50.0808 26.7165 49.762 28.6184 49.119C30.5203 48.4812 32.17 47.3678 33.5833 45.7786C34.4397 44.8063 35.0386 43.6877 35.3749 42.4383C35.7111 41.1889 35.8793 39.6782 35.8793 37.9113V35.7158C34.3451 35.3499 32.7374 35.0624 31.0509 34.848C29.3644 34.6337 27.7252 34.5292 26.1333 34.5292C22.6395 34.5292 20.0335 35.2296 18.3155 36.6306C16.5975 38.0368 15.7411 40.0494 15.7411 42.6683C15.7411 45.1095 16.3874 46.9548 17.6693 48.2042C18.9565 49.4535 20.7954 50.0808 23.1859 50.0808H23.1911ZM65.3956 55.7526C64.4761 55.7526 63.7984 55.5853 63.3728 55.2508C62.942 54.9162 62.5742 54.2314 62.2695 53.1912L49.9492 12.7568C49.6392 11.7218 49.4921 11.0161 49.4921 10.6554C49.4921 9.80333 49.9176 9.37468 50.7793 9.37468H55.9281C56.9053 9.37468 57.5988 9.54195 57.9981 9.87651C58.3974 10.2111 58.7494 10.9011 59.0541 11.9361L67.8806 46.5157L76.0609 11.9361C76.3026 10.9011 76.6441 10.2163 77.0749 9.87651C77.5005 9.54195 78.2098 9.37468 79.187 9.37468H83.4164C84.3989 9.37468 85.1029 9.54195 85.5337 9.87651C85.9593 10.2111 86.3008 10.9011 86.5424 11.9361L94.8173 46.9757L103.917 11.9309C104.222 10.8959 104.574 10.2111 104.973 9.87128C105.372 9.53673 106.061 9.36945 107.043 9.36945H111.913C112.77 9.36945 113.201 9.7981 113.201 10.6502C113.201 10.8959 113.169 11.1677 113.111 11.4709C113.048 11.7793 112.927 12.2027 112.744 12.7516L100.055 53.1859C99.7454 54.2262 99.3777 54.911 98.9521 55.2455C98.5213 55.5801 97.8488 55.7474 96.9294 55.7474H92.4215C91.4391 55.7474 90.735 55.5644 90.3042 55.1985C89.8734 54.8326 89.5372 54.1321 89.2955 53.0918L81.1099 19.4271L73.0189 53.0918C72.772 54.1321 72.4358 54.8326 72.0102 55.1985C71.5794 55.5644 70.8754 55.7474 69.8929 55.7474H65.3851L65.3956 55.7526ZM132.882 57.1274C130.123 57.1274 127.428 56.8242 124.791 56.2126C122.153 55.6062 120.131 54.9005 118.722 54.106C117.866 53.6198 117.325 53.1337 117.115 52.6423C116.899 52.1561 116.794 51.67 116.794 51.1786V48.523C116.794 47.4253 117.194 46.8764 117.992 46.8764C118.297 46.8764 118.617 46.9391 118.959 47.0594C119.295 47.1848 119.742 47.3678 120.293 47.6082C122.069 48.4028 124.003 49.0144 126.083 49.4378C128.164 49.8665 130.249 50.0808 132.335 50.0808C135.645 50.0808 138.204 49.5006 140.011 48.3401C141.819 47.1848 142.722 45.5329 142.722 43.4001C142.722 41.9365 142.249 40.7185 141.298 39.7409C140.347 38.7634 138.587 37.8486 136.013 36.9965L128.379 34.618C124.517 33.4 121.712 31.6332 119.968 29.3122C118.223 26.9964 117.346 24.4663 117.346 21.7219C117.346 19.5264 117.819 17.5922 118.77 15.9142C119.721 14.2362 120.976 12.8039 122.537 11.612C124.097 10.4254 125.926 9.52104 128.006 8.91466C130.087 8.30828 132.293 7.99986 134.626 7.99986C135.787 7.99986 136.969 8.07827 138.167 8.22986C139.365 8.38146 140.495 8.5801 141.566 8.82579C142.638 9.07148 143.636 9.34331 144.556 9.6465C145.475 9.95492 146.211 10.2581 146.762 10.5613C147.498 10.99 148.018 11.4186 148.328 11.842C148.633 12.2707 148.785 12.8457 148.785 13.5828V16.0501C148.785 17.1479 148.386 17.6968 147.587 17.6968C147.156 17.6968 146.484 17.4824 145.565 17.0538C142.559 15.7156 139.186 15.0412 135.451 15.0412C132.446 15.0412 130.118 15.5326 128.463 16.5049C126.808 17.4825 125.983 19.035 125.983 21.173C125.983 22.6367 126.503 23.8704 127.544 24.8793C128.584 25.883 130.517 26.8448 133.339 27.7596L140.784 30.1381C144.582 31.3613 147.298 33.0341 148.922 35.1721C150.545 37.3049 151.36 39.7462 151.36 42.4906C151.36 44.7488 150.902 46.7771 149.983 48.5753C149.064 50.3736 147.792 51.9157 146.169 53.1964C144.545 54.4771 142.596 55.4546 140.332 56.1238C138.062 56.7929 135.582 57.1274 132.887 57.1274H132.882ZM140.305 78.5234C120.913 86.7096 99.8348 90.6667 80.6633 90.6667C52.2398 90.6667 24.7253 82.9092 2.47508 70.0235C0.525886 68.8944 -0.913678 70.8861 0.704518 72.3393C21.3313 90.8706 48.5831 102 78.8508 102C100.444 102 125.526 95.246 142.822 82.5433C145.685 80.4366 143.232 77.2897 140.305 78.5234ZM145.465 93.9914C144.834 95.5596 146.19 96.1922 147.619 95.0055C156.897 87.2794 159.298 71.0952 157.396 68.7585C155.51 66.4427 139.286 64.4459 129.383 71.3618C127.859 72.4229 128.122 73.8919 129.813 73.6932C135.393 73.0293 147.803 71.5447 150.015 74.3623C152.232 77.1852 147.556 88.8005 145.465 93.9862V93.9914Z"></path>
</g>
<defs>
<clipPath id="clip0_611_10737">
<rect transform="translate(229)" fill="white" height="110" width="357"></rect>
</clipPath>
<clipPath id="clip1_611_10737">
<rect transform="translate(0 8)" fill="white" height="94" width="158"></rect>
</clipPath>
</defs>
</svg>
